<?xml version="1.0" encoding="us-ascii" standalone="no"?><svg xmlns="http://www.w3.org/2000/svg" xmlns:xlink="http://www.w3.org/1999/xlink" contentStyleType="text/css" height="847px" preserveAspectRatio="none" style="width:657px;height:847px;background:#FFFFFF;" version="1.1" viewBox="0 0 657 847" width="657px" zoomAndPan="magnify"><defs/><g><!--class ParserUtil--><g id="elem_ParserUtil"><rect codeLine="1" fill="#F1F1F1" height="66.6211" id="ParserUtil" rx="2.5" ry="2.5" style="stroke:#181818;stroke-width:0.5;" width="208" x="242" y="134"/><ellipse cx="310.75" cy="150" fill="#B4A7E5" rx="11" ry="11" style="stroke:#181818;stroke-width:1.0;"/><path d="M311.7031,146.6406 L311.7031,153.2969 L313.4219,153.2969 Q314.0313,153.2969 314.2969,153.5313 Q314.5625,153.7656 314.5625,154.1563 Q314.5625,154.5313 314.2969,154.7656 Q314.0313,155 313.4219,155 L308.2813,155 Q307.6719,155 307.4063,154.7656 Q307.1406,154.5313 307.1406,154.1406 Q307.1406,153.7656 307.4063,153.5313 Q307.6719,153.2969 308.2813,153.2969 L310,153.2969 L310,146.6406 L308.2813,146.6406 Q307.6719,146.6406 307.4063,146.4063 Q307.1406,146.1719 307.1406,145.7813 Q307.1406,145.4063 307.4063,145.1719 Q307.6719,144.9375 308.2813,144.9375 L313.4219,144.9375 Q314.0313,144.9375 314.2969,145.1719 Q314.5625,145.4063 314.5625,145.7813 Q314.5625,146.1719 314.2969,146.4063 Q314.0313,146.6406 313.4219,146.6406 L311.7031,146.6406 Z " fill="#000000"/><text fill="#000000" font-family="sans-serif" font-size="14" font-style="italic" lengthAdjust="spacing" textLength="62" x="331.25" y="155.7969">ParserUtil</text><line style="stroke:#181818;stroke-width:0.5;" x1="243" x2="449" y1="166" y2="166"/><line style="stroke:#181818;stroke-width:0.5;" x1="243" x2="449" y1="174" y2="174"/><ellipse cx="253" cy="188.8105" fill="#84BE84" rx="3" ry="3" style="stroke:#038048;stroke-width:1.0;"/><text fill="#000000" font-family="sans-serif" font-size="14" lengthAdjust="spacing" textLength="182" x="262" y="193.1074">parseCommand(): Command</text></g><!--class Parser--><g id="elem_Parser"><rect codeLine="5" fill="#F1F1F1" height="141.1055" id="Parser" rx="2.5" ry="2.5" style="stroke:#181818;stroke-width:0.5;" width="452" x="16" y="262"/><ellipse cx="216.75" cy="278" fill="#ADD1B2" rx="11" ry="11" style="stroke:#181818;stroke-width:1.0;"/><path d="M219.5156,273.875 Q219.6719,273.6563 219.8594,273.5469 Q220.0469,273.4375 220.2656,273.4375 Q220.6406,273.4375 220.875,273.7031 Q221.1094,273.9531 221.1094,274.5625 L221.1094,276.0156 Q221.1094,276.625 220.875,276.8906 Q220.6406,277.1563 220.2656,277.1563 Q219.9219,277.1563 219.7188,276.9531 Q219.5156,276.7656 219.4063,276.25 Q219.3594,275.8906 219.1719,275.7031 Q218.8438,275.3281 218.2344,275.1094 Q217.625,274.8906 217,274.8906 Q216.2344,274.8906 215.5938,275.2188 Q214.9688,275.5469 214.4688,276.2969 Q213.9844,277.0469 213.9844,278.0781 L213.9844,279.1719 Q213.9844,280.4063 214.875,281.2344 Q215.7656,282.0469 217.3594,282.0469 Q218.2969,282.0469 218.9531,281.7969 Q219.3438,281.6406 219.7656,281.2031 Q220.0313,280.9375 220.1719,280.8594 Q220.3281,280.7813 220.5313,280.7813 Q220.8594,280.7813 221.1094,281.0469 Q221.375,281.2969 221.375,281.6406 Q221.375,281.9844 221.0313,282.3906 Q220.5313,282.9688 219.7344,283.2969 Q218.6563,283.75 217.3594,283.75 Q215.8438,283.75 214.6406,283.125 Q213.6563,282.625 212.9688,281.5625 Q212.2813,280.4844 212.2813,279.2031 L212.2813,278.0469 Q212.2813,276.7188 212.8906,275.5781 Q213.5156,274.4219 214.6094,273.8125 Q215.7031,273.1875 216.9375,273.1875 Q217.6719,273.1875 218.3125,273.3594 Q218.9688,273.5156 219.5156,273.875 Z " fill="#000000"/><text fill="#000000" font-family="sans-serif" font-size="14" lengthAdjust="spacing" textLength="42" x="237.25" y="283.7969">Parser</text><line style="stroke:#181818;stroke-width:0.5;" x1="17" x2="467" y1="294" y2="294"/><rect fill="none" height="6" style="stroke:#C82930;stroke-width:1.0;" width="6" x="24" y="305.8105"/><text fill="#000000" font-family="sans-serif" font-size="14" lengthAdjust="spacing" text-decoration="underline" textLength="139" x="36" y="313.1074">INPUT_REGEX: String</text><line style="stroke:#181818;stroke-width:0.5;" x1="17" x2="467" y1="320.6211" y2="320.6211"/><ellipse cx="27" cy="335.4316" fill="#84BE84" rx="3" ry="3" style="stroke:#038048;stroke-width:1.0;"/><text fill="#000000" font-family="sans-serif" font-size="14" lengthAdjust="spacing" textLength="182" x="36" y="339.7285">parseCommand(): Command</text><rect fill="#F24D5C" height="6" style="stroke:#C82930;stroke-width:1.0;" width="6" x="24" y="351.0527"/><text fill="#000000" font-family="sans-serif" font-size="14" lengthAdjust="spacing" textLength="221" x="36" y="358.3496">prepareXYZCommand(): Command</text><rect fill="#F24D5C" height="6" style="stroke:#C82930;stroke-width:1.0;" width="6" x="24" y="369.6738"/><text fill="#000000" font-family="sans-serif" font-size="14" lengthAdjust="spacing" textLength="265" x="36" y="376.9707">parsePriceToFloat(priceText: String): float</text><rect fill="#F24D5C" height="6" style="stroke:#C82930;stroke-width:1.0;" width="6" x="24" y="388.2949"/><text fill="#000000" font-family="sans-serif" font-size="14" lengthAdjust="spacing" textLength="426" x="36" y="395.5918">parseIngredient(ingredientsListString: String): ArrayList&lt;Ingredient&gt;</text></g><!--class Command--><g id="elem_Command"><rect codeLine="13" fill="#F1F1F1" height="66.6211" id="Command" rx="2.5" ry="2.5" style="stroke:#181818;stroke-width:0.5;" width="119" x="457.5" y="628"/><ellipse cx="482.85" cy="644" fill="#A9DCDF" rx="11" ry="11" style="stroke:#181818;stroke-width:1.0;"/><path d="M485.0375,645.7656 L480.8969,645.7656 L480.475,646.7969 L480.8969,646.7969 Q481.5063,646.7969 481.7719,647.0313 Q482.0375,647.2656 482.0375,647.6563 Q482.0375,648.0313 481.7719,648.2656 Q481.5063,648.5 480.8969,648.5 L478.6,648.5 Q477.9906,648.5 477.7406,648.2656 Q477.475,648.0313 477.475,647.6406 Q477.475,647.2656 477.7563,647.0313 Q478.0219,646.7813 478.6469,646.7969 L481.3188,640.1406 L480.2094,640.1406 Q479.6,640.1406 479.3344,639.9063 Q479.0688,639.6719 479.0688,639.2813 Q479.0688,638.9063 479.3344,638.6719 Q479.6,638.4375 480.2094,638.4375 L483.8813,638.4375 L487.2719,646.7969 Q487.8656,646.7969 488.0531,646.9375 Q488.4438,647.2031 488.4438,647.6563 Q488.4438,648.0313 488.1781,648.2656 Q487.9281,648.5 487.3188,648.5 L485.0219,648.5 Q484.4125,648.5 484.1469,648.2656 Q483.8813,648.0313 483.8813,647.6406 Q483.8813,647.2656 484.1469,647.0313 Q484.4125,646.7969 485.0219,646.7969 L485.4438,646.7969 L485.0375,645.7656 Z M484.3188,644.0625 L482.9594,640.6875 L481.5844,644.0625 L484.3188,644.0625 Z " fill="#000000"/><text fill="#000000" font-family="sans-serif" font-size="14" font-style="italic" lengthAdjust="spacing" textLength="64" x="499.15" y="649.7969">Command</text><line style="stroke:#181818;stroke-width:0.5;" x1="458.5" x2="575.5" y1="660" y2="660"/><line style="stroke:#181818;stroke-width:0.5;" x1="458.5" x2="575.5" y1="668" y2="668"/><ellipse cx="468.5" cy="682.8105" fill="#84BE84" rx="3" ry="3" style="stroke:#038048;stroke-width:1.0;"/><text fill="#000000" font-family="sans-serif" font-size="14" lengthAdjust="spacing" textLength="93" x="477.5" y="687.1074">execute(): void</text></g><!--class XYZCommand--><g id="elem_XYZCommand"><rect codeLine="17" fill="#F1F1F1" height="66.6211" id="XYZCommand" rx="2.5" ry="2.5" style="stroke:#181818;stroke-width:0.5;" width="121" x="288.5" y="482"/><ellipse cx="303.5" cy="498" fill="#ADD1B2" rx="11" ry="11" style="stroke:#181818;stroke-width:1.0;"/><path d="M306.2656,493.875 Q306.4219,493.6563 306.6094,493.5469 Q306.7969,493.4375 307.0156,493.4375 Q307.3906,493.4375 307.625,493.7031 Q307.8594,493.9531 307.8594,494.5625 L307.8594,496.0156 Q307.8594,496.625 307.625,496.8906 Q307.3906,497.1563 307.0156,497.1563 Q306.6719,497.1563 306.4688,496.9531 Q306.2656,496.7656 306.1563,496.25 Q306.1094,495.8906 305.9219,495.7031 Q305.5938,495.3281 304.9844,495.1094 Q304.375,494.8906 303.75,494.8906 Q302.9844,494.8906 302.3438,495.2188 Q301.7188,495.5469 301.2188,496.2969 Q300.7344,497.0469 300.7344,498.0781 L300.7344,499.1719 Q300.7344,500.4063 301.625,501.2344 Q302.5156,502.0469 304.1094,502.0469 Q305.0469,502.0469 305.7031,501.7969 Q306.0938,501.6406 306.5156,501.2031 Q306.7813,500.9375 306.9219,500.8594 Q307.0781,500.7813 307.2813,500.7813 Q307.6094,500.7813 307.8594,501.0469 Q308.125,501.2969 308.125,501.6406 Q308.125,501.9844 307.7813,502.3906 Q307.2813,502.9688 306.4844,503.2969 Q305.4063,503.75 304.1094,503.75 Q302.5938,503.75 301.3906,503.125 Q300.4063,502.625 299.7188,501.5625 Q299.0313,500.4844 299.0313,499.2031 L299.0313,498.0469 Q299.0313,496.7188 299.6406,495.5781 Q300.2656,494.4219 301.3594,493.8125 Q302.4531,493.1875 303.6875,493.1875 Q304.4219,493.1875 305.0625,493.3594 Q305.7188,493.5156 306.2656,493.875 Z " fill="#000000"/><text fill="#000000" font-family="sans-serif" font-size="14" lengthAdjust="spacing" textLength="89" x="317.5" y="503.7969">XYZCommand</text><line style="stroke:#181818;stroke-width:0.5;" x1="289.5" x2="408.5" y1="514" y2="514"/><line style="stroke:#181818;stroke-width:0.5;" x1="289.5" x2="408.5" y1="522" y2="522"/><ellipse cx="299.5" cy="536.8105" fill="#84BE84" rx="3" ry="3" style="stroke:#038048;stroke-width:1.0;"/><text fill="#000000" font-family="sans-serif" font-size="14" lengthAdjust="spacing" textLength="93" x="308.5" y="541.1074">execute(): void</text></g><!--class Ui--><g id="elem_Ui"><rect codeLine="21" fill="#F1F1F1" height="66.6211" id="Ui" rx="2.5" ry="2.5" style="stroke:#181818;stroke-width:0.5;" width="266" x="384" y="774"/><ellipse cx="506.75" cy="790" fill="#ADD1B2" rx="11" ry="11" style="stroke:#181818;stroke-width:1.0;"/><path d="M509.5156,785.875 Q509.6719,785.6563 509.8594,785.5469 Q510.0469,785.4375 510.2656,785.4375 Q510.6406,785.4375 510.875,785.7031 Q511.1094,785.9531 511.1094,786.5625 L511.1094,788.0156 Q511.1094,788.625 510.875,788.8906 Q510.6406,789.1563 510.2656,789.1563 Q509.9219,789.1563 509.7188,788.9531 Q509.5156,788.7656 509.4063,788.25 Q509.3594,787.8906 509.1719,787.7031 Q508.8438,787.3281 508.2344,787.1094 Q507.625,786.8906 507,786.8906 Q506.2344,786.8906 505.5938,787.2188 Q504.9688,787.5469 504.4688,788.2969 Q503.9844,789.0469 503.9844,790.0781 L503.9844,791.1719 Q503.9844,792.4063 504.875,793.2344 Q505.7656,794.0469 507.3594,794.0469 Q508.2969,794.0469 508.9531,793.7969 Q509.3438,793.6406 509.7656,793.2031 Q510.0313,792.9375 510.1719,792.8594 Q510.3281,792.7813 510.5313,792.7813 Q510.8594,792.7813 511.1094,793.0469 Q511.375,793.2969 511.375,793.6406 Q511.375,793.9844 511.0313,794.3906 Q510.5313,794.9688 509.7344,795.2969 Q508.6563,795.75 507.3594,795.75 Q505.8438,795.75 504.6406,795.125 Q503.6563,794.625 502.9688,793.5625 Q502.2813,792.4844 502.2813,791.2031 L502.2813,790.0469 Q502.2813,788.7188 502.8906,787.5781 Q503.5156,786.4219 504.6094,785.8125 Q505.7031,785.1875 506.9375,785.1875 Q507.6719,785.1875 508.3125,785.3594 Q508.9688,785.5156 509.5156,785.875 Z " fill="#000000"/><text fill="#000000" font-family="sans-serif" font-size="14" lengthAdjust="spacing" textLength="12" x="527.25" y="795.7969">Ui</text><line style="stroke:#181818;stroke-width:0.5;" x1="385" x2="649" y1="806" y2="806"/><line style="stroke:#181818;stroke-width:0.5;" x1="385" x2="649" y1="814" y2="814"/><ellipse cx="395" cy="828.8105" fill="#84BE84" rx="3" ry="3" style="stroke:#038048;stroke-width:1.0;"/><text fill="#000000" font-family="sans-serif" font-size="14" lengthAdjust="spacing" textLength="240" x="404" y="833.1074">showToUser(textToShow: String): void</text></g><!--class CafeCtrl--><g id="elem_CafeCtrl"><rect fill="#F1F1F1" height="48" id="CafeCtrl" rx="2.5" ry="2.5" style="stroke:#181818;stroke-width:0.5;" width="84" x="418" y="7"/><ellipse cx="433" cy="23" fill="#ADD1B2" rx="11" ry="11" style="stroke:#181818;stroke-width:1.0;"/><path d="M435.7656,18.875 Q435.9219,18.6563 436.1094,18.5469 Q436.2969,18.4375 436.5156,18.4375 Q436.8906,18.4375 437.125,18.7031 Q437.3594,18.9531 437.3594,19.5625 L437.3594,21.0156 Q437.3594,21.625 437.125,21.8906 Q436.8906,22.1563 436.5156,22.1563 Q436.1719,22.1563 435.9688,21.9531 Q435.7656,21.7656 435.6563,21.25 Q435.6094,20.8906 435.4219,20.7031 Q435.0938,20.3281 434.4844,20.1094 Q433.875,19.8906 433.25,19.8906 Q432.4844,19.8906 431.8438,20.2188 Q431.2188,20.5469 430.7188,21.2969 Q430.2344,22.0469 430.2344,23.0781 L430.2344,24.1719 Q430.2344,25.4063 431.125,26.2344 Q432.0156,27.0469 433.6094,27.0469 Q434.5469,27.0469 435.2031,26.7969 Q435.5938,26.6406 436.0156,26.2031 Q436.2813,25.9375 436.4219,25.8594 Q436.5781,25.7813 436.7813,25.7813 Q437.1094,25.7813 437.3594,26.0469 Q437.625,26.2969 437.625,26.6406 Q437.625,26.9844 437.2813,27.3906 Q436.7813,27.9688 435.9844,28.2969 Q434.9063,28.75 433.6094,28.75 Q432.0938,28.75 430.8906,28.125 Q429.9063,27.625 429.2188,26.5625 Q428.5313,25.4844 428.5313,24.2031 L428.5313,23.0469 Q428.5313,21.7188 429.1406,20.5781 Q429.7656,19.4219 430.8594,18.8125 Q431.9531,18.1875 433.1875,18.1875 Q433.9219,18.1875 434.5625,18.3594 Q435.2188,18.5156 435.7656,18.875 Z " fill="#000000"/><text fill="#000000" font-family="sans-serif" font-size="14" lengthAdjust="spacing" textLength="52" x="447" y="28.7969">CafeCtrl</text><line style="stroke:#181818;stroke-width:0.5;" x1="419" x2="501" y1="39" y2="39"/><line style="stroke:#181818;stroke-width:0.5;" x1="419" x2="501" y1="47" y2="47"/></g><!--class data--><g id="elem_data"><rect fill="#F1F1F1" height="48" id="data" rx="2.5" ry="2.5" style="stroke:#181818;stroke-width:0.5;" width="60" x="319" y="637.5"/><ellipse cx="334" cy="653.5" fill="#ADD1B2" rx="11" ry="11" style="stroke:#181818;stroke-width:1.0;"/><path d="M336.7656,649.375 Q336.9219,649.1563 337.1094,649.0469 Q337.2969,648.9375 337.5156,648.9375 Q337.8906,648.9375 338.125,649.2031 Q338.3594,649.4531 338.3594,650.0625 L338.3594,651.5156 Q338.3594,652.125 338.125,652.3906 Q337.8906,652.6563 337.5156,652.6563 Q337.1719,652.6563 336.9688,652.4531 Q336.7656,652.2656 336.6563,651.75 Q336.6094,651.3906 336.4219,651.2031 Q336.0938,650.8281 335.4844,650.6094 Q334.875,650.3906 334.25,650.3906 Q333.4844,650.3906 332.8438,650.7188 Q332.2188,651.0469 331.7188,651.7969 Q331.2344,652.5469 331.2344,653.5781 L331.2344,654.6719 Q331.2344,655.9063 332.125,656.7344 Q333.0156,657.5469 334.6094,657.5469 Q335.5469,657.5469 336.2031,657.2969 Q336.5938,657.1406 337.0156,656.7031 Q337.2813,656.4375 337.4219,656.3594 Q337.5781,656.2813 337.7813,656.2813 Q338.1094,656.2813 338.3594,656.5469 Q338.625,656.7969 338.625,657.1406 Q338.625,657.4844 338.2813,657.8906 Q337.7813,658.4688 336.9844,658.7969 Q335.9063,659.25 334.6094,659.25 Q333.0938,659.25 331.8906,658.625 Q330.9063,658.125 330.2188,657.0625 Q329.5313,655.9844 329.5313,654.7031 L329.5313,653.5469 Q329.5313,652.2188 330.1406,651.0781 Q330.7656,649.9219 331.8594,649.3125 Q332.9531,648.6875 334.1875,648.6875 Q334.9219,648.6875 335.5625,648.8594 Q336.2188,649.0156 336.7656,649.375 Z " fill="#000000"/><text fill="#000000" font-family="sans-serif" font-size="14" lengthAdjust="spacing" textLength="28" x="348" y="659.2969">data</text><line style="stroke:#181818;stroke-width:0.5;" x1="320" x2="378" y1="669.5" y2="669.5"/><line style="stroke:#181818;stroke-width:0.5;" x1="320" x2="378" y1="677.5" y2="677.5"/></g><g id="elem_GMN15"><path d="M6,639 L6,683.582 A0,0 0 0 0 6,683.582 L284,683.582 A0,0 0 0 0 284,683.582 L284,665.5 L318.81,661.5 L284,657.5 L284,649 L274,639 L6,639 A0,0 0 0 0 6,639 " fill="#FEFFDD" style="stroke:#181818;stroke-width:0.5;"/><path d="M274,639 L274,649 L284,649 L274,639 " fill="#FEFFDD" style="stroke:#181818;stroke-width:0.5;"/><text fill="#000000" font-family="sans-serif" font-size="13" lengthAdjust="spacing" textLength="245" x="12" y="658.0283">Classes in data package: Dish, Ingredient,</text><text fill="#000000" font-family="sans-serif" font-size="13" lengthAdjust="spacing" textLength="257" x="12" y="675.3193">CurrentData, Menu, Order, Pantry and Sales</text></g><!--link CafeCtrl to ParserUtil--><g id="link_CafeCtrl_ParserUtil"><path codeLine="25" d="M440.4,55.12 C422,76.83 398.1807,104.944 377.5307,129.294 " fill="none" id="CafeCtrl-to-ParserUtil" style="stroke:#181818;stroke-width:1.0;stroke-dasharray:7.0,7.0;"/><polygon fill="#181818" points="373.65,133.87,382.5218,129.5931,376.8839,130.0566,376.4204,124.4188,373.65,133.87" style="stroke:#181818;stroke-width:1.0;"/><text fill="#000000" font-family="sans-serif" font-size="13" lengthAdjust="spacing" textLength="21" x="414" y="100.0283">use</text></g><!--link XYZCommand to Command--><g id="link_XYZCommand_Command"><path codeLine="26" d="M387.12,549.18 C414.62,572.74 437.9016,592.7078 465.3616,616.2378 " fill="none" id="XYZCommand-to-Command" style="stroke:#181818;stroke-width:1.0;"/><polygon fill="none" points="479.03,627.95,469.2657,611.6817,461.4576,620.7939,479.03,627.95" style="stroke:#181818;stroke-width:1.0;"/></g><!--link CafeCtrl to Command--><g id="link_CafeCtrl_Command"><path codeLine="27" d="M483.83,55.4 C506.76,80.53 538,122.77 538,166.5 C538,166.5 538,166.5 538,516.5 C538,555.03 531.769,592.8751 525.739,621.9351 " fill="none" id="CafeCtrl-to-Command" style="stroke:#181818;stroke-width:1.0;stroke-dasharray:7.0,7.0;"/><polygon fill="#181818" points="524.52,627.81,530.2651,619.8104,525.5359,622.9143,522.432,618.185,524.52,627.81" style="stroke:#181818;stroke-width:1.0;"/><text fill="#000000" font-family="sans-serif" font-size="13" lengthAdjust="spacing" textLength="46" x="539" y="338.0283">execute</text></g><!--reverse link ParserUtil to Parser--><g id="link_ParserUtil_Parser"><path codeLine="28" d="M315.5222,216.267 C304.3822,233.737 299.88,240.78 286.4,261.91 " fill="none" id="ParserUtil-backto-Parser" style="stroke:#181818;stroke-width:1.0;stroke-dasharray:7.0,7.0;"/><polygon fill="none" points="325.2,201.09,310.4632,213.041,320.5812,219.4929,325.2,201.09" style="stroke:#181818;stroke-width:1.0;"/></g><!--link Parser to XYZCommand--><g id="link_Parser_XYZCommand"><path codeLine="29" d="M283.22,403.22 C299.23,430.31 313.7371,454.8548 326.6871,476.7648 " fill="none" id="Parser-to-XYZCommand" style="stroke:#181818;stroke-width:1.0;stroke-dasharray:7.0,7.0;"/><polygon fill="#181818" points="329.74,481.93,328.6041,472.1469,327.1959,477.6256,321.7171,476.2174,329.74,481.93" style="stroke:#181818;stroke-width:1.0;"/><text fill="#000000" font-family="sans-serif" font-size="13" lengthAdjust="spacing" textLength="36" x="312" y="448.0283">create</text></g><!--reverse link XYZCommand to data--><g id="link_XYZCommand_data"><path codeLine="30" d="M349,561.18 C349,588.06 349,613.5 349,637.37 " fill="none" id="XYZCommand-backto-data" style="stroke:#181818;stroke-width:1.0;"/><polygon fill="#181818" points="349,549.18,345,555.18,349,561.18,353,555.18,349,549.18" style="stroke:#181818;stroke-width:1.0;"/><text fill="#000000" font-family="sans-serif" font-size="13" lengthAdjust="spacing" textLength="21" x="350" y="594.0283">use</text></g><!--reverse link Command to Ui--><g id="link_Command_Ui"><path codeLine="32" d="M517,707.18 C517,730.74 517,750.42 517,773.95 " fill="none" id="Command-backto-Ui" style="stroke:#181818;stroke-width:1.0;"/><polygon fill="#181818" points="517,695.18,513,701.18,517,707.18,521,701.18,517,695.18" style="stroke:#181818;stroke-width:1.0;"/><text fill="#000000" font-family="sans-serif" font-size="13" lengthAdjust="spacing" textLength="21" x="518" y="740.0283">use</text></g><!--SRC=[XPBTJeD048NlUOgvH0KUW3HD3AscYJ-DXQGQ4xF2q6wa2vaTj4tRTtUXIy4BbQjbPhuvPsPNAaRAHOem5wIH4fO5x1qmtrNLHA9oin4gSoz2i4Vdw3Xf8RIsY2ttzve5o_GuUvWdyTlJz7Qw36719DNgxtujNH6QF2wVNtwjQF0voHJZygOe1RjL-uDRxdGCaZUP0J1JAy9Cec9Nde_wJce-8GFqcaZicioeXyRDjE9TCucKuJIsTTMj2RUOreoDtyzI3jRJp_9lQIAx4hqkl-8oCNjrsKmMbmiJ69Zik4Za634L40JZmTs5K6jq1ig-VnYVz_W3ii4Gh2jdy096Xo2mNMsuHVg-8QI4Wdz8NVe-P8B5oOCg6Q70t5nErCo86gHgyr29z4EiC8I9r6iF-crxyAgYciWS9wRGWtjKjGUFb25vnezYsa4ZjH05QcSedCXMzXi0]--></g></svg>