<?xml version="1.0" encoding="us-ascii" standalone="no"?><svg xmlns="http://www.w3.org/2000/svg" xmlns:xlink="http://www.w3.org/1999/xlink" contentStyleType="text/css" height="325px" preserveAspectRatio="none" style="width:1457px;height:325px;background:#FFFFFF;" version="1.1" viewBox="0 0 1457 325" width="1457px" zoomAndPan="magnify"><defs/><g><!--class CreateFlashcardCommand--><g id="elem_CreateFlashcardCommand"><rect codeLine="5" fill="#F1F1F1" height="42.2969" id="CreateFlashcardCommand" rx="2.5" ry="2.5" style="stroke:#181818;stroke-width:0.5;" width="197" x="7" y="133.5"/><text fill="#000000" font-family="sans-serif" font-size="14" lengthAdjust="spacing" textLength="191" x="10" y="151.4951">CreateFlashcardCommand</text><line style="stroke:#181818;stroke-width:0.5;" x1="8" x2="203" y1="159.7969" y2="159.7969"/><line style="stroke:#181818;stroke-width:0.5;" x1="8" x2="203" y1="167.7969" y2="167.7969"/></g><!--class DeleteAllFlashcardsCommand--><g id="elem_DeleteAllFlashcardsCommand"><rect codeLine="6" fill="#F1F1F1" height="42.2969" id="DeleteAllFlashcardsCommand" rx="2.5" ry="2.5" style="stroke:#181818;stroke-width:0.5;" width="221" x="239" y="133.5"/><text fill="#000000" font-family="sans-serif" font-size="14" lengthAdjust="spacing" textLength="215" x="242" y="151.4951">DeleteAllFlashcardsCommand</text><line style="stroke:#181818;stroke-width:0.5;" x1="240" x2="459" y1="159.7969" y2="159.7969"/><line style="stroke:#181818;stroke-width:0.5;" x1="240" x2="459" y1="167.7969" y2="167.7969"/></g><!--class DeleteFlashcardCommand--><g id="elem_DeleteFlashcardCommand"><rect codeLine="7" fill="#F1F1F1" height="42.2969" id="DeleteFlashcardCommand" rx="2.5" ry="2.5" style="stroke:#181818;stroke-width:0.5;" width="196" x="568.5" y="7"/><text fill="#000000" font-family="sans-serif" font-size="14" lengthAdjust="spacing" textLength="190" x="571.5" y="24.9951">DeleteFlashcardCommand</text><line style="stroke:#181818;stroke-width:0.5;" x1="569.5" x2="763.5" y1="33.2969" y2="33.2969"/><line style="stroke:#181818;stroke-width:0.5;" x1="569.5" x2="763.5" y1="41.2969" y2="41.2969"/></g><!--class DualFlashcardCommand--><g id="elem_DualFlashcardCommand"><rect codeLine="8" fill="#F1F1F1" height="91.1875" id="DualFlashcardCommand" rx="2.5" ry="2.5" style="stroke:#181818;stroke-width:0.5;" width="559" x="495" y="109"/><text fill="#000000" font-family="sans-serif" font-size="14" font-style="italic" lengthAdjust="spacing" textLength="176" x="686.5" y="126.9951">DualFlashcardCommand</text><line style="stroke:#181818;stroke-width:0.5;" x1="496" x2="1053" y1="135.2969" y2="135.2969"/><line style="stroke:#181818;stroke-width:0.5;" x1="496" x2="1053" y1="143.2969" y2="143.2969"/><text fill="#000000" font-family="sans-serif" font-size="14" lengthAdjust="spacing" textLength="443" x="501" y="160.292">+execute(scanner: Scanner, flashcardList: FlashcardList): void</text><text fill="#000000" font-family="sans-serif" font-size="14" font-style="italic" lengthAdjust="spacing" textLength="547" x="501" y="176.5889">#executeBeginnerMode(scanner: Scanner, flashcardList: FlashcardList): void</text><text fill="#000000" font-family="sans-serif" font-size="14" font-style="italic" lengthAdjust="spacing" textLength="547" x="501" y="192.8857">#executeBeginnerMode(scanner: Scanner, flashcardList: FlashcardList): void</text></g><!--class FlashcardCommand--><g id="elem_FlashcardCommand"><rect codeLine="13" fill="#F1F1F1" height="58.5938" id="FlashcardCommand" rx="2.5" ry="2.5" style="stroke:#181818;stroke-width:0.5;" width="455" x="547" y="260"/><text fill="#000000" font-family="sans-serif" font-size="14" font-style="italic" lengthAdjust="spacing" textLength="143" x="703" y="277.9951">FlashcardCommand</text><line style="stroke:#181818;stroke-width:0.5;" x1="548" x2="1001" y1="286.2969" y2="286.2969"/><line style="stroke:#181818;stroke-width:0.5;" x1="548" x2="1001" y1="294.2969" y2="294.2969"/><text fill="#000000" font-family="sans-serif" font-size="14" font-style="italic" lengthAdjust="spacing" textLength="443" x="553" y="311.292">+execute(scanner: Scanner, flashcardList: FlashcardList): void</text></g><!--class ListFlashcardsCommand--><g id="elem_ListFlashcardsCommand"><rect codeLine="16" fill="#F1F1F1" height="42.2969" id="ListFlashcardsCommand" rx="2.5" ry="2.5" style="stroke:#181818;stroke-width:0.5;" width="180" x="1089.5" y="133.5"/><text fill="#000000" font-family="sans-serif" font-size="14" lengthAdjust="spacing" textLength="174" x="1092.5" y="151.4951">ListFlashcardsCommand</text><line style="stroke:#181818;stroke-width:0.5;" x1="1090.5" x2="1268.5" y1="159.7969" y2="159.7969"/><line style="stroke:#181818;stroke-width:0.5;" x1="1090.5" x2="1268.5" y1="167.7969" y2="167.7969"/></g><!--class StartReviewCommand--><g id="elem_StartReviewCommand"><rect codeLine="17" fill="#F1F1F1" height="42.2969" id="StartReviewCommand" rx="2.5" ry="2.5" style="stroke:#181818;stroke-width:0.5;" width="165" x="800" y="7"/><text fill="#000000" font-family="sans-serif" font-size="14" lengthAdjust="spacing" textLength="159" x="803" y="24.9951">StartReviewCommand</text><line style="stroke:#181818;stroke-width:0.5;" x1="801" x2="964" y1="33.2969" y2="33.2969"/><line style="stroke:#181818;stroke-width:0.5;" x1="801" x2="964" y1="41.2969" y2="41.2969"/></g><!--class UnknownCommand--><g id="elem_UnknownCommand"><rect codeLine="18" fill="#F1F1F1" height="42.2969" id="UnknownCommand" rx="2.5" ry="2.5" style="stroke:#181818;stroke-width:0.5;" width="145" x="1305" y="133.5"/><text fill="#000000" font-family="sans-serif" font-size="14" lengthAdjust="spacing" textLength="139" x="1308" y="151.4951">UnknownCommand</text><line style="stroke:#181818;stroke-width:0.5;" x1="1306" x2="1449" y1="159.7969" y2="159.7969"/><line style="stroke:#181818;stroke-width:0.5;" x1="1306" x2="1449" y1="167.7969" y2="167.7969"/></g><!--link CreateFlashcardCommand to FlashcardCommand--><g id="link_CreateFlashcardCommand_FlashcardCommand"><path codeLine="20" d="M151.34,175.61 C172.38,184.18 197.86,193.65 221.5,200 C326.9,228.32 428.3636,246.3265 529.0936,260.4165 " fill="none" id="CreateFlashcardCommand-to-FlashcardCommand" style="stroke:#000082;stroke-width:1.0;"/><polygon fill="none" points="546.92,262.91,529.9247,254.4743,528.2624,266.3586,546.92,262.91" style="stroke:#000082;stroke-width:1.0;"/></g><!--link DeleteAllFlashcardsCommand to FlashcardCommand--><g id="link_DeleteAllFlashcardsCommand_FlashcardCommand"><path codeLine="21" d="M405.39,175.54 C427.74,183.4 453.77,192.34 477.5,200 C542.78,221.06 599.4268,238.0709 657.1968,254.8809 " fill="none" id="DeleteAllFlashcardsCommand-to-FlashcardCommand" style="stroke:#000082;stroke-width:1.0;"/><polygon fill="none" points="674.48,259.91,658.8732,249.1199,655.5205,260.642,674.48,259.91" style="stroke:#000082;stroke-width:1.0;"/></g><!--link DeleteFlashcardCommand to DualFlashcardCommand--><g id="link_DeleteFlashcardCommand_DualFlashcardCommand"><path codeLine="22" d="M683.85,49 C697.8,65.09 706.1444,74.7035 723.8944,95.1635 " fill="none" id="DeleteFlashcardCommand-to-DualFlashcardCommand" style="stroke:#000082;stroke-width:1.0;"/><polygon fill="none" points="735.69,108.76,728.4266,91.2317,719.3623,99.0954,735.69,108.76" style="stroke:#000082;stroke-width:1.0;"/></g><!--link DualFlashcardCommand to FlashcardCommand--><g id="link_DualFlashcardCommand_FlashcardCommand"><path codeLine="23" d="M774.5,200.16 C774.5,219.78 774.5,224.25 774.5,241.62 " fill="none" id="DualFlashcardCommand-to-FlashcardCommand" style="stroke:#000082;stroke-width:1.0;"/><polygon fill="none" points="774.5,259.62,780.5,241.62,768.5,241.62,774.5,259.62" style="stroke:#000082;stroke-width:1.0;"/></g><!--link ListFlashcardsCommand to FlashcardCommand--><g id="link_ListFlashcardsCommand_FlashcardCommand"><path codeLine="24" d="M1133.65,175.59 C1114.59,183.63 1092.15,192.69 1071.5,200 C1008.61,222.26 954.2771,238.809 897.1171,255.019 " fill="none" id="ListFlashcardsCommand-to-FlashcardCommand" style="stroke:#000082;stroke-width:1.0;"/><polygon fill="none" points="879.8,259.93,898.7541,260.7914,895.4801,249.2467,879.8,259.93" style="stroke:#000082;stroke-width:1.0;"/></g><!--link StartReviewCommand to DualFlashcardCommand--><g id="link_StartReviewCommand_DualFlashcardCommand"><path codeLine="25" d="M865.15,49 C851.2,65.09 842.8556,74.7035 825.1056,95.1635 " fill="none" id="StartReviewCommand-to-DualFlashcardCommand" style="stroke:#000082;stroke-width:1.0;"/><polygon fill="none" points="813.31,108.76,829.6377,99.0954,820.5734,91.2317,813.31,108.76" style="stroke:#000082;stroke-width:1.0;"/></g><!--link UnknownCommand to FlashcardCommand--><g id="link_UnknownCommand_FlashcardCommand"><path codeLine="26" d="M1342.17,175.69 C1325.71,184.33 1305.57,193.83 1286.5,200 C1195.53,229.44 1109.9075,246.9774 1019.9475,260.5874 " fill="none" id="UnknownCommand-to-FlashcardCommand" style="stroke:#000082;stroke-width:1.0;"/><polygon fill="none" points="1002.15,263.28,1020.845,266.5199,1019.05,254.6549,1002.15,263.28" style="stroke:#000082;stroke-width:1.0;"/></g><!--SRC=[pL9DImCn4BtdLmpqejX2yIHxgvL2eLvSF8d2D9dQeTbiIQQjMFhVtNwikDsiT3qvfycyoNlpDMT3eDbhIoeis2tHOmRQOWW34S_JbT1OvoxbJuA-KWS4XfvGQ5JuSutU3FCiGsTEu0DP4XfO-us7M4BjDqw3UDG2fwmLslCSs2g06w0FqaLTLq6ZS-GJI8zE5sRbXma7IM3qytcTm3fdKp1qO5kAxKgoUthdFSTZRluTyUvyDWrpgOl_MV2eiuyrRJ4LzF94QwPD5NXs2vTlN1bKyME1W_LUElt2xcwxIuliNdjlK6jEDHzKAuBBAuYTdehU8xHe8phCDWJrYGFyLa6qZUfse68NLV45]--></g></svg>