<?xml version="1.0" encoding="us-ascii" standalone="no"?><svg xmlns="http://www.w3.org/2000/svg" xmlns:xlink="http://www.w3.org/1999/xlink" contentStyleType="text/css" height="596px" preserveAspectRatio="none" style="width:1328px;height:596px;background:#FFFFFF;" version="1.1" viewBox="0 0 1328 596" width="1328px" zoomAndPan="magnify"><defs/><g><rect fill="#FFFFFF" height="459.0547" style="stroke:#181818;stroke-width:1.0;" width="10" x="137" y="112.4297"/><rect fill="#FFFFFF" height="157.8281" style="stroke:#181818;stroke-width:1.0;" width="10" x="369" y="141.5625"/><rect fill="#FFFFFF" height="228.9609" style="stroke:#181818;stroke-width:1.0;" width="10" x="369" y="328.5234"/><rect fill="#FFFFFF" height="99.5625" style="stroke:#181818;stroke-width:1.0;" width="10" x="644" y="170.6953"/><rect fill="#FFFFFF" height="99.5625" style="stroke:#181818;stroke-width:1.0;" width="10" x="644" y="357.6563"/><rect fill="#FFFFFF" height="57.1328" style="stroke:#181818;stroke-width:1.0;" width="10" x="808.5" y="486.3516"/><rect fill="#FFFFFF" height="46.4297" style="stroke:#181818;stroke-width:1.0;" width="10" x="979" y="194.6953"/><rect fill="#FFFFFF" height="46.4297" style="stroke:#181818;stroke-width:1.0;" width="10" x="1208" y="381.6563"/><rect fill="#FFFFFF" height="14" style="stroke:#181818;stroke-width:1.0;" width="10" x="1208" y="515.4844"/><line style="stroke:#181818;stroke-width:0.5;stroke-dasharray:5.0,5.0;" x1="27" x2="27" y1="81.2969" y2="589.4844"/><line style="stroke:#181818;stroke-width:0.5;stroke-dasharray:5.0,5.0;" x1="142" x2="142" y1="81.2969" y2="589.4844"/><line style="stroke:#181818;stroke-width:0.5;stroke-dasharray:5.0,5.0;" x1="373.5" x2="373.5" y1="81.2969" y2="589.4844"/><line style="stroke:#181818;stroke-width:0.5;stroke-dasharray:5.0,5.0;" x1="648.5" x2="648.5" y1="81.2969" y2="589.4844"/><line style="stroke:#181818;stroke-width:0.5;stroke-dasharray:5.0,5.0;" x1="813.5" x2="813.5" y1="81.2969" y2="589.4844"/><line style="stroke:#181818;stroke-width:0.5;stroke-dasharray:5.0,5.0;" x1="983.5" x2="983.5" y1="209.3438" y2="589.4844"/><line style="stroke:#181818;stroke-width:0.5;stroke-dasharray:5.0,5.0;" x1="1212.5" x2="1212.5" y1="396.3047" y2="589.4844"/><text fill="#000000" font-family="sans-serif" font-size="14" lengthAdjust="spacing" textLength="38" x="5" y="77.9951">Actor</text><ellipse cx="27" cy="13.5" fill="#E2E2F0" rx="8" ry="8" style="stroke:#181818;stroke-width:0.5;"/><path d="M27,21.5 L27,48.5 M14,29.5 L40,29.5 M27,48.5 L14,63.5 M27,48.5 L40,63.5 " fill="none" style="stroke:#181818;stroke-width:0.5;"/><rect fill="#E2E2F0" height="30.2969" rx="2.5" ry="2.5" style="stroke:#181818;stroke-width:0.5;" width="56" x="114" y="50"/><text fill="#000000" font-family="sans-serif" font-size="14" lengthAdjust="spacing" textLength="42" x="121" y="69.9951">:Duke</text><rect fill="#E2E2F0" height="30.2969" rx="2.5" ry="2.5" style="stroke:#181818;stroke-width:0.5;" width="171" x="288.5" y="50"/><text fill="#000000" font-family="sans-serif" font-size="14" lengthAdjust="spacing" textLength="157" x="295.5" y="69.9951">:FlashcardComponent</text><rect fill="#E2E2F0" height="30.2969" rx="2.5" ry="2.5" style="stroke:#181818;stroke-width:0.5;" width="207" x="545.5" y="50"/><text fill="#000000" font-family="sans-serif" font-size="14" lengthAdjust="spacing" textLength="193" x="552.5" y="69.9951">:FlashcardCommandParser</text><rect fill="#E2E2F0" height="30.2969" rx="2.5" ry="2.5" style="stroke:#181818;stroke-width:0.5;" width="102" x="762.5" y="50"/><text fill="#000000" font-family="sans-serif" font-size="14" lengthAdjust="spacing" textLength="88" x="769.5" y="69.9951">:FlashcardUi</text><rect fill="#FFFFFF" height="459.0547" style="stroke:#181818;stroke-width:1.0;" width="10" x="137" y="112.4297"/><rect fill="#FFFFFF" height="157.8281" style="stroke:#181818;stroke-width:1.0;" width="10" x="369" y="141.5625"/><rect fill="#FFFFFF" height="228.9609" style="stroke:#181818;stroke-width:1.0;" width="10" x="369" y="328.5234"/><rect fill="#FFFFFF" height="99.5625" style="stroke:#181818;stroke-width:1.0;" width="10" x="644" y="170.6953"/><rect fill="#FFFFFF" height="99.5625" style="stroke:#181818;stroke-width:1.0;" width="10" x="644" y="357.6563"/><rect fill="#FFFFFF" height="57.1328" style="stroke:#181818;stroke-width:1.0;" width="10" x="808.5" y="486.3516"/><rect fill="#FFFFFF" height="46.4297" style="stroke:#181818;stroke-width:1.0;" width="10" x="979" y="194.6953"/><rect fill="#FFFFFF" height="46.4297" style="stroke:#181818;stroke-width:1.0;" width="10" x="1208" y="381.6563"/><rect fill="#FFFFFF" height="14" style="stroke:#181818;stroke-width:1.0;" width="10" x="1208" y="515.4844"/><polygon fill="#181818" points="125,108.4297,135,112.4297,125,116.4297,129,112.4297" style="stroke:#181818;stroke-width:1.0;"/><line style="stroke:#181818;stroke-width:1.0;" x1="27" x2="131" y1="112.4297" y2="112.4297"/><text fill="#000000" font-family="sans-serif" font-size="13" lengthAdjust="spacing" textLength="91" x="34" y="107.3638">list flashcards</text><polygon fill="#181818" points="357,137.5625,367,141.5625,357,145.5625,361,141.5625" style="stroke:#181818;stroke-width:1.0;"/><line style="stroke:#181818;stroke-width:1.0;" x1="147" x2="363" y1="141.5625" y2="141.5625"/><text fill="#000000" font-family="sans-serif" font-size="13" lengthAdjust="spacing" textLength="203" x="154" y="136.4966">isResponsible("list flashcards")</text><polygon fill="#181818" points="632,166.6953,642,170.6953,632,174.6953,636,170.6953" style="stroke:#181818;stroke-width:1.0;"/><line style="stroke:#181818;stroke-width:1.0;" x1="379" x2="638" y1="170.6953" y2="170.6953"/><text fill="#000000" font-family="sans-serif" font-size="13" lengthAdjust="spacing" textLength="246" x="386" y="165.6294">parseInput("list flashcards", calendar)</text><polygon fill="#181818" points="862.5,180.6953,872.5,184.6953,862.5,188.6953,866.5,184.6953" style="stroke:#181818;stroke-width:1.0;"/><line style="stroke:#181818;stroke-width:1.0;" x1="654" x2="868.5" y1="184.6953" y2="184.6953"/><rect fill="#E2E2F0" height="30.2969" rx="2.5" ry="2.5" style="stroke:#181818;stroke-width:0.5;" width="219" x="874.5" y="178.6953"/><text fill="#000000" font-family="sans-serif" font-size="14" lengthAdjust="spacing" textLength="205" x="881.5" y="198.6904">lfc1:ListFlashcardsCommand</text><polygon fill="#181818" points="665,237.125,655,241.125,665,245.125,661,241.125" style="stroke:#181818;stroke-width:1.0;"/><line style="stroke:#181818;stroke-width:1.0;stroke-dasharray:2.0,2.0;" x1="659" x2="983" y1="241.125" y2="241.125"/><text fill="#000000" font-family="sans-serif" font-size="13" lengthAdjust="spacing" textLength="24" x="671" y="236.0591">lfc1</text><polygon fill="#181818" points="390,266.2578,380,270.2578,390,274.2578,386,270.2578" style="stroke:#181818;stroke-width:1.0;"/><line style="stroke:#181818;stroke-width:1.0;stroke-dasharray:2.0,2.0;" x1="384" x2="648" y1="270.2578" y2="270.2578"/><text fill="#000000" font-family="sans-serif" font-size="13" lengthAdjust="spacing" textLength="24" x="396" y="265.1919">lfc1</text><polygon fill="#181818" points="158,295.3906,148,299.3906,158,303.3906,154,299.3906" style="stroke:#181818;stroke-width:1.0;"/><line style="stroke:#181818;stroke-width:1.0;stroke-dasharray:2.0,2.0;" x1="152" x2="373" y1="299.3906" y2="299.3906"/><text fill="#000000" font-family="sans-serif" font-size="13" lengthAdjust="spacing" textLength="26" x="164" y="294.3247">true</text><polygon fill="#181818" points="357,324.5234,367,328.5234,357,332.5234,361,328.5234" style="stroke:#181818;stroke-width:1.0;"/><line style="stroke:#181818;stroke-width:1.0;" x1="147" x2="363" y1="328.5234" y2="328.5234"/><text fill="#000000" font-family="sans-serif" font-size="13" lengthAdjust="spacing" textLength="196" x="154" y="323.4575">processInput("list flashcards")</text><polygon fill="#181818" points="632,353.6563,642,357.6563,632,361.6563,636,357.6563" style="stroke:#181818;stroke-width:1.0;"/><line style="stroke:#181818;stroke-width:1.0;" x1="379" x2="638" y1="357.6563" y2="357.6563"/><text fill="#000000" font-family="sans-serif" font-size="13" lengthAdjust="spacing" textLength="246" x="386" y="352.5903">parseInput("list flashcards", calendar)</text><polygon fill="#181818" points="1091.5,367.6563,1101.5,371.6563,1091.5,375.6563,1095.5,371.6563" style="stroke:#181818;stroke-width:1.0;"/><line style="stroke:#181818;stroke-width:1.0;" x1="654" x2="1097.5" y1="371.6563" y2="371.6563"/><rect fill="#E2E2F0" height="30.2969" rx="2.5" ry="2.5" style="stroke:#181818;stroke-width:0.5;" width="219" x="1103.5" y="365.6563"/><text fill="#000000" font-family="sans-serif" font-size="14" lengthAdjust="spacing" textLength="205" x="1110.5" y="385.6514">lfc2:ListFlashcardsCommand</text><polygon fill="#181818" points="665,424.0859,655,428.0859,665,432.0859,661,428.0859" style="stroke:#181818;stroke-width:1.0;"/><line style="stroke:#181818;stroke-width:1.0;stroke-dasharray:2.0,2.0;" x1="659" x2="1212" y1="428.0859" y2="428.0859"/><text fill="#000000" font-family="sans-serif" font-size="13" lengthAdjust="spacing" textLength="24" x="671" y="423.02">lfc2</text><polygon fill="#181818" points="390,453.2188,380,457.2188,390,461.2188,386,457.2188" style="stroke:#181818;stroke-width:1.0;"/><line style="stroke:#181818;stroke-width:1.0;stroke-dasharray:2.0,2.0;" x1="384" x2="648" y1="457.2188" y2="457.2188"/><text fill="#000000" font-family="sans-serif" font-size="13" lengthAdjust="spacing" textLength="24" x="396" y="452.1528">lfc2</text><polygon fill="#181818" points="796.5,482.3516,806.5,486.3516,796.5,490.3516,800.5,486.3516" style="stroke:#181818;stroke-width:1.0;"/><line style="stroke:#181818;stroke-width:1.0;" x1="379" x2="802.5" y1="486.3516" y2="486.3516"/><text fill="#000000" font-family="sans-serif" font-size="13" lengthAdjust="spacing" textLength="153" x="386" y="481.2856">executeCommand(lfc2)</text><polygon fill="#181818" points="1196,511.4844,1206,515.4844,1196,519.4844,1200,515.4844" style="stroke:#181818;stroke-width:1.0;"/><line style="stroke:#181818;stroke-width:1.0;" x1="818.5" x2="1202" y1="515.4844" y2="515.4844"/><text fill="#000000" font-family="sans-serif" font-size="13" lengthAdjust="spacing" textLength="204" x="825.5" y="510.4185">execute(scanner, flashcardList)</text><polygon fill="#181818" points="829.5,525.4844,819.5,529.4844,829.5,533.4844,825.5,529.4844" style="stroke:#181818;stroke-width:1.0;"/><line style="stroke:#181818;stroke-width:1.0;stroke-dasharray:2.0,2.0;" x1="823.5" x2="1212" y1="529.4844" y2="529.4844"/><polygon fill="#181818" points="390,539.4844,380,543.4844,390,547.4844,386,543.4844" style="stroke:#181818;stroke-width:1.0;"/><line style="stroke:#181818;stroke-width:1.0;stroke-dasharray:2.0,2.0;" x1="384" x2="812.5" y1="543.4844" y2="543.4844"/><polygon fill="#181818" points="158,553.4844,148,557.4844,158,561.4844,154,557.4844" style="stroke:#181818;stroke-width:1.0;"/><line style="stroke:#181818;stroke-width:1.0;stroke-dasharray:2.0,2.0;" x1="152" x2="373" y1="557.4844" y2="557.4844"/><polygon fill="#181818" points="38,567.4844,28,571.4844,38,575.4844,34,571.4844" style="stroke:#181818;stroke-width:1.0;"/><line style="stroke:#181818;stroke-width:1.0;stroke-dasharray:2.0,2.0;" x1="32" x2="141" y1="571.4844" y2="571.4844"/><!--SRC=[nPFDQiCm48JlUWhXamF9eJhw42WjXK8FfT07KEGr4NKa8yabZz_L-a-H6_VOYv6isT7CXttMDV36sd2oLyQa2jRnHtfAptiFZdNI1Qrq9qtWHVNSVq4HpsfSP6SlhVHd9LtzP2-TDM02ATMqsv1VfAdVfSFxQAIZvJtzfoPHhncB2VdXI6bunLlj0sycdOzzzBSCCAHbf4Brd0X7jFy0ZpklJosKHUPGx1QFfGTR3D1j28jMj7WrNH_MFdkkP0kcbYvn76lUzcmRzL2zuVZSru-0g7KynW0Eei6m6GDW5DhFziDfVF93cfFUrv3f9fUCJowUCYS85lx1zP2A4sI_iU-SLU3z7MJ_WbvienSfUf6X5pVe1Q4NA_GYGo-sq8i_q1_nBq0bN47r0SQmPHnCkjAFegUGYxpqIXe3Rh_GYkLtTskWqIfxD4vpfufuyVexsVn0uYsnPAAXcHy0]--></g></svg>