<?xml version="1.0" encoding="us-ascii" standalone="no"?><svg xmlns="http://www.w3.org/2000/svg" xmlns:xlink="http://www.w3.org/1999/xlink" contentStyleType="text/css" height="1324px" preserveAspectRatio="none" style="width:1549px;height:1324px;background:#FFFFFF;" version="1.1" viewBox="0 0 1549 1324" width="1549px" zoomAndPan="magnify"><defs/><g><rect fill="#FFFFFF" height="1196.8066" style="stroke:#181818;stroke-width:1.0;" width="10" x="93.5" y="71.9121"/><rect fill="#FFFFFF" height="1134.2246" style="stroke:#181818;stroke-width:1.0;" width="10" x="441.5" y="103.2031"/><rect fill="#FFFFFF" height="31.291" style="stroke:#181818;stroke-width:1.0;" width="10" x="658.5" y="134.4941"/><rect fill="#FFFFFF" height="788.0234" style="stroke:#181818;stroke-width:1.0;" width="10" x="658.5" y="418.1133"/><rect fill="#FFFFFF" height="42.291" style="stroke:#181818;stroke-width:1.0;" width="10" x="663.5" y="483.6953"/><rect fill="#FFFFFF" height="31.291" style="stroke:#181818;stroke-width:1.0;" width="10" x="1070.5" y="223.3672"/><rect fill="#FFFFFF" height="31.291" style="stroke:#181818;stroke-width:1.0;" width="10" x="1070.5" y="355.5313"/><rect fill="#FFFFFF" height="119.873" style="stroke:#181818;stroke-width:1.0;" width="10" x="1070.5" y="860.2266"/><rect fill="#FFFFFF" height="42.291" style="stroke:#181818;stroke-width:1.0;" width="10" x="1075.5" y="899.5176"/><rect fill="#FFFFFF" height="31.291" style="stroke:#181818;stroke-width:1.0;" width="10" x="1070.5" y="1018.3906"/><rect fill="#FFFFFF" height="31.291" style="stroke:#181818;stroke-width:1.0;" width="10" x="1070.5" y="1080.9727"/><rect fill="#FFFFFF" height="31.291" style="stroke:#181818;stroke-width:1.0;" width="10" x="1070.5" y="1143.5547"/><rect fill="#FFFFFF" height="33.6211" style="stroke:#181818;stroke-width:1.0;" width="10" x="1500.5" y="607.5684"/><rect fill="#FFFFFF" height="31.291" style="stroke:#181818;stroke-width:1.0;" width="10" x="1500.5" y="672.4805"/><rect fill="#FFFFFF" height="31.291" style="stroke:#181818;stroke-width:1.0;" width="10" x="1500.5" y="735.0625"/><rect fill="#FFFFFF" height="31.291" style="stroke:#181818;stroke-width:1.0;" width="10" x="1500.5" y="797.6445"/><rect fill="none" height="144.4551" style="stroke:#000000;stroke-width:1.5;" width="1097.5" x="3" y="180.7852"/><rect fill="none" height="107.873" style="stroke:#000000;stroke-width:1.5;" width="199.5" x="615" y="433.1133"/><rect fill="none" height="433.1133" style="stroke:#000000;stroke-width:1.5;" width="928" x="615" y="554.9863"/><line style="stroke:#181818;stroke-width:0.5;stroke-dasharray:5.0,5.0;" x1="98" x2="98" y1="38.6211" y2="1286.7188"/><line style="stroke:#181818;stroke-width:0.5;stroke-dasharray:5.0,5.0;" x1="446" x2="446" y1="38.6211" y2="1286.7188"/><line style="stroke:#181818;stroke-width:0.5;stroke-dasharray:5.0,5.0;" x1="663" x2="663" y1="38.6211" y2="1286.7188"/><line style="stroke:#181818;stroke-width:0.5;stroke-dasharray:5.0,5.0;" x1="1075.5" x2="1075.5" y1="38.6211" y2="1286.7188"/><line style="stroke:#181818;stroke-width:0.5;stroke-dasharray:5.0,5.0;" x1="1505" x2="1505" y1="606.0879" y2="1286.7188"/><rect fill="#E2E2F0" height="32.6211" rx="2.5" ry="2.5" style="stroke:#181818;stroke-width:0.5;" width="173" x="12" y="5"/><text fill="#000000" font-family="sans-serif" font-size="14" lengthAdjust="spacing" textLength="159" x="19" y="27.1074">:ListSaleByDayCommand</text><rect fill="#E2E2F0" height="32.6211" rx="2.5" ry="2.5" style="stroke:#181818;stroke-width:0.5;" width="173" x="12" y="1285.7188"/><text fill="#000000" font-family="sans-serif" font-size="14" lengthAdjust="spacing" textLength="159" x="19" y="1307.8262">:ListSaleByDayCommand</text><rect fill="#E2E2F0" height="32.6211" rx="2.5" ry="2.5" style="stroke:#181818;stroke-width:0.5;" width="53" x="420" y="5"/><text fill="#000000" font-family="sans-serif" font-size="14" lengthAdjust="spacing" textLength="39" x="427" y="27.1074">:Sales</text><rect fill="#E2E2F0" height="32.6211" rx="2.5" ry="2.5" style="stroke:#181818;stroke-width:0.5;" width="53" x="420" y="1285.7188"/><text fill="#000000" font-family="sans-serif" font-size="14" lengthAdjust="spacing" textLength="39" x="427" y="1307.8262">:Sales</text><rect fill="#E2E2F0" height="32.6211" rx="2.5" ry="2.5" style="stroke:#181818;stroke-width:0.5;" width="77" x="625" y="5"/><text fill="#000000" font-family="sans-serif" font-size="14" lengthAdjust="spacing" textLength="63" x="632" y="27.1074">:OrderList</text><rect fill="#E2E2F0" height="32.6211" rx="2.5" ry="2.5" style="stroke:#181818;stroke-width:0.5;" width="77" x="625" y="1285.7188"/><text fill="#000000" font-family="sans-serif" font-size="14" lengthAdjust="spacing" textLength="63" x="632" y="1307.8262">:OrderList</text><rect fill="#E2E2F0" height="32.6211" rx="2.5" ry="2.5" style="stroke:#181818;stroke-width:0.5;" width="30" x="1060.5" y="5"/><text fill="#000000" font-family="sans-serif" font-size="14" lengthAdjust="spacing" textLength="16" x="1067.5" y="27.1074">:Ui</text><rect fill="#E2E2F0" height="32.6211" rx="2.5" ry="2.5" style="stroke:#181818;stroke-width:0.5;" width="30" x="1060.5" y="1285.7188"/><text fill="#000000" font-family="sans-serif" font-size="14" lengthAdjust="spacing" textLength="16" x="1067.5" y="1307.8262">:Ui</text><rect fill="#E2E2F0" height="32.6211" rx="2.5" ry="2.5" style="stroke:#181818;stroke-width:0.5;" width="55" x="1478" y="1285.7188"/><text fill="#000000" font-family="sans-serif" font-size="14" lengthAdjust="spacing" textLength="41" x="1485" y="1307.8262">:Order</text><rect fill="#FFFFFF" height="1196.8066" style="stroke:#181818;stroke-width:1.0;" width="10" x="93.5" y="71.9121"/><rect fill="#FFFFFF" height="1134.2246" style="stroke:#181818;stroke-width:1.0;" width="10" x="441.5" y="103.2031"/><rect fill="#FFFFFF" height="31.291" style="stroke:#181818;stroke-width:1.0;" width="10" x="658.5" y="134.4941"/><rect fill="#FFFFFF" height="788.0234" style="stroke:#181818;stroke-width:1.0;" width="10" x="658.5" y="418.1133"/><rect fill="#FFFFFF" height="42.291" style="stroke:#181818;stroke-width:1.0;" width="10" x="663.5" y="483.6953"/><rect fill="#FFFFFF" height="31.291" style="stroke:#181818;stroke-width:1.0;" width="10" x="1070.5" y="223.3672"/><rect fill="#FFFFFF" height="31.291" style="stroke:#181818;stroke-width:1.0;" width="10" x="1070.5" y="355.5313"/><rect fill="#FFFFFF" height="119.873" style="stroke:#181818;stroke-width:1.0;" width="10" x="1070.5" y="860.2266"/><rect fill="#FFFFFF" height="42.291" style="stroke:#181818;stroke-width:1.0;" width="10" x="1075.5" y="899.5176"/><rect fill="#FFFFFF" height="31.291" style="stroke:#181818;stroke-width:1.0;" width="10" x="1070.5" y="1018.3906"/><rect fill="#FFFFFF" height="31.291" style="stroke:#181818;stroke-width:1.0;" width="10" x="1070.5" y="1080.9727"/><rect fill="#FFFFFF" height="31.291" style="stroke:#181818;stroke-width:1.0;" width="10" x="1070.5" y="1143.5547"/><rect fill="#FFFFFF" height="33.6211" style="stroke:#181818;stroke-width:1.0;" width="10" x="1500.5" y="607.5684"/><rect fill="#FFFFFF" height="31.291" style="stroke:#181818;stroke-width:1.0;" width="10" x="1500.5" y="672.4805"/><rect fill="#FFFFFF" height="31.291" style="stroke:#181818;stroke-width:1.0;" width="10" x="1500.5" y="735.0625"/><rect fill="#FFFFFF" height="31.291" style="stroke:#181818;stroke-width:1.0;" width="10" x="1500.5" y="797.6445"/><polygon fill="#181818" points="81.5,67.9121,91.5,71.9121,81.5,75.9121,85.5,71.9121" style="stroke:#181818;stroke-width:1.0;"/><line style="stroke:#181818;stroke-width:1.0;" x1="0" x2="87.5" y1="71.9121" y2="71.9121"/><text fill="#000000" font-family="sans-serif" font-size="13" font-weight="bold" lengthAdjust="spacing" textLength="7" x="7" y="66.6494">1</text><text fill="#000000" font-family="sans-serif" font-size="13" lengthAdjust="spacing" textLength="54" x="18" y="66.6494">execute()</text><polygon fill="#181818" points="429.5,99.2031,439.5,103.2031,429.5,107.2031,433.5,103.2031" style="stroke:#181818;stroke-width:1.0;"/><line style="stroke:#181818;stroke-width:1.0;" x1="103.5" x2="435.5" y1="103.2031" y2="103.2031"/><text fill="#000000" font-family="sans-serif" font-size="13" font-weight="bold" lengthAdjust="spacing" textLength="7" x="110.5" y="97.9404">2</text><text fill="#000000" font-family="sans-serif" font-size="13" lengthAdjust="spacing" textLength="308" x="121.5" y="97.9404">sales.printSaleByDay(ui: ":Ui", menu: Menu, day: int)</text><polygon fill="#181818" points="646.5,130.4941,656.5,134.4941,646.5,138.4941,650.5,134.4941" style="stroke:#181818;stroke-width:1.0;"/><line style="stroke:#181818;stroke-width:1.0;" x1="451.5" x2="652.5" y1="134.4941" y2="134.4941"/><text fill="#000000" font-family="sans-serif" font-size="13" font-weight="bold" lengthAdjust="spacing" textLength="7" x="458.5" y="129.2314">3</text><text fill="#000000" font-family="sans-serif" font-size="13" lengthAdjust="spacing" textLength="177" x="469.5" y="129.2314">orderList.hasCompleteOrders()</text><polygon fill="#181818" points="462.5,161.7852,452.5,165.7852,462.5,169.7852,458.5,165.7852" style="stroke:#181818;stroke-width:1.0;"/><line style="stroke:#181818;stroke-width:1.0;stroke-dasharray:2.0,2.0;" x1="456.5" x2="662.5" y1="165.7852" y2="165.7852"/><text fill="#000000" font-family="sans-serif" font-size="13" font-weight="bold" lengthAdjust="spacing" textLength="7" x="468.5" y="160.5225">4</text><text fill="#000000" font-family="sans-serif" font-size="13" lengthAdjust="spacing" textLength="49" x="479.5" y="160.5225">:boolean</text><path d="M3,180.7852 L64,180.7852 L64,190.0762 L54,200.0762 L3,200.0762 L3,180.7852 " fill="#EEEEEE" style="stroke:#000000;stroke-width:1.5;"/><rect fill="none" height="144.4551" style="stroke:#000000;stroke-width:1.5;" width="1097.5" x="3" y="180.7852"/><text fill="#000000" font-family="sans-serif" font-size="13" font-weight="bold" lengthAdjust="spacing" textLength="16" x="18" y="195.8135">alt</text><text fill="#000000" font-family="sans-serif" font-size="11" font-weight="bold" lengthAdjust="spacing" textLength="178" x="79" y="194.6553">[no complete order || no orders]</text><polygon fill="#181818" points="1058.5,219.3672,1068.5,223.3672,1058.5,227.3672,1062.5,223.3672" style="stroke:#181818;stroke-width:1.0;"/><line style="stroke:#181818;stroke-width:1.0;" x1="451.5" x2="1064.5" y1="223.3672" y2="223.3672"/><text fill="#000000" font-family="sans-serif" font-size="13" font-weight="bold" lengthAdjust="spacing" textLength="7" x="458.5" y="218.1045">5</text><text fill="#000000" font-family="sans-serif" font-size="13" lengthAdjust="spacing" textLength="174" x="469.5" y="218.1045">showToUser(message: String)</text><polygon fill="#181818" points="462.5,250.6582,452.5,254.6582,462.5,258.6582,458.5,254.6582" style="stroke:#181818;stroke-width:1.0;"/><line style="stroke:#181818;stroke-width:1.0;stroke-dasharray:2.0,2.0;" x1="456.5" x2="1074.5" y1="254.6582" y2="254.6582"/><text fill="#000000" font-family="sans-serif" font-size="13" font-weight="bold" lengthAdjust="spacing" textLength="7" x="468.5" y="249.3955">6</text><text fill="#000000" font-family="sans-serif" font-size="13" lengthAdjust="spacing" textLength="4" x="479.5" y="249.3955">&#160;</text><polygon fill="#181818" points="114.5,281.9492,104.5,285.9492,114.5,289.9492,110.5,285.9492" style="stroke:#181818;stroke-width:1.0;"/><line style="stroke:#181818;stroke-width:1.0;stroke-dasharray:2.0,2.0;" x1="108.5" x2="440.5" y1="285.9492" y2="285.9492"/><text fill="#000000" font-family="sans-serif" font-size="13" font-weight="bold" lengthAdjust="spacing" textLength="7" x="120.5" y="280.6865">7</text><text fill="#000000" font-family="sans-serif" font-size="13" lengthAdjust="spacing" textLength="4" x="131.5" y="280.6865">&#160;</text><polygon fill="#181818" points="11,313.2402,1,317.2402,11,321.2402,7,317.2402" style="stroke:#181818;stroke-width:1.0;"/><line style="stroke:#181818;stroke-width:1.0;stroke-dasharray:2.0,2.0;" x1="5" x2="92.5" y1="317.2402" y2="317.2402"/><text fill="#000000" font-family="sans-serif" font-size="13" font-weight="bold" lengthAdjust="spacing" textLength="7" x="17" y="311.9775">8</text><text fill="#000000" font-family="sans-serif" font-size="13" lengthAdjust="spacing" textLength="4" x="28" y="311.9775">&#160;</text><polygon fill="#181818" points="1058.5,351.5313,1068.5,355.5313,1058.5,359.5313,1062.5,355.5313" style="stroke:#181818;stroke-width:1.0;"/><line style="stroke:#181818;stroke-width:1.0;" x1="451.5" x2="1064.5" y1="355.5313" y2="355.5313"/><text fill="#000000" font-family="sans-serif" font-size="13" font-weight="bold" lengthAdjust="spacing" textLength="7" x="458.5" y="350.2686">9</text><text fill="#000000" font-family="sans-serif" font-size="13" lengthAdjust="spacing" textLength="92" x="469.5" y="350.2686">showSalesTop()</text><polygon fill="#181818" points="462.5,382.8223,452.5,386.8223,462.5,390.8223,458.5,386.8223" style="stroke:#181818;stroke-width:1.0;"/><line style="stroke:#181818;stroke-width:1.0;stroke-dasharray:2.0,2.0;" x1="456.5" x2="1074.5" y1="386.8223" y2="386.8223"/><text fill="#000000" font-family="sans-serif" font-size="13" font-weight="bold" lengthAdjust="spacing" textLength="14" x="468.5" y="381.5596">10</text><text fill="#000000" font-family="sans-serif" font-size="13" lengthAdjust="spacing" textLength="4" x="486.5" y="381.5596">&#160;</text><polygon fill="#181818" points="646.5,414.1133,656.5,418.1133,646.5,422.1133,650.5,418.1133" style="stroke:#181818;stroke-width:1.0;"/><line style="stroke:#181818;stroke-width:1.0;" x1="451.5" x2="652.5" y1="418.1133" y2="418.1133"/><text fill="#000000" font-family="sans-serif" font-size="13" font-weight="bold" lengthAdjust="spacing" textLength="14" x="458.5" y="412.8506">11</text><text fill="#000000" font-family="sans-serif" font-size="13" lengthAdjust="spacing" textLength="140" x="476.5" y="412.8506">orderList.printOrderList()</text><path d="M615,433.1133 L688,433.1133 L688,442.4043 L678,452.4043 L615,452.4043 L615,433.1133 " fill="#EEEEEE" style="stroke:#000000;stroke-width:1.5;"/><rect fill="none" height="107.873" style="stroke:#000000;stroke-width:1.5;" width="199.5" x="615" y="433.1133"/><text fill="#000000" font-family="sans-serif" font-size="13" font-weight="bold" lengthAdjust="spacing" textLength="28" x="630" y="448.1416">loop</text><text fill="#000000" font-family="sans-serif" font-size="11" font-weight="bold" lengthAdjust="spacing" textLength="39" x="703" y="446.9834">[order]</text><line style="stroke:#181818;stroke-width:1.0;" x1="668.5" x2="715.5" y1="470.6953" y2="470.6953"/><line style="stroke:#181818;stroke-width:1.0;" x1="715.5" x2="715.5" y1="470.6953" y2="483.6953"/><line style="stroke:#181818;stroke-width:1.0;" x1="674.5" x2="715.5" y1="483.6953" y2="483.6953"/><polygon fill="#181818" points="684.5,479.6953,674.5,483.6953,684.5,487.6953,680.5,483.6953" style="stroke:#181818;stroke-width:1.0;"/><text fill="#000000" font-family="sans-serif" font-size="13" font-weight="bold" lengthAdjust="spacing" textLength="14" x="680.5" y="465.4326">12</text><text fill="#000000" font-family="sans-serif" font-size="13" lengthAdjust="spacing" textLength="104" x="698.5" y="465.4326">aggregateOrders()</text><line style="stroke:#181818;stroke-width:1.0;stroke-dasharray:2.0,2.0;" x1="673.5" x2="715.5" y1="524.9863" y2="524.9863"/><line style="stroke:#181818;stroke-width:1.0;stroke-dasharray:2.0,2.0;" x1="715.5" x2="715.5" y1="524.9863" y2="537.9863"/><line style="stroke:#181818;stroke-width:1.0;stroke-dasharray:2.0,2.0;" x1="668.5" x2="715.5" y1="537.9863" y2="537.9863"/><polygon fill="#181818" points="678.5,533.9863,668.5,537.9863,678.5,541.9863,674.5,537.9863" style="stroke:#181818;stroke-width:1.0;"/><text fill="#000000" font-family="sans-serif" font-size="13" font-weight="bold" lengthAdjust="spacing" textLength="14" x="680.5" y="519.7236">13</text><text fill="#000000" font-family="sans-serif" font-size="13" lengthAdjust="spacing" textLength="4" x="698.5" y="519.7236">&#160;</text><path d="M615,554.9863 L688,554.9863 L688,564.2773 L678,574.2773 L615,574.2773 L615,554.9863 " fill="#EEEEEE" style="stroke:#000000;stroke-width:1.5;"/><rect fill="none" height="433.1133" style="stroke:#000000;stroke-width:1.5;" width="928" x="615" y="554.9863"/><text fill="#000000" font-family="sans-serif" font-size="13" font-weight="bold" lengthAdjust="spacing" textLength="28" x="630" y="570.0146">loop</text><text fill="#000000" font-family="sans-serif" font-size="11" font-weight="bold" lengthAdjust="spacing" textLength="103" x="703" y="568.8564">[aggregatedOrder]</text><polygon fill="#181818" points="1466,593.5684,1476,597.5684,1466,601.5684,1470,597.5684" style="stroke:#181818;stroke-width:1.0;"/><line style="stroke:#181818;stroke-width:1.0;" x1="668.5" x2="1472" y1="597.5684" y2="597.5684"/><text fill="#000000" font-family="sans-serif" font-size="13" font-weight="bold" lengthAdjust="spacing" textLength="14" x="675.5" y="592.3057">14</text><text fill="#000000" font-family="sans-serif" font-size="13" lengthAdjust="spacing" textLength="4" x="693.5" y="592.3057">&#160;</text><rect fill="#E2E2F0" height="32.6211" rx="2.5" ry="2.5" style="stroke:#181818;stroke-width:0.5;" width="55" x="1478" y="574.2773"/><text fill="#000000" font-family="sans-serif" font-size="14" lengthAdjust="spacing" textLength="41" x="1485" y="596.3848">:Order</text><polygon fill="#181818" points="679.5,637.1895,669.5,641.1895,679.5,645.1895,675.5,641.1895" style="stroke:#181818;stroke-width:1.0;"/><line style="stroke:#181818;stroke-width:1.0;stroke-dasharray:2.0,2.0;" x1="673.5" x2="1504.5" y1="641.1895" y2="641.1895"/><text fill="#000000" font-family="sans-serif" font-size="13" font-weight="bold" lengthAdjust="spacing" textLength="14" x="685.5" y="635.9268">15</text><text fill="#000000" font-family="sans-serif" font-size="13" lengthAdjust="spacing" textLength="150" x="703.5" y="635.9268">aggregatedOrder: ":Order"</text><polygon fill="#181818" points="1488.5,668.4805,1498.5,672.4805,1488.5,676.4805,1492.5,672.4805" style="stroke:#181818;stroke-width:1.0;"/><line style="stroke:#181818;stroke-width:1.0;" x1="668.5" x2="1494.5" y1="672.4805" y2="672.4805"/><text fill="#000000" font-family="sans-serif" font-size="13" font-weight="bold" lengthAdjust="spacing" textLength="14" x="675.5" y="667.2178">16</text><text fill="#000000" font-family="sans-serif" font-size="13" lengthAdjust="spacing" textLength="186" x="693.5" y="667.2178">aggregatedOrder.getDishName()</text><polygon fill="#181818" points="679.5,699.7715,669.5,703.7715,679.5,707.7715,675.5,703.7715" style="stroke:#181818;stroke-width:1.0;"/><line style="stroke:#181818;stroke-width:1.0;stroke-dasharray:2.0,2.0;" x1="673.5" x2="1504.5" y1="703.7715" y2="703.7715"/><text fill="#000000" font-family="sans-serif" font-size="13" font-weight="bold" lengthAdjust="spacing" textLength="14" x="685.5" y="698.5088">17</text><text fill="#000000" font-family="sans-serif" font-size="13" lengthAdjust="spacing" textLength="38" x="703.5" y="698.5088">:String</text><polygon fill="#181818" points="1488.5,731.0625,1498.5,735.0625,1488.5,739.0625,1492.5,735.0625" style="stroke:#181818;stroke-width:1.0;"/><line style="stroke:#181818;stroke-width:1.0;" x1="668.5" x2="1494.5" y1="735.0625" y2="735.0625"/><text fill="#000000" font-family="sans-serif" font-size="13" font-weight="bold" lengthAdjust="spacing" textLength="14" x="675.5" y="729.7998">18</text><text fill="#000000" font-family="sans-serif" font-size="13" lengthAdjust="spacing" textLength="147" x="693.5" y="729.7998">aggregatedOrder.getQty()</text><polygon fill="#181818" points="679.5,762.3535,669.5,766.3535,679.5,770.3535,675.5,766.3535" style="stroke:#181818;stroke-width:1.0;"/><line style="stroke:#181818;stroke-width:1.0;stroke-dasharray:2.0,2.0;" x1="673.5" x2="1504.5" y1="766.3535" y2="766.3535"/><text fill="#000000" font-family="sans-serif" font-size="13" font-weight="bold" lengthAdjust="spacing" textLength="14" x="685.5" y="761.0908">19</text><text fill="#000000" font-family="sans-serif" font-size="13" lengthAdjust="spacing" textLength="38" x="703.5" y="761.0908">:String</text><polygon fill="#181818" points="1488.5,793.6445,1498.5,797.6445,1488.5,801.6445,1492.5,797.6445" style="stroke:#181818;stroke-width:1.0;"/><line style="stroke:#181818;stroke-width:1.0;" x1="668.5" x2="1494.5" y1="797.6445" y2="797.6445"/><text fill="#000000" font-family="sans-serif" font-size="13" font-weight="bold" lengthAdjust="spacing" textLength="14" x="675.5" y="792.3818">20</text><text fill="#000000" font-family="sans-serif" font-size="13" lengthAdjust="spacing" textLength="213" x="693.5" y="792.3818">aggregatedOrder.getTotalOrderCost()</text><polygon fill="#181818" points="679.5,824.9355,669.5,828.9355,679.5,832.9355,675.5,828.9355" style="stroke:#181818;stroke-width:1.0;"/><line style="stroke:#181818;stroke-width:1.0;stroke-dasharray:2.0,2.0;" x1="673.5" x2="1504.5" y1="828.9355" y2="828.9355"/><text fill="#000000" font-family="sans-serif" font-size="13" font-weight="bold" lengthAdjust="spacing" textLength="14" x="685.5" y="823.6729">21</text><text fill="#000000" font-family="sans-serif" font-size="13" lengthAdjust="spacing" textLength="28" x="703.5" y="823.6729">:float</text><line style="stroke:#A80036;stroke-width:2.0;" x1="1496.5" x2="1514.5" y1="819.9355" y2="837.9355"/><line style="stroke:#A80036;stroke-width:2.0;" x1="1496.5" x2="1514.5" y1="837.9355" y2="819.9355"/><polygon fill="#181818" points="1058.5,856.2266,1068.5,860.2266,1058.5,864.2266,1062.5,860.2266" style="stroke:#181818;stroke-width:1.0;"/><line style="stroke:#181818;stroke-width:1.0;" x1="668.5" x2="1064.5" y1="860.2266" y2="860.2266"/><text fill="#000000" font-family="sans-serif" font-size="13" font-weight="bold" lengthAdjust="spacing" textLength="14" x="675.5" y="854.9639">22</text><text fill="#000000" font-family="sans-serif" font-size="13" lengthAdjust="spacing" textLength="365" x="693.5" y="854.9639">showSalesAll(dishName: String, dishQty: int, dishPrice: String)</text><line style="stroke:#181818;stroke-width:1.0;" x1="1080.5" x2="1127.5" y1="886.5176" y2="886.5176"/><line style="stroke:#181818;stroke-width:1.0;" x1="1127.5" x2="1127.5" y1="886.5176" y2="899.5176"/><line style="stroke:#181818;stroke-width:1.0;" x1="1086.5" x2="1127.5" y1="899.5176" y2="899.5176"/><polygon fill="#181818" points="1096.5,895.5176,1086.5,899.5176,1096.5,903.5176,1092.5,899.5176" style="stroke:#181818;stroke-width:1.0;"/><text fill="#000000" font-family="sans-serif" font-size="13" font-weight="bold" lengthAdjust="spacing" textLength="14" x="1092.5" y="881.2549">23</text><text fill="#000000" font-family="sans-serif" font-size="13" lengthAdjust="spacing" textLength="388" x="1110.5" y="881.2549">formatShowSales(dishName: String, dishQty: int, dishPrice: String)</text><line style="stroke:#181818;stroke-width:1.0;stroke-dasharray:2.0,2.0;" x1="1085.5" x2="1127.5" y1="940.8086" y2="940.8086"/><line style="stroke:#181818;stroke-width:1.0;stroke-dasharray:2.0,2.0;" x1="1127.5" x2="1127.5" y1="940.8086" y2="953.8086"/><line style="stroke:#181818;stroke-width:1.0;stroke-dasharray:2.0,2.0;" x1="1080.5" x2="1127.5" y1="953.8086" y2="953.8086"/><polygon fill="#181818" points="1090.5,949.8086,1080.5,953.8086,1090.5,957.8086,1086.5,953.8086" style="stroke:#181818;stroke-width:1.0;"/><text fill="#000000" font-family="sans-serif" font-size="13" font-weight="bold" lengthAdjust="spacing" textLength="14" x="1092.5" y="935.5459">24</text><text fill="#000000" font-family="sans-serif" font-size="13" lengthAdjust="spacing" textLength="4" x="1110.5" y="935.5459">&#160;</text><polygon fill="#181818" points="679.5,976.0996,669.5,980.0996,679.5,984.0996,675.5,980.0996" style="stroke:#181818;stroke-width:1.0;"/><line style="stroke:#181818;stroke-width:1.0;stroke-dasharray:2.0,2.0;" x1="673.5" x2="1074.5" y1="980.0996" y2="980.0996"/><text fill="#000000" font-family="sans-serif" font-size="13" font-weight="bold" lengthAdjust="spacing" textLength="14" x="685.5" y="974.8369">25</text><text fill="#000000" font-family="sans-serif" font-size="13" lengthAdjust="spacing" textLength="4" x="703.5" y="974.8369">&#160;</text><polygon fill="#181818" points="1058.5,1014.3906,1068.5,1018.3906,1058.5,1022.3906,1062.5,1018.3906" style="stroke:#181818;stroke-width:1.0;"/><line style="stroke:#181818;stroke-width:1.0;" x1="668.5" x2="1064.5" y1="1018.3906" y2="1018.3906"/><text fill="#000000" font-family="sans-serif" font-size="13" font-weight="bold" lengthAdjust="spacing" textLength="14" x="675.5" y="1013.1279">26</text><text fill="#000000" font-family="sans-serif" font-size="13" lengthAdjust="spacing" textLength="113" x="693.5" y="1013.1279">showSalesBottom()</text><polygon fill="#181818" points="679.5,1045.6816,669.5,1049.6816,679.5,1053.6816,675.5,1049.6816" style="stroke:#181818;stroke-width:1.0;"/><line style="stroke:#181818;stroke-width:1.0;stroke-dasharray:2.0,2.0;" x1="673.5" x2="1074.5" y1="1049.6816" y2="1049.6816"/><text fill="#000000" font-family="sans-serif" font-size="13" font-weight="bold" lengthAdjust="spacing" textLength="14" x="685.5" y="1044.4189">27</text><text fill="#000000" font-family="sans-serif" font-size="13" lengthAdjust="spacing" textLength="4" x="703.5" y="1044.4189">&#160;</text><polygon fill="#181818" points="1058.5,1076.9727,1068.5,1080.9727,1058.5,1084.9727,1062.5,1080.9727" style="stroke:#181818;stroke-width:1.0;"/><line style="stroke:#181818;stroke-width:1.0;" x1="668.5" x2="1064.5" y1="1080.9727" y2="1080.9727"/><text fill="#000000" font-family="sans-serif" font-size="13" font-weight="bold" lengthAdjust="spacing" textLength="14" x="675.5" y="1075.71">28</text><text fill="#000000" font-family="sans-serif" font-size="13" lengthAdjust="spacing" textLength="98" x="693.5" y="1075.71">showSalesCost()</text><polygon fill="#181818" points="679.5,1108.2637,669.5,1112.2637,679.5,1116.2637,675.5,1112.2637" style="stroke:#181818;stroke-width:1.0;"/><line style="stroke:#181818;stroke-width:1.0;stroke-dasharray:2.0,2.0;" x1="673.5" x2="1074.5" y1="1112.2637" y2="1112.2637"/><text fill="#000000" font-family="sans-serif" font-size="13" font-weight="bold" lengthAdjust="spacing" textLength="14" x="685.5" y="1107.001">29</text><text fill="#000000" font-family="sans-serif" font-size="13" lengthAdjust="spacing" textLength="4" x="703.5" y="1107.001">&#160;</text><polygon fill="#181818" points="1058.5,1139.5547,1068.5,1143.5547,1058.5,1147.5547,1062.5,1143.5547" style="stroke:#181818;stroke-width:1.0;"/><line style="stroke:#181818;stroke-width:1.0;" x1="668.5" x2="1064.5" y1="1143.5547" y2="1143.5547"/><text fill="#000000" font-family="sans-serif" font-size="13" font-weight="bold" lengthAdjust="spacing" textLength="14" x="675.5" y="1138.292">30</text><text fill="#000000" font-family="sans-serif" font-size="13" lengthAdjust="spacing" textLength="113" x="693.5" y="1138.292">showSalesBottom()</text><polygon fill="#181818" points="679.5,1170.8457,669.5,1174.8457,679.5,1178.8457,675.5,1174.8457" style="stroke:#181818;stroke-width:1.0;"/><line style="stroke:#181818;stroke-width:1.0;stroke-dasharray:2.0,2.0;" x1="673.5" x2="1074.5" y1="1174.8457" y2="1174.8457"/><text fill="#000000" font-family="sans-serif" font-size="13" font-weight="bold" lengthAdjust="spacing" textLength="14" x="685.5" y="1169.583">31</text><text fill="#000000" font-family="sans-serif" font-size="13" lengthAdjust="spacing" textLength="4" x="703.5" y="1169.583">&#160;</text><polygon fill="#181818" points="462.5,1202.1367,452.5,1206.1367,462.5,1210.1367,458.5,1206.1367" style="stroke:#181818;stroke-width:1.0;"/><line style="stroke:#181818;stroke-width:1.0;stroke-dasharray:2.0,2.0;" x1="456.5" x2="662.5" y1="1206.1367" y2="1206.1367"/><text fill="#000000" font-family="sans-serif" font-size="13" font-weight="bold" lengthAdjust="spacing" textLength="14" x="468.5" y="1200.874">32</text><text fill="#000000" font-family="sans-serif" font-size="13" lengthAdjust="spacing" textLength="4" x="486.5" y="1200.874">&#160;</text><polygon fill="#181818" points="114.5,1233.4277,104.5,1237.4277,114.5,1241.4277,110.5,1237.4277" style="stroke:#181818;stroke-width:1.0;"/><line style="stroke:#181818;stroke-width:1.0;stroke-dasharray:2.0,2.0;" x1="108.5" x2="445.5" y1="1237.4277" y2="1237.4277"/><text fill="#000000" font-family="sans-serif" font-size="13" font-weight="bold" lengthAdjust="spacing" textLength="14" x="120.5" y="1232.165">33</text><text fill="#000000" font-family="sans-serif" font-size="13" lengthAdjust="spacing" textLength="4" x="138.5" y="1232.165">&#160;</text><polygon fill="#181818" points="11,1264.7188,1,1268.7188,11,1272.7188,7,1268.7188" style="stroke:#181818;stroke-width:1.0;"/><line style="stroke:#181818;stroke-width:1.0;stroke-dasharray:2.0,2.0;" x1="5" x2="97.5" y1="1268.7188" y2="1268.7188"/><text fill="#000000" font-family="sans-serif" font-size="13" font-weight="bold" lengthAdjust="spacing" textLength="14" x="17" y="1263.4561">34</text><text fill="#000000" font-family="sans-serif" font-size="13" lengthAdjust="spacing" textLength="4" x="35" y="1263.4561">&#160;</text><!--SRC=[hLFRRgCm47ttLqppHAic7s2jAgL97oebpMv9Fi252K4odiWskulKZw_110W9H9Nw0hRdp9avSxcBSPygXCLclPw_BI6ImXYOy5LgR2WaFXTBKImeouIA9-okHeVprKlOO4kSQOsRz-NB- -ert3Q0ZOvHbumzq3cWDUvU6yikdJ0cSaigppvGCmRJfw7qEE1_Z7ABmRtpYMpwLrWSr3Bmxlcz90wc_C-EEbKjCiXJxZDxX0nLpc7jleyGYuA30zvtOzUrEHqyUriF3dGwpmx2k2IE4YrM0DEJqQcYHfjh1Vo3IA9G3YOjA8AezlUiyFbPFbPdqql1PGzEte7-RMbdK0SP6YCIv11QfpOv4r4smOVii0ptWVsQJWTjg69msRBBV7mwrUEMZi7j38PBMJMiCPrJTSh89D7Hkx6kuP9Q98d6H7GwCzQOIcJ9NKTelEFDMAm9F3pm2-AcspqMtWA6-7ZVPvQWNQRcy2OolAAX7Im_1DyZ_cEB7-VSaXMokYteQYDR-hqaOLcCncegncfpFcfpAOEuBibf-DqkknUdfzfdV_kjqsXuE_n2jVHxqfcmuId83qIe9wi_OBVaFPErb8qiqxZxPTM_uNmZzjNV5m00]--></g></svg>