<?xml version="1.0" encoding="us-ascii" standalone="no"?><svg xmlns="http://www.w3.org/2000/svg" xmlns:xlink="http://www.w3.org/1999/xlink" contentStyleType="text/css" height="953px" preserveAspectRatio="none" style="width:1001px;height:953px;background:#FFFFFF;" version="1.1" viewBox="0 0 1001 953" width="1001px" zoomAndPan="magnify"><defs/><g><rect fill="#FFFFFF" height="834.6934" style="stroke:#181818;stroke-width:1.0;" width="10" x="84" y="71.9121"/><rect fill="#FFFFFF" height="31.291" style="stroke:#181818;stroke-width:1.0;" width="10" x="256" y="103.2031"/><rect fill="#FFFFFF" height="731.8203" style="stroke:#181818;stroke-width:1.0;" width="10" x="408" y="165.7852"/><rect fill="#FFFFFF" height="104.873" style="stroke:#181818;stroke-width:1.0;" width="10" x="413" y="205.0762"/><rect fill="#FFFFFF" height="503.0742" style="stroke:#181818;stroke-width:1.0;" width="10" x="413" y="356.2402"/><rect fill="#FFFFFF" height="42.291" style="stroke:#181818;stroke-width:1.0;" width="10" x="418" y="677.1504"/><rect fill="#FFFFFF" height="42.291" style="stroke:#181818;stroke-width:1.0;" width="10" x="418" y="772.7324"/><rect fill="#FFFFFF" height="31.291" style="stroke:#181818;stroke-width:1.0;" width="10" x="859" y="241.3672"/><rect fill="#FFFFFF" height="31.291" style="stroke:#181818;stroke-width:1.0;" width="10" x="859" y="392.5313"/><rect fill="#FFFFFF" height="31.291" style="stroke:#181818;stroke-width:1.0;" width="10" x="936" y="481.4043"/><rect fill="#FFFFFF" height="31.291" style="stroke:#181818;stroke-width:1.0;" width="10" x="936" y="543.9863"/><rect fill="#FFFFFF" height="31.291" style="stroke:#181818;stroke-width:1.0;" width="10" x="936" y="606.5684"/><rect fill="none" height="295.6191" style="stroke:#000000;stroke-width:1.5;" width="607" x="388" y="438.8223"/><line style="stroke:#181818;stroke-width:0.5;stroke-dasharray:5.0,5.0;" x1="88.5" x2="88.5" y1="38.6211" y2="915.6055"/><line style="stroke:#181818;stroke-width:0.5;stroke-dasharray:5.0,5.0;" x1="260.5" x2="260.5" y1="38.6211" y2="915.6055"/><line style="stroke:#181818;stroke-width:0.5;stroke-dasharray:5.0,5.0;" x1="413" x2="413" y1="38.6211" y2="915.6055"/><line style="stroke:#181818;stroke-width:0.5;stroke-dasharray:5.0,5.0;" x1="864" x2="864" y1="38.6211" y2="915.6055"/><line style="stroke:#181818;stroke-width:0.5;stroke-dasharray:5.0,5.0;" x1="941" x2="941" y1="38.6211" y2="915.6055"/><rect fill="#E2E2F0" height="32.6211" rx="2.5" ry="2.5" style="stroke:#181818;stroke-width:0.5;" width="167" x="5.5" y="5"/><text fill="#000000" font-family="sans-serif" font-size="14" lengthAdjust="spacing" textLength="153" x="12.5" y="27.1074">:ListIngredientCommand</text><rect fill="#E2E2F0" height="32.6211" rx="2.5" ry="2.5" style="stroke:#181818;stroke-width:0.5;" width="167" x="5.5" y="914.6055"/><text fill="#000000" font-family="sans-serif" font-size="14" lengthAdjust="spacing" textLength="153" x="12.5" y="936.7129">:ListIngredientCommand</text><rect fill="#E2E2F0" height="32.6211" rx="2.5" ry="2.5" style="stroke:#181818;stroke-width:0.5;" width="53" x="234.5" y="5"/><text fill="#000000" font-family="sans-serif" font-size="14" lengthAdjust="spacing" textLength="39" x="241.5" y="27.1074">:Menu</text><rect fill="#E2E2F0" height="32.6211" rx="2.5" ry="2.5" style="stroke:#181818;stroke-width:0.5;" width="53" x="234.5" y="914.6055"/><text fill="#000000" font-family="sans-serif" font-size="14" lengthAdjust="spacing" textLength="39" x="241.5" y="936.7129">:Menu</text><rect fill="#E2E2F0" height="32.6211" rx="2.5" ry="2.5" style="stroke:#181818;stroke-width:0.5;" width="30" x="398" y="5"/><text fill="#000000" font-family="sans-serif" font-size="14" lengthAdjust="spacing" textLength="16" x="405" y="27.1074">:Ui</text><rect fill="#E2E2F0" height="32.6211" rx="2.5" ry="2.5" style="stroke:#181818;stroke-width:0.5;" width="30" x="398" y="914.6055"/><text fill="#000000" font-family="sans-serif" font-size="14" lengthAdjust="spacing" textLength="16" x="405" y="936.7129">:Ui</text><rect fill="#E2E2F0" height="32.6211" rx="2.5" ry="2.5" style="stroke:#181818;stroke-width:0.5;" width="46" x="841" y="5"/><text fill="#000000" font-family="sans-serif" font-size="14" lengthAdjust="spacing" textLength="32" x="848" y="27.1074">:Dish</text><rect fill="#E2E2F0" height="32.6211" rx="2.5" ry="2.5" style="stroke:#181818;stroke-width:0.5;" width="46" x="841" y="914.6055"/><text fill="#000000" font-family="sans-serif" font-size="14" lengthAdjust="spacing" textLength="32" x="848" y="936.7129">:Dish</text><rect fill="#E2E2F0" height="32.6211" rx="2.5" ry="2.5" style="stroke:#181818;stroke-width:0.5;" width="88" x="897" y="5"/><text fill="#000000" font-family="sans-serif" font-size="14" lengthAdjust="spacing" textLength="74" x="904" y="27.1074">:Ingredients</text><rect fill="#E2E2F0" height="32.6211" rx="2.5" ry="2.5" style="stroke:#181818;stroke-width:0.5;" width="88" x="897" y="914.6055"/><text fill="#000000" font-family="sans-serif" font-size="14" lengthAdjust="spacing" textLength="74" x="904" y="936.7129">:Ingredients</text><rect fill="#FFFFFF" height="834.6934" style="stroke:#181818;stroke-width:1.0;" width="10" x="84" y="71.9121"/><rect fill="#FFFFFF" height="31.291" style="stroke:#181818;stroke-width:1.0;" width="10" x="256" y="103.2031"/><rect fill="#FFFFFF" height="731.8203" style="stroke:#181818;stroke-width:1.0;" width="10" x="408" y="165.7852"/><rect fill="#FFFFFF" height="104.873" style="stroke:#181818;stroke-width:1.0;" width="10" x="413" y="205.0762"/><rect fill="#FFFFFF" height="503.0742" style="stroke:#181818;stroke-width:1.0;" width="10" x="413" y="356.2402"/><rect fill="#FFFFFF" height="42.291" style="stroke:#181818;stroke-width:1.0;" width="10" x="418" y="677.1504"/><rect fill="#FFFFFF" height="42.291" style="stroke:#181818;stroke-width:1.0;" width="10" x="418" y="772.7324"/><rect fill="#FFFFFF" height="31.291" style="stroke:#181818;stroke-width:1.0;" width="10" x="859" y="241.3672"/><rect fill="#FFFFFF" height="31.291" style="stroke:#181818;stroke-width:1.0;" width="10" x="859" y="392.5313"/><rect fill="#FFFFFF" height="31.291" style="stroke:#181818;stroke-width:1.0;" width="10" x="936" y="481.4043"/><rect fill="#FFFFFF" height="31.291" style="stroke:#181818;stroke-width:1.0;" width="10" x="936" y="543.9863"/><rect fill="#FFFFFF" height="31.291" style="stroke:#181818;stroke-width:1.0;" width="10" x="936" y="606.5684"/><polygon fill="#181818" points="72,67.9121,82,71.9121,72,75.9121,76,71.9121" style="stroke:#181818;stroke-width:1.0;"/><line style="stroke:#181818;stroke-width:1.0;" x1="0" x2="78" y1="71.9121" y2="71.9121"/><text fill="#000000" font-family="sans-serif" font-size="13" font-weight="bold" lengthAdjust="spacing" textLength="7" x="7" y="66.6494">1</text><text fill="#000000" font-family="sans-serif" font-size="13" lengthAdjust="spacing" textLength="54" x="18" y="66.6494">execute()</text><polygon fill="#181818" points="244,99.2031,254,103.2031,244,107.2031,248,103.2031" style="stroke:#181818;stroke-width:1.0;"/><line style="stroke:#181818;stroke-width:1.0;" x1="94" x2="250" y1="103.2031" y2="103.2031"/><text fill="#000000" font-family="sans-serif" font-size="13" font-weight="bold" lengthAdjust="spacing" textLength="7" x="101" y="97.9404">2</text><text fill="#000000" font-family="sans-serif" font-size="13" lengthAdjust="spacing" textLength="111" x="112" y="97.9404">getMenuItemsList()</text><polygon fill="#181818" points="105,130.4941,95,134.4941,105,138.4941,101,134.4941" style="stroke:#181818;stroke-width:1.0;"/><line style="stroke:#181818;stroke-width:1.0;stroke-dasharray:2.0,2.0;" x1="99" x2="260" y1="134.4941" y2="134.4941"/><text fill="#000000" font-family="sans-serif" font-size="13" font-weight="bold" lengthAdjust="spacing" textLength="7" x="111" y="129.2314">3</text><text fill="#000000" font-family="sans-serif" font-size="13" lengthAdjust="spacing" textLength="127" x="122" y="129.2314">selectedDish : ":Dish"</text><polygon fill="#181818" points="396,161.7852,406,165.7852,396,169.7852,400,165.7852" style="stroke:#181818;stroke-width:1.0;"/><line style="stroke:#181818;stroke-width:1.0;" x1="94" x2="402" y1="165.7852" y2="165.7852"/><text fill="#000000" font-family="sans-serif" font-size="13" font-weight="bold" lengthAdjust="spacing" textLength="7" x="101" y="160.5225">4</text><text fill="#000000" font-family="sans-serif" font-size="13" lengthAdjust="spacing" textLength="284" x="112" y="160.5225">showListIngredientsMessage(selectedDish: Dish)</text><line style="stroke:#181818;stroke-width:1.0;" x1="418" x2="465" y1="192.0762" y2="192.0762"/><line style="stroke:#181818;stroke-width:1.0;" x1="465" x2="465" y1="192.0762" y2="205.0762"/><line style="stroke:#181818;stroke-width:1.0;" x1="424" x2="465" y1="205.0762" y2="205.0762"/><polygon fill="#181818" points="434,201.0762,424,205.0762,434,209.0762,430,205.0762" style="stroke:#181818;stroke-width:1.0;"/><text fill="#000000" font-family="sans-serif" font-size="13" font-weight="bold" lengthAdjust="spacing" textLength="7" x="430" y="186.8135">5</text><text fill="#000000" font-family="sans-serif" font-size="13" lengthAdjust="spacing" textLength="156" x="441" y="186.8135">showDishName(dish: Dish)</text><polygon fill="#181818" points="847,237.3672,857,241.3672,847,245.3672,851,241.3672" style="stroke:#181818;stroke-width:1.0;"/><line style="stroke:#181818;stroke-width:1.0;" x1="423" x2="853" y1="241.3672" y2="241.3672"/><text fill="#000000" font-family="sans-serif" font-size="13" font-weight="bold" lengthAdjust="spacing" textLength="7" x="430" y="236.1045">6</text><text fill="#000000" font-family="sans-serif" font-size="13" lengthAdjust="spacing" textLength="88" x="441" y="236.1045">dish.getName()</text><polygon fill="#181818" points="434,268.6582,424,272.6582,434,276.6582,430,272.6582" style="stroke:#181818;stroke-width:1.0;"/><line style="stroke:#181818;stroke-width:1.0;stroke-dasharray:2.0,2.0;" x1="428" x2="863" y1="272.6582" y2="272.6582"/><text fill="#000000" font-family="sans-serif" font-size="13" font-weight="bold" lengthAdjust="spacing" textLength="7" x="440" y="267.3955">7</text><text fill="#000000" font-family="sans-serif" font-size="13" lengthAdjust="spacing" textLength="42" x="451" y="267.3955">: String</text><line style="stroke:#181818;stroke-width:1.0;stroke-dasharray:2.0,2.0;" x1="423" x2="465" y1="308.9492" y2="308.9492"/><line style="stroke:#181818;stroke-width:1.0;stroke-dasharray:2.0,2.0;" x1="465" x2="465" y1="308.9492" y2="321.9492"/><line style="stroke:#181818;stroke-width:1.0;stroke-dasharray:2.0,2.0;" x1="418" x2="465" y1="321.9492" y2="321.9492"/><polygon fill="#181818" points="428,317.9492,418,321.9492,428,325.9492,424,321.9492" style="stroke:#181818;stroke-width:1.0;"/><text fill="#000000" font-family="sans-serif" font-size="13" font-weight="bold" lengthAdjust="spacing" textLength="7" x="430" y="303.6865">8</text><text fill="#000000" font-family="sans-serif" font-size="13" lengthAdjust="spacing" textLength="4" x="441" y="303.6865">&#160;</text><line style="stroke:#181818;stroke-width:1.0;" x1="418" x2="465" y1="343.2402" y2="343.2402"/><line style="stroke:#181818;stroke-width:1.0;" x1="465" x2="465" y1="343.2402" y2="356.2402"/><line style="stroke:#181818;stroke-width:1.0;" x1="424" x2="465" y1="356.2402" y2="356.2402"/><polygon fill="#181818" points="434,352.2402,424,356.2402,434,360.2402,430,356.2402" style="stroke:#181818;stroke-width:1.0;"/><text fill="#000000" font-family="sans-serif" font-size="13" font-weight="bold" lengthAdjust="spacing" textLength="7" x="430" y="337.9775">9</text><text fill="#000000" font-family="sans-serif" font-size="13" lengthAdjust="spacing" textLength="177" x="441" y="337.9775">showIngredientList(dish : Dish)</text><polygon fill="#181818" points="847,388.5313,857,392.5313,847,396.5313,851,392.5313" style="stroke:#181818;stroke-width:1.0;"/><line style="stroke:#181818;stroke-width:1.0;" x1="423" x2="853" y1="392.5313" y2="392.5313"/><text fill="#000000" font-family="sans-serif" font-size="13" font-weight="bold" lengthAdjust="spacing" textLength="14" x="430" y="387.2686">10</text><text fill="#000000" font-family="sans-serif" font-size="13" lengthAdjust="spacing" textLength="168" x="448" y="387.2686">selectedDish.getIngredients()</text><polygon fill="#181818" points="434,419.8223,424,423.8223,434,427.8223,430,423.8223" style="stroke:#181818;stroke-width:1.0;"/><line style="stroke:#181818;stroke-width:1.0;stroke-dasharray:2.0,2.0;" x1="428" x2="863" y1="423.8223" y2="423.8223"/><text fill="#000000" font-family="sans-serif" font-size="13" font-weight="bold" lengthAdjust="spacing" textLength="14" x="440" y="418.5596">11</text><text fill="#000000" font-family="sans-serif" font-size="13" lengthAdjust="spacing" textLength="195" x="458" y="418.5596">ingredients: ArrayList&lt;Ingredient&gt;</text><path d="M388,438.8223 L461,438.8223 L461,448.1133 L451,458.1133 L388,458.1133 L388,438.8223 " fill="#EEEEEE" style="stroke:#000000;stroke-width:1.5;"/><rect fill="none" height="295.6191" style="stroke:#000000;stroke-width:1.5;" width="607" x="388" y="438.8223"/><text fill="#000000" font-family="sans-serif" font-size="13" font-weight="bold" lengthAdjust="spacing" textLength="28" x="403" y="453.8506">loop</text><text fill="#000000" font-family="sans-serif" font-size="11" font-weight="bold" lengthAdjust="spacing" textLength="72" x="476" y="452.6924">[ingredients]</text><polygon fill="#181818" points="924,477.4043,934,481.4043,924,485.4043,928,481.4043" style="stroke:#181818;stroke-width:1.0;"/><line style="stroke:#181818;stroke-width:1.0;" x1="423" x2="930" y1="481.4043" y2="481.4043"/><text fill="#000000" font-family="sans-serif" font-size="13" font-weight="bold" lengthAdjust="spacing" textLength="14" x="430" y="476.1416">12</text><text fill="#000000" font-family="sans-serif" font-size="13" lengthAdjust="spacing" textLength="120" x="448" y="476.1416">ingredient.getName()</text><polygon fill="#181818" points="434,508.6953,424,512.6953,434,516.6953,430,512.6953" style="stroke:#181818;stroke-width:1.0;"/><line style="stroke:#181818;stroke-width:1.0;stroke-dasharray:2.0,2.0;" x1="428" x2="940" y1="512.6953" y2="512.6953"/><text fill="#000000" font-family="sans-serif" font-size="13" font-weight="bold" lengthAdjust="spacing" textLength="14" x="440" y="507.4326">13</text><text fill="#000000" font-family="sans-serif" font-size="13" lengthAdjust="spacing" textLength="34" x="458" y="507.4326">String</text><polygon fill="#181818" points="924,539.9863,934,543.9863,924,547.9863,928,543.9863" style="stroke:#181818;stroke-width:1.0;"/><line style="stroke:#181818;stroke-width:1.0;" x1="423" x2="930" y1="543.9863" y2="543.9863"/><text fill="#000000" font-family="sans-serif" font-size="13" font-weight="bold" lengthAdjust="spacing" textLength="14" x="430" y="538.7236">14</text><text fill="#000000" font-family="sans-serif" font-size="13" lengthAdjust="spacing" textLength="107" x="448" y="538.7236">ingredient.getQty()</text><polygon fill="#181818" points="434,571.2773,424,575.2773,434,579.2773,430,575.2773" style="stroke:#181818;stroke-width:1.0;"/><line style="stroke:#181818;stroke-width:1.0;stroke-dasharray:2.0,2.0;" x1="428" x2="940" y1="575.2773" y2="575.2773"/><text fill="#000000" font-family="sans-serif" font-size="13" font-weight="bold" lengthAdjust="spacing" textLength="14" x="440" y="570.0146">15</text><text fill="#000000" font-family="sans-serif" font-size="13" lengthAdjust="spacing" textLength="14" x="458" y="570.0146">int</text><polygon fill="#181818" points="924,602.5684,934,606.5684,924,610.5684,928,606.5684" style="stroke:#181818;stroke-width:1.0;"/><line style="stroke:#181818;stroke-width:1.0;" x1="423" x2="930" y1="606.5684" y2="606.5684"/><text fill="#000000" font-family="sans-serif" font-size="13" font-weight="bold" lengthAdjust="spacing" textLength="14" x="430" y="601.3057">16</text><text fill="#000000" font-family="sans-serif" font-size="13" lengthAdjust="spacing" textLength="109" x="448" y="601.3057">ingredient.getUnit()</text><polygon fill="#181818" points="434,633.8594,424,637.8594,434,641.8594,430,637.8594" style="stroke:#181818;stroke-width:1.0;"/><line style="stroke:#181818;stroke-width:1.0;stroke-dasharray:2.0,2.0;" x1="428" x2="940" y1="637.8594" y2="637.8594"/><text fill="#000000" font-family="sans-serif" font-size="13" font-weight="bold" lengthAdjust="spacing" textLength="14" x="440" y="632.5967">17</text><text fill="#000000" font-family="sans-serif" font-size="13" lengthAdjust="spacing" textLength="34" x="458" y="632.5967">String</text><line style="stroke:#181818;stroke-width:1.0;" x1="423" x2="470" y1="664.1504" y2="664.1504"/><line style="stroke:#181818;stroke-width:1.0;" x1="470" x2="470" y1="664.1504" y2="677.1504"/><line style="stroke:#181818;stroke-width:1.0;" x1="429" x2="470" y1="677.1504" y2="677.1504"/><polygon fill="#181818" points="439,673.1504,429,677.1504,439,681.1504,435,677.1504" style="stroke:#181818;stroke-width:1.0;"/><text fill="#000000" font-family="sans-serif" font-size="13" font-weight="bold" lengthAdjust="spacing" textLength="14" x="435" y="658.8877">18</text><text fill="#000000" font-family="sans-serif" font-size="13" lengthAdjust="spacing" textLength="404" x="453" y="658.8877">formatListIngredient(ingredientName: String, ingredientAmount: String)</text><line style="stroke:#181818;stroke-width:1.0;stroke-dasharray:2.0,2.0;" x1="428" x2="470" y1="718.4414" y2="718.4414"/><line style="stroke:#181818;stroke-width:1.0;stroke-dasharray:2.0,2.0;" x1="470" x2="470" y1="718.4414" y2="731.4414"/><line style="stroke:#181818;stroke-width:1.0;stroke-dasharray:2.0,2.0;" x1="423" x2="470" y1="731.4414" y2="731.4414"/><polygon fill="#181818" points="433,727.4414,423,731.4414,433,735.4414,429,731.4414" style="stroke:#181818;stroke-width:1.0;"/><text fill="#000000" font-family="sans-serif" font-size="13" font-weight="bold" lengthAdjust="spacing" textLength="14" x="435" y="713.1787">19</text><text fill="#000000" font-family="sans-serif" font-size="13" lengthAdjust="spacing" textLength="4" x="453" y="713.1787">&#160;</text><line style="stroke:#181818;stroke-width:1.0;" x1="423" x2="470" y1="759.7324" y2="759.7324"/><line style="stroke:#181818;stroke-width:1.0;" x1="470" x2="470" y1="759.7324" y2="772.7324"/><line style="stroke:#181818;stroke-width:1.0;" x1="429" x2="470" y1="772.7324" y2="772.7324"/><polygon fill="#181818" points="439,768.7324,429,772.7324,439,776.7324,435,772.7324" style="stroke:#181818;stroke-width:1.0;"/><text fill="#000000" font-family="sans-serif" font-size="13" font-weight="bold" lengthAdjust="spacing" textLength="14" x="435" y="754.4697">20</text><text fill="#000000" font-family="sans-serif" font-size="13" lengthAdjust="spacing" textLength="147" x="453" y="754.4697">showIngredientsEndCap()</text><line style="stroke:#181818;stroke-width:1.0;stroke-dasharray:2.0,2.0;" x1="428" x2="470" y1="814.0234" y2="814.0234"/><line style="stroke:#181818;stroke-width:1.0;stroke-dasharray:2.0,2.0;" x1="470" x2="470" y1="814.0234" y2="827.0234"/><line style="stroke:#181818;stroke-width:1.0;stroke-dasharray:2.0,2.0;" x1="423" x2="470" y1="827.0234" y2="827.0234"/><polygon fill="#181818" points="433,823.0234,423,827.0234,433,831.0234,429,827.0234" style="stroke:#181818;stroke-width:1.0;"/><text fill="#000000" font-family="sans-serif" font-size="13" font-weight="bold" lengthAdjust="spacing" textLength="14" x="435" y="808.7607">21</text><text fill="#000000" font-family="sans-serif" font-size="13" lengthAdjust="spacing" textLength="4" x="453" y="808.7607">&#160;</text><line style="stroke:#181818;stroke-width:1.0;stroke-dasharray:2.0,2.0;" x1="423" x2="465" y1="858.3145" y2="858.3145"/><line style="stroke:#181818;stroke-width:1.0;stroke-dasharray:2.0,2.0;" x1="465" x2="465" y1="858.3145" y2="871.3145"/><line style="stroke:#181818;stroke-width:1.0;stroke-dasharray:2.0,2.0;" x1="418" x2="465" y1="871.3145" y2="871.3145"/><polygon fill="#181818" points="428,867.3145,418,871.3145,428,875.3145,424,871.3145" style="stroke:#181818;stroke-width:1.0;"/><text fill="#000000" font-family="sans-serif" font-size="13" font-weight="bold" lengthAdjust="spacing" textLength="14" x="430" y="853.0518">22</text><text fill="#000000" font-family="sans-serif" font-size="13" lengthAdjust="spacing" textLength="4" x="448" y="853.0518">&#160;</text><polygon fill="#181818" points="105,893.6055,95,897.6055,105,901.6055,101,897.6055" style="stroke:#181818;stroke-width:1.0;"/><line style="stroke:#181818;stroke-width:1.0;stroke-dasharray:2.0,2.0;" x1="99" x2="412" y1="897.6055" y2="897.6055"/><text fill="#000000" font-family="sans-serif" font-size="13" font-weight="bold" lengthAdjust="spacing" textLength="14" x="111" y="892.3428">23</text><text fill="#000000" font-family="sans-serif" font-size="13" lengthAdjust="spacing" textLength="4" x="129" y="892.3428">&#160;</text><!--SRC=[jLFjRe8m5FtFKrH_iMJk0SXYGjHa9CCv3G_GqIisWMBQopRVVYqVjk3GPSlyWS0zvzvpRWyJ1dikW2nUuZXSBqcQKwN8D7Zc2YEHIM0S12xAeg22JRr92q-YCpBXzdMyMYVdGWoYigLbj7iwbvPS7Mnf4svtgsrRt52fG7eUhR0KLV5cxibiFYef8F09QONWtsbIYloT8emR62iq8sh9920PeBcD40fbyBgtqxenrg5dLyKfo255OCQnRjnPPt3HxuOqlMRDLuVoeuzICIX5C_3TIG4nrvveSqnUqsRGpq3Nj02VZJCTOcr0KmtwGI-gflO8ZKK9M4cXWJkKN6JjyuW6wwTUDsksTTD4fyNrRZGvwxaYZLjKG48fwSaCVxJakQT_ULaUNQWxtvcZpzg2lj-BY_RwZssAweMq- -f5P43zaO1NFFrgFXVuz-69uFZlxflyx4jPKEn_5RvLOywX2-6zep8ioafWLxc8MHjN48oO10npEuojMWcse4T_h4__xmi0]--></g></svg>