<?xml version="1.0" encoding="us-ascii" standalone="no"?><svg xmlns="http://www.w3.org/2000/svg" xmlns:xlink="http://www.w3.org/1999/xlink" contentStyleType="text/css" height="970px" preserveAspectRatio="none" style="width:1028px;height:970px;background:#FFFFFF;" version="1.1" viewBox="0 0 1028 970" width="1028px" zoomAndPan="magnify"><defs/><g><rect fill="#FFFFFF" height="843.0723" style="stroke:#181818;stroke-width:1.0;" width="10" x="377" y="71.9121"/><rect fill="#FFFFFF" height="42.291" style="stroke:#181818;stroke-width:1.0;" width="10" x="382" y="173.7852"/><rect fill="#FFFFFF" height="42.291" style="stroke:#181818;stroke-width:1.0;" width="10" x="382" y="363.5703"/><rect fill="#FFFFFF" height="164.1641" style="stroke:#181818;stroke-width:1.0;" width="10" x="382" y="478.4434"/><rect fill="#FFFFFF" height="42.291" style="stroke:#181818;stroke-width:1.0;" width="10" x="387" y="549.0254"/><rect fill="#FFFFFF" height="164.1641" style="stroke:#181818;stroke-width:1.0;" width="10" x="382" y="705.5293"/><rect fill="#FFFFFF" height="42.291" style="stroke:#181818;stroke-width:1.0;" width="10" x="387" y="776.1113"/><rect fill="#FFFFFF" height="31.291" style="stroke:#181818;stroke-width:1.0;" width="10" x="903" y="103.2031"/><rect fill="#FFFFFF" height="33.6211" style="stroke:#181818;stroke-width:1.0;" width="10" x="976.5" y="290.6582"/><rect fill="none" height="456.832" style="stroke:#000000;stroke-width:1.5;" width="580.5" x="332.5" y="427.8613"/><rect fill="none" height="107.873" style="stroke:#000000;stroke-width:1.5;" width="423.5" x="342.5" y="498.4434"/><rect fill="none" height="107.873" style="stroke:#000000;stroke-width:1.5;" width="423.5" x="342.5" y="725.5293"/><line style="stroke:#181818;stroke-width:0.5;stroke-dasharray:5.0,5.0;" x1="381.5" x2="381.5" y1="38.6211" y2="932.9844"/><line style="stroke:#181818;stroke-width:0.5;stroke-dasharray:5.0,5.0;" x1="908" x2="908" y1="38.6211" y2="932.9844"/><line style="stroke:#181818;stroke-width:0.5;stroke-dasharray:5.0,5.0;" x1="981" x2="981" y1="289.1777" y2="932.9844"/><rect fill="#E2E2F0" height="32.6211" rx="2.5" ry="2.5" style="stroke:#181818;stroke-width:0.5;" width="59" x="352.5" y="5"/><text fill="#000000" font-family="sans-serif" font-size="14" lengthAdjust="spacing" textLength="45" x="359.5" y="27.1074">:Pantry</text><rect fill="#E2E2F0" height="32.6211" rx="2.5" ry="2.5" style="stroke:#181818;stroke-width:0.5;" width="59" x="352.5" y="931.9844"/><text fill="#000000" font-family="sans-serif" font-size="14" lengthAdjust="spacing" textLength="45" x="359.5" y="954.0918">:Pantry</text><rect fill="#E2E2F0" height="32.6211" rx="2.5" ry="2.5" style="stroke:#181818;stroke-width:0.5;" width="46" x="885" y="5"/><text fill="#000000" font-family="sans-serif" font-size="14" lengthAdjust="spacing" textLength="32" x="892" y="27.1074">:Dish</text><rect fill="#E2E2F0" height="32.6211" rx="2.5" ry="2.5" style="stroke:#181818;stroke-width:0.5;" width="46" x="885" y="931.9844"/><text fill="#000000" font-family="sans-serif" font-size="14" lengthAdjust="spacing" textLength="32" x="892" y="954.0918">:Dish</text><rect fill="#E2E2F0" height="32.6211" rx="2.5" ry="2.5" style="stroke:#181818;stroke-width:0.5;" width="81" x="941" y="931.9844"/><text fill="#000000" font-family="sans-serif" font-size="14" lengthAdjust="spacing" textLength="67" x="948" y="954.0918">:Ingredient</text><rect fill="#FFFFFF" height="843.0723" style="stroke:#181818;stroke-width:1.0;" width="10" x="377" y="71.9121"/><rect fill="#FFFFFF" height="42.291" style="stroke:#181818;stroke-width:1.0;" width="10" x="382" y="173.7852"/><rect fill="#FFFFFF" height="42.291" style="stroke:#181818;stroke-width:1.0;" width="10" x="382" y="363.5703"/><rect fill="#FFFFFF" height="164.1641" style="stroke:#181818;stroke-width:1.0;" width="10" x="382" y="478.4434"/><rect fill="#FFFFFF" height="42.291" style="stroke:#181818;stroke-width:1.0;" width="10" x="387" y="549.0254"/><rect fill="#FFFFFF" height="164.1641" style="stroke:#181818;stroke-width:1.0;" width="10" x="382" y="705.5293"/><rect fill="#FFFFFF" height="42.291" style="stroke:#181818;stroke-width:1.0;" width="10" x="387" y="776.1113"/><rect fill="#FFFFFF" height="31.291" style="stroke:#181818;stroke-width:1.0;" width="10" x="903" y="103.2031"/><rect fill="#FFFFFF" height="33.6211" style="stroke:#181818;stroke-width:1.0;" width="10" x="976.5" y="290.6582"/><polygon fill="#181818" points="365,67.9121,375,71.9121,365,75.9121,369,71.9121" style="stroke:#181818;stroke-width:1.0;"/><line style="stroke:#181818;stroke-width:1.0;" x1="0" x2="371" y1="71.9121" y2="71.9121"/><text fill="#000000" font-family="sans-serif" font-size="13" font-weight="bold" lengthAdjust="spacing" textLength="7" x="7" y="66.6494">1</text><text fill="#000000" font-family="sans-serif" font-size="13" lengthAdjust="spacing" textLength="340" x="18" y="66.6494">calculateMaxDish(dish: ":Dish", menu: Menu, order: Order)</text><polygon fill="#181818" points="891,99.2031,901,103.2031,891,107.2031,895,103.2031" style="stroke:#181818;stroke-width:1.0;"/><line style="stroke:#181818;stroke-width:1.0;" x1="387" x2="897" y1="103.2031" y2="103.2031"/><text fill="#000000" font-family="sans-serif" font-size="13" font-weight="bold" lengthAdjust="spacing" textLength="7" x="394" y="97.9404">2</text><text fill="#000000" font-family="sans-serif" font-size="13" lengthAdjust="spacing" textLength="88" x="405" y="97.9404">dish.getName()</text><polygon fill="#181818" points="398,130.4941,388,134.4941,398,138.4941,394,134.4941" style="stroke:#181818;stroke-width:1.0;"/><line style="stroke:#181818;stroke-width:1.0;stroke-dasharray:2.0,2.0;" x1="392" x2="907" y1="134.4941" y2="134.4941"/><text fill="#000000" font-family="sans-serif" font-size="13" font-weight="bold" lengthAdjust="spacing" textLength="7" x="404" y="129.2314">3</text><text fill="#000000" font-family="sans-serif" font-size="13" lengthAdjust="spacing" textLength="96" x="415" y="129.2314">dishName:String</text><line style="stroke:#181818;stroke-width:1.0;" x1="387" x2="434" y1="160.7852" y2="160.7852"/><line style="stroke:#181818;stroke-width:1.0;" x1="434" x2="434" y1="160.7852" y2="173.7852"/><line style="stroke:#181818;stroke-width:1.0;" x1="393" x2="434" y1="173.7852" y2="173.7852"/><polygon fill="#181818" points="403,169.7852,393,173.7852,403,177.7852,399,173.7852" style="stroke:#181818;stroke-width:1.0;"/><text fill="#000000" font-family="sans-serif" font-size="13" font-weight="bold" lengthAdjust="spacing" textLength="7" x="399" y="155.5225">4</text><text fill="#000000" font-family="sans-serif" font-size="13" lengthAdjust="spacing" textLength="257" x="410" y="155.5225">retrieveIngredientsForDish(dishName: String)</text><line style="stroke:#181818;stroke-width:1.0;stroke-dasharray:2.0,2.0;" x1="392" x2="434" y1="215.0762" y2="215.0762"/><line style="stroke:#181818;stroke-width:1.0;stroke-dasharray:2.0,2.0;" x1="434" x2="434" y1="215.0762" y2="228.0762"/><line style="stroke:#181818;stroke-width:1.0;stroke-dasharray:2.0,2.0;" x1="387" x2="434" y1="228.0762" y2="228.0762"/><polygon fill="#181818" points="397,224.0762,387,228.0762,397,232.0762,393,228.0762" style="stroke:#181818;stroke-width:1.0;"/><text fill="#000000" font-family="sans-serif" font-size="13" font-weight="bold" lengthAdjust="spacing" textLength="7" x="399" y="209.8135">5</text><text fill="#000000" font-family="sans-serif" font-size="13" lengthAdjust="spacing" textLength="233" x="410" y="209.8135">dishIngredients: ArrayList&lt;":Ingredient"&gt;</text><polygon fill="#181818" points="929,276.6582,939,280.6582,929,284.6582,933,280.6582" style="stroke:#181818;stroke-width:1.0;"/><line style="stroke:#181818;stroke-width:1.0;" x1="387" x2="935" y1="280.6582" y2="280.6582"/><text fill="#000000" font-family="sans-serif" font-size="13" font-weight="bold" lengthAdjust="spacing" textLength="7" x="394" y="275.3955">6</text><text fill="#000000" font-family="sans-serif" font-size="13" lengthAdjust="spacing" textLength="4" x="405" y="275.3955">&#160;</text><rect fill="#E2E2F0" height="32.6211" rx="2.5" ry="2.5" style="stroke:#181818;stroke-width:0.5;" width="81" x="941" y="257.3672"/><text fill="#000000" font-family="sans-serif" font-size="14" lengthAdjust="spacing" textLength="67" x="948" y="279.4746">:Ingredient</text><polygon fill="#181818" points="398,320.2793,388,324.2793,398,328.2793,394,324.2793" style="stroke:#181818;stroke-width:1.0;"/><line style="stroke:#181818;stroke-width:1.0;stroke-dasharray:2.0,2.0;" x1="392" x2="980.5" y1="324.2793" y2="324.2793"/><text fill="#000000" font-family="sans-serif" font-size="13" font-weight="bold" lengthAdjust="spacing" textLength="7" x="404" y="319.0166">7</text><text fill="#000000" font-family="sans-serif" font-size="13" lengthAdjust="spacing" textLength="158" x="415" y="319.0166">dishIngredient: ":Ingredient"</text><line style="stroke:#181818;stroke-width:1.0;" x1="387" x2="434" y1="350.5703" y2="350.5703"/><line style="stroke:#181818;stroke-width:1.0;" x1="434" x2="434" y1="350.5703" y2="363.5703"/><line style="stroke:#181818;stroke-width:1.0;" x1="393" x2="434" y1="363.5703" y2="363.5703"/><polygon fill="#181818" points="403,359.5703,393,363.5703,403,367.5703,399,363.5703" style="stroke:#181818;stroke-width:1.0;"/><text fill="#000000" font-family="sans-serif" font-size="13" font-weight="bold" lengthAdjust="spacing" textLength="7" x="399" y="345.3076">8</text><text fill="#000000" font-family="sans-serif" font-size="13" lengthAdjust="spacing" textLength="360" x="410" y="345.3076">calculateMaxDishForEachIngredient(dishIngredient: Ingredient)</text><line style="stroke:#181818;stroke-width:1.0;stroke-dasharray:2.0,2.0;" x1="392" x2="434" y1="404.8613" y2="404.8613"/><line style="stroke:#181818;stroke-width:1.0;stroke-dasharray:2.0,2.0;" x1="434" x2="434" y1="404.8613" y2="417.8613"/><line style="stroke:#181818;stroke-width:1.0;stroke-dasharray:2.0,2.0;" x1="387" x2="434" y1="417.8613" y2="417.8613"/><polygon fill="#181818" points="397,413.8613,387,417.8613,397,421.8613,393,417.8613" style="stroke:#181818;stroke-width:1.0;"/><text fill="#000000" font-family="sans-serif" font-size="13" font-weight="bold" lengthAdjust="spacing" textLength="7" x="399" y="399.5986">9</text><text fill="#000000" font-family="sans-serif" font-size="13" lengthAdjust="spacing" textLength="86" x="410" y="399.5986">numOfDish: int</text><path d="M332.5,427.8613 L393.5,427.8613 L393.5,437.1523 L383.5,447.1523 L332.5,447.1523 L332.5,427.8613 " fill="#EEEEEE" style="stroke:#000000;stroke-width:1.5;"/><rect fill="none" height="456.832" style="stroke:#000000;stroke-width:1.5;" width="580.5" x="332.5" y="427.8613"/><text fill="#000000" font-family="sans-serif" font-size="13" font-weight="bold" lengthAdjust="spacing" textLength="16" x="347.5" y="442.8896">alt</text><text fill="#000000" font-family="sans-serif" font-size="11" font-weight="bold" lengthAdjust="spacing" textLength="135" x="408.5" y="441.7314">[!order.getIsComplete()]</text><line style="stroke:#181818;stroke-width:1.0;" x1="387" x2="434" y1="465.4434" y2="465.4434"/><line style="stroke:#181818;stroke-width:1.0;" x1="434" x2="434" y1="465.4434" y2="478.4434"/><line style="stroke:#181818;stroke-width:1.0;" x1="393" x2="434" y1="478.4434" y2="478.4434"/><polygon fill="#181818" points="403,474.4434,393,478.4434,403,482.4434,399,478.4434" style="stroke:#181818;stroke-width:1.0;"/><text fill="#000000" font-family="sans-serif" font-size="13" font-weight="bold" lengthAdjust="spacing" textLength="14" x="399" y="460.1807">10</text><text fill="#000000" font-family="sans-serif" font-size="13" lengthAdjust="spacing" textLength="484" x="417" y="460.1807">handleIncompleteDishCase(dishIngredient: Ingredient), order: Order, numOfDish: int)</text><path d="M342.5,498.4434 L403.5,498.4434 L403.5,507.7344 L393.5,517.7344 L342.5,517.7344 L342.5,498.4434 " fill="#EEEEEE" style="stroke:#000000;stroke-width:1.5;"/><rect fill="none" height="107.873" style="stroke:#000000;stroke-width:1.5;" width="423.5" x="342.5" y="498.4434"/><text fill="#000000" font-family="sans-serif" font-size="13" font-weight="bold" lengthAdjust="spacing" textLength="16" x="357.5" y="513.4717">alt</text><text fill="#000000" font-family="sans-serif" font-size="11" font-weight="bold" lengthAdjust="spacing" textLength="247" x="418.5" y="512.3135">[lacking ingredients (numOfDish &lt; orderQty)]</text><line style="stroke:#181818;stroke-width:1.0;" x1="392" x2="439" y1="536.0254" y2="536.0254"/><line style="stroke:#181818;stroke-width:1.0;" x1="439" x2="439" y1="536.0254" y2="549.0254"/><line style="stroke:#181818;stroke-width:1.0;" x1="398" x2="439" y1="549.0254" y2="549.0254"/><polygon fill="#181818" points="408,545.0254,398,549.0254,408,553.0254,404,549.0254" style="stroke:#181818;stroke-width:1.0;"/><text fill="#000000" font-family="sans-serif" font-size="13" font-weight="bold" lengthAdjust="spacing" textLength="14" x="404" y="530.7627">11</text><text fill="#000000" font-family="sans-serif" font-size="13" lengthAdjust="spacing" textLength="332" x="422" y="530.7627">handleRestock(dishIngredient: ":Ingredient", orderQty: int)</text><line style="stroke:#181818;stroke-width:1.0;stroke-dasharray:2.0,2.0;" x1="397" x2="439" y1="590.3164" y2="590.3164"/><line style="stroke:#181818;stroke-width:1.0;stroke-dasharray:2.0,2.0;" x1="439" x2="439" y1="590.3164" y2="603.3164"/><line style="stroke:#181818;stroke-width:1.0;stroke-dasharray:2.0,2.0;" x1="392" x2="439" y1="603.3164" y2="603.3164"/><polygon fill="#181818" points="402,599.3164,392,603.3164,402,607.3164,398,603.3164" style="stroke:#181818;stroke-width:1.0;"/><text fill="#000000" font-family="sans-serif" font-size="13" font-weight="bold" lengthAdjust="spacing" textLength="14" x="404" y="585.0537">12</text><text fill="#000000" font-family="sans-serif" font-size="13" lengthAdjust="spacing" textLength="4" x="422" y="585.0537">&#160;</text><line style="stroke:#181818;stroke-width:1.0;stroke-dasharray:2.0,2.0;" x1="392" x2="434" y1="641.6074" y2="641.6074"/><line style="stroke:#181818;stroke-width:1.0;stroke-dasharray:2.0,2.0;" x1="434" x2="434" y1="641.6074" y2="654.6074"/><line style="stroke:#181818;stroke-width:1.0;stroke-dasharray:2.0,2.0;" x1="387" x2="434" y1="654.6074" y2="654.6074"/><polygon fill="#181818" points="397,650.6074,387,654.6074,397,658.6074,393,654.6074" style="stroke:#181818;stroke-width:1.0;"/><text fill="#000000" font-family="sans-serif" font-size="13" font-weight="bold" lengthAdjust="spacing" textLength="14" x="399" y="636.3447">13</text><text fill="#000000" font-family="sans-serif" font-size="13" lengthAdjust="spacing" textLength="4" x="417" y="636.3447">&#160;</text><line style="stroke:#000000;stroke-width:1.0;stroke-dasharray:2.0,2.0;" x1="332.5" x2="913" y1="658.6074" y2="658.6074"/><text fill="#000000" font-family="sans-serif" font-size="11" font-weight="bold" lengthAdjust="spacing" textLength="132" x="337.5" y="670.4775">[order.getIsComplete()]</text><line style="stroke:#181818;stroke-width:1.0;" x1="387" x2="434" y1="692.5293" y2="692.5293"/><line style="stroke:#181818;stroke-width:1.0;" x1="434" x2="434" y1="692.5293" y2="705.5293"/><line style="stroke:#181818;stroke-width:1.0;" x1="393" x2="434" y1="705.5293" y2="705.5293"/><polygon fill="#181818" points="403,701.5293,393,705.5293,403,709.5293,399,705.5293" style="stroke:#181818;stroke-width:1.0;"/><text fill="#000000" font-family="sans-serif" font-size="13" font-weight="bold" lengthAdjust="spacing" textLength="14" x="399" y="687.2666">14</text><text fill="#000000" font-family="sans-serif" font-size="13" lengthAdjust="spacing" textLength="446" x="417" y="687.2666">handleZeroDishCase(dishIngredient: Ingredient), order: Order, numOfDish: int)</text><path d="M342.5,725.5293 L403.5,725.5293 L403.5,734.8203 L393.5,744.8203 L342.5,744.8203 L342.5,725.5293 " fill="#EEEEEE" style="stroke:#000000;stroke-width:1.5;"/><rect fill="none" height="107.873" style="stroke:#000000;stroke-width:1.5;" width="423.5" x="342.5" y="725.5293"/><text fill="#000000" font-family="sans-serif" font-size="13" font-weight="bold" lengthAdjust="spacing" textLength="16" x="357.5" y="740.5576">alt</text><text fill="#000000" font-family="sans-serif" font-size="11" font-weight="bold" lengthAdjust="spacing" textLength="210" x="418.5" y="739.3994">[lacking ingredients (numOfDish == 0)]</text><line style="stroke:#181818;stroke-width:1.0;" x1="392" x2="439" y1="763.1113" y2="763.1113"/><line style="stroke:#181818;stroke-width:1.0;" x1="439" x2="439" y1="763.1113" y2="776.1113"/><line style="stroke:#181818;stroke-width:1.0;" x1="398" x2="439" y1="776.1113" y2="776.1113"/><polygon fill="#181818" points="408,772.1113,398,776.1113,408,780.1113,404,776.1113" style="stroke:#181818;stroke-width:1.0;"/><text fill="#000000" font-family="sans-serif" font-size="13" font-weight="bold" lengthAdjust="spacing" textLength="14" x="404" y="757.8486">15</text><text fill="#000000" font-family="sans-serif" font-size="13" lengthAdjust="spacing" textLength="332" x="422" y="757.8486">handleRestock(dishIngredient: ":Ingredient", orderQty: int)</text><line style="stroke:#181818;stroke-width:1.0;stroke-dasharray:2.0,2.0;" x1="397" x2="439" y1="817.4023" y2="817.4023"/><line style="stroke:#181818;stroke-width:1.0;stroke-dasharray:2.0,2.0;" x1="439" x2="439" y1="817.4023" y2="830.4023"/><line style="stroke:#181818;stroke-width:1.0;stroke-dasharray:2.0,2.0;" x1="392" x2="439" y1="830.4023" y2="830.4023"/><polygon fill="#181818" points="402,826.4023,392,830.4023,402,834.4023,398,830.4023" style="stroke:#181818;stroke-width:1.0;"/><text fill="#000000" font-family="sans-serif" font-size="13" font-weight="bold" lengthAdjust="spacing" textLength="14" x="404" y="812.1396">16</text><text fill="#000000" font-family="sans-serif" font-size="13" lengthAdjust="spacing" textLength="4" x="422" y="812.1396">&#160;</text><line style="stroke:#181818;stroke-width:1.0;stroke-dasharray:2.0,2.0;" x1="392" x2="434" y1="868.6934" y2="868.6934"/><line style="stroke:#181818;stroke-width:1.0;stroke-dasharray:2.0,2.0;" x1="434" x2="434" y1="868.6934" y2="881.6934"/><line style="stroke:#181818;stroke-width:1.0;stroke-dasharray:2.0,2.0;" x1="387" x2="434" y1="881.6934" y2="881.6934"/><polygon fill="#181818" points="397,877.6934,387,881.6934,397,885.6934,393,881.6934" style="stroke:#181818;stroke-width:1.0;"/><text fill="#000000" font-family="sans-serif" font-size="13" font-weight="bold" lengthAdjust="spacing" textLength="14" x="399" y="863.4307">17</text><text fill="#000000" font-family="sans-serif" font-size="13" lengthAdjust="spacing" textLength="4" x="417" y="863.4307">&#160;</text><polygon fill="#181818" points="11,910.9844,1,914.9844,11,918.9844,7,914.9844" style="stroke:#181818;stroke-width:1.0;"/><line style="stroke:#181818;stroke-width:1.0;stroke-dasharray:2.0,2.0;" x1="5" x2="381" y1="914.9844" y2="914.9844"/><text fill="#000000" font-family="sans-serif" font-size="13" font-weight="bold" lengthAdjust="spacing" textLength="14" x="17" y="909.7217">18</text><text fill="#000000" font-family="sans-serif" font-size="13" lengthAdjust="spacing" textLength="113" x="35" y="909.7217">maxNumOfDish: int</text><!--SRC=[nLFBRi8m4BpxAnPEAQ9LpnPKGWJQI2LGe8VsvYOBH3WEiXq4Vryxa0VXeQfIrOjZoxEpuvbD8yH59126xtv_xerz23XJ2WB6WvGpZIEsSoEr8eqZRjBpvzEF8wf99qnekMyMrvx_F1suti2V5n1FB2M64GfTmbnlzb80B7-J49RgHAJn5qf2xfzARdecnWdDGlFADiGeKWeZixOXaI5A2cFxkICiqD7M55QKac8BMPUC0oXOpeSbQf_5w9nK7lH9rAaK6Sn2w4pBI2pFwF831LCW8znY-NurJ6IXFoE10yj5ePM65GeAFIdP_ZLIkdFYxHCXF4asTNnTNwK2MYrQRLmDwc9pMWDTVtizCVFm0GigL4wTkTpVCiFCntZXPkb7GfkPuHeQMUGsEa_ratZ3KTi0hsfRCH5oaqfmn5gwFbDuIzBfNBLhEYxFcTN6MR0s-HfG4GWuHJ5q3hHlUdzDRovtYaedmTgv6KYxeBikws0aGH624PWV2NA5y2iZFr4cVsJX3npiTk7ndxspH_ldvJCQivr_EgRV]--></g></svg>