<?xml version="1.0" encoding="us-ascii" standalone="no"?><svg xmlns="http://www.w3.org/2000/svg" xmlns:xlink="http://www.w3.org/1999/xlink" contentStyleType="text/css" height="747px" preserveAspectRatio="none" style="width:676px;height:747px;background:#FFFFFF;" version="1.1" viewBox="0 0 676 747" width="676px" zoomAndPan="magnify"><defs/><g><rect fill="#FFFFFF" height="619.8984" style="stroke:#181818;stroke-width:1.0;" width="10" x="344" y="71.9121"/><rect fill="#FFFFFF" height="42.291" style="stroke:#181818;stroke-width:1.0;" width="10" x="349" y="274.9883"/><rect fill="#FFFFFF" height="33.6211" style="stroke:#181818;stroke-width:1.0;" width="10" x="615" y="139.4941"/><rect fill="#FFFFFF" height="31.291" style="stroke:#181818;stroke-width:1.0;" width="10" x="615" y="204.4063"/><rect fill="#FFFFFF" height="33.6211" style="stroke:#181818;stroke-width:1.0;" width="10" x="615" y="365.5703"/><rect fill="#FFFFFF" height="31.291" style="stroke:#181818;stroke-width:1.0;" width="10" x="615" y="495.0645"/><rect fill="#FFFFFF" height="31.291" style="stroke:#181818;stroke-width:1.0;" width="10" x="615" y="622.2285"/><rect fill="none" height="574.6074" style="stroke:#000000;stroke-width:1.5;" width="667.5" x="3" y="86.9121"/><rect fill="none" height="50.582" style="stroke:#000000;stroke-width:1.5;" width="385.5" x="3" y="414.1914"/><rect fill="none" height="50.582" style="stroke:#000000;stroke-width:1.5;" width="385.5" x="3" y="541.3555"/><line style="stroke:#181818;stroke-width:0.5;stroke-dasharray:5.0,5.0;" x1="348.5" x2="348.5" y1="38.6211" y2="709.8105"/><line style="stroke:#181818;stroke-width:0.5;stroke-dasharray:5.0,5.0;" x1="619.5" x2="619.5" y1="364.0898" y2="709.8105"/><rect fill="#E2E2F0" height="32.6211" rx="2.5" ry="2.5" style="stroke:#181818;stroke-width:0.5;" width="59" x="319.5" y="5"/><text fill="#000000" font-family="sans-serif" font-size="14" lengthAdjust="spacing" textLength="45" x="326.5" y="27.1074">:Pantry</text><rect fill="#E2E2F0" height="32.6211" rx="2.5" ry="2.5" style="stroke:#181818;stroke-width:0.5;" width="59" x="319.5" y="708.8105"/><text fill="#000000" font-family="sans-serif" font-size="14" lengthAdjust="spacing" textLength="45" x="326.5" y="730.918">:Pantry</text><rect fill="#E2E2F0" height="32.6211" rx="2.5" ry="2.5" style="stroke:#181818;stroke-width:0.5;" width="81" x="579.5" y="708.8105"/><text fill="#000000" font-family="sans-serif" font-size="14" lengthAdjust="spacing" textLength="67" x="586.5" y="730.918">:Ingredient</text><rect fill="#FFFFFF" height="619.8984" style="stroke:#181818;stroke-width:1.0;" width="10" x="344" y="71.9121"/><rect fill="#FFFFFF" height="42.291" style="stroke:#181818;stroke-width:1.0;" width="10" x="349" y="274.9883"/><rect fill="#FFFFFF" height="33.6211" style="stroke:#181818;stroke-width:1.0;" width="10" x="615" y="139.4941"/><rect fill="#FFFFFF" height="31.291" style="stroke:#181818;stroke-width:1.0;" width="10" x="615" y="204.4063"/><rect fill="#FFFFFF" height="33.6211" style="stroke:#181818;stroke-width:1.0;" width="10" x="615" y="365.5703"/><rect fill="#FFFFFF" height="31.291" style="stroke:#181818;stroke-width:1.0;" width="10" x="615" y="495.0645"/><rect fill="#FFFFFF" height="31.291" style="stroke:#181818;stroke-width:1.0;" width="10" x="615" y="622.2285"/><polygon fill="#181818" points="332,67.9121,342,71.9121,332,75.9121,336,71.9121" style="stroke:#181818;stroke-width:1.0;"/><line style="stroke:#181818;stroke-width:1.0;" x1="0" x2="338" y1="71.9121" y2="71.9121"/><text fill="#000000" font-family="sans-serif" font-size="13" font-weight="bold" lengthAdjust="spacing" textLength="7" x="7" y="66.6494">1</text><text fill="#000000" font-family="sans-serif" font-size="13" lengthAdjust="spacing" textLength="307" x="18" y="66.6494">isDishCooked(dishIngredients: ArrayList&lt;Ingredient&gt;)</text><path d="M3,86.9121 L76,86.9121 L76,96.2031 L66,106.2031 L3,106.2031 L3,86.9121 " fill="#EEEEEE" style="stroke:#000000;stroke-width:1.5;"/><rect fill="none" height="574.6074" style="stroke:#000000;stroke-width:1.5;" width="667.5" x="3" y="86.9121"/><text fill="#000000" font-family="sans-serif" font-size="13" font-weight="bold" lengthAdjust="spacing" textLength="28" x="18" y="101.9404">loop</text><text fill="#000000" font-family="sans-serif" font-size="11" font-weight="bold" lengthAdjust="spacing" textLength="96" x="91" y="100.7822">[dishIngredients]</text><polygon fill="#181818" points="567.5,125.4941,577.5,129.4941,567.5,133.4941,571.5,129.4941" style="stroke:#181818;stroke-width:1.0;"/><line style="stroke:#181818;stroke-width:1.0;" x1="354" x2="573.5" y1="129.4941" y2="129.4941"/><text fill="#000000" font-family="sans-serif" font-size="13" font-weight="bold" lengthAdjust="spacing" textLength="7" x="361" y="124.2314">2</text><text fill="#000000" font-family="sans-serif" font-size="13" lengthAdjust="spacing" textLength="4" x="372" y="124.2314">&#160;</text><rect fill="#E2E2F0" height="32.6211" rx="2.5" ry="2.5" style="stroke:#181818;stroke-width:0.5;" width="81" x="579.5" y="106.2031"/><text fill="#000000" font-family="sans-serif" font-size="14" lengthAdjust="spacing" textLength="67" x="586.5" y="128.3105">:Ingredient</text><polygon fill="#181818" points="365,169.1152,355,173.1152,365,177.1152,361,173.1152" style="stroke:#181818;stroke-width:1.0;"/><line style="stroke:#181818;stroke-width:1.0;stroke-dasharray:2.0,2.0;" x1="359" x2="619" y1="173.1152" y2="173.1152"/><text fill="#000000" font-family="sans-serif" font-size="13" font-weight="bold" lengthAdjust="spacing" textLength="7" x="371" y="167.8525">3</text><text fill="#000000" font-family="sans-serif" font-size="13" lengthAdjust="spacing" textLength="134" x="382" y="167.8525">ingredient: ":Ingredient"</text><polygon fill="#181818" points="603,200.4063,613,204.4063,603,208.4063,607,204.4063" style="stroke:#181818;stroke-width:1.0;"/><line style="stroke:#181818;stroke-width:1.0;" x1="354" x2="609" y1="204.4063" y2="204.4063"/><text fill="#000000" font-family="sans-serif" font-size="13" font-weight="bold" lengthAdjust="spacing" textLength="7" x="361" y="199.1436">4</text><text fill="#000000" font-family="sans-serif" font-size="13" lengthAdjust="spacing" textLength="47" x="372" y="199.1436">getQty()</text><polygon fill="#181818" points="365,231.6973,355,235.6973,365,239.6973,361,235.6973" style="stroke:#181818;stroke-width:1.0;"/><line style="stroke:#181818;stroke-width:1.0;stroke-dasharray:2.0,2.0;" x1="359" x2="619" y1="235.6973" y2="235.6973"/><text fill="#000000" font-family="sans-serif" font-size="13" font-weight="bold" lengthAdjust="spacing" textLength="7" x="371" y="230.4346">5</text><text fill="#000000" font-family="sans-serif" font-size="13" lengthAdjust="spacing" textLength="71" x="382" y="230.4346">usedQty: int</text><line style="stroke:#181818;stroke-width:1.0;" x1="354" x2="401" y1="261.9883" y2="261.9883"/><line style="stroke:#181818;stroke-width:1.0;" x1="401" x2="401" y1="261.9883" y2="274.9883"/><line style="stroke:#181818;stroke-width:1.0;" x1="360" x2="401" y1="274.9883" y2="274.9883"/><polygon fill="#181818" points="370,270.9883,360,274.9883,370,278.9883,366,274.9883" style="stroke:#181818;stroke-width:1.0;"/><text fill="#000000" font-family="sans-serif" font-size="13" font-weight="bold" lengthAdjust="spacing" textLength="7" x="366" y="256.7256">6</text><text fill="#000000" font-family="sans-serif" font-size="13" lengthAdjust="spacing" textLength="230" x="377" y="256.7256">getIngredient(dishIngredient: Ingredient))</text><line style="stroke:#181818;stroke-width:1.0;stroke-dasharray:2.0,2.0;" x1="359" x2="401" y1="316.2793" y2="316.2793"/><line style="stroke:#181818;stroke-width:1.0;stroke-dasharray:2.0,2.0;" x1="401" x2="401" y1="316.2793" y2="329.2793"/><line style="stroke:#181818;stroke-width:1.0;stroke-dasharray:2.0,2.0;" x1="354" x2="401" y1="329.2793" y2="329.2793"/><polygon fill="#181818" points="364,325.2793,354,329.2793,364,333.2793,360,329.2793" style="stroke:#181818;stroke-width:1.0;"/><text fill="#000000" font-family="sans-serif" font-size="13" font-weight="bold" lengthAdjust="spacing" textLength="7" x="366" y="311.0166">7</text><text fill="#000000" font-family="sans-serif" font-size="13" lengthAdjust="spacing" textLength="74" x="377" y="311.0166">:":Ingredient"</text><polygon fill="#181818" points="567.5,351.5703,577.5,355.5703,567.5,359.5703,571.5,355.5703" style="stroke:#181818;stroke-width:1.0;"/><line style="stroke:#181818;stroke-width:1.0;" x1="354" x2="573.5" y1="355.5703" y2="355.5703"/><text fill="#000000" font-family="sans-serif" font-size="13" font-weight="bold" lengthAdjust="spacing" textLength="7" x="361" y="350.3076">8</text><text fill="#000000" font-family="sans-serif" font-size="13" lengthAdjust="spacing" textLength="4" x="372" y="350.3076">&#160;</text><rect fill="#E2E2F0" height="32.6211" rx="2.5" ry="2.5" style="stroke:#181818;stroke-width:0.5;" width="81" x="579.5" y="332.2793"/><text fill="#000000" font-family="sans-serif" font-size="14" lengthAdjust="spacing" textLength="67" x="586.5" y="354.3867">:Ingredient</text><polygon fill="#181818" points="365,395.1914,355,399.1914,365,403.1914,361,399.1914" style="stroke:#181818;stroke-width:1.0;"/><line style="stroke:#181818;stroke-width:1.0;stroke-dasharray:2.0,2.0;" x1="359" x2="619" y1="399.1914" y2="399.1914"/><text fill="#000000" font-family="sans-serif" font-size="13" font-weight="bold" lengthAdjust="spacing" textLength="7" x="371" y="393.9287">9</text><text fill="#000000" font-family="sans-serif" font-size="13" lengthAdjust="spacing" textLength="226" x="382" y="393.9287">usedIngredientFromStock: ":Ingredient"</text><path d="M3,414.1914 L64,414.1914 L64,423.4824 L54,433.4824 L3,433.4824 L3,414.1914 " fill="#EEEEEE" style="stroke:#000000;stroke-width:1.5;"/><rect fill="none" height="50.582" style="stroke:#000000;stroke-width:1.5;" width="385.5" x="3" y="414.1914"/><text fill="#000000" font-family="sans-serif" font-size="13" font-weight="bold" lengthAdjust="spacing" textLength="16" x="18" y="429.2197">alt</text><text fill="#000000" font-family="sans-serif" font-size="11" font-weight="bold" lengthAdjust="spacing" textLength="191" x="79" y="428.0615">[usedIngredientFromStock == null]</text><polygon fill="#181818" points="11,452.7734,1,456.7734,11,460.7734,7,456.7734" style="stroke:#181818;stroke-width:1.0;"/><line style="stroke:#181818;stroke-width:1.0;stroke-dasharray:2.0,2.0;" x1="5" x2="343" y1="456.7734" y2="456.7734"/><text fill="#000000" font-family="sans-serif" font-size="13" font-weight="bold" lengthAdjust="spacing" textLength="14" x="17" y="451.5107">10</text><text fill="#000000" font-family="sans-serif" font-size="13" lengthAdjust="spacing" textLength="49" x="35" y="451.5107">:boolean</text><polygon fill="#181818" points="603,491.0645,613,495.0645,603,499.0645,607,495.0645" style="stroke:#181818;stroke-width:1.0;"/><line style="stroke:#181818;stroke-width:1.0;" x1="354" x2="609" y1="495.0645" y2="495.0645"/><text fill="#000000" font-family="sans-serif" font-size="13" font-weight="bold" lengthAdjust="spacing" textLength="14" x="361" y="489.8018">11</text><text fill="#000000" font-family="sans-serif" font-size="13" lengthAdjust="spacing" textLength="47" x="379" y="489.8018">getQty()</text><polygon fill="#181818" points="365,522.3555,355,526.3555,365,530.3555,361,526.3555" style="stroke:#181818;stroke-width:1.0;"/><line style="stroke:#181818;stroke-width:1.0;stroke-dasharray:2.0,2.0;" x1="359" x2="619" y1="526.3555" y2="526.3555"/><text fill="#000000" font-family="sans-serif" font-size="13" font-weight="bold" lengthAdjust="spacing" textLength="14" x="371" y="521.0928">12</text><text fill="#000000" font-family="sans-serif" font-size="13" lengthAdjust="spacing" textLength="75" x="389" y="521.0928">stockQty: int</text><path d="M3,541.3555 L64,541.3555 L64,550.6465 L54,560.6465 L3,560.6465 L3,541.3555 " fill="#EEEEEE" style="stroke:#000000;stroke-width:1.5;"/><rect fill="none" height="50.582" style="stroke:#000000;stroke-width:1.5;" width="385.5" x="3" y="541.3555"/><text fill="#000000" font-family="sans-serif" font-size="13" font-weight="bold" lengthAdjust="spacing" textLength="16" x="18" y="556.3838">alt</text><text fill="#000000" font-family="sans-serif" font-size="11" font-weight="bold" lengthAdjust="spacing" textLength="266" x="79" y="555.2256">[not enough ":Ingredient" (stockQty-usedQty&lt;0)]</text><polygon fill="#181818" points="11,579.9375,1,583.9375,11,587.9375,7,583.9375" style="stroke:#181818;stroke-width:1.0;"/><line style="stroke:#181818;stroke-width:1.0;stroke-dasharray:2.0,2.0;" x1="5" x2="343" y1="583.9375" y2="583.9375"/><text fill="#000000" font-family="sans-serif" font-size="13" font-weight="bold" lengthAdjust="spacing" textLength="14" x="17" y="578.6748">13</text><text fill="#000000" font-family="sans-serif" font-size="13" lengthAdjust="spacing" textLength="49" x="35" y="578.6748">:boolean</text><polygon fill="#181818" points="603,618.2285,613,622.2285,603,626.2285,607,622.2285" style="stroke:#181818;stroke-width:1.0;"/><line style="stroke:#181818;stroke-width:1.0;" x1="354" x2="609" y1="622.2285" y2="622.2285"/><text fill="#000000" font-family="sans-serif" font-size="13" font-weight="bold" lengthAdjust="spacing" textLength="14" x="361" y="616.9658">14</text><text fill="#000000" font-family="sans-serif" font-size="13" lengthAdjust="spacing" textLength="115" x="379" y="616.9658">setQty(quantity: int)</text><polygon fill="#181818" points="365,649.5195,355,653.5195,365,657.5195,361,653.5195" style="stroke:#181818;stroke-width:1.0;"/><line style="stroke:#181818;stroke-width:1.0;stroke-dasharray:2.0,2.0;" x1="359" x2="619" y1="653.5195" y2="653.5195"/><text fill="#000000" font-family="sans-serif" font-size="13" font-weight="bold" lengthAdjust="spacing" textLength="14" x="371" y="648.2568">15</text><text fill="#000000" font-family="sans-serif" font-size="13" lengthAdjust="spacing" textLength="4" x="389" y="648.2568">&#160;</text><polygon fill="#181818" points="11,687.8105,1,691.8105,11,695.8105,7,691.8105" style="stroke:#181818;stroke-width:1.0;"/><line style="stroke:#181818;stroke-width:1.0;stroke-dasharray:2.0,2.0;" x1="5" x2="348" y1="691.8105" y2="691.8105"/><text fill="#000000" font-family="sans-serif" font-size="13" font-weight="bold" lengthAdjust="spacing" textLength="14" x="17" y="686.5479">16</text><text fill="#000000" font-family="sans-serif" font-size="13" lengthAdjust="spacing" textLength="49" x="35" y="686.5479">:boolean</text><!--SRC=[dPFDQW8n58NtzockhbGOw3ge88ws0sLgrIwwZ2RLu9Yq-Iduzft1SH9ZrT9TI4xE-Uu9QJ7-8IJ7wLi-NcOlEQuBQWmAamgp7IkrumnQjMOsofVpzrhH9ZCghJwqc-CiVvnFqcoIBnj99ZUQCy6bzR8qMppLWYe3W3ghfDklk0R0PEYToHb6XvLBRsW8ZhIcXsTXRDzl3xk0T6t5DxKyO0GibFh4o0AyuXWSy6AlHywimbaYQH9HDqSaliVu5KV06om4Dzo-saEd7Eug4cfkdPRe36UbjiAmS35X0raw-kjHjmJzkljxeQSq4e_ntqO3Uhy_rMg_i6gz8nTrqS9U4-DWWD8L1M0_ISAPoKgfWbC9o2Mh76xoXgtVeJPLR51w1IULBMEKssoZ6ZedTL8_LV-X-mVKMyqID4VKBrTAH0rob_jeNlqCy0zw2WRu0G00]--></g></svg>