<?xml version="1.0" encoding="us-ascii" standalone="no"?><svg xmlns="http://www.w3.org/2000/svg" xmlns:xlink="http://www.w3.org/1999/xlink" contentStyleType="text/css" height="361px" preserveAspectRatio="none" style="width:738px;height:361px;background:#FFFFFF;" version="1.1" viewBox="0 0 738 361" width="738px" zoomAndPan="magnify"><defs/><g><rect fill="#FFFFFF" height="266.3281" style="stroke:#181818;stroke-width:1.0;" width="10" x="15" y="48.6211"/><rect fill="#FFFFFF" height="243.0371" style="stroke:#181818;stroke-width:1.0;" width="10" x="157" y="71.9121"/><rect fill="#FFFFFF" height="171.4551" style="stroke:#181818;stroke-width:1.0;" width="10" x="398" y="103.2031"/><rect fill="#FFFFFF" height="67.582" style="stroke:#181818;stroke-width:1.0;" width="10" x="403" y="168.7852"/><rect fill="#FFFFFF" height="31.291" style="stroke:#181818;stroke-width:1.0;" width="10" x="664" y="205.0762"/><rect fill="#FFFFFF" height="9" style="stroke:#181818;stroke-width:1.0;" width="10" x="664" y="305.9492"/><rect fill="none" height="126.1641" style="stroke:#000000;stroke-width:1.5;" width="369.5" x="363" y="118.2031"/><line style="stroke:#181818;stroke-width:0.5;stroke-dasharray:5.0,5.0;" x1="20" x2="20" y1="38.6211" y2="323.9492"/><line style="stroke:#181818;stroke-width:0.5;stroke-dasharray:5.0,5.0;" x1="162" x2="162" y1="38.6211" y2="323.9492"/><line style="stroke:#181818;stroke-width:0.5;stroke-dasharray:5.0,5.0;" x1="403" x2="403" y1="38.6211" y2="323.9492"/><line style="stroke:#181818;stroke-width:0.5;stroke-dasharray:5.0,5.0;" x1="668.5" x2="668.5" y1="38.6211" y2="323.9492"/><rect fill="#E2E2F0" height="32.6211" rx="2.5" ry="2.5" style="stroke:#181818;stroke-width:0.5;" width="30" x="5" y="5"/><text fill="#000000" font-family="sans-serif" font-size="14" lengthAdjust="spacing" textLength="16" x="12" y="27.1074">:Ui</text><rect fill="#E2E2F0" height="32.6211" rx="2.5" ry="2.5" style="stroke:#181818;stroke-width:0.5;" width="30" x="5" y="322.9492"/><text fill="#000000" font-family="sans-serif" font-size="14" lengthAdjust="spacing" textLength="16" x="12" y="345.0566">:Ui</text><rect fill="#E2E2F0" height="32.6211" rx="2.5" ry="2.5" style="stroke:#181818;stroke-width:0.5;" width="48" x="138" y="5"/><text fill="#000000" font-family="sans-serif" font-size="14" lengthAdjust="spacing" textLength="34" x="145" y="27.1074">:Main</text><rect fill="#E2E2F0" height="32.6211" rx="2.5" ry="2.5" style="stroke:#181818;stroke-width:0.5;" width="48" x="138" y="322.9492"/><text fill="#000000" font-family="sans-serif" font-size="14" lengthAdjust="spacing" textLength="34" x="145" y="345.0566">:Main</text><rect fill="#E2E2F0" height="32.6211" rx="2.5" ry="2.5" style="stroke:#181818;stroke-width:0.5;" width="60" x="373" y="5"/><text fill="#000000" font-family="sans-serif" font-size="14" lengthAdjust="spacing" textLength="46" x="380" y="27.1074">:Parser</text><rect fill="#E2E2F0" height="32.6211" rx="2.5" ry="2.5" style="stroke:#181818;stroke-width:0.5;" width="60" x="373" y="322.9492"/><text fill="#000000" font-family="sans-serif" font-size="14" lengthAdjust="spacing" textLength="46" x="380" y="345.0566">:Parser</text><rect fill="#E2E2F0" height="32.6211" rx="2.5" ry="2.5" style="stroke:#181818;stroke-width:0.5;" width="107" x="615.5" y="5"/><text fill="#000000" font-family="sans-serif" font-size="14" lengthAdjust="spacing" textLength="93" x="622.5" y="27.1074">:XYZCommand</text><rect fill="#E2E2F0" height="32.6211" rx="2.5" ry="2.5" style="stroke:#181818;stroke-width:0.5;" width="107" x="615.5" y="322.9492"/><text fill="#000000" font-family="sans-serif" font-size="14" lengthAdjust="spacing" textLength="93" x="622.5" y="345.0566">:XYZCommand</text><rect fill="#FFFFFF" height="266.3281" style="stroke:#181818;stroke-width:1.0;" width="10" x="15" y="48.6211"/><rect fill="#FFFFFF" height="243.0371" style="stroke:#181818;stroke-width:1.0;" width="10" x="157" y="71.9121"/><rect fill="#FFFFFF" height="171.4551" style="stroke:#181818;stroke-width:1.0;" width="10" x="398" y="103.2031"/><rect fill="#FFFFFF" height="67.582" style="stroke:#181818;stroke-width:1.0;" width="10" x="403" y="168.7852"/><rect fill="#FFFFFF" height="31.291" style="stroke:#181818;stroke-width:1.0;" width="10" x="664" y="205.0762"/><rect fill="#FFFFFF" height="9" style="stroke:#181818;stroke-width:1.0;" width="10" x="664" y="305.9492"/><polygon fill="#181818" points="145,67.9121,155,71.9121,145,75.9121,149,71.9121" style="stroke:#181818;stroke-width:1.0;"/><line style="stroke:#181818;stroke-width:1.0;" x1="25" x2="151" y1="71.9121" y2="71.9121"/><text fill="#000000" font-family="sans-serif" font-size="13" lengthAdjust="spacing" textLength="113" x="32" y="66.6494">fullUserInput: String</text><polygon fill="#181818" points="386,99.2031,396,103.2031,386,107.2031,390,103.2031" style="stroke:#181818;stroke-width:1.0;"/><line style="stroke:#181818;stroke-width:1.0;" x1="167" x2="392" y1="103.2031" y2="103.2031"/><text fill="#000000" font-family="sans-serif" font-size="13" lengthAdjust="spacing" textLength="212" x="174" y="97.9404">parseCommand(fullUserInput: String)</text><path d="M363,118.2031 L424,118.2031 L424,127.4941 L414,137.4941 L363,137.4941 L363,118.2031 " fill="#EEEEEE" style="stroke:#000000;stroke-width:1.5;"/><rect fill="none" height="126.1641" style="stroke:#000000;stroke-width:1.5;" width="369.5" x="363" y="118.2031"/><text fill="#000000" font-family="sans-serif" font-size="13" font-weight="bold" lengthAdjust="spacing" textLength="16" x="378" y="133.2314">alt</text><text fill="#000000" font-family="sans-serif" font-size="11" font-weight="bold" lengthAdjust="spacing" textLength="125" x="439" y="132.0732">[XYZCOMMAND_WORD]</text><line style="stroke:#181818;stroke-width:1.0;" x1="408" x2="455" y1="155.7852" y2="155.7852"/><line style="stroke:#181818;stroke-width:1.0;" x1="455" x2="455" y1="155.7852" y2="168.7852"/><line style="stroke:#181818;stroke-width:1.0;" x1="414" x2="455" y1="168.7852" y2="168.7852"/><polygon fill="#181818" points="424,164.7852,414,168.7852,424,172.7852,420,168.7852" style="stroke:#181818;stroke-width:1.0;"/><text fill="#000000" font-family="sans-serif" font-size="13" lengthAdjust="spacing" textLength="242" x="420" y="150.5225">prepareXYZCommand(requiredArguments)</text><polygon fill="#181818" points="652,201.0762,662,205.0762,652,209.0762,656,205.0762" style="stroke:#181818;stroke-width:1.0;"/><line style="stroke:#181818;stroke-width:1.0;" x1="413" x2="658" y1="205.0762" y2="205.0762"/><text fill="#000000" font-family="sans-serif" font-size="13" lengthAdjust="spacing" textLength="199" x="420" y="199.8135">XYZCommand(requiredArguments)</text><polygon fill="#181818" points="419,232.3672,409,236.3672,419,240.3672,415,236.3672" style="stroke:#181818;stroke-width:1.0;"/><line style="stroke:#181818;stroke-width:1.0;stroke-dasharray:2.0,2.0;" x1="413" x2="668" y1="236.3672" y2="236.3672"/><text fill="#000000" font-family="sans-serif" font-size="13" lengthAdjust="spacing" textLength="82" x="425" y="231.1045">XYZCommand</text><polygon fill="#181818" points="178,270.6582,168,274.6582,178,278.6582,174,274.6582" style="stroke:#181818;stroke-width:1.0;"/><line style="stroke:#181818;stroke-width:1.0;stroke-dasharray:2.0,2.0;" x1="172" x2="402" y1="274.6582" y2="274.6582"/><text fill="#000000" font-family="sans-serif" font-size="13" lengthAdjust="spacing" textLength="82" x="184" y="269.3955">XYZCommand</text><polygon fill="#181818" points="652,301.9492,662,305.9492,652,309.9492,656,305.9492" style="stroke:#181818;stroke-width:1.0;"/><line style="stroke:#181818;stroke-width:1.0;" x1="167" x2="658" y1="305.9492" y2="305.9492"/><text fill="#000000" font-family="sans-serif" font-size="13" lengthAdjust="spacing" textLength="54" x="174" y="300.6865">execute()</text><!--SRC=[ZP1DJyGW48Rl_0gobws7sZi7aurxyL1tesdyk1X2nqe2BC9W_Fa2hKkjZV42mxmp3-_CzWtHUjOqLd63GQjBSTADX_S0Ha3TIpuuhWavSeTII1kBw8PrSaEvfvrSv5ikJLPIiD3YouFBwXWkzCUdv-kJrjpqkQOy2U42vGT7I1zsajPNcS_eQr2gYwGROmCoUezEcg5KPnFfI1tZdupQT4_aQXLmKGYJKS8LPaE7jjtTxbyU3dTxCce_q0uY7OhpoiKzIWVzpWr1Wq7_crqmfO_HVp9cIoeXhMUUPXKzhFNDifCZY8WuC3bRE-_xpxRlHS_7W4yG0Q5QjVm5]--></g></svg>