<?xml version="1.0" encoding="us-ascii" standalone="no"?><svg xmlns="http://www.w3.org/2000/svg" xmlns:xlink="http://www.w3.org/1999/xlink" contentStyleType="text/css" height="452px" preserveAspectRatio="none" style="width:736px;height:452px;background:#FFFFFF;" version="1.1" viewBox="0 0 736 452" width="736px" zoomAndPan="magnify"><defs/><g><rect fill="#FFFFFF" height="243.0371" style="stroke:#181818;stroke-width:1.0;" width="10" x="154.5" y="116.9121"/><rect fill="#FFFFFF" height="171.4551" style="stroke:#181818;stroke-width:1.0;" width="10" x="395.5" y="148.2031"/><rect fill="#FFFFFF" height="67.582" style="stroke:#181818;stroke-width:1.0;" width="10" x="400.5" y="213.7852"/><rect fill="#FFFFFF" height="31.291" style="stroke:#181818;stroke-width:1.0;" width="10" x="661.5" y="250.0762"/><rect fill="#FFFFFF" height="9" style="stroke:#181818;stroke-width:1.0;" width="10" x="661.5" y="350.9492"/><rect fill="none" height="126.1641" style="stroke:#000000;stroke-width:1.5;" width="369.5" x="360.5" y="163.2031"/><line style="stroke:#181818;stroke-width:0.5;stroke-dasharray:5.0,5.0;" x1="22" x2="22" y1="83.6211" y2="368.9492"/><line style="stroke:#181818;stroke-width:0.5;stroke-dasharray:5.0,5.0;" x1="159.5" x2="159.5" y1="83.6211" y2="368.9492"/><line style="stroke:#181818;stroke-width:0.5;stroke-dasharray:5.0,5.0;" x1="400.5" x2="400.5" y1="83.6211" y2="368.9492"/><line style="stroke:#181818;stroke-width:0.5;stroke-dasharray:5.0,5.0;" x1="666" x2="666" y1="83.6211" y2="368.9492"/><text fill="#000000" font-family="sans-serif" font-size="14" lengthAdjust="spacing" textLength="29" x="5" y="80.1074">User</text><ellipse cx="22.5" cy="13.5" fill="#E2E2F0" rx="8" ry="8" style="stroke:#181818;stroke-width:0.5;"/><path d="M22.5,21.5 L22.5,48.5 M9.5,29.5 L35.5,29.5 M22.5,48.5 L9.5,63.5 M22.5,48.5 L35.5,63.5 " fill="none" style="stroke:#181818;stroke-width:0.5;"/><text fill="#000000" font-family="sans-serif" font-size="14" lengthAdjust="spacing" textLength="29" x="5" y="383.0566">User</text><ellipse cx="22.5" cy="395.0703" fill="#E2E2F0" rx="8" ry="8" style="stroke:#181818;stroke-width:0.5;"/><path d="M22.5,403.0703 L22.5,430.0703 M9.5,411.0703 L35.5,411.0703 M22.5,430.0703 L9.5,445.0703 M22.5,430.0703 L35.5,445.0703 " fill="none" style="stroke:#181818;stroke-width:0.5;"/><rect fill="#E2E2F0" height="32.6211" rx="2.5" ry="2.5" style="stroke:#181818;stroke-width:0.5;" width="48" x="135.5" y="50"/><text fill="#000000" font-family="sans-serif" font-size="14" lengthAdjust="spacing" textLength="34" x="142.5" y="72.1074">:Main</text><rect fill="#E2E2F0" height="32.6211" rx="2.5" ry="2.5" style="stroke:#181818;stroke-width:0.5;" width="48" x="135.5" y="367.9492"/><text fill="#000000" font-family="sans-serif" font-size="14" lengthAdjust="spacing" textLength="34" x="142.5" y="390.0566">:Main</text><rect fill="#E2E2F0" height="32.6211" rx="2.5" ry="2.5" style="stroke:#181818;stroke-width:0.5;" width="60" x="370.5" y="50"/><text fill="#000000" font-family="sans-serif" font-size="14" lengthAdjust="spacing" textLength="46" x="377.5" y="72.1074">:Parser</text><rect fill="#E2E2F0" height="32.6211" rx="2.5" ry="2.5" style="stroke:#181818;stroke-width:0.5;" width="60" x="370.5" y="367.9492"/><text fill="#000000" font-family="sans-serif" font-size="14" lengthAdjust="spacing" textLength="46" x="377.5" y="390.0566">:Parser</text><rect fill="#E2E2F0" height="32.6211" rx="2.5" ry="2.5" style="stroke:#181818;stroke-width:0.5;" width="107" x="613" y="50"/><text fill="#000000" font-family="sans-serif" font-size="14" lengthAdjust="spacing" textLength="93" x="620" y="72.1074">:XYZCommand</text><rect fill="#E2E2F0" height="32.6211" rx="2.5" ry="2.5" style="stroke:#181818;stroke-width:0.5;" width="107" x="613" y="367.9492"/><text fill="#000000" font-family="sans-serif" font-size="14" lengthAdjust="spacing" textLength="93" x="620" y="390.0566">:XYZCommand</text><rect fill="#FFFFFF" height="243.0371" style="stroke:#181818;stroke-width:1.0;" width="10" x="154.5" y="116.9121"/><rect fill="#FFFFFF" height="171.4551" style="stroke:#181818;stroke-width:1.0;" width="10" x="395.5" y="148.2031"/><rect fill="#FFFFFF" height="67.582" style="stroke:#181818;stroke-width:1.0;" width="10" x="400.5" y="213.7852"/><rect fill="#FFFFFF" height="31.291" style="stroke:#181818;stroke-width:1.0;" width="10" x="661.5" y="250.0762"/><rect fill="#FFFFFF" height="9" style="stroke:#181818;stroke-width:1.0;" width="10" x="661.5" y="350.9492"/><polygon fill="#181818" points="142.5,112.9121,152.5,116.9121,142.5,120.9121,146.5,116.9121" style="stroke:#181818;stroke-width:1.0;"/><line style="stroke:#181818;stroke-width:1.0;" x1="22.5" x2="148.5" y1="116.9121" y2="116.9121"/><text fill="#000000" font-family="sans-serif" font-size="13" lengthAdjust="spacing" textLength="113" x="29.5" y="111.6494">fullUserInput: String</text><polygon fill="#181818" points="383.5,144.2031,393.5,148.2031,383.5,152.2031,387.5,148.2031" style="stroke:#181818;stroke-width:1.0;"/><line style="stroke:#181818;stroke-width:1.0;" x1="164.5" x2="389.5" y1="148.2031" y2="148.2031"/><text fill="#000000" font-family="sans-serif" font-size="13" lengthAdjust="spacing" textLength="212" x="171.5" y="142.9404">parseCommand(fullUserInput: String)</text><path d="M360.5,163.2031 L421.5,163.2031 L421.5,172.4941 L411.5,182.4941 L360.5,182.4941 L360.5,163.2031 " fill="#EEEEEE" style="stroke:#000000;stroke-width:1.5;"/><rect fill="none" height="126.1641" style="stroke:#000000;stroke-width:1.5;" width="369.5" x="360.5" y="163.2031"/><text fill="#000000" font-family="sans-serif" font-size="13" font-weight="bold" lengthAdjust="spacing" textLength="16" x="375.5" y="178.2314">alt</text><text fill="#000000" font-family="sans-serif" font-size="11" font-weight="bold" lengthAdjust="spacing" textLength="125" x="436.5" y="177.0732">[XYZCOMMAND_WORD]</text><line style="stroke:#181818;stroke-width:1.0;" x1="405.5" x2="452.5" y1="200.7852" y2="200.7852"/><line style="stroke:#181818;stroke-width:1.0;" x1="452.5" x2="452.5" y1="200.7852" y2="213.7852"/><line style="stroke:#181818;stroke-width:1.0;" x1="411.5" x2="452.5" y1="213.7852" y2="213.7852"/><polygon fill="#181818" points="421.5,209.7852,411.5,213.7852,421.5,217.7852,417.5,213.7852" style="stroke:#181818;stroke-width:1.0;"/><text fill="#000000" font-family="sans-serif" font-size="13" lengthAdjust="spacing" textLength="242" x="417.5" y="195.5225">prepareXYZCommand(requiredArguments)</text><polygon fill="#181818" points="649.5,246.0762,659.5,250.0762,649.5,254.0762,653.5,250.0762" style="stroke:#181818;stroke-width:1.0;"/><line style="stroke:#181818;stroke-width:1.0;" x1="410.5" x2="655.5" y1="250.0762" y2="250.0762"/><text fill="#000000" font-family="sans-serif" font-size="13" lengthAdjust="spacing" textLength="199" x="417.5" y="244.8135">XYZCommand(requiredArguments)</text><polygon fill="#181818" points="416.5,277.3672,406.5,281.3672,416.5,285.3672,412.5,281.3672" style="stroke:#181818;stroke-width:1.0;"/><line style="stroke:#181818;stroke-width:1.0;stroke-dasharray:2.0,2.0;" x1="410.5" x2="665.5" y1="281.3672" y2="281.3672"/><text fill="#000000" font-family="sans-serif" font-size="13" lengthAdjust="spacing" textLength="82" x="422.5" y="276.1045">XYZCommand</text><polygon fill="#181818" points="175.5,315.6582,165.5,319.6582,175.5,323.6582,171.5,319.6582" style="stroke:#181818;stroke-width:1.0;"/><line style="stroke:#181818;stroke-width:1.0;stroke-dasharray:2.0,2.0;" x1="169.5" x2="399.5" y1="319.6582" y2="319.6582"/><text fill="#000000" font-family="sans-serif" font-size="13" lengthAdjust="spacing" textLength="82" x="181.5" y="314.3955">XYZCommand</text><polygon fill="#181818" points="649.5,346.9492,659.5,350.9492,649.5,354.9492,653.5,350.9492" style="stroke:#181818;stroke-width:1.0;"/><line style="stroke:#181818;stroke-width:1.0;" x1="164.5" x2="655.5" y1="350.9492" y2="350.9492"/><text fill="#000000" font-family="sans-serif" font-size="13" lengthAdjust="spacing" textLength="54" x="171.5" y="345.6865">execute()</text><!--SRC=[ZP1DJyGW48Rl_8h9Ngo7sZi7aurxyL3NQ8mV5qFeR2K1YZ0OVxxGrgMkZV42CyoypxpCsHkH2xnfd1QMej4NSZ1DmFU8LcBTAT5xOHWJaWOF3m4zknMUb5GkzSE6jqBP3OW0EJYffIm9nkeKdjIVdb-k1cE4xSQUaZAM9q5zEL8v7ABM-UNQkaWSxiahssTFwaCGJgFpaHNJ90uktpElMWMS5y9iZmbDeurzssvlTg-F-xiTcse_q1uJ7OlVogU5AO_TrlVHeANmcrqmHSVXdup5Qae8zSBJegF3DTtYTNQ42P4-p8xMZll-K_QzwEKty1Db9AnMBNy1]--></g></svg>