<?xml version="1.0" encoding="us-ascii" standalone="no"?><svg xmlns="http://www.w3.org/2000/svg" xmlns:xlink="http://www.w3.org/1999/xlink" contentStyleType="text/css" height="557px" preserveAspectRatio="none" style="width:1542px;height:557px;background:#FFFFFF;" version="1.1" viewBox="0 0 1542 557" width="1542px" zoomAndPan="magnify"><defs/><g><rect fill="#C8C8FA" height="538.1914" style="stroke:#181818;stroke-width:0.5;" width="1177.5" x="256" y="6"/><text fill="#FFFFFF" font-family="sans-serif" font-size="13" font-weight="bold" lengthAdjust="spacing" textLength="36" x="824.75" y="18.5684">Logic</text><rect fill="#F97181" height="538.1914" style="stroke:#181818;stroke-width:0.5;" width="101" x="1435.5" y="6"/><text fill="#FFFFFF" font-family="sans-serif" font-size="13" font-weight="bold" lengthAdjust="spacing" textLength="41" x="1463.5" y="18.5684">Model</text><rect fill="#FFFFFF" height="444.082" style="stroke:#181818;stroke-width:1.0;" width="10" x="322" y="88.1094"/><rect fill="#FFFFFF" height="213.041" style="stroke:#181818;stroke-width:1.0;" width="10" x="327" y="298.1504"/><rect fill="#FFFFFF" height="143.4199" style="stroke:#181818;stroke-width:1.0;" width="10" x="699" y="117.4199"/><rect fill="#FFFFFF" height="31.4883" style="stroke:#181818;stroke-width:1.0;" width="10" x="1179" y="141.4199"/><rect fill="#FFFFFF" height="29.3105" style="stroke:#181818;stroke-width:1.0;" width="10" x="1179" y="202.2188"/><rect fill="#FFFFFF" height="143.4199" style="stroke:#181818;stroke-width:1.0;" width="10" x="1179" y="332.4609"/><rect fill="#FFFFFF" height="46.7988" style="stroke:#181818;stroke-width:1.0;" width="10" x="1349" y="399.7715"/><rect fill="#FFFFFF" height="14" style="stroke:#181818;stroke-width:1.0;" width="10" x="1481" y="361.7715"/><line style="stroke:#181818;stroke-width:0.5;stroke-dasharray:5.0,5.0;" x1="327" x2="327" y1="56.7988" y2="550.1914"/><line style="stroke:#181818;stroke-width:0.5;stroke-dasharray:5.0,5.0;" x1="704" x2="704" y1="56.7988" y2="550.1914"/><line style="stroke:#181818;stroke-width:0.5;stroke-dasharray:5.0,5.0;" x1="1183.5" x2="1183.5" y1="156.1641" y2="550.1914"/><line style="stroke:#181818;stroke-width:0.5;stroke-dasharray:5.0,5.0;" x1="1353.5" x2="1353.5" y1="414.5156" y2="550.1914"/><line style="stroke:#181818;stroke-width:0.5;stroke-dasharray:5.0,5.0;" x1="1485.5" x2="1485.5" y1="56.7988" y2="550.1914"/><rect fill="#3333C4" height="30.4883" rx="2.5" ry="2.5" style="stroke:#181818;stroke-width:0.5;" width="114" x="270" y="25.3105"/><text fill="#FFFFFF" font-family="sans-serif" font-size="14" lengthAdjust="spacing" textLength="100" x="277" y="45.8457">:LogicManager</text><rect fill="#3333C4" height="30.4883" rx="2.5" ry="2.5" style="stroke:#181818;stroke-width:0.5;" width="132" x="638" y="25.3105"/><text fill="#FFFFFF" font-family="sans-serif" font-size="14" lengthAdjust="spacing" textLength="118" x="645" y="45.8457">:CommandParser</text><rect fill="#9D0012" height="30.4883" rx="2.5" ry="2.5" style="stroke:#181818;stroke-width:0.5;" width="73" x="1449.5" y="25.3105"/><text fill="#FFFFFF" font-family="sans-serif" font-size="14" lengthAdjust="spacing" textLength="59" x="1456.5" y="45.8457">:MealList</text><rect fill="#FFFFFF" height="444.082" style="stroke:#181818;stroke-width:1.0;" width="10" x="322" y="88.1094"/><rect fill="#FFFFFF" height="213.041" style="stroke:#181818;stroke-width:1.0;" width="10" x="327" y="298.1504"/><rect fill="#FFFFFF" height="143.4199" style="stroke:#181818;stroke-width:1.0;" width="10" x="699" y="117.4199"/><rect fill="#FFFFFF" height="31.4883" style="stroke:#181818;stroke-width:1.0;" width="10" x="1179" y="141.4199"/><rect fill="#FFFFFF" height="29.3105" style="stroke:#181818;stroke-width:1.0;" width="10" x="1179" y="202.2188"/><rect fill="#FFFFFF" height="143.4199" style="stroke:#181818;stroke-width:1.0;" width="10" x="1179" y="332.4609"/><rect fill="#FFFFFF" height="46.7988" style="stroke:#181818;stroke-width:1.0;" width="10" x="1349" y="399.7715"/><rect fill="#FFFFFF" height="14" style="stroke:#181818;stroke-width:1.0;" width="10" x="1481" y="361.7715"/><polygon fill="#181818" points="310,84.1094,320,88.1094,310,92.1094,314,88.1094" style="stroke:#181818;stroke-width:1.0;"/><line style="stroke:#181818;stroke-width:1.0;" x1="0" x2="316" y1="88.1094" y2="88.1094"/><text fill="#000000" font-family="sans-serif" font-size="13" lengthAdjust="spacing" textLength="303" x="9.5" y="83.3672">execute ("addmeal chicken c/100 2023-11-13")</text><polygon fill="#181818" points="687,113.4199,697,117.4199,687,121.4199,691,117.4199" style="stroke:#181818;stroke-width:1.0;"/><line style="stroke:#181818;stroke-width:1.0;" x1="332" x2="693" y1="117.4199" y2="117.4199"/><text fill="#000000" font-family="sans-serif" font-size="13" lengthAdjust="spacing" textLength="348" x="341.5" y="112.6777">parseCommand("addmeal chicken c/100 2023-11-13")</text><polygon fill="#181818" points="1097.5,127.4199,1107.5,131.4199,1097.5,135.4199,1101.5,131.4199" style="stroke:#181818;stroke-width:1.0;"/><line style="stroke:#181818;stroke-width:1.0;" x1="709" x2="1103.5" y1="131.4199" y2="131.4199"/><rect fill="#3333C4" height="30.4883" rx="2.5" ry="2.5" style="stroke:#181818;stroke-width:0.5;" width="149" x="1109.5" y="125.4199"/><text fill="#FFFFFF" font-family="sans-serif" font-size="14" lengthAdjust="spacing" textLength="135" x="1116.5" y="145.9551">:AddMealCommand</text><polygon fill="#181818" points="720,168.9082,710,172.9082,720,176.9082,716,172.9082" style="stroke:#181818;stroke-width:1.0;"/><line style="stroke:#181818;stroke-width:1.0;stroke-dasharray:2.0,2.0;" x1="714" x2="1183" y1="172.9082" y2="172.9082"/><polygon fill="#181818" points="1167,198.2188,1177,202.2188,1167,206.2188,1171,202.2188" style="stroke:#181818;stroke-width:1.0;"/><line style="stroke:#181818;stroke-width:1.0;" x1="709" x2="1173" y1="202.2188" y2="202.2188"/><text fill="#000000" font-family="sans-serif" font-size="13" lengthAdjust="spacing" textLength="451" x="718.5" y="197.4766">setArguments("chicken c/100 2023-11-13"), userCommandLine:String)</text><polygon fill="#181818" points="720,227.5293,710,231.5293,720,235.5293,716,231.5293" style="stroke:#181818;stroke-width:1.0;"/><line style="stroke:#181818;stroke-width:1.0;stroke-dasharray:2.0,2.0;" x1="714" x2="1183" y1="231.5293" y2="231.5293"/><text fill="#000000" font-family="sans-serif" font-size="13" lengthAdjust="spacing" textLength="130" x="881.5" y="226.7871">command:Command</text><polygon fill="#181818" points="343,256.8398,333,260.8398,343,264.8398,339,260.8398" style="stroke:#181818;stroke-width:1.0;"/><line style="stroke:#181818;stroke-width:1.0;stroke-dasharray:2.0,2.0;" x1="337" x2="703" y1="260.8398" y2="260.8398"/><text fill="#000000" font-family="sans-serif" font-size="13" lengthAdjust="spacing" textLength="130" x="453" y="256.0977">command:Command</text><line style="stroke:#181818;stroke-width:1.0;" x1="332" x2="379" y1="285.1504" y2="285.1504"/><line style="stroke:#181818;stroke-width:1.0;" x1="379" x2="379" y1="285.1504" y2="298.1504"/><line style="stroke:#181818;stroke-width:1.0;" x1="338" x2="379" y1="298.1504" y2="298.1504"/><polygon fill="#181818" points="348,294.1504,338,298.1504,348,302.1504,344,298.1504" style="stroke:#181818;stroke-width:1.0;"/><text fill="#000000" font-family="sans-serif" font-size="13" lengthAdjust="spacing" textLength="121" x="344" y="280.4082">executeCommand()</text><polygon fill="#181818" points="1167,328.4609,1177,332.4609,1167,336.4609,1171,332.4609" style="stroke:#181818;stroke-width:1.0;"/><line style="stroke:#181818;stroke-width:1.0;" x1="337" x2="1173" y1="332.4609" y2="332.4609"/><text fill="#000000" font-family="sans-serif" font-size="13" lengthAdjust="spacing" textLength="57" x="729.5" y="327.7188">execute()</text><polygon fill="#181818" points="1469,357.7715,1479,361.7715,1469,365.7715,1473,361.7715" style="stroke:#181818;stroke-width:1.0;"/><line style="stroke:#181818;stroke-width:1.0;" x1="1189" x2="1475" y1="361.7715" y2="361.7715"/><text fill="#000000" font-family="sans-serif" font-size="13" lengthAdjust="spacing" textLength="126" x="1272" y="357.0293">AddMealCommand()</text><polygon fill="#181818" points="1200,371.7715,1190,375.7715,1200,379.7715,1196,375.7715" style="stroke:#181818;stroke-width:1.0;"/><line style="stroke:#181818;stroke-width:1.0;stroke-dasharray:2.0,2.0;" x1="1194" x2="1485" y1="375.7715" y2="375.7715"/><polygon fill="#181818" points="1276.5,385.7715,1286.5,389.7715,1276.5,393.7715,1280.5,389.7715" style="stroke:#181818;stroke-width:1.0;"/><line style="stroke:#181818;stroke-width:1.0;" x1="1189" x2="1282.5" y1="389.7715" y2="389.7715"/><rect fill="#3333C4" height="30.4883" rx="2.5" ry="2.5" style="stroke:#181818;stroke-width:0.5;" width="131" x="1288.5" y="383.7715"/><text fill="#FFFFFF" font-family="sans-serif" font-size="14" lengthAdjust="spacing" textLength="117" x="1295.5" y="404.3066">:CommandResult</text><polygon fill="#181818" points="1200,442.5703,1190,446.5703,1200,450.5703,1196,446.5703" style="stroke:#181818;stroke-width:1.0;"/><line style="stroke:#181818;stroke-width:1.0;stroke-dasharray:2.0,2.0;" x1="1194" x2="1353" y1="446.5703" y2="446.5703"/><text fill="#000000" font-family="sans-serif" font-size="13" lengthAdjust="spacing" textLength="36" x="1253.5" y="441.8281">result</text><polygon fill="#181818" points="348,471.8809,338,475.8809,348,479.8809,344,475.8809" style="stroke:#181818;stroke-width:1.0;"/><line style="stroke:#181818;stroke-width:1.0;stroke-dasharray:2.0,2.0;" x1="342" x2="1183" y1="475.8809" y2="475.8809"/><text fill="#000000" font-family="sans-serif" font-size="13" lengthAdjust="spacing" textLength="36" x="742.5" y="471.1387">result</text><line style="stroke:#181818;stroke-width:1.0;stroke-dasharray:2.0,2.0;" x1="337" x2="379" y1="510.1914" y2="510.1914"/><line style="stroke:#181818;stroke-width:1.0;stroke-dasharray:2.0,2.0;" x1="379" x2="379" y1="510.1914" y2="523.1914"/><line style="stroke:#181818;stroke-width:1.0;stroke-dasharray:2.0,2.0;" x1="332" x2="379" y1="523.1914" y2="523.1914"/><polygon fill="#181818" points="342,519.1914,332,523.1914,342,527.1914,338,523.1914" style="stroke:#181818;stroke-width:1.0;"/><text fill="#000000" font-family="sans-serif" font-size="13" lengthAdjust="spacing" textLength="36" x="344" y="505.4492">result</text><polygon fill="#181818" points="11,528.1914,1,532.1914,11,536.1914,7,532.1914" style="stroke:#181818;stroke-width:1.0;"/><line style="stroke:#181818;stroke-width:1.0;stroke-dasharray:2.0,2.0;" x1="5" x2="326" y1="532.1914" y2="532.1914"/><!--SRC=[ZP9FJuD04CNl-ob6JZIr2ksj1vEc6cC2mLJlpRexmOsmaFsJr6_lKi2oM6nlxCoyzuRVxesGhB0SGPll0kzgMnQ4V5G7IAfSC4YovvVjVfibsMx_7fEQAYEOgAaq4AoF8ocLD4SL0DKmB0ob8zssAaig-IjLkXDwbN-K6yvJf4KtVfJwfSkfEzIsCCFKjk8fqJav22s9jE9OG9ezFYLJ99eD4g5Rs_umb9mS5my-flby3NX0PWr2653EIoS7zYdO5qfWzt4KmJ9QhXPnl8XNmOnuQkVcisliwkQpArzboHHI5- -Z9BwnIngXTb54eR5ANZCA6ir6vRP4QNGOJ6zp2zQPTCf4I5o_6ILaFkl2WBMj_aAdocDEKzHxK7_9dlc9JkE6Hqqt_dllpQ3V3llbUzJUqplZvJ_D4sbGhUBoYVm0]--></g></svg>