<?xml version="1.0" encoding="us-ascii" standalone="no"?><svg xmlns="http://www.w3.org/2000/svg" xmlns:xlink="http://www.w3.org/1999/xlink" contentStyleType="text/css" height="544px" preserveAspectRatio="none" style="width:1493px;height:544px;background:#FFFFFF;" version="1.1" viewBox="0 0 1493 544" width="1493px" zoomAndPan="magnify"><defs/><g><rect fill="#C8C8FA" height="525.1914" style="stroke:#181818;stroke-width:0.5;" width="1045" x="198" y="6"/><text fill="#FFFFFF" font-family="sans-serif" font-size="13" font-weight="bold" lengthAdjust="spacing" textLength="36" x="700.5" y="18.5684">Logic</text><rect fill="#F97181" height="525.1914" style="stroke:#181818;stroke-width:0.5;" width="242" x="1245" y="6"/><text fill="#FFFFFF" font-family="sans-serif" font-size="13" font-weight="bold" lengthAdjust="spacing" textLength="41" x="1343.5" y="18.5684">Model</text><rect fill="#FFFFFF" height="440.082" style="stroke:#181818;stroke-width:1.0;" width="10" x="264" y="88.1094"/><rect fill="#FFFFFF" height="230.041" style="stroke:#181818;stroke-width:1.0;" width="10" x="269" y="298.1504"/><rect fill="#FFFFFF" height="143.4199" style="stroke:#181818;stroke-width:1.0;" width="10" x="583" y="117.4199"/><rect fill="#FFFFFF" height="31.4883" style="stroke:#181818;stroke-width:1.0;" width="10" x="968" y="141.4199"/><rect fill="#FFFFFF" height="29.3105" style="stroke:#181818;stroke-width:1.0;" width="10" x="968" y="202.2188"/><rect fill="#FFFFFF" height="186.7305" style="stroke:#181818;stroke-width:1.0;" width="10" x="968" y="332.4609"/><rect fill="#FFFFFF" height="46.7988" style="stroke:#181818;stroke-width:1.0;" width="10" x="1158.5" y="443.082"/><rect fill="#FFFFFF" height="57.3105" style="stroke:#181818;stroke-width:1.0;" width="10" x="1303.5" y="361.7715"/><rect fill="#FFFFFF" height="14" style="stroke:#181818;stroke-width:1.0;" width="10" x="1431.5" y="391.082"/><line style="stroke:#181818;stroke-width:0.5;stroke-dasharray:5.0,5.0;" x1="269" x2="269" y1="56.7988" y2="537.1914"/><line style="stroke:#181818;stroke-width:0.5;stroke-dasharray:5.0,5.0;" x1="588" x2="588" y1="56.7988" y2="537.1914"/><line style="stroke:#181818;stroke-width:0.5;stroke-dasharray:5.0,5.0;" x1="973" x2="973" y1="156.1641" y2="537.1914"/><line style="stroke:#181818;stroke-width:0.5;stroke-dasharray:5.0,5.0;" x1="1163" x2="1163" y1="457.8262" y2="537.1914"/><line style="stroke:#181818;stroke-width:0.5;stroke-dasharray:5.0,5.0;" x1="1308" x2="1308" y1="56.7988" y2="537.1914"/><line style="stroke:#181818;stroke-width:0.5;stroke-dasharray:5.0,5.0;" x1="1436" x2="1436" y1="56.7988" y2="537.1914"/><rect fill="#3333C4" height="30.4883" rx="2.5" ry="2.5" style="stroke:#181818;stroke-width:0.5;" width="114" x="212" y="25.3105"/><text fill="#FFFFFF" font-family="sans-serif" font-size="14" lengthAdjust="spacing" textLength="100" x="219" y="45.8457">:LogicManager</text><rect fill="#3333C4" height="30.4883" rx="2.5" ry="2.5" style="stroke:#181818;stroke-width:0.5;" width="132" x="522" y="25.3105"/><text fill="#FFFFFF" font-family="sans-serif" font-size="14" lengthAdjust="spacing" textLength="118" x="529" y="45.8457">:CommandParser</text><rect fill="#9D0012" height="30.4883" rx="2.5" ry="2.5" style="stroke:#181818;stroke-width:0.5;" width="99" x="1259" y="25.3105"/><text fill="#FFFFFF" font-family="sans-serif" font-size="14" lengthAdjust="spacing" textLength="85" x="1266" y="45.8457">:WorkoutList</text><rect fill="#9D0012" height="30.4883" rx="2.5" ry="2.5" style="stroke:#181818;stroke-width:0.5;" width="73" x="1400" y="25.3105"/><text fill="#FFFFFF" font-family="sans-serif" font-size="14" lengthAdjust="spacing" textLength="59" x="1407" y="45.8457">:MealList</text><rect fill="#FFFFFF" height="440.082" style="stroke:#181818;stroke-width:1.0;" width="10" x="264" y="88.1094"/><rect fill="#FFFFFF" height="230.041" style="stroke:#181818;stroke-width:1.0;" width="10" x="269" y="298.1504"/><rect fill="#FFFFFF" height="143.4199" style="stroke:#181818;stroke-width:1.0;" width="10" x="583" y="117.4199"/><rect fill="#FFFFFF" height="31.4883" style="stroke:#181818;stroke-width:1.0;" width="10" x="968" y="141.4199"/><rect fill="#FFFFFF" height="29.3105" style="stroke:#181818;stroke-width:1.0;" width="10" x="968" y="202.2188"/><rect fill="#FFFFFF" height="186.7305" style="stroke:#181818;stroke-width:1.0;" width="10" x="968" y="332.4609"/><rect fill="#FFFFFF" height="46.7988" style="stroke:#181818;stroke-width:1.0;" width="10" x="1158.5" y="443.082"/><rect fill="#FFFFFF" height="57.3105" style="stroke:#181818;stroke-width:1.0;" width="10" x="1303.5" y="361.7715"/><rect fill="#FFFFFF" height="14" style="stroke:#181818;stroke-width:1.0;" width="10" x="1431.5" y="391.082"/><polygon fill="#181818" points="252,84.1094,262,88.1094,252,92.1094,256,88.1094" style="stroke:#181818;stroke-width:1.0;"/><line style="stroke:#181818;stroke-width:1.0;" x1="0" x2="258" y1="88.1094" y2="88.1094"/><text fill="#000000" font-family="sans-serif" font-size="13" lengthAdjust="spacing" textLength="245" x="9.5" y="83.3672">execute ("caloriebalance 2023-11-13")</text><polygon fill="#181818" points="571,113.4199,581,117.4199,571,121.4199,575,117.4199" style="stroke:#181818;stroke-width:1.0;"/><line style="stroke:#181818;stroke-width:1.0;" x1="274" x2="577" y1="117.4199" y2="117.4199"/><text fill="#000000" font-family="sans-serif" font-size="13" lengthAdjust="spacing" textLength="290" x="283.5" y="112.6777">parseCommand("caloriebalance 2023-11-13")</text><polygon fill="#181818" points="866,127.4199,876,131.4199,866,135.4199,870,131.4199" style="stroke:#181818;stroke-width:1.0;"/><line style="stroke:#181818;stroke-width:1.0;" x1="593" x2="872" y1="131.4199" y2="131.4199"/><rect fill="#3333C4" height="30.4883" rx="2.5" ry="2.5" style="stroke:#181818;stroke-width:0.5;" width="190" x="878" y="125.4199"/><text fill="#FFFFFF" font-family="sans-serif" font-size="14" lengthAdjust="spacing" textLength="176" x="885" y="145.9551">:CalorieBalanceCommand</text><polygon fill="#181818" points="604,168.9082,594,172.9082,604,176.9082,600,172.9082" style="stroke:#181818;stroke-width:1.0;"/><line style="stroke:#181818;stroke-width:1.0;stroke-dasharray:2.0,2.0;" x1="598" x2="972" y1="172.9082" y2="172.9082"/><polygon fill="#181818" points="956,198.2188,966,202.2188,956,206.2188,960,202.2188" style="stroke:#181818;stroke-width:1.0;"/><line style="stroke:#181818;stroke-width:1.0;" x1="593" x2="962" y1="202.2188" y2="202.2188"/><text fill="#000000" font-family="sans-serif" font-size="13" lengthAdjust="spacing" textLength="356" x="602.5" y="197.4766">setArguments("2023-11-13"), userCommandLine:String)</text><polygon fill="#181818" points="604,227.5293,594,231.5293,604,235.5293,600,231.5293" style="stroke:#181818;stroke-width:1.0;"/><line style="stroke:#181818;stroke-width:1.0;stroke-dasharray:2.0,2.0;" x1="598" x2="972" y1="231.5293" y2="231.5293"/><text fill="#000000" font-family="sans-serif" font-size="13" lengthAdjust="spacing" textLength="130" x="718" y="226.7871">command:Command</text><polygon fill="#181818" points="285,256.8398,275,260.8398,285,264.8398,281,260.8398" style="stroke:#181818;stroke-width:1.0;"/><line style="stroke:#181818;stroke-width:1.0;stroke-dasharray:2.0,2.0;" x1="279" x2="587" y1="260.8398" y2="260.8398"/><text fill="#000000" font-family="sans-serif" font-size="13" lengthAdjust="spacing" textLength="130" x="366" y="256.0977">command:Command</text><line style="stroke:#181818;stroke-width:1.0;" x1="274" x2="321" y1="285.1504" y2="285.1504"/><line style="stroke:#181818;stroke-width:1.0;" x1="321" x2="321" y1="285.1504" y2="298.1504"/><line style="stroke:#181818;stroke-width:1.0;" x1="280" x2="321" y1="298.1504" y2="298.1504"/><polygon fill="#181818" points="290,294.1504,280,298.1504,290,302.1504,286,298.1504" style="stroke:#181818;stroke-width:1.0;"/><text fill="#000000" font-family="sans-serif" font-size="13" lengthAdjust="spacing" textLength="121" x="286" y="280.4082">executeCommand()</text><polygon fill="#181818" points="956,328.4609,966,332.4609,956,336.4609,960,332.4609" style="stroke:#181818;stroke-width:1.0;"/><line style="stroke:#181818;stroke-width:1.0;" x1="279" x2="962" y1="332.4609" y2="332.4609"/><text fill="#000000" font-family="sans-serif" font-size="13" lengthAdjust="spacing" textLength="57" x="595" y="327.7188">execute()</text><polygon fill="#181818" points="1291.5,357.7715,1301.5,361.7715,1291.5,365.7715,1295.5,361.7715" style="stroke:#181818;stroke-width:1.0;"/><line style="stroke:#181818;stroke-width:1.0;" x1="978" x2="1297.5" y1="361.7715" y2="361.7715"/><text fill="#000000" font-family="sans-serif" font-size="13" lengthAdjust="spacing" textLength="99" x="1091.25" y="357.0293">CalorieBalance()</text><polygon fill="#181818" points="1419.5,387.082,1429.5,391.082,1419.5,395.082,1423.5,391.082" style="stroke:#181818;stroke-width:1.0;"/><line style="stroke:#181818;stroke-width:1.0;" x1="1313.5" x2="1425.5" y1="391.082" y2="391.082"/><text fill="#000000" font-family="sans-serif" font-size="13" lengthAdjust="spacing" textLength="99" x="1323" y="386.3398">CalorieBalance()</text><polygon fill="#181818" points="1324.5,401.082,1314.5,405.082,1324.5,409.082,1320.5,405.082" style="stroke:#181818;stroke-width:1.0;"/><line style="stroke:#181818;stroke-width:1.0;stroke-dasharray:2.0,2.0;" x1="1318.5" x2="1435.5" y1="405.082" y2="405.082"/><polygon fill="#181818" points="989,415.082,979,419.082,989,423.082,985,419.082" style="stroke:#181818;stroke-width:1.0;"/><line style="stroke:#181818;stroke-width:1.0;stroke-dasharray:2.0,2.0;" x1="983" x2="1307.5" y1="419.082" y2="419.082"/><polygon fill="#181818" points="1086,429.082,1096,433.082,1086,437.082,1090,433.082" style="stroke:#181818;stroke-width:1.0;"/><line style="stroke:#181818;stroke-width:1.0;" x1="978" x2="1092" y1="433.082" y2="433.082"/><rect fill="#3333C4" height="30.4883" rx="2.5" ry="2.5" style="stroke:#181818;stroke-width:0.5;" width="131" x="1098" y="427.082"/><text fill="#FFFFFF" font-family="sans-serif" font-size="14" lengthAdjust="spacing" textLength="117" x="1105" y="447.6172">:CommandResult</text><polygon fill="#181818" points="989,485.8809,979,489.8809,989,493.8809,985,489.8809" style="stroke:#181818;stroke-width:1.0;"/><line style="stroke:#181818;stroke-width:1.0;stroke-dasharray:2.0,2.0;" x1="983" x2="1162.5" y1="489.8809" y2="489.8809"/><text fill="#000000" font-family="sans-serif" font-size="13" lengthAdjust="spacing" textLength="36" x="1052.75" y="485.1387">result</text><polygon fill="#181818" points="290,515.1914,280,519.1914,290,523.1914,286,519.1914" style="stroke:#181818;stroke-width:1.0;"/><line style="stroke:#181818;stroke-width:1.0;stroke-dasharray:2.0,2.0;" x1="284" x2="972" y1="519.1914" y2="519.1914"/><text fill="#000000" font-family="sans-serif" font-size="13" lengthAdjust="spacing" textLength="36" x="608" y="514.4492">result</text><!--SRC=[ZPBBJiCm44Nt_WgJLQjIHDfT5qXG449A55IGM5QkCuei73loGof_ZuETOgSFsCNZU-uuT-QA2Sfj3LYRBmutdMqvGZkvnuLi6CL5zVootgwhejfittFK4MKOPHqH1cUh7qb916b0PPXe71TYTCIjPTiIKRyIfGEOL2wHX4l5u85m8YW4oZiaDtyttu2stCJDVIKXGTJOPU43AMKD79VLurDnBf0FgJwbDGNJtZawn-28Ae7m0p8S4ltX7VExDEFPR8LX3zGQm9EC-Wns8OF5xM8vp_DvliocAC6SJPfuxzFrdw5ysOig8AvX6ZbA7ViMwKXS3wJ0M2N-8yKQpBrgR0l2w4aMzx_6rc71es02Lcz6CT5CWpsc_ceOzRdoE99poGwPd0Zn-Dc1SUBHfPF7wz1hKuL3Oe7J7tRXf1WD_pMaEembNkSJhqZN_NSgM7aYFNq3]--></g></svg>