<?xml version="1.0" encoding="us-ascii" standalone="no"?><svg xmlns="http://www.w3.org/2000/svg" xmlns:xlink="http://www.w3.org/1999/xlink" contentStyleType="text/css" height="365px" preserveAspectRatio="none" style="width:577px;height:365px;background:#FFFFFF;" version="1.1" viewBox="0 0 577 365" width="577px" zoomAndPan="magnify"><defs/><g><text fill="#000000" font-family="sans-serif" font-size="14" font-weight="bold" lengthAdjust="spacing" textLength="196" x="189.75" y="28.5352">Sequence of CalorieBalance</text><text fill="#000000" font-family="sans-serif" font-size="14" font-weight="bold" lengthAdjust="spacing" textLength="5" x="285.25" y="45.0234">&#160;</text><rect fill="#FFFFFF" height="189.8633" style="stroke:#181818;stroke-width:1.0;" width="10" x="180" y="121.7754"/><rect fill="#FFFFFF" height="14" style="stroke:#181818;stroke-width:1.0;" width="10" x="340" y="151.0859"/><rect fill="#FFFFFF" height="29.3105" style="stroke:#181818;stroke-width:1.0;" width="10" x="415" y="194.3965"/><rect fill="#FFFFFF" height="29.3105" style="stroke:#181818;stroke-width:1.0;" width="10" x="515" y="253.0176"/><line style="stroke:#181818;stroke-width:0.5;stroke-dasharray:5.0,5.0;" x1="185" x2="185" y1="90.4648" y2="329.6387"/><line style="stroke:#181818;stroke-width:0.5;stroke-dasharray:5.0,5.0;" x1="344.5" x2="344.5" y1="90.4648" y2="329.6387"/><line style="stroke:#181818;stroke-width:0.5;stroke-dasharray:5.0,5.0;" x1="419.5" x2="419.5" y1="90.4648" y2="329.6387"/><line style="stroke:#181818;stroke-width:0.5;stroke-dasharray:5.0,5.0;" x1="519.5" x2="519.5" y1="90.4648" y2="329.6387"/><rect fill="#E2E2F0" height="30.4883" rx="2.5" ry="2.5" style="stroke:#181818;stroke-width:0.5;" width="194" x="88" y="58.9766"/><text fill="#000000" font-family="sans-serif" font-size="14" lengthAdjust="spacing" textLength="180" x="95" y="79.5117">: CalorieBalanceCommand</text><rect fill="#E2E2F0" height="30.4883" rx="2.5" ry="2.5" style="stroke:#181818;stroke-width:0.5;" width="194" x="88" y="328.6387"/><text fill="#000000" font-family="sans-serif" font-size="14" lengthAdjust="spacing" textLength="180" x="95" y="349.1738">: CalorieBalanceCommand</text><rect fill="#E2E2F0" height="30.4883" rx="2.5" ry="2.5" style="stroke:#181818;stroke-width:0.5;" width="53" x="318.5" y="58.9766"/><text fill="#000000" font-family="sans-serif" font-size="14" lengthAdjust="spacing" textLength="39" x="325.5" y="79.5117">: Date</text><rect fill="#E2E2F0" height="30.4883" rx="2.5" ry="2.5" style="stroke:#181818;stroke-width:0.5;" width="53" x="318.5" y="328.6387"/><text fill="#000000" font-family="sans-serif" font-size="14" lengthAdjust="spacing" textLength="39" x="325.5" y="349.1738">: Date</text><rect fill="#E2E2F0" height="30.4883" rx="2.5" ry="2.5" style="stroke:#181818;stroke-width:0.5;" width="77" x="381.5" y="58.9766"/><text fill="#000000" font-family="sans-serif" font-size="14" lengthAdjust="spacing" textLength="63" x="388.5" y="79.5117">: MealList</text><rect fill="#E2E2F0" height="30.4883" rx="2.5" ry="2.5" style="stroke:#181818;stroke-width:0.5;" width="77" x="381.5" y="328.6387"/><text fill="#000000" font-family="sans-serif" font-size="14" lengthAdjust="spacing" textLength="63" x="388.5" y="349.1738">: MealList</text><rect fill="#E2E2F0" height="30.4883" rx="2.5" ry="2.5" style="stroke:#181818;stroke-width:0.5;" width="103" x="468.5" y="58.9766"/><text fill="#000000" font-family="sans-serif" font-size="14" lengthAdjust="spacing" textLength="89" x="475.5" y="79.5117">: WorkoutList</text><rect fill="#E2E2F0" height="30.4883" rx="2.5" ry="2.5" style="stroke:#181818;stroke-width:0.5;" width="103" x="468.5" y="328.6387"/><text fill="#000000" font-family="sans-serif" font-size="14" lengthAdjust="spacing" textLength="89" x="475.5" y="349.1738">: WorkoutList</text><rect fill="#FFFFFF" height="189.8633" style="stroke:#181818;stroke-width:1.0;" width="10" x="180" y="121.7754"/><rect fill="#FFFFFF" height="14" style="stroke:#181818;stroke-width:1.0;" width="10" x="340" y="151.0859"/><rect fill="#FFFFFF" height="29.3105" style="stroke:#181818;stroke-width:1.0;" width="10" x="415" y="194.3965"/><rect fill="#FFFFFF" height="29.3105" style="stroke:#181818;stroke-width:1.0;" width="10" x="515" y="253.0176"/><polygon fill="#181818" points="168,117.7754,178,121.7754,168,125.7754,172,121.7754" style="stroke:#181818;stroke-width:1.0;"/><line style="stroke:#181818;stroke-width:1.0;" x1="0" x2="174" y1="121.7754" y2="121.7754"/><text fill="#000000" font-family="sans-serif" font-size="13" lengthAdjust="spacing" textLength="161" x="7" y="117.0332">setArgument(args: String)</text><polygon fill="#181818" points="328,147.0859,338,151.0859,328,155.0859,332,151.0859" style="stroke:#181818;stroke-width:1.0;"/><line style="stroke:#181818;stroke-width:1.0;" x1="190" x2="334" y1="151.0859" y2="151.0859"/><text fill="#000000" font-family="sans-serif" font-size="13" lengthAdjust="spacing" textLength="131" x="197" y="146.3438">Date.parseDate(args)</text><polygon fill="#181818" points="201,161.0859,191,165.0859,201,169.0859,197,165.0859" style="stroke:#181818;stroke-width:1.0;"/><line style="stroke:#181818;stroke-width:1.0;stroke-dasharray:2.0,2.0;" x1="195" x2="344" y1="165.0859" y2="165.0859"/><polygon fill="#181818" points="403,190.3965,413,194.3965,403,198.3965,407,194.3965" style="stroke:#181818;stroke-width:1.0;"/><line style="stroke:#181818;stroke-width:1.0;" x1="190" x2="409" y1="194.3965" y2="194.3965"/><text fill="#000000" font-family="sans-serif" font-size="13" lengthAdjust="spacing" textLength="57" x="197" y="189.6543">execute()</text><polygon fill="#181818" points="201,219.707,191,223.707,201,227.707,197,223.707" style="stroke:#181818;stroke-width:1.0;"/><line style="stroke:#181818;stroke-width:1.0;stroke-dasharray:2.0,2.0;" x1="195" x2="419" y1="223.707" y2="223.707"/><text fill="#000000" font-family="sans-serif" font-size="13" lengthAdjust="spacing" textLength="140" x="207" y="218.9648">calorieBalance: double</text><polygon fill="#181818" points="503,249.0176,513,253.0176,503,257.0176,507,253.0176" style="stroke:#181818;stroke-width:1.0;"/><line style="stroke:#181818;stroke-width:1.0;" x1="190" x2="509" y1="253.0176" y2="253.0176"/><text fill="#000000" font-family="sans-serif" font-size="13" lengthAdjust="spacing" textLength="57" x="197" y="248.2754">execute()</text><polygon fill="#181818" points="201,278.3281,191,282.3281,201,286.3281,197,282.3281" style="stroke:#181818;stroke-width:1.0;"/><line style="stroke:#181818;stroke-width:1.0;stroke-dasharray:2.0,2.0;" x1="195" x2="519" y1="282.3281" y2="282.3281"/><text fill="#000000" font-family="sans-serif" font-size="13" lengthAdjust="spacing" textLength="140" x="207" y="277.5859">calorieBalance: double</text><polygon fill="#181818" points="11,307.6387,1,311.6387,11,315.6387,7,311.6387" style="stroke:#181818;stroke-width:1.0;"/><line style="stroke:#181818;stroke-width:1.0;stroke-dasharray:2.0,2.0;" x1="5" x2="184" y1="311.6387" y2="311.6387"/><text fill="#000000" font-family="sans-serif" font-size="13" lengthAdjust="spacing" textLength="111" x="17" y="306.8965">: CommandResult</text><!--SRC=[bP4n3i8m34NtdCBgH8NW01sGe8omq8415jEQAY9DIk9879yqK5IgCf3fs_xlorPOiY8ewEv9bmJc2ZagOoLjK67edBKGeaNBifGjQeOa6pboqpIegmJGJK_6-1QPehiJu-6UKEsausZeYx7fQEpDUFxu1hKGfyLgUW-OppDmn6jR-uOqpz3MBeE2hTHrAgQP4DQj6TbEBCCgZZeLyLHOOc_rRxg_8IRGWqeVq1w3yWlBe3B-ekXtsk3IlmBZUrl21xu23-IyOl44]--></g></svg>