<?xml version="1.0" encoding="us-ascii" standalone="no"?><svg xmlns="http://www.w3.org/2000/svg" xmlns:xlink="http://www.w3.org/1999/xlink" contentStyleType="text/css" height="557px" preserveAspectRatio="none" style="width:1075px;height:557px;background:#FFFFFF;" version="1.1" viewBox="0 0 1075 557" width="1075px" zoomAndPan="magnify"><defs/><g><rect fill="#C8C8FA" height="538.1914" style="stroke:#181818;stroke-width:0.5;" width="862" x="104" y="6"/><text fill="#FFFFFF" font-family="sans-serif" font-size="13" font-weight="bold" lengthAdjust="spacing" textLength="36" x="515" y="18.5684">Logic</text><rect fill="#F97181" height="538.1914" style="stroke:#181818;stroke-width:0.5;" width="101" x="968" y="6"/><text fill="#FFFFFF" font-family="sans-serif" font-size="13" font-weight="bold" lengthAdjust="spacing" textLength="41" x="996" y="18.5684">Model</text><rect fill="#FFFFFF" height="444.082" style="stroke:#181818;stroke-width:1.0;" width="10" x="170" y="88.1094"/><rect fill="#FFFFFF" height="213.041" style="stroke:#181818;stroke-width:1.0;" width="10" x="175" y="298.1504"/><rect fill="#FFFFFF" height="143.4199" style="stroke:#181818;stroke-width:1.0;" width="10" x="395" y="117.4199"/><rect fill="#FFFFFF" height="31.4883" style="stroke:#181818;stroke-width:1.0;" width="10" x="704" y="141.4199"/><rect fill="#FFFFFF" height="29.3105" style="stroke:#181818;stroke-width:1.0;" width="10" x="704" y="202.2188"/><rect fill="#FFFFFF" height="143.4199" style="stroke:#181818;stroke-width:1.0;" width="10" x="704" y="332.4609"/><rect fill="#FFFFFF" height="46.7988" style="stroke:#181818;stroke-width:1.0;" width="10" x="881.5" y="399.7715"/><rect fill="#FFFFFF" height="14" style="stroke:#181818;stroke-width:1.0;" width="10" x="1013.5" y="361.7715"/><line style="stroke:#181818;stroke-width:0.5;stroke-dasharray:5.0,5.0;" x1="175" x2="175" y1="56.7988" y2="550.1914"/><line style="stroke:#181818;stroke-width:0.5;stroke-dasharray:5.0,5.0;" x1="400" x2="400" y1="56.7988" y2="550.1914"/><line style="stroke:#181818;stroke-width:0.5;stroke-dasharray:5.0,5.0;" x1="709" x2="709" y1="156.1641" y2="550.1914"/><line style="stroke:#181818;stroke-width:0.5;stroke-dasharray:5.0,5.0;" x1="886" x2="886" y1="414.5156" y2="550.1914"/><line style="stroke:#181818;stroke-width:0.5;stroke-dasharray:5.0,5.0;" x1="1018" x2="1018" y1="56.7988" y2="550.1914"/><rect fill="#3333C4" height="30.4883" rx="2.5" ry="2.5" style="stroke:#181818;stroke-width:0.5;" width="114" x="118" y="25.3105"/><text fill="#FFFFFF" font-family="sans-serif" font-size="14" lengthAdjust="spacing" textLength="100" x="125" y="45.8457">:LogicManager</text><rect fill="#3333C4" height="30.4883" rx="2.5" ry="2.5" style="stroke:#181818;stroke-width:0.5;" width="132" x="334" y="25.3105"/><text fill="#FFFFFF" font-family="sans-serif" font-size="14" lengthAdjust="spacing" textLength="118" x="341" y="45.8457">:CommandParser</text><rect fill="#9D0012" height="30.4883" rx="2.5" ry="2.5" style="stroke:#181818;stroke-width:0.5;" width="73" x="982" y="25.3105"/><text fill="#FFFFFF" font-family="sans-serif" font-size="14" lengthAdjust="spacing" textLength="59" x="989" y="45.8457">:MealList</text><rect fill="#FFFFFF" height="444.082" style="stroke:#181818;stroke-width:1.0;" width="10" x="170" y="88.1094"/><rect fill="#FFFFFF" height="213.041" style="stroke:#181818;stroke-width:1.0;" width="10" x="175" y="298.1504"/><rect fill="#FFFFFF" height="143.4199" style="stroke:#181818;stroke-width:1.0;" width="10" x="395" y="117.4199"/><rect fill="#FFFFFF" height="31.4883" style="stroke:#181818;stroke-width:1.0;" width="10" x="704" y="141.4199"/><rect fill="#FFFFFF" height="29.3105" style="stroke:#181818;stroke-width:1.0;" width="10" x="704" y="202.2188"/><rect fill="#FFFFFF" height="143.4199" style="stroke:#181818;stroke-width:1.0;" width="10" x="704" y="332.4609"/><rect fill="#FFFFFF" height="46.7988" style="stroke:#181818;stroke-width:1.0;" width="10" x="881.5" y="399.7715"/><rect fill="#FFFFFF" height="14" style="stroke:#181818;stroke-width:1.0;" width="10" x="1013.5" y="361.7715"/><polygon fill="#181818" points="158,84.1094,168,88.1094,158,92.1094,162,88.1094" style="stroke:#181818;stroke-width:1.0;"/><line style="stroke:#181818;stroke-width:1.0;" x1="0" x2="164" y1="88.1094" y2="88.1094"/><text fill="#000000" font-family="sans-serif" font-size="13" lengthAdjust="spacing" textLength="151" x="9.5" y="83.3672">execute ("deletemeal 1")</text><polygon fill="#181818" points="383,113.4199,393,117.4199,383,121.4199,387,117.4199" style="stroke:#181818;stroke-width:1.0;"/><line style="stroke:#181818;stroke-width:1.0;" x1="180" x2="389" y1="117.4199" y2="117.4199"/><text fill="#000000" font-family="sans-serif" font-size="13" lengthAdjust="spacing" textLength="196" x="189.5" y="112.6777">parseCommand("deletemeal 1")</text><polygon fill="#181818" points="615,127.4199,625,131.4199,615,135.4199,619,131.4199" style="stroke:#181818;stroke-width:1.0;"/><line style="stroke:#181818;stroke-width:1.0;" x1="405" x2="621" y1="131.4199" y2="131.4199"/><rect fill="#3333C4" height="30.4883" rx="2.5" ry="2.5" style="stroke:#181818;stroke-width:0.5;" width="164" x="627" y="125.4199"/><text fill="#FFFFFF" font-family="sans-serif" font-size="14" lengthAdjust="spacing" textLength="150" x="634" y="145.9551">:DeleteMealCommand</text><polygon fill="#181818" points="416,168.9082,406,172.9082,416,176.9082,412,172.9082" style="stroke:#181818;stroke-width:1.0;"/><line style="stroke:#181818;stroke-width:1.0;stroke-dasharray:2.0,2.0;" x1="410" x2="708" y1="172.9082" y2="172.9082"/><polygon fill="#181818" points="692,198.2188,702,202.2188,692,206.2188,696,202.2188" style="stroke:#181818;stroke-width:1.0;"/><line style="stroke:#181818;stroke-width:1.0;" x1="405" x2="698" y1="202.2188" y2="202.2188"/><text fill="#000000" font-family="sans-serif" font-size="13" lengthAdjust="spacing" textLength="280" x="414.5" y="197.4766">setArguments("1", userCommandLine:String)</text><polygon fill="#181818" points="416,227.5293,406,231.5293,416,235.5293,412,231.5293" style="stroke:#181818;stroke-width:1.0;"/><line style="stroke:#181818;stroke-width:1.0;stroke-dasharray:2.0,2.0;" x1="410" x2="708" y1="231.5293" y2="231.5293"/><text fill="#000000" font-family="sans-serif" font-size="13" lengthAdjust="spacing" textLength="130" x="492" y="226.7871">command:Command</text><polygon fill="#181818" points="191,256.8398,181,260.8398,191,264.8398,187,260.8398" style="stroke:#181818;stroke-width:1.0;"/><line style="stroke:#181818;stroke-width:1.0;stroke-dasharray:2.0,2.0;" x1="185" x2="399" y1="260.8398" y2="260.8398"/><text fill="#000000" font-family="sans-serif" font-size="13" lengthAdjust="spacing" textLength="130" x="225" y="256.0977">command:Command</text><line style="stroke:#181818;stroke-width:1.0;" x1="180" x2="227" y1="285.1504" y2="285.1504"/><line style="stroke:#181818;stroke-width:1.0;" x1="227" x2="227" y1="285.1504" y2="298.1504"/><line style="stroke:#181818;stroke-width:1.0;" x1="186" x2="227" y1="298.1504" y2="298.1504"/><polygon fill="#181818" points="196,294.1504,186,298.1504,196,302.1504,192,298.1504" style="stroke:#181818;stroke-width:1.0;"/><text fill="#000000" font-family="sans-serif" font-size="13" lengthAdjust="spacing" textLength="121" x="192" y="280.4082">executeCommand()</text><polygon fill="#181818" points="692,328.4609,702,332.4609,692,336.4609,696,332.4609" style="stroke:#181818;stroke-width:1.0;"/><line style="stroke:#181818;stroke-width:1.0;" x1="185" x2="698" y1="332.4609" y2="332.4609"/><text fill="#000000" font-family="sans-serif" font-size="13" lengthAdjust="spacing" textLength="57" x="416" y="327.7188">execute()</text><polygon fill="#181818" points="1001.5,357.7715,1011.5,361.7715,1001.5,365.7715,1005.5,361.7715" style="stroke:#181818;stroke-width:1.0;"/><line style="stroke:#181818;stroke-width:1.0;" x1="714" x2="1007.5" y1="361.7715" y2="361.7715"/><text fill="#000000" font-family="sans-serif" font-size="13" lengthAdjust="spacing" textLength="83" x="822.25" y="357.0293">deleteMeal(1)</text><polygon fill="#181818" points="725,371.7715,715,375.7715,725,379.7715,721,375.7715" style="stroke:#181818;stroke-width:1.0;"/><line style="stroke:#181818;stroke-width:1.0;stroke-dasharray:2.0,2.0;" x1="719" x2="1017.5" y1="375.7715" y2="375.7715"/><polygon fill="#181818" points="809,385.7715,819,389.7715,809,393.7715,813,389.7715" style="stroke:#181818;stroke-width:1.0;"/><line style="stroke:#181818;stroke-width:1.0;" x1="714" x2="815" y1="389.7715" y2="389.7715"/><rect fill="#3333C4" height="30.4883" rx="2.5" ry="2.5" style="stroke:#181818;stroke-width:0.5;" width="131" x="821" y="383.7715"/><text fill="#FFFFFF" font-family="sans-serif" font-size="14" lengthAdjust="spacing" textLength="117" x="828" y="404.3066">:CommandResult</text><polygon fill="#181818" points="725,442.5703,715,446.5703,725,450.5703,721,446.5703" style="stroke:#181818;stroke-width:1.0;"/><line style="stroke:#181818;stroke-width:1.0;stroke-dasharray:2.0,2.0;" x1="719" x2="885.5" y1="446.5703" y2="446.5703"/><text fill="#000000" font-family="sans-serif" font-size="13" lengthAdjust="spacing" textLength="36" x="782.25" y="441.8281">result</text><polygon fill="#181818" points="196,471.8809,186,475.8809,196,479.8809,192,475.8809" style="stroke:#181818;stroke-width:1.0;"/><line style="stroke:#181818;stroke-width:1.0;stroke-dasharray:2.0,2.0;" x1="190" x2="708" y1="475.8809" y2="475.8809"/><text fill="#000000" font-family="sans-serif" font-size="13" lengthAdjust="spacing" textLength="36" x="429" y="471.1387">result</text><line style="stroke:#181818;stroke-width:1.0;stroke-dasharray:2.0,2.0;" x1="185" x2="227" y1="510.1914" y2="510.1914"/><line style="stroke:#181818;stroke-width:1.0;stroke-dasharray:2.0,2.0;" x1="227" x2="227" y1="510.1914" y2="523.1914"/><line style="stroke:#181818;stroke-width:1.0;stroke-dasharray:2.0,2.0;" x1="180" x2="227" y1="523.1914" y2="523.1914"/><polygon fill="#181818" points="190,519.1914,180,523.1914,190,527.1914,186,523.1914" style="stroke:#181818;stroke-width:1.0;"/><text fill="#000000" font-family="sans-serif" font-size="13" lengthAdjust="spacing" textLength="36" x="192" y="505.4492">result</text><polygon fill="#181818" points="11,528.1914,1,532.1914,11,536.1914,7,532.1914" style="stroke:#181818;stroke-width:1.0;"/><line style="stroke:#181818;stroke-width:1.0;stroke-dasharray:2.0,2.0;" x1="5" x2="174" y1="532.1914" y2="532.1914"/><!--SRC=[ZPBBQiCm54Jt-efRhnpI5hpreb2SK0eoBcdtGPKlHY3BHWz8_xxoAx7YkEdE6iqPNO_q81INhaGmzaVYS-jgISXtSmBQL883BTxUisDMqE9m_4f8oxGLNBHCMOZItf8pnIhK4J03Ss6ENd5PKzTCbHzCcn4Cb3_87Kgqc2EJ8z7J2_N-sGSqJjhvsOCIaEYJV1L37tbJeeIysEtfMX_T15IO8NPQp95BujDBMDPscmAUa3kB44Tb_qErJu0asf30wScmhGvjkyzHNk1S8_EnYvP8cEE3bqNwSABHEgt-wGQ3zbLNhaPbJHmbqICuxnyTL2XCFwqMgjgCkS27hUbcrkJh4jRgcrfOrdPxtX7p_kM-XyxNs7dBioDEflcdUeDdT3ihV6cNQa4FqFqL-GK0]--></g></svg>