<?xml version="1.0" encoding="us-ascii" standalone="no"?><svg xmlns="http://www.w3.org/2000/svg" xmlns:xlink="http://www.w3.org/1999/xlink" contentStyleType="text/css" height="557px" preserveAspectRatio="none" style="width:1169px;height:557px;background:#FFFFFF;" version="1.1" viewBox="0 0 1169 557" width="1169px" zoomAndPan="magnify"><defs/><g><rect fill="#C8C8FA" height="538.1914" style="stroke:#181818;stroke-width:0.5;" width="928.5" x="132" y="6"/><text fill="#FFFFFF" font-family="sans-serif" font-size="13" font-weight="bold" lengthAdjust="spacing" textLength="36" x="576.25" y="18.5684">Logic</text><rect fill="#F97181" height="538.1914" style="stroke:#181818;stroke-width:0.5;" width="101" x="1062.5" y="6"/><text fill="#FFFFFF" font-family="sans-serif" font-size="13" font-weight="bold" lengthAdjust="spacing" textLength="41" x="1090.5" y="18.5684">Model</text><rect fill="#FFFFFF" height="444.082" style="stroke:#181818;stroke-width:1.0;" width="10" x="198" y="88.1094"/><rect fill="#FFFFFF" height="213.041" style="stroke:#181818;stroke-width:1.0;" width="10" x="203" y="298.1504"/><rect fill="#FFFFFF" height="143.4199" style="stroke:#181818;stroke-width:1.0;" width="10" x="451" y="117.4199"/><rect fill="#FFFFFF" height="31.4883" style="stroke:#181818;stroke-width:1.0;" width="10" x="805" y="141.4199"/><rect fill="#FFFFFF" height="29.3105" style="stroke:#181818;stroke-width:1.0;" width="10" x="805" y="202.2188"/><rect fill="#FFFFFF" height="143.4199" style="stroke:#181818;stroke-width:1.0;" width="10" x="805" y="332.4609"/><rect fill="#FFFFFF" height="46.7988" style="stroke:#181818;stroke-width:1.0;" width="10" x="976" y="399.7715"/><rect fill="#FFFFFF" height="14" style="stroke:#181818;stroke-width:1.0;" width="10" x="1108" y="361.7715"/><line style="stroke:#181818;stroke-width:0.5;stroke-dasharray:5.0,5.0;" x1="203" x2="203" y1="56.7988" y2="550.1914"/><line style="stroke:#181818;stroke-width:0.5;stroke-dasharray:5.0,5.0;" x1="456" x2="456" y1="56.7988" y2="550.1914"/><line style="stroke:#181818;stroke-width:0.5;stroke-dasharray:5.0,5.0;" x1="809.5" x2="809.5" y1="156.1641" y2="550.1914"/><line style="stroke:#181818;stroke-width:0.5;stroke-dasharray:5.0,5.0;" x1="980.5" x2="980.5" y1="414.5156" y2="550.1914"/><line style="stroke:#181818;stroke-width:0.5;stroke-dasharray:5.0,5.0;" x1="1112.5" x2="1112.5" y1="56.7988" y2="550.1914"/><rect fill="#3333C4" height="30.4883" rx="2.5" ry="2.5" style="stroke:#181818;stroke-width:0.5;" width="114" x="146" y="25.3105"/><text fill="#FFFFFF" font-family="sans-serif" font-size="14" lengthAdjust="spacing" textLength="100" x="153" y="45.8457">:LogicManager</text><rect fill="#3333C4" height="30.4883" rx="2.5" ry="2.5" style="stroke:#181818;stroke-width:0.5;" width="132" x="390" y="25.3105"/><text fill="#FFFFFF" font-family="sans-serif" font-size="14" lengthAdjust="spacing" textLength="118" x="397" y="45.8457">:CommandParser</text><rect fill="#9D0012" height="30.4883" rx="2.5" ry="2.5" style="stroke:#181818;stroke-width:0.5;" width="73" x="1076.5" y="25.3105"/><text fill="#FFFFFF" font-family="sans-serif" font-size="14" lengthAdjust="spacing" textLength="59" x="1083.5" y="45.8457">:MealList</text><rect fill="#FFFFFF" height="444.082" style="stroke:#181818;stroke-width:1.0;" width="10" x="198" y="88.1094"/><rect fill="#FFFFFF" height="213.041" style="stroke:#181818;stroke-width:1.0;" width="10" x="203" y="298.1504"/><rect fill="#FFFFFF" height="143.4199" style="stroke:#181818;stroke-width:1.0;" width="10" x="451" y="117.4199"/><rect fill="#FFFFFF" height="31.4883" style="stroke:#181818;stroke-width:1.0;" width="10" x="805" y="141.4199"/><rect fill="#FFFFFF" height="29.3105" style="stroke:#181818;stroke-width:1.0;" width="10" x="805" y="202.2188"/><rect fill="#FFFFFF" height="143.4199" style="stroke:#181818;stroke-width:1.0;" width="10" x="805" y="332.4609"/><rect fill="#FFFFFF" height="46.7988" style="stroke:#181818;stroke-width:1.0;" width="10" x="976" y="399.7715"/><rect fill="#FFFFFF" height="14" style="stroke:#181818;stroke-width:1.0;" width="10" x="1108" y="361.7715"/><polygon fill="#181818" points="186,84.1094,196,88.1094,186,92.1094,190,88.1094" style="stroke:#181818;stroke-width:1.0;"/><line style="stroke:#181818;stroke-width:1.0;" x1="0" x2="192" y1="88.1094" y2="88.1094"/><text fill="#000000" font-family="sans-serif" font-size="13" lengthAdjust="spacing" textLength="179" x="9.5" y="83.3672">execute ("findmeal chicken")</text><polygon fill="#181818" points="439,113.4199,449,117.4199,439,121.4199,443,117.4199" style="stroke:#181818;stroke-width:1.0;"/><line style="stroke:#181818;stroke-width:1.0;" x1="208" x2="445" y1="117.4199" y2="117.4199"/><text fill="#000000" font-family="sans-serif" font-size="13" lengthAdjust="spacing" textLength="224" x="217.5" y="112.6777">parseCommand("findmeal chicken")</text><polygon fill="#181818" points="722.5,127.4199,732.5,131.4199,722.5,135.4199,726.5,131.4199" style="stroke:#181818;stroke-width:1.0;"/><line style="stroke:#181818;stroke-width:1.0;" x1="461" x2="728.5" y1="131.4199" y2="131.4199"/><rect fill="#3333C4" height="30.4883" rx="2.5" ry="2.5" style="stroke:#181818;stroke-width:0.5;" width="151" x="734.5" y="125.4199"/><text fill="#FFFFFF" font-family="sans-serif" font-size="14" lengthAdjust="spacing" textLength="137" x="741.5" y="145.9551">:FindMealCommand</text><polygon fill="#181818" points="472,168.9082,462,172.9082,472,176.9082,468,172.9082" style="stroke:#181818;stroke-width:1.0;"/><line style="stroke:#181818;stroke-width:1.0;stroke-dasharray:2.0,2.0;" x1="466" x2="809" y1="172.9082" y2="172.9082"/><polygon fill="#181818" points="793,198.2188,803,202.2188,793,206.2188,797,202.2188" style="stroke:#181818;stroke-width:1.0;"/><line style="stroke:#181818;stroke-width:1.0;" x1="461" x2="799" y1="202.2188" y2="202.2188"/><text fill="#000000" font-family="sans-serif" font-size="13" lengthAdjust="spacing" textLength="325" x="470.5" y="197.4766">setArguments("chicken"), userCommandLine:String)</text><polygon fill="#181818" points="472,227.5293,462,231.5293,472,235.5293,468,231.5293" style="stroke:#181818;stroke-width:1.0;"/><line style="stroke:#181818;stroke-width:1.0;stroke-dasharray:2.0,2.0;" x1="466" x2="809" y1="231.5293" y2="231.5293"/><text fill="#000000" font-family="sans-serif" font-size="13" lengthAdjust="spacing" textLength="130" x="570.5" y="226.7871">command:Command</text><polygon fill="#181818" points="219,256.8398,209,260.8398,219,264.8398,215,260.8398" style="stroke:#181818;stroke-width:1.0;"/><line style="stroke:#181818;stroke-width:1.0;stroke-dasharray:2.0,2.0;" x1="213" x2="455" y1="260.8398" y2="260.8398"/><text fill="#000000" font-family="sans-serif" font-size="13" lengthAdjust="spacing" textLength="130" x="267" y="256.0977">command:Command</text><line style="stroke:#181818;stroke-width:1.0;" x1="208" x2="255" y1="285.1504" y2="285.1504"/><line style="stroke:#181818;stroke-width:1.0;" x1="255" x2="255" y1="285.1504" y2="298.1504"/><line style="stroke:#181818;stroke-width:1.0;" x1="214" x2="255" y1="298.1504" y2="298.1504"/><polygon fill="#181818" points="224,294.1504,214,298.1504,224,302.1504,220,298.1504" style="stroke:#181818;stroke-width:1.0;"/><text fill="#000000" font-family="sans-serif" font-size="13" lengthAdjust="spacing" textLength="121" x="220" y="280.4082">executeCommand()</text><polygon fill="#181818" points="793,328.4609,803,332.4609,793,336.4609,797,332.4609" style="stroke:#181818;stroke-width:1.0;"/><line style="stroke:#181818;stroke-width:1.0;" x1="213" x2="799" y1="332.4609" y2="332.4609"/><text fill="#000000" font-family="sans-serif" font-size="13" lengthAdjust="spacing" textLength="57" x="480.5" y="327.7188">execute()</text><polygon fill="#181818" points="1096,357.7715,1106,361.7715,1096,365.7715,1100,361.7715" style="stroke:#181818;stroke-width:1.0;"/><line style="stroke:#181818;stroke-width:1.0;" x1="815" x2="1102" y1="361.7715" y2="361.7715"/><text fill="#000000" font-family="sans-serif" font-size="13" lengthAdjust="spacing" textLength="128" x="897.5" y="357.0293">FindMealCommand()</text><polygon fill="#181818" points="826,371.7715,816,375.7715,826,379.7715,822,375.7715" style="stroke:#181818;stroke-width:1.0;"/><line style="stroke:#181818;stroke-width:1.0;stroke-dasharray:2.0,2.0;" x1="820" x2="1112" y1="375.7715" y2="375.7715"/><polygon fill="#181818" points="903.5,385.7715,913.5,389.7715,903.5,393.7715,907.5,389.7715" style="stroke:#181818;stroke-width:1.0;"/><line style="stroke:#181818;stroke-width:1.0;" x1="815" x2="909.5" y1="389.7715" y2="389.7715"/><rect fill="#3333C4" height="30.4883" rx="2.5" ry="2.5" style="stroke:#181818;stroke-width:0.5;" width="131" x="915.5" y="383.7715"/><text fill="#FFFFFF" font-family="sans-serif" font-size="14" lengthAdjust="spacing" textLength="117" x="922.5" y="404.3066">:CommandResult</text><polygon fill="#181818" points="826,442.5703,816,446.5703,826,450.5703,822,446.5703" style="stroke:#181818;stroke-width:1.0;"/><line style="stroke:#181818;stroke-width:1.0;stroke-dasharray:2.0,2.0;" x1="820" x2="980" y1="446.5703" y2="446.5703"/><text fill="#000000" font-family="sans-serif" font-size="13" lengthAdjust="spacing" textLength="36" x="880" y="441.8281">result</text><polygon fill="#181818" points="224,471.8809,214,475.8809,224,479.8809,220,475.8809" style="stroke:#181818;stroke-width:1.0;"/><line style="stroke:#181818;stroke-width:1.0;stroke-dasharray:2.0,2.0;" x1="218" x2="809" y1="475.8809" y2="475.8809"/><text fill="#000000" font-family="sans-serif" font-size="13" lengthAdjust="spacing" textLength="36" x="493.5" y="471.1387">result</text><line style="stroke:#181818;stroke-width:1.0;stroke-dasharray:2.0,2.0;" x1="213" x2="255" y1="510.1914" y2="510.1914"/><line style="stroke:#181818;stroke-width:1.0;stroke-dasharray:2.0,2.0;" x1="255" x2="255" y1="510.1914" y2="523.1914"/><line style="stroke:#181818;stroke-width:1.0;stroke-dasharray:2.0,2.0;" x1="208" x2="255" y1="523.1914" y2="523.1914"/><polygon fill="#181818" points="218,519.1914,208,523.1914,218,527.1914,214,523.1914" style="stroke:#181818;stroke-width:1.0;"/><text fill="#000000" font-family="sans-serif" font-size="13" lengthAdjust="spacing" textLength="36" x="220" y="505.4492">result</text><polygon fill="#181818" points="11,528.1914,1,532.1914,11,536.1914,7,532.1914" style="stroke:#181818;stroke-width:1.0;"/><line style="stroke:#181818;stroke-width:1.0;stroke-dasharray:2.0,2.0;" x1="5" x2="202" y1="532.1914" y2="532.1914"/><!--SRC=[ZP9DJuGm48Rl_HKZ9pQh9buvc9Zr8oObcDNxffOH6qiX_KZMVszPO9TMSBtHcVTvPtZR2w6uT2M2iTyIhrjNIqBUcptGfX8SQF7qlDbj2bfiTsytf6NQ2YvQfYmasK6ICyKgr0am0zF258suJLFNJ9KlJ9i132f_a8z2bJaoEUWFR5GxFtUBnaaxdTjN0XAzau-Xpo9lIfIG5_SFT2cBRWCgJ6yx7gR8oV7gDWnglSu0zyYTHKYJ3_yxjUU1Vmh-XIfPaK3jwJ2j3c-xpw4yQy4rCcyVPKL29syTX-dDYKRhjFgN5WpQErsv6fKrQNASVmdEGuEG2eNPgzL2LQl177ZV6gzegHmdiPJZ6CNlxEQM7Y2lZhiUEDvbfupwwRZ_c6_mdkRSmWTtIXTqZvm_aHy0]--></g></svg>