<?xml version="1.0" encoding="us-ascii" standalone="no"?><svg xmlns="http://www.w3.org/2000/svg" xmlns:xlink="http://www.w3.org/1999/xlink" contentStyleType="text/css" height="508px" preserveAspectRatio="none" style="width:295px;height:508px;background:#FFFFFF;" version="1.1" viewBox="0 0 295 508" width="295px" zoomAndPan="magnify"><defs/><g><text fill="#000000" font-family="sans-serif" font-size="14" font-weight="bold" lengthAdjust="spacing" textLength="188" x="53" y="30.2373">Outer Structure of FitTrack</text><rect fill="#FFFFFF" height="33.751" style="stroke:#181818;stroke-width:1.0;" width="10" x="117" y="140.6646"/><rect fill="#FFFFFF" height="228.2349" style="stroke:#181818;stroke-width:1.0;" width="10" x="117" y="205.8271"/><rect fill="#FFFFFF" height="25" style="stroke:#181818;stroke-width:1.0;" width="10" x="122" y="245.2388"/><rect fill="#FFFFFF" height="25" style="stroke:#181818;stroke-width:1.0;" width="10" x="122" y="316.6504"/><rect fill="#FFFFFF" height="25" style="stroke:#181818;stroke-width:1.0;" width="10" x="122" y="388.062"/><line style="stroke:#181818;stroke-width:0.5;stroke-dasharray:5.0,5.0;" x1="38" x2="38" y1="97.2529" y2="452.062"/><line style="stroke:#181818;stroke-width:0.5;stroke-dasharray:5.0,5.0;" x1="122" x2="122" y1="139.1284" y2="452.062"/><rect fill="#E2E2F0" height="51.502" rx="2.5" ry="2.5" style="stroke:#181818;stroke-width:0.5;" width="66" x="5" y="44.751"/><text fill="#000000" font-family="sans-serif" font-size="14" lengthAdjust="spacing" textLength="48" x="14" y="66.9883">&#171;class&#187;</text><text fill="#000000" font-family="sans-serif" font-size="14" lengthAdjust="spacing" textLength="52" x="12" y="85.7393">FitTrack</text><rect fill="#E2E2F0" height="51.502" rx="2.5" ry="2.5" style="stroke:#181818;stroke-width:0.5;" width="66" x="5" y="451.062"/><text fill="#000000" font-family="sans-serif" font-size="14" lengthAdjust="spacing" textLength="48" x="14" y="473.2993">&#171;class&#187;</text><text fill="#000000" font-family="sans-serif" font-size="14" lengthAdjust="spacing" textLength="52" x="12" y="492.0503">FitTrack</text><rect fill="#E2E2F0" height="32.751" rx="2.5" ry="2.5" style="stroke:#181818;stroke-width:0.5;" width="74" x="85" y="451.062"/><text fill="#000000" font-family="sans-serif" font-size="14" lengthAdjust="spacing" textLength="60" x="92" y="473.2993">: FitTrack</text><rect fill="#FFFFFF" height="33.751" style="stroke:#181818;stroke-width:1.0;" width="10" x="117" y="140.6646"/><rect fill="#FFFFFF" height="228.2349" style="stroke:#181818;stroke-width:1.0;" width="10" x="117" y="205.8271"/><rect fill="#FFFFFF" height="25" style="stroke:#181818;stroke-width:1.0;" width="10" x="122" y="245.2388"/><rect fill="#FFFFFF" height="25" style="stroke:#181818;stroke-width:1.0;" width="10" x="122" y="316.6504"/><rect fill="#FFFFFF" height="25" style="stroke:#181818;stroke-width:1.0;" width="10" x="122" y="388.062"/><polygon fill="#181818" points="73,126.6646,83,130.6646,73,134.6646,77,130.6646" style="stroke:#181818;stroke-width:1.0;"/><line style="stroke:#181818;stroke-width:1.0;" x1="38" x2="79" y1="130.6646" y2="130.6646"/><text fill="#000000" font-family="sans-serif" font-size="13" lengthAdjust="spacing" textLength="23" x="45" y="125.4019">new</text><rect fill="#E2E2F0" height="32.751" rx="2.5" ry="2.5" style="stroke:#181818;stroke-width:0.5;" width="74" x="85" y="107.2529"/><text fill="#000000" font-family="sans-serif" font-size="14" lengthAdjust="spacing" textLength="60" x="92" y="129.4902">: FitTrack</text><polygon fill="#181818" points="49,170.4155,39,174.4155,49,178.4155,45,174.4155" style="stroke:#181818;stroke-width:1.0;"/><line style="stroke:#181818;stroke-width:1.0;stroke-dasharray:2.0,2.0;" x1="43" x2="121" y1="174.4155" y2="174.4155"/><text fill="#000000" font-family="sans-serif" font-size="13" lengthAdjust="spacing" textLength="55" x="55" y="169.1528">: FitTrack</text><polygon fill="#181818" points="105,201.8271,115,205.8271,105,209.8271,109,205.8271" style="stroke:#181818;stroke-width:1.0;"/><line style="stroke:#181818;stroke-width:1.0;" x1="38" x2="111" y1="205.8271" y2="205.8271"/><text fill="#000000" font-family="sans-serif" font-size="13" lengthAdjust="spacing" textLength="30" x="45" y="200.5645">.run()</text><line style="stroke:#181818;stroke-width:1.0;" x1="127" x2="174" y1="232.2388" y2="232.2388"/><line style="stroke:#181818;stroke-width:1.0;" x1="174" x2="174" y1="232.2388" y2="245.2388"/><line style="stroke:#181818;stroke-width:1.0;" x1="133" x2="174" y1="245.2388" y2="245.2388"/><polygon fill="#181818" points="143,241.2388,133,245.2388,143,249.2388,139,245.2388" style="stroke:#181818;stroke-width:1.0;"/><text fill="#000000" font-family="sans-serif" font-size="13" lengthAdjust="spacing" textLength="34" x="139" y="226.9761">start()</text><path d="M44,222.3271 L44,249.3271 L112,249.3271 L112,232.3271 L102,222.3271 L44,222.3271 " fill="#FEFFDD" style="stroke:#181818;stroke-width:0.5;"/><path d="M102,222.3271 L102,232.3271 L112,232.3271 L102,222.3271 " fill="#FEFFDD" style="stroke:#181818;stroke-width:0.5;"/><text fill="#000000" font-family="sans-serif" font-size="13" lengthAdjust="spacing" textLength="47" x="50" y="241.4761">Initialize</text><line style="stroke:#181818;stroke-width:1.0;stroke-dasharray:2.0,2.0;" x1="132" x2="174" y1="269.2388" y2="269.2388"/><line style="stroke:#181818;stroke-width:1.0;stroke-dasharray:2.0,2.0;" x1="174" x2="174" y1="269.2388" y2="282.2388"/><line style="stroke:#181818;stroke-width:1.0;stroke-dasharray:2.0,2.0;" x1="127" x2="174" y1="282.2388" y2="282.2388"/><polygon fill="#181818" points="137,278.2388,127,282.2388,137,286.2388,133,282.2388" style="stroke:#181818;stroke-width:1.0;"/><line style="stroke:#181818;stroke-width:1.0;" x1="127" x2="174" y1="303.6504" y2="303.6504"/><line style="stroke:#181818;stroke-width:1.0;" x1="174" x2="174" y1="303.6504" y2="316.6504"/><line style="stroke:#181818;stroke-width:1.0;" x1="133" x2="174" y1="316.6504" y2="316.6504"/><polygon fill="#181818" points="143,312.6504,133,316.6504,143,320.6504,139,316.6504" style="stroke:#181818;stroke-width:1.0;"/><text fill="#000000" font-family="sans-serif" font-size="13" lengthAdjust="spacing" textLength="149" x="139" y="298.3877">loopCommandExecution()</text><path d="M63,293.7388 L63,320.7388 L112,320.7388 L112,303.7388 L102,293.7388 L63,293.7388 " fill="#FEFFDD" style="stroke:#181818;stroke-width:0.5;"/><path d="M102,293.7388 L102,303.7388 L112,303.7388 L102,293.7388 " fill="#FEFFDD" style="stroke:#181818;stroke-width:0.5;"/><text fill="#000000" font-family="sans-serif" font-size="13" lengthAdjust="spacing" textLength="28" x="69" y="312.8877">Loop</text><line style="stroke:#181818;stroke-width:1.0;stroke-dasharray:2.0,2.0;" x1="132" x2="174" y1="340.6504" y2="340.6504"/><line style="stroke:#181818;stroke-width:1.0;stroke-dasharray:2.0,2.0;" x1="174" x2="174" y1="340.6504" y2="353.6504"/><line style="stroke:#181818;stroke-width:1.0;stroke-dasharray:2.0,2.0;" x1="127" x2="174" y1="353.6504" y2="353.6504"/><polygon fill="#181818" points="137,349.6504,127,353.6504,137,357.6504,133,353.6504" style="stroke:#181818;stroke-width:1.0;"/><line style="stroke:#181818;stroke-width:1.0;" x1="127" x2="174" y1="375.062" y2="375.062"/><line style="stroke:#181818;stroke-width:1.0;" x1="174" x2="174" y1="375.062" y2="388.062"/><line style="stroke:#181818;stroke-width:1.0;" x1="133" x2="174" y1="388.062" y2="388.062"/><polygon fill="#181818" points="143,384.062,133,388.062,143,392.062,139,388.062" style="stroke:#181818;stroke-width:1.0;"/><text fill="#000000" font-family="sans-serif" font-size="13" lengthAdjust="spacing" textLength="29" x="139" y="369.7993">end()</text><path d="M46,365.1504 L46,392.1504 L112,392.1504 L112,375.1504 L102,365.1504 L46,365.1504 " fill="#FEFFDD" style="stroke:#181818;stroke-width:0.5;"/><path d="M102,365.1504 L102,375.1504 L112,375.1504 L102,365.1504 " fill="#FEFFDD" style="stroke:#181818;stroke-width:0.5;"/><text fill="#000000" font-family="sans-serif" font-size="13" lengthAdjust="spacing" textLength="45" x="52" y="384.2993">Finalize</text><line style="stroke:#181818;stroke-width:1.0;stroke-dasharray:2.0,2.0;" x1="132" x2="174" y1="412.062" y2="412.062"/><line style="stroke:#181818;stroke-width:1.0;stroke-dasharray:2.0,2.0;" x1="174" x2="174" y1="412.062" y2="425.062"/><line style="stroke:#181818;stroke-width:1.0;stroke-dasharray:2.0,2.0;" x1="127" x2="174" y1="425.062" y2="425.062"/><polygon fill="#181818" points="137,421.062,127,425.062,137,429.062,133,425.062" style="stroke:#181818;stroke-width:1.0;"/><polygon fill="#181818" points="49,430.062,39,434.062,49,438.062,45,434.062" style="stroke:#181818;stroke-width:1.0;"/><line style="stroke:#181818;stroke-width:1.0;stroke-dasharray:2.0,2.0;" x1="43" x2="121" y1="434.062" y2="434.062"/><line style="stroke:#A80036;stroke-width:2.0;" x1="113" x2="131" y1="425.062" y2="443.062"/><line style="stroke:#A80036;stroke-width:2.0;" x1="113" x2="131" y1="443.062" y2="425.062"/><!--SRC=[TOxDYW8n3CVlVOhWIH7t0OPXBek28En1Zti9dGZ1JZgaAUe-_LRNWIcofv3az_ymja3mbOqKZgRPMrQ2U8OTsqdHNvmRKOqzZoW6YxRr0LFgkc-PY0LWWW5PQhA12l1HoJddbT3eRtjeODCz5rYl6n2wEgTKAWWqimPlu8TcMQwAs-CmVoGh5Sf7OWa9TBO6ziB66FY7NjRlgX3Z-1c70QNVtiXduoYroQ4G_yf9-fhUiLI1q-mfcSRxK_aB]--></g></svg>