<?xml version="1.0" encoding="us-ascii" standalone="no"?><svg xmlns="http://www.w3.org/2000/svg" xmlns:xlink="http://www.w3.org/1999/xlink" contentStyleType="text/css" height="564px" preserveAspectRatio="none" style="width:364px;height:564px;background:#FFFFFF;" version="1.1" viewBox="0 0 364 564" width="364px" zoomAndPan="magnify"><defs/><g><text fill="#000000" font-family="sans-serif" font-size="14" font-weight="bold" lengthAdjust="spacing" textLength="188" x="87.5" y="30.2373">Outer Structure of FitTrack</text><text fill="#000000" font-family="sans-serif" font-size="14" font-weight="bold" lengthAdjust="spacing" textLength="4" x="179.5" y="48.9883">&#160;</text><rect fill="#FFFFFF" height="33.751" style="stroke:#181818;stroke-width:1.0;" width="10" x="186" y="178.1665"/><rect fill="#FFFFFF" height="228.2349" style="stroke:#181818;stroke-width:1.0;" width="10" x="186" y="243.3291"/><rect fill="#FFFFFF" height="25" style="stroke:#181818;stroke-width:1.0;" width="10" x="191" y="282.7407"/><rect fill="#FFFFFF" height="25" style="stroke:#181818;stroke-width:1.0;" width="10" x="191" y="354.1523"/><rect fill="#FFFFFF" height="25" style="stroke:#181818;stroke-width:1.0;" width="10" x="191" y="425.564"/><line style="stroke:#181818;stroke-width:0.5;stroke-dasharray:5.0,5.0;" x1="48" x2="48" y1="134.7549" y2="489.564"/><line style="stroke:#181818;stroke-width:0.5;stroke-dasharray:5.0,5.0;" x1="191" x2="191" y1="176.6304" y2="489.564"/><rect fill="#E2E2F0" height="70.2529" rx="2.5" ry="2.5" style="stroke:#181818;stroke-width:0.5;" width="86" x="5" y="63.502"/><text fill="#000000" font-family="sans-serif" font-size="14" lengthAdjust="spacing" textLength="48" x="24" y="85.7393">&#171;class&#187;</text><text fill="#000000" font-family="sans-serif" font-size="14" lengthAdjust="spacing" textLength="52" x="22" y="104.4902">FitTrack</text><text fill="#000000" font-family="sans-serif" font-size="14" lengthAdjust="spacing" textLength="35" x="12" y="123.2412">a.k.a.</text><text fill="#000000" font-family="sans-serif" font-size="14" font-weight="bold" lengthAdjust="spacing" textLength="33" x="51" y="123.2412">main</text><rect fill="#E2E2F0" height="70.2529" rx="2.5" ry="2.5" style="stroke:#181818;stroke-width:0.5;" width="86" x="5" y="488.564"/><text fill="#000000" font-family="sans-serif" font-size="14" lengthAdjust="spacing" textLength="48" x="24" y="510.8013">&#171;class&#187;</text><text fill="#000000" font-family="sans-serif" font-size="14" lengthAdjust="spacing" textLength="52" x="22" y="529.5522">FitTrack</text><text fill="#000000" font-family="sans-serif" font-size="14" lengthAdjust="spacing" textLength="35" x="12" y="548.3032">a.k.a.</text><text fill="#000000" font-family="sans-serif" font-size="14" font-weight="bold" lengthAdjust="spacing" textLength="33" x="51" y="548.3032">main</text><rect fill="#E2E2F0" height="32.751" rx="2.5" ry="2.5" style="stroke:#181818;stroke-width:0.5;" width="74" x="154" y="488.564"/><text fill="#000000" font-family="sans-serif" font-size="14" lengthAdjust="spacing" textLength="60" x="161" y="510.8013">: FitTrack</text><rect fill="#FFFFFF" height="33.751" style="stroke:#181818;stroke-width:1.0;" width="10" x="186" y="178.1665"/><rect fill="#FFFFFF" height="228.2349" style="stroke:#181818;stroke-width:1.0;" width="10" x="186" y="243.3291"/><rect fill="#FFFFFF" height="25" style="stroke:#181818;stroke-width:1.0;" width="10" x="191" y="282.7407"/><rect fill="#FFFFFF" height="25" style="stroke:#181818;stroke-width:1.0;" width="10" x="191" y="354.1523"/><rect fill="#FFFFFF" height="25" style="stroke:#181818;stroke-width:1.0;" width="10" x="191" y="425.564"/><polygon fill="#181818" points="142,164.1665,152,168.1665,142,172.1665,146,168.1665" style="stroke:#181818;stroke-width:1.0;"/><line style="stroke:#181818;stroke-width:1.0;" x1="48" x2="148" y1="168.1665" y2="168.1665"/><text fill="#000000" font-family="sans-serif" font-size="13" lengthAdjust="spacing" textLength="82" x="55" y="162.9038">new FitTrack()</text><rect fill="#E2E2F0" height="32.751" rx="2.5" ry="2.5" style="stroke:#181818;stroke-width:0.5;" width="74" x="154" y="144.7549"/><text fill="#000000" font-family="sans-serif" font-size="14" lengthAdjust="spacing" textLength="60" x="161" y="166.9922">: FitTrack</text><polygon fill="#181818" points="59,207.9175,49,211.9175,59,215.9175,55,211.9175" style="stroke:#181818;stroke-width:1.0;"/><line style="stroke:#181818;stroke-width:1.0;stroke-dasharray:2.0,2.0;" x1="53" x2="190" y1="211.9175" y2="211.9175"/><text fill="#000000" font-family="sans-serif" font-size="13" lengthAdjust="spacing" textLength="55" x="65" y="206.6548">: FitTrack</text><polygon fill="#181818" points="174,239.3291,184,243.3291,174,247.3291,178,243.3291" style="stroke:#181818;stroke-width:1.0;"/><line style="stroke:#181818;stroke-width:1.0;" x1="48" x2="180" y1="243.3291" y2="243.3291"/><text fill="#000000" font-family="sans-serif" font-size="13" lengthAdjust="spacing" textLength="30" x="55" y="238.0664">.run()</text><line style="stroke:#181818;stroke-width:1.0;" x1="196" x2="243" y1="269.7407" y2="269.7407"/><line style="stroke:#181818;stroke-width:1.0;" x1="243" x2="243" y1="269.7407" y2="282.7407"/><line style="stroke:#181818;stroke-width:1.0;" x1="202" x2="243" y1="282.7407" y2="282.7407"/><polygon fill="#181818" points="212,278.7407,202,282.7407,212,286.7407,208,282.7407" style="stroke:#181818;stroke-width:1.0;"/><text fill="#000000" font-family="sans-serif" font-size="13" lengthAdjust="spacing" textLength="34" x="208" y="264.478">start()</text><path d="M113,259.8291 L113,286.8291 L181,286.8291 L181,269.8291 L171,259.8291 L113,259.8291 " fill="#FEFFDD" style="stroke:#181818;stroke-width:0.5;"/><path d="M171,259.8291 L171,269.8291 L181,269.8291 L171,259.8291 " fill="#FEFFDD" style="stroke:#181818;stroke-width:0.5;"/><text fill="#000000" font-family="sans-serif" font-size="13" lengthAdjust="spacing" textLength="47" x="119" y="278.978">Initialize</text><line style="stroke:#181818;stroke-width:1.0;stroke-dasharray:2.0,2.0;" x1="201" x2="243" y1="306.7407" y2="306.7407"/><line style="stroke:#181818;stroke-width:1.0;stroke-dasharray:2.0,2.0;" x1="243" x2="243" y1="306.7407" y2="319.7407"/><line style="stroke:#181818;stroke-width:1.0;stroke-dasharray:2.0,2.0;" x1="196" x2="243" y1="319.7407" y2="319.7407"/><polygon fill="#181818" points="206,315.7407,196,319.7407,206,323.7407,202,319.7407" style="stroke:#181818;stroke-width:1.0;"/><line style="stroke:#181818;stroke-width:1.0;" x1="196" x2="243" y1="341.1523" y2="341.1523"/><line style="stroke:#181818;stroke-width:1.0;" x1="243" x2="243" y1="341.1523" y2="354.1523"/><line style="stroke:#181818;stroke-width:1.0;" x1="202" x2="243" y1="354.1523" y2="354.1523"/><polygon fill="#181818" points="212,350.1523,202,354.1523,212,358.1523,208,354.1523" style="stroke:#181818;stroke-width:1.0;"/><text fill="#000000" font-family="sans-serif" font-size="13" lengthAdjust="spacing" textLength="149" x="208" y="335.8896">loopCommandExecution()</text><path d="M132,331.2407 L132,358.2407 L181,358.2407 L181,341.2407 L171,331.2407 L132,331.2407 " fill="#FEFFDD" style="stroke:#181818;stroke-width:0.5;"/><path d="M171,331.2407 L171,341.2407 L181,341.2407 L171,331.2407 " fill="#FEFFDD" style="stroke:#181818;stroke-width:0.5;"/><text fill="#000000" font-family="sans-serif" font-size="13" lengthAdjust="spacing" textLength="28" x="138" y="350.3896">Loop</text><line style="stroke:#181818;stroke-width:1.0;stroke-dasharray:2.0,2.0;" x1="201" x2="243" y1="378.1523" y2="378.1523"/><line style="stroke:#181818;stroke-width:1.0;stroke-dasharray:2.0,2.0;" x1="243" x2="243" y1="378.1523" y2="391.1523"/><line style="stroke:#181818;stroke-width:1.0;stroke-dasharray:2.0,2.0;" x1="196" x2="243" y1="391.1523" y2="391.1523"/><polygon fill="#181818" points="206,387.1523,196,391.1523,206,395.1523,202,391.1523" style="stroke:#181818;stroke-width:1.0;"/><line style="stroke:#181818;stroke-width:1.0;" x1="196" x2="243" y1="412.564" y2="412.564"/><line style="stroke:#181818;stroke-width:1.0;" x1="243" x2="243" y1="412.564" y2="425.564"/><line style="stroke:#181818;stroke-width:1.0;" x1="202" x2="243" y1="425.564" y2="425.564"/><polygon fill="#181818" points="212,421.564,202,425.564,212,429.564,208,425.564" style="stroke:#181818;stroke-width:1.0;"/><text fill="#000000" font-family="sans-serif" font-size="13" lengthAdjust="spacing" textLength="29" x="208" y="407.3013">end()</text><path d="M115,402.6523 L115,429.6523 L181,429.6523 L181,412.6523 L171,402.6523 L115,402.6523 " fill="#FEFFDD" style="stroke:#181818;stroke-width:0.5;"/><path d="M171,402.6523 L171,412.6523 L181,412.6523 L171,402.6523 " fill="#FEFFDD" style="stroke:#181818;stroke-width:0.5;"/><text fill="#000000" font-family="sans-serif" font-size="13" lengthAdjust="spacing" textLength="45" x="121" y="421.8013">Finalize</text><line style="stroke:#181818;stroke-width:1.0;stroke-dasharray:2.0,2.0;" x1="201" x2="243" y1="449.564" y2="449.564"/><line style="stroke:#181818;stroke-width:1.0;stroke-dasharray:2.0,2.0;" x1="243" x2="243" y1="449.564" y2="462.564"/><line style="stroke:#181818;stroke-width:1.0;stroke-dasharray:2.0,2.0;" x1="196" x2="243" y1="462.564" y2="462.564"/><polygon fill="#181818" points="206,458.564,196,462.564,206,466.564,202,462.564" style="stroke:#181818;stroke-width:1.0;"/><polygon fill="#181818" points="59,467.564,49,471.564,59,475.564,55,471.564" style="stroke:#181818;stroke-width:1.0;"/><line style="stroke:#181818;stroke-width:1.0;stroke-dasharray:2.0,2.0;" x1="53" x2="190" y1="471.564" y2="471.564"/><line style="stroke:#A80036;stroke-width:2.0;" x1="182" x2="200" y1="462.564" y2="480.564"/><line style="stroke:#A80036;stroke-width:2.0;" x1="182" x2="200" y1="480.564" y2="462.564"/><!--SRC=[TP1FQyCm3CNl_XIYfusoz1w2BsE5mM27xjYBwgWWwiX1bjcVJpydtTg5ifDuqliz2HbR97WjHWexqnAiA44wmfRjJJ6SzkBSY6eSU4GnM7LTY9YpztkvUh0vDTX0T_03idIRWry1PfZ4aculmRCX92NdN512exEQ67Zmiu3rkWMXzmjqT- -SKhrHu9haRfb6YqpUkV5taArUKoUIwhv8HslXMTWO8t_HJ_Gj5LCQ7zCmeFHF7nIASP9bo4jr_8kJz4ltbcMnyBVsb4tJv_aHtm00]--></g></svg>