<?xml version="1.0" encoding="us-ascii" standalone="no"?><svg xmlns="http://www.w3.org/2000/svg" xmlns:xlink="http://www.w3.org/1999/xlink" contentStyleType="text/css" height="867px" preserveAspectRatio="none" style="width:1058px;height:867px;background:#FFFFFF;" version="1.1" viewBox="0 0 1058 867" width="1058px" zoomAndPan="magnify"><defs/><g><text fill="#000000" font-family="sans-serif" font-size="14" font-weight="bold" lengthAdjust="spacing" textLength="182" x="436.5" y="30.2373">Core Structure of FitTrack</text><text fill="#000000" font-family="sans-serif" font-size="14" font-weight="bold" lengthAdjust="spacing" textLength="4" x="525.5" y="48.9883">&#160;</text><rect fill="#FFFFFF" height="628.3369" style="stroke:#181818;stroke-width:1.0;" width="10" x="205" y="157.4155"/><rect fill="#FFFFFF" height="34.4116" style="stroke:#181818;stroke-width:1.0;" width="10" x="419" y="223.2388"/><rect fill="#FFFFFF" height="14" style="stroke:#181818;stroke-width:1.0;" width="10" x="419" y="744.7524"/><rect fill="#FFFFFF" height="274.6323" style="stroke:#181818;stroke-width:1.0;" width="10" x="584" y="295.062"/><rect fill="#FFFFFF" height="122.78" style="stroke:#181818;stroke-width:1.0;" width="10" x="589" y="339.6794"/><rect fill="#FFFFFF" height="33.751" style="stroke:#181818;stroke-width:1.0;" width="10" x="850" y="391.2969"/><rect fill="#FFFFFF" height="25.7058" style="stroke:#181818;stroke-width:1.0;" width="10" x="850" y="512.5769"/><rect fill="#FFFFFF" height="17" style="stroke:#181818;stroke-width:1.0;" width="10" x="850" y="604.106"/><rect fill="#FFFFFF" height="31.4116" style="stroke:#181818;stroke-width:1.0;" width="10" x="850" y="675.9292"/><rect fill="none" height="589.3369" style="stroke:#000000;stroke-width:1.5;" width="1036" x="10" y="177.4155"/><line style="stroke:#181818;stroke-width:0.5;stroke-dasharray:5.0,5.0;" x1="210" x2="210" y1="116.0039" y2="810.7524"/><line style="stroke:#181818;stroke-width:0.5;stroke-dasharray:5.0,5.0;" x1="423.5" x2="423.5" y1="116.0039" y2="810.7524"/><line style="stroke:#181818;stroke-width:0.5;stroke-dasharray:5.0,5.0;" x1="589" x2="589" y1="116.0039" y2="810.7524"/><line style="stroke:#181818;stroke-width:0.5;stroke-dasharray:5.0,5.0;" x1="854.5" x2="854.5" y1="389.7607" y2="810.7524"/><rect fill="#E2E2F0" height="32.751" rx="2.5" ry="2.5" style="stroke:#181818;stroke-width:0.5;" width="74" x="173" y="82.2529"/><text fill="#000000" font-family="sans-serif" font-size="14" lengthAdjust="spacing" textLength="60" x="180" y="104.4902">: FitTrack</text><rect fill="#E2E2F0" height="32.751" rx="2.5" ry="2.5" style="stroke:#181818;stroke-width:0.5;" width="74" x="173" y="809.7524"/><text fill="#000000" font-family="sans-serif" font-size="14" lengthAdjust="spacing" textLength="60" x="180" y="831.9897">: FitTrack</text><rect fill="#E2E2F0" height="32.751" rx="2.5" ry="2.5" style="stroke:#181818;stroke-width:0.5;" width="45" x="401.5" y="82.2529"/><text fill="#000000" font-family="sans-serif" font-size="14" lengthAdjust="spacing" textLength="31" x="408.5" y="104.4902">ui: Ui</text><rect fill="#E2E2F0" height="32.751" rx="2.5" ry="2.5" style="stroke:#181818;stroke-width:0.5;" width="45" x="401.5" y="809.7524"/><text fill="#000000" font-family="sans-serif" font-size="14" lengthAdjust="spacing" textLength="31" x="408.5" y="831.9897">ui: Ui</text><rect fill="#E2E2F0" height="51.502" rx="2.5" ry="2.5" style="stroke:#181818;stroke-width:0.5;" width="120" x="529" y="63.502"/><text fill="#000000" font-family="sans-serif" font-size="14" font-style="italic" lengthAdjust="spacing" textLength="48" x="565" y="85.7393">&#171;class&#187;</text><text fill="#000000" font-family="sans-serif" font-size="14" lengthAdjust="spacing" textLength="106" x="536" y="104.4902">CommandParser</text><rect fill="#E2E2F0" height="51.502" rx="2.5" ry="2.5" style="stroke:#181818;stroke-width:0.5;" width="120" x="529" y="809.7524"/><text fill="#000000" font-family="sans-serif" font-size="14" font-style="italic" lengthAdjust="spacing" textLength="48" x="565" y="831.9897">&#171;class&#187;</text><text fill="#000000" font-family="sans-serif" font-size="14" lengthAdjust="spacing" textLength="106" x="536" y="850.7407">CommandParser</text><rect fill="#E2E2F0" height="32.751" rx="2.5" ry="2.5" style="stroke:#181818;stroke-width:0.5;" width="171" x="769.5" y="809.7524"/><text fill="#000000" font-family="sans-serif" font-size="14" lengthAdjust="spacing" textLength="157" x="776.5" y="831.9897">command: XXXCommand</text><rect fill="#FFFFFF" height="628.3369" style="stroke:#181818;stroke-width:1.0;" width="10" x="205" y="157.4155"/><rect fill="#FFFFFF" height="34.4116" style="stroke:#181818;stroke-width:1.0;" width="10" x="419" y="223.2388"/><rect fill="#FFFFFF" height="14" style="stroke:#181818;stroke-width:1.0;" width="10" x="419" y="744.7524"/><rect fill="#FFFFFF" height="274.6323" style="stroke:#181818;stroke-width:1.0;" width="10" x="584" y="295.062"/><rect fill="#FFFFFF" height="122.78" style="stroke:#181818;stroke-width:1.0;" width="10" x="589" y="339.6794"/><rect fill="#FFFFFF" height="33.751" style="stroke:#181818;stroke-width:1.0;" width="10" x="850" y="391.2969"/><rect fill="#FFFFFF" height="25.7058" style="stroke:#181818;stroke-width:1.0;" width="10" x="850" y="512.5769"/><rect fill="#FFFFFF" height="17" style="stroke:#181818;stroke-width:1.0;" width="10" x="850" y="604.106"/><rect fill="#FFFFFF" height="31.4116" style="stroke:#181818;stroke-width:1.0;" width="10" x="850" y="675.9292"/><line style="stroke:#181818;stroke-width:1.0;" x1="210" x2="257" y1="144.4155" y2="144.4155"/><line style="stroke:#181818;stroke-width:1.0;" x1="257" x2="257" y1="144.4155" y2="157.4155"/><line style="stroke:#181818;stroke-width:1.0;" x1="216" x2="257" y1="157.4155" y2="157.4155"/><polygon fill="#181818" points="226,153.4155,216,157.4155,226,161.4155,222,157.4155" style="stroke:#181818;stroke-width:1.0;"/><text fill="#000000" font-family="sans-serif" font-size="13" lengthAdjust="spacing" textLength="149" x="222" y="139.1528">loopCommandExecution()</text><path d="M10,177.4155 L114,177.4155 L114,186.8271 L104,196.8271 L10,196.8271 L10,177.4155 " fill="#EEEEEE" style="stroke:#000000;stroke-width:1.5;"/><rect fill="none" height="589.3369" style="stroke:#000000;stroke-width:1.5;" width="1036" x="10" y="177.4155"/><text fill="#000000" font-family="sans-serif" font-size="13" font-weight="bold" lengthAdjust="spacing" textLength="55" x="25" y="192.5645">do-while</text><text fill="#000000" font-family="sans-serif" font-size="11" font-weight="bold" lengthAdjust="spacing" textLength="182" x="129" y="191.3877">[!ExitCommand.isExit(command)]</text><polygon fill="#181818" points="407,219.2388,417,223.2388,407,227.2388,411,223.2388" style="stroke:#181818;stroke-width:1.0;"/><line style="stroke:#181818;stroke-width:1.0;" x1="215" x2="413" y1="223.2388" y2="223.2388"/><text fill="#000000" font-family="sans-serif" font-size="13" lengthAdjust="spacing" textLength="133" x="222" y="217.9761">ui.scanCommandLine()</text><path d="M52,201.8271 L52,228.8271 L200,228.8271 L200,211.8271 L190,201.8271 L52,201.8271 " fill="#FEFFDD" style="stroke:#181818;stroke-width:0.5;"/><path d="M190,201.8271 L190,211.8271 L200,211.8271 L190,201.8271 " fill="#FEFFDD" style="stroke:#181818;stroke-width:0.5;"/><text fill="#000000" font-family="sans-serif" font-size="13" lengthAdjust="spacing" textLength="127" x="58" y="220.9761">Get user input from UI</text><polygon fill="#181818" points="226,253.6504,216,257.6504,226,261.6504,222,257.6504" style="stroke:#181818;stroke-width:1.0;"/><line style="stroke:#181818;stroke-width:1.0;stroke-dasharray:2.0,2.0;" x1="220" x2="423" y1="257.6504" y2="257.6504"/><text fill="#000000" font-family="sans-serif" font-size="13" lengthAdjust="spacing" textLength="150" x="232" y="252.3877">userCommandLine: String</text><polygon fill="#181818" points="572,291.062,582,295.062,572,299.062,576,295.062" style="stroke:#181818;stroke-width:1.0;"/><line style="stroke:#181818;stroke-width:1.0;" x1="215" x2="578" y1="295.062" y2="295.062"/><text fill="#000000" font-family="sans-serif" font-size="13" lengthAdjust="spacing" textLength="350" x="222" y="289.7993">CommandParser.parseCommand(userCommandLine: String)</text><path d="M84,270.6504 L84,297.6504 L200,297.6504 L200,280.6504 L190,270.6504 L84,270.6504 " fill="#FEFFDD" style="stroke:#181818;stroke-width:0.5;"/><path d="M190,270.6504 L190,280.6504 L200,280.6504 L190,270.6504 " fill="#FEFFDD" style="stroke:#181818;stroke-width:0.5;"/><text fill="#000000" font-family="sans-serif" font-size="13" lengthAdjust="spacing" textLength="95" x="90" y="289.7993">Parse user input</text><path d="M599,270.6504 L599,297.6504 L856,297.6504 L856,280.6504 L846,270.6504 L599,270.6504 " fill="#FEFFDD" style="stroke:#181818;stroke-width:0.5;"/><path d="M846,270.6504 L846,280.6504 L856,280.6504 L846,270.6504 " fill="#FEFFDD" style="stroke:#181818;stroke-width:0.5;"/><text fill="#000000" font-family="sans-serif" font-size="13" lengthAdjust="spacing" textLength="236" x="605" y="289.7993">All exceptions during parsing are omitted</text><line style="stroke:#181818;stroke-width:1.0;" x1="594" x2="641" y1="326.6794" y2="326.6794"/><line style="stroke:#181818;stroke-width:1.0;" x1="641" x2="641" y1="326.6794" y2="339.6794"/><line style="stroke:#181818;stroke-width:1.0;" x1="600" x2="641" y1="339.6794" y2="339.6794"/><polygon fill="#181818" points="610,335.6794,600,339.6794,610,343.6794,606,339.6794" style="stroke:#181818;stroke-width:1.0;"/><text fill="#000000" font-family="sans-serif" font-size="13" lengthAdjust="spacing" textLength="207" x="606" y="321.4167">getBlankCommand(word: String, ...)</text><path d="M326,308.062 L326,352.062 L579,352.062 L579,318.062 L569,308.062 L326,308.062 " fill="#FEFFDD" style="stroke:#181818;stroke-width:0.5;"/><path d="M569,308.062 L569,318.062 L579,318.062 L569,308.062 " fill="#FEFFDD" style="stroke:#181818;stroke-width:0.5;"/><text fill="#000000" font-family="sans-serif" font-size="13" lengthAdjust="spacing" textLength="228" x="332" y="327.2109">Create Command instance with no data</text><text fill="#000000" font-family="sans-serif" font-size="13" lengthAdjust="spacing" textLength="123" x="336" y="344.6226">using command word</text><polygon fill="#181818" points="757.5,377.2969,767.5,381.2969,757.5,385.2969,761.5,381.2969" style="stroke:#181818;stroke-width:1.0;"/><line style="stroke:#181818;stroke-width:1.0;" x1="599" x2="763.5" y1="381.2969" y2="381.2969"/><text fill="#000000" font-family="sans-serif" font-size="13" lengthAdjust="spacing" textLength="127" x="606" y="376.0342">new XXXCommand(...)</text><rect fill="#E2E2F0" height="32.751" rx="2.5" ry="2.5" style="stroke:#181818;stroke-width:0.5;" width="171" x="769.5" y="357.8853"/><text fill="#000000" font-family="sans-serif" font-size="14" lengthAdjust="spacing" textLength="157" x="776.5" y="380.1226">command: XXXCommand</text><polygon fill="#181818" points="610,421.0479,600,425.0479,610,429.0479,606,425.0479" style="stroke:#181818;stroke-width:1.0;"/><line style="stroke:#181818;stroke-width:1.0;stroke-dasharray:2.0,2.0;" x1="604" x2="854" y1="425.0479" y2="425.0479"/><text fill="#000000" font-family="sans-serif" font-size="13" lengthAdjust="spacing" textLength="145" x="616" y="419.7852">command: XXXCommand</text><line style="stroke:#181818;stroke-width:1.0;stroke-dasharray:2.0,2.0;" x1="599" x2="641" y1="461.4595" y2="461.4595"/><line style="stroke:#181818;stroke-width:1.0;stroke-dasharray:2.0,2.0;" x1="641" x2="641" y1="461.4595" y2="474.4595"/><line style="stroke:#181818;stroke-width:1.0;stroke-dasharray:2.0,2.0;" x1="594" x2="641" y1="474.4595" y2="474.4595"/><polygon fill="#181818" points="604,470.4595,594,474.4595,604,478.4595,600,474.4595" style="stroke:#181818;stroke-width:1.0;"/><text fill="#000000" font-family="sans-serif" font-size="13" lengthAdjust="spacing" textLength="124" x="606" y="456.1968">command: Command</text><polygon fill="#181818" points="838,508.5769,848,512.5769,838,516.5769,842,512.5769" style="stroke:#181818;stroke-width:1.0;"/><line style="stroke:#181818;stroke-width:1.0;" x1="594" x2="844" y1="512.5769" y2="512.5769"/><text fill="#000000" font-family="sans-serif" font-size="13" lengthAdjust="spacing" textLength="237" x="601" y="507.3142">command.setArguments(args: String, ...)</text><path d="M397,482.4595 L397,526.4595 L579,526.4595 L579,492.4595 L569,482.4595 L397,482.4595 " fill="#FEFFDD" style="stroke:#181818;stroke-width:0.5;"/><path d="M569,482.4595 L569,492.4595 L579,492.4595 L569,482.4595 " fill="#FEFFDD" style="stroke:#181818;stroke-width:0.5;"/><text fill="#000000" font-family="sans-serif" font-size="13" lengthAdjust="spacing" textLength="155" x="403" y="501.6084">Fill the Command instance</text><text fill="#000000" font-family="sans-serif" font-size="13" lengthAdjust="spacing" textLength="157" x="407" y="519.02">using command arguments</text><polygon fill="#181818" points="605,534.2827,595,538.2827,605,542.2827,601,538.2827" style="stroke:#181818;stroke-width:1.0;"/><line style="stroke:#181818;stroke-width:1.0;stroke-dasharray:2.0,2.0;" x1="599" x2="854" y1="538.2827" y2="538.2827"/><polygon fill="#181818" points="226,565.6943,216,569.6943,226,573.6943,222,569.6943" style="stroke:#181818;stroke-width:1.0;"/><line style="stroke:#181818;stroke-width:1.0;stroke-dasharray:2.0,2.0;" x1="220" x2="588" y1="569.6943" y2="569.6943"/><text fill="#000000" font-family="sans-serif" font-size="13" lengthAdjust="spacing" textLength="124" x="232" y="564.4316">command: Command</text><polygon fill="#181818" points="838,600.106,848,604.106,838,608.106,842,604.106" style="stroke:#181818;stroke-width:1.0;"/><line style="stroke:#181818;stroke-width:1.0;" x1="215" x2="844" y1="604.106" y2="604.106"/><text fill="#000000" font-family="sans-serif" font-size="13" lengthAdjust="spacing" textLength="126" x="222" y="598.8433">command.setData(...)</text><path d="M32,582.6943 L32,609.6943 L200,609.6943 L200,592.6943 L190,582.6943 L32,582.6943 " fill="#FEFFDD" style="stroke:#181818;stroke-width:0.5;"/><path d="M190,582.6943 L190,592.6943 L200,592.6943 L190,582.6943 " fill="#FEFFDD" style="stroke:#181818;stroke-width:0.5;"/><text fill="#000000" font-family="sans-serif" font-size="13" lengthAdjust="spacing" textLength="147" x="38" y="601.8433">Provide data to command</text><polygon fill="#181818" points="226,617.106,216,621.106,226,625.106,222,621.106" style="stroke:#181818;stroke-width:1.0;"/><line style="stroke:#181818;stroke-width:1.0;stroke-dasharray:2.0,2.0;" x1="220" x2="854" y1="621.106" y2="621.106"/><polygon fill="#181818" points="838,671.9292,848,675.9292,838,679.9292,842,675.9292" style="stroke:#181818;stroke-width:1.0;"/><line style="stroke:#181818;stroke-width:1.0;" x1="215" x2="844" y1="675.9292" y2="675.9292"/><text fill="#000000" font-family="sans-serif" font-size="13" lengthAdjust="spacing" textLength="115" x="222" y="670.6665">command.execute()</text><path d="M48,642.8118 L48,669.8118 L200,669.8118 L200,652.8118 L190,642.8118 L48,642.8118 " fill="#FEFFDD" style="stroke:#181818;stroke-width:0.5;"/><path d="M190,642.8118 L190,652.8118 L200,652.8118 L190,642.8118 " fill="#FEFFDD" style="stroke:#181818;stroke-width:0.5;"/><text fill="#000000" font-family="sans-serif" font-size="13" lengthAdjust="spacing" textLength="131" x="54" y="661.9607">Execute the command</text><path d="M865,634.106 L865,678.106 L1051,678.106 L1051,644.106 L1041,634.106 L865,634.106 " fill="#FEFFDD" style="stroke:#181818;stroke-width:0.5;"/><path d="M1041,634.106 L1041,644.106 L1051,644.106 L1041,634.106 " fill="#FEFFDD" style="stroke:#181818;stroke-width:0.5;"/><text fill="#000000" font-family="sans-serif" font-size="13" lengthAdjust="spacing" textLength="165" x="871" y="653.2549">Manipulate the data provided</text><text fill="#000000" font-family="sans-serif" font-size="13" lengthAdjust="spacing" textLength="97" x="875" y="670.6665">and create result</text><polygon fill="#181818" points="226,703.3408,216,707.3408,226,711.3408,222,707.3408" style="stroke:#181818;stroke-width:1.0;"/><line style="stroke:#181818;stroke-width:1.0;stroke-dasharray:2.0,2.0;" x1="220" x2="854" y1="707.3408" y2="707.3408"/><text fill="#000000" font-family="sans-serif" font-size="13" lengthAdjust="spacing" textLength="206" x="232" y="702.0781">: commandResult: CommandResult</text><line style="stroke:#A80036;stroke-width:2.0;" x1="846" x2="864" y1="698.3408" y2="716.3408"/><line style="stroke:#A80036;stroke-width:2.0;" x1="846" x2="864" y1="716.3408" y2="698.3408"/><polygon fill="#181818" points="407,740.7524,417,744.7524,407,748.7524,411,744.7524" style="stroke:#181818;stroke-width:1.0;"/><line style="stroke:#181818;stroke-width:1.0;" x1="215" x2="413" y1="744.7524" y2="744.7524"/><text fill="#000000" font-family="sans-serif" font-size="13" lengthAdjust="spacing" textLength="185" x="222" y="739.4897">ui.printCR(commandResult: CR)</text><path d="M20,720.3408 L20,747.3408 L200,747.3408 L200,730.3408 L190,720.3408 L20,720.3408 " fill="#FEFFDD" style="stroke:#181818;stroke-width:0.5;"/><path d="M190,720.3408 L190,730.3408 L200,730.3408 L190,720.3408 " fill="#FEFFDD" style="stroke:#181818;stroke-width:0.5;"/><text fill="#000000" font-family="sans-serif" font-size="13" lengthAdjust="spacing" textLength="159" x="26" y="739.4897">Print the result of execution</text><path d="M434,720.3408 L434,747.3408 L591,747.3408 L591,730.3408 L581,720.3408 L434,720.3408 " fill="#FEFFDD" style="stroke:#181818;stroke-width:0.5;"/><path d="M581,720.3408 L581,730.3408 L591,730.3408 L581,720.3408 " fill="#FEFFDD" style="stroke:#181818;stroke-width:0.5;"/><text fill="#000000" font-family="sans-serif" font-size="13" lengthAdjust="spacing" textLength="136" x="440" y="739.4897">CR for CommandResult</text><polygon fill="#181818" points="226,754.7524,216,758.7524,226,762.7524,222,758.7524" style="stroke:#181818;stroke-width:1.0;"/><line style="stroke:#181818;stroke-width:1.0;stroke-dasharray:2.0,2.0;" x1="220" x2="423" y1="758.7524" y2="758.7524"/><line style="stroke:#181818;stroke-width:1.0;stroke-dasharray:2.0,2.0;" x1="215" x2="257" y1="784.7524" y2="784.7524"/><line style="stroke:#181818;stroke-width:1.0;stroke-dasharray:2.0,2.0;" x1="257" x2="257" y1="784.7524" y2="797.7524"/><line style="stroke:#181818;stroke-width:1.0;stroke-dasharray:2.0,2.0;" x1="210" x2="257" y1="797.7524" y2="797.7524"/><polygon fill="#181818" points="220,793.7524,210,797.7524,220,801.7524,216,797.7524" style="stroke:#181818;stroke-width:1.0;"/><!--SRC=[VPJ1Rjim38RlVWgk9nTTlRiH1EYoTYZG0KMs0W6M7WIPSOZQaY5HI_RsasGvjHUdkSGsVr8VVr5YuWPXfGt2JpPEilDFUWSFnB-Ca6zRbMMTC4oIEg4OhifJw0g4XLQGcWeSbV12CUXe6bhGSh6GZR1skLnyeULMhNJR2bKz2sFHn9mkFaxpPAygORFPf8oebMsLPLb0WDjbH86Rcn8QhRiakp-YT4nQvTTPLXljEgZqxM5FlkdVd-wFn4bOa0rlULhg-ZK3_njAEug57HLMYW7wYHJwia6dD2CqkECIlYE3ynq0gSunx8nkuUKngWnwTrMCZagKmNXITJPPiRSXhZhng8Y1z2c_KEeCAkQEiDxZXkgz5zmr3U1HOXUyib2vK2P2X7yHPg8bPgnwoaGtvQoHlpP2lGrm1ssgWUWp54LnXhKoA1Y71ZsQPQ4ame5uxtLG2HQm3Ou5YhGr4Eh6Ih9F3rCmXV9V8f72msXayXD2seYPiPeD3x4BgoHTOP7lJErQL6npOMhxSVCFv3td_KpxPnsBeUm8B_iOTJ9CCwJVlBNv7DQpqN-emjvxraFEsSgNQcCySJC7ep-A65iU5nsFuG-Xg7EDIBB8qFL0bNSbU94stQ1r3O-eJWJh63bPiNuNLcZPwB_zjJ5_l3k_NxnQv__NMi_uv9MHiaS9boOEjyrPOwirxBIPOKgMOjYpzFmF]--></g></svg>