<?xml version="1.0" encoding="us-ascii" standalone="no"?><svg xmlns="http://www.w3.org/2000/svg" xmlns:xlink="http://www.w3.org/1999/xlink" contentStyleType="text/css" height="877px" preserveAspectRatio="none" style="width:987px;height:877px;background:#FFFFFF;" version="1.1" viewBox="0 0 987 877" width="987px" zoomAndPan="magnify"><defs/><g><text fill="#000000" font-family="sans-serif" font-size="14" font-weight="bold" lengthAdjust="spacing" textLength="366" x="309.25" y="30.2373">Main Structure of FitTrack.loopCommandExecution()</text><text fill="#000000" font-family="sans-serif" font-size="14" font-weight="bold" lengthAdjust="spacing" textLength="4" x="490.25" y="48.9883">&#160;</text><rect fill="#FFFFFF" height="692.4995" style="stroke:#181818;stroke-width:1.0;" width="10" x="205" y="138.6646"/><rect fill="#FFFFFF" height="34.4116" style="stroke:#181818;stroke-width:1.0;" width="10" x="419" y="204.4878"/><rect fill="#FFFFFF" height="14" style="stroke:#181818;stroke-width:1.0;" width="10" x="419" y="801.1641"/><rect fill="#FFFFFF" height="33.751" style="stroke:#181818;stroke-width:1.0;" width="10" x="513.5" y="280.311"/><rect fill="#FFFFFF" height="274.6323" style="stroke:#181818;stroke-width:1.0;" width="10" x="513.5" y="351.4736"/><rect fill="#FFFFFF" height="122.78" style="stroke:#181818;stroke-width:1.0;" width="10" x="518.5" y="396.0911"/><rect fill="#FFFFFF" height="33.751" style="stroke:#181818;stroke-width:1.0;" width="10" x="779.5" y="447.7085"/><rect fill="#FFFFFF" height="25.7058" style="stroke:#181818;stroke-width:1.0;" width="10" x="779.5" y="568.9885"/><rect fill="#FFFFFF" height="17" style="stroke:#181818;stroke-width:1.0;" width="10" x="779.5" y="660.5176"/><rect fill="#FFFFFF" height="31.4116" style="stroke:#181818;stroke-width:1.0;" width="10" x="779.5" y="732.3408"/><rect fill="none" height="664.4995" style="stroke:#000000;stroke-width:1.5;" width="965.5" x="10" y="158.6646"/><line style="stroke:#181818;stroke-width:0.5;stroke-dasharray:5.0,5.0;" x1="210" x2="210" y1="97.2529" y2="840.1641"/><line style="stroke:#181818;stroke-width:0.5;stroke-dasharray:5.0,5.0;" x1="423.5" x2="423.5" y1="97.2529" y2="840.1641"/><line style="stroke:#181818;stroke-width:0.5;stroke-dasharray:5.0,5.0;" x1="518.5" x2="518.5" y1="278.7749" y2="840.1641"/><line style="stroke:#181818;stroke-width:0.5;stroke-dasharray:5.0,5.0;" x1="784" x2="784" y1="446.1724" y2="840.1641"/><rect fill="#E2E2F0" height="32.751" rx="2.5" ry="2.5" style="stroke:#181818;stroke-width:0.5;" width="70" x="175" y="63.502"/><text fill="#000000" font-family="sans-serif" font-size="14" lengthAdjust="spacing" textLength="56" x="182" y="85.7393">:FitTrack</text><rect fill="#E2E2F0" height="32.751" rx="2.5" ry="2.5" style="stroke:#181818;stroke-width:0.5;" width="70" x="175" y="839.1641"/><text fill="#000000" font-family="sans-serif" font-size="14" lengthAdjust="spacing" textLength="56" x="182" y="861.4014">:FitTrack</text><rect fill="#E2E2F0" height="32.751" rx="2.5" ry="2.5" style="stroke:#181818;stroke-width:0.5;" width="45" x="401.5" y="63.502"/><text fill="#000000" font-family="sans-serif" font-size="14" lengthAdjust="spacing" textLength="31" x="408.5" y="85.7393">ui: Ui</text><rect fill="#E2E2F0" height="32.751" rx="2.5" ry="2.5" style="stroke:#181818;stroke-width:0.5;" width="45" x="401.5" y="839.1641"/><text fill="#000000" font-family="sans-serif" font-size="14" lengthAdjust="spacing" textLength="31" x="408.5" y="861.4014">ui: Ui</text><rect fill="#E2E2F0" height="32.751" rx="2.5" ry="2.5" style="stroke:#181818;stroke-width:0.5;" width="124" x="456.5" y="839.1641"/><text fill="#000000" font-family="sans-serif" font-size="14" lengthAdjust="spacing" textLength="110" x="463.5" y="861.4014">:CommandParser</text><rect fill="#E2E2F0" height="32.751" rx="2.5" ry="2.5" style="stroke:#181818;stroke-width:0.5;" width="171" x="699" y="839.1641"/><text fill="#000000" font-family="sans-serif" font-size="14" lengthAdjust="spacing" textLength="157" x="706" y="861.4014">command: XXXCommand</text><rect fill="#FFFFFF" height="692.4995" style="stroke:#181818;stroke-width:1.0;" width="10" x="205" y="138.6646"/><rect fill="#FFFFFF" height="34.4116" style="stroke:#181818;stroke-width:1.0;" width="10" x="419" y="204.4878"/><rect fill="#FFFFFF" height="14" style="stroke:#181818;stroke-width:1.0;" width="10" x="419" y="801.1641"/><rect fill="#FFFFFF" height="33.751" style="stroke:#181818;stroke-width:1.0;" width="10" x="513.5" y="280.311"/><rect fill="#FFFFFF" height="274.6323" style="stroke:#181818;stroke-width:1.0;" width="10" x="513.5" y="351.4736"/><rect fill="#FFFFFF" height="122.78" style="stroke:#181818;stroke-width:1.0;" width="10" x="518.5" y="396.0911"/><rect fill="#FFFFFF" height="33.751" style="stroke:#181818;stroke-width:1.0;" width="10" x="779.5" y="447.7085"/><rect fill="#FFFFFF" height="25.7058" style="stroke:#181818;stroke-width:1.0;" width="10" x="779.5" y="568.9885"/><rect fill="#FFFFFF" height="17" style="stroke:#181818;stroke-width:1.0;" width="10" x="779.5" y="660.5176"/><rect fill="#FFFFFF" height="31.4116" style="stroke:#181818;stroke-width:1.0;" width="10" x="779.5" y="732.3408"/><line style="stroke:#181818;stroke-width:1.0;" x1="210" x2="257" y1="125.6646" y2="125.6646"/><line style="stroke:#181818;stroke-width:1.0;" x1="257" x2="257" y1="125.6646" y2="138.6646"/><line style="stroke:#181818;stroke-width:1.0;" x1="216" x2="257" y1="138.6646" y2="138.6646"/><polygon fill="#181818" points="226,134.6646,216,138.6646,226,142.6646,222,138.6646" style="stroke:#181818;stroke-width:1.0;"/><text fill="#000000" font-family="sans-serif" font-size="13" lengthAdjust="spacing" textLength="149" x="222" y="120.4019">loopCommandExecution()</text><path d="M10,158.6646 L114,158.6646 L114,168.0762 L104,178.0762 L10,178.0762 L10,158.6646 " fill="#EEEEEE" style="stroke:#000000;stroke-width:1.5;"/><rect fill="none" height="664.4995" style="stroke:#000000;stroke-width:1.5;" width="965.5" x="10" y="158.6646"/><text fill="#000000" font-family="sans-serif" font-size="13" font-weight="bold" lengthAdjust="spacing" textLength="55" x="25" y="173.8135">do-while</text><text fill="#000000" font-family="sans-serif" font-size="11" font-weight="bold" lengthAdjust="spacing" textLength="182" x="129" y="172.6367">[!ExitCommand.isExit(command)]</text><polygon fill="#181818" points="407,200.4878,417,204.4878,407,208.4878,411,204.4878" style="stroke:#181818;stroke-width:1.0;"/><line style="stroke:#181818;stroke-width:1.0;" x1="215" x2="413" y1="204.4878" y2="204.4878"/><text fill="#000000" font-family="sans-serif" font-size="13" lengthAdjust="spacing" textLength="133" x="222" y="199.2251">ui.scanCommandLine()</text><path d="M52,183.0762 L52,210.0762 L200,210.0762 L200,193.0762 L190,183.0762 L52,183.0762 " fill="#FEFFDD" style="stroke:#181818;stroke-width:0.5;"/><path d="M190,183.0762 L190,193.0762 L200,193.0762 L190,183.0762 " fill="#FEFFDD" style="stroke:#181818;stroke-width:0.5;"/><text fill="#000000" font-family="sans-serif" font-size="13" lengthAdjust="spacing" textLength="127" x="58" y="202.2251">Get user input from UI</text><polygon fill="#181818" points="226,234.8994,216,238.8994,226,242.8994,222,238.8994" style="stroke:#181818;stroke-width:1.0;"/><line style="stroke:#181818;stroke-width:1.0;stroke-dasharray:2.0,2.0;" x1="220" x2="423" y1="238.8994" y2="238.8994"/><text fill="#000000" font-family="sans-serif" font-size="13" lengthAdjust="spacing" textLength="150" x="232" y="233.6367">userCommandLine: String</text><polygon fill="#181818" points="444.5,266.311,454.5,270.311,444.5,274.311,448.5,270.311" style="stroke:#181818;stroke-width:1.0;"/><line style="stroke:#181818;stroke-width:1.0;" x1="215" x2="450.5" y1="270.311" y2="270.311"/><text fill="#000000" font-family="sans-serif" font-size="13" lengthAdjust="spacing" textLength="23" x="222" y="265.0483">new</text><rect fill="#E2E2F0" height="32.751" rx="2.5" ry="2.5" style="stroke:#181818;stroke-width:0.5;" width="124" x="456.5" y="246.8994"/><text fill="#000000" font-family="sans-serif" font-size="14" lengthAdjust="spacing" textLength="110" x="463.5" y="269.1367">:CommandParser</text><polygon fill="#181818" points="226,310.062,216,314.062,226,318.062,222,314.062" style="stroke:#181818;stroke-width:1.0;"/><line style="stroke:#181818;stroke-width:1.0;stroke-dasharray:2.0,2.0;" x1="220" x2="517.5" y1="314.062" y2="314.062"/><text fill="#000000" font-family="sans-serif" font-size="13" lengthAdjust="spacing" textLength="105" x="232" y="308.7993">: CommandParser</text><polygon fill="#181818" points="501.5,347.4736,511.5,351.4736,501.5,355.4736,505.5,351.4736" style="stroke:#181818;stroke-width:1.0;"/><line style="stroke:#181818;stroke-width:1.0;" x1="215" x2="507.5" y1="351.4736" y2="351.4736"/><text fill="#000000" font-family="sans-serif" font-size="13" lengthAdjust="spacing" textLength="253" x="222" y="346.2109">.parseCommand(userCommandLine: String)</text><path d="M84,327.062 L84,354.062 L200,354.062 L200,337.062 L190,327.062 L84,327.062 " fill="#FEFFDD" style="stroke:#181818;stroke-width:0.5;"/><path d="M190,327.062 L190,337.062 L200,337.062 L190,327.062 " fill="#FEFFDD" style="stroke:#181818;stroke-width:0.5;"/><text fill="#000000" font-family="sans-serif" font-size="13" lengthAdjust="spacing" textLength="95" x="90" y="346.2109">Parse user input</text><path d="M528,327.062 L528,354.062 L785,354.062 L785,337.062 L775,327.062 L528,327.062 " fill="#FEFFDD" style="stroke:#181818;stroke-width:0.5;"/><path d="M775,327.062 L775,337.062 L785,337.062 L775,327.062 " fill="#FEFFDD" style="stroke:#181818;stroke-width:0.5;"/><text fill="#000000" font-family="sans-serif" font-size="13" lengthAdjust="spacing" textLength="236" x="534" y="346.2109">All exceptions during parsing are omitted</text><line style="stroke:#181818;stroke-width:1.0;" x1="523.5" x2="570.5" y1="383.0911" y2="383.0911"/><line style="stroke:#181818;stroke-width:1.0;" x1="570.5" x2="570.5" y1="383.0911" y2="396.0911"/><line style="stroke:#181818;stroke-width:1.0;" x1="529.5" x2="570.5" y1="396.0911" y2="396.0911"/><polygon fill="#181818" points="539.5,392.0911,529.5,396.0911,539.5,400.0911,535.5,396.0911" style="stroke:#181818;stroke-width:1.0;"/><text fill="#000000" font-family="sans-serif" font-size="13" lengthAdjust="spacing" textLength="207" x="535.5" y="377.8284">getBlankCommand(word: String, ...)</text><path d="M255,364.4736 L255,408.4736 L508,408.4736 L508,374.4736 L498,364.4736 L255,364.4736 " fill="#FEFFDD" style="stroke:#181818;stroke-width:0.5;"/><path d="M498,364.4736 L498,374.4736 L508,374.4736 L498,364.4736 " fill="#FEFFDD" style="stroke:#181818;stroke-width:0.5;"/><text fill="#000000" font-family="sans-serif" font-size="13" lengthAdjust="spacing" textLength="228" x="261" y="383.6226">Create Command instance with no data</text><text fill="#000000" font-family="sans-serif" font-size="13" lengthAdjust="spacing" textLength="123" x="265" y="401.0342">using command word</text><polygon fill="#181818" points="687,433.7085,697,437.7085,687,441.7085,691,437.7085" style="stroke:#181818;stroke-width:1.0;"/><line style="stroke:#181818;stroke-width:1.0;" x1="528.5" x2="693" y1="437.7085" y2="437.7085"/><text fill="#000000" font-family="sans-serif" font-size="13" lengthAdjust="spacing" textLength="23" x="535.5" y="432.4458">new</text><rect fill="#E2E2F0" height="32.751" rx="2.5" ry="2.5" style="stroke:#181818;stroke-width:0.5;" width="171" x="699" y="414.2969"/><text fill="#000000" font-family="sans-serif" font-size="14" lengthAdjust="spacing" textLength="157" x="706" y="436.5342">command: XXXCommand</text><polygon fill="#181818" points="539.5,477.4595,529.5,481.4595,539.5,485.4595,535.5,481.4595" style="stroke:#181818;stroke-width:1.0;"/><line style="stroke:#181818;stroke-width:1.0;stroke-dasharray:2.0,2.0;" x1="533.5" x2="783.5" y1="481.4595" y2="481.4595"/><text fill="#000000" font-family="sans-serif" font-size="13" lengthAdjust="spacing" textLength="145" x="545.5" y="476.1968">command: XXXCommand</text><line style="stroke:#181818;stroke-width:1.0;stroke-dasharray:2.0,2.0;" x1="528.5" x2="570.5" y1="517.8711" y2="517.8711"/><line style="stroke:#181818;stroke-width:1.0;stroke-dasharray:2.0,2.0;" x1="570.5" x2="570.5" y1="517.8711" y2="530.8711"/><line style="stroke:#181818;stroke-width:1.0;stroke-dasharray:2.0,2.0;" x1="523.5" x2="570.5" y1="530.8711" y2="530.8711"/><polygon fill="#181818" points="533.5,526.8711,523.5,530.8711,533.5,534.8711,529.5,530.8711" style="stroke:#181818;stroke-width:1.0;"/><text fill="#000000" font-family="sans-serif" font-size="13" lengthAdjust="spacing" textLength="124" x="535.5" y="512.6084">command: Command</text><polygon fill="#181818" points="767.5,564.9885,777.5,568.9885,767.5,572.9885,771.5,568.9885" style="stroke:#181818;stroke-width:1.0;"/><line style="stroke:#181818;stroke-width:1.0;" x1="523.5" x2="773.5" y1="568.9885" y2="568.9885"/><text fill="#000000" font-family="sans-serif" font-size="13" lengthAdjust="spacing" textLength="237" x="530.5" y="563.7258">command.setArguments(args: String, ...)</text><path d="M326,538.8711 L326,582.8711 L508,582.8711 L508,548.8711 L498,538.8711 L326,538.8711 " fill="#FEFFDD" style="stroke:#181818;stroke-width:0.5;"/><path d="M498,538.8711 L498,548.8711 L508,548.8711 L498,538.8711 " fill="#FEFFDD" style="stroke:#181818;stroke-width:0.5;"/><text fill="#000000" font-family="sans-serif" font-size="13" lengthAdjust="spacing" textLength="155" x="332" y="558.02">Fill the Command instance</text><text fill="#000000" font-family="sans-serif" font-size="13" lengthAdjust="spacing" textLength="157" x="336" y="575.4316">using command arguments</text><polygon fill="#181818" points="534.5,590.6943,524.5,594.6943,534.5,598.6943,530.5,594.6943" style="stroke:#181818;stroke-width:1.0;"/><line style="stroke:#181818;stroke-width:1.0;stroke-dasharray:2.0,2.0;" x1="528.5" x2="783.5" y1="594.6943" y2="594.6943"/><polygon fill="#181818" points="226,622.106,216,626.106,226,630.106,222,626.106" style="stroke:#181818;stroke-width:1.0;"/><line style="stroke:#181818;stroke-width:1.0;stroke-dasharray:2.0,2.0;" x1="220" x2="517.5" y1="626.106" y2="626.106"/><text fill="#000000" font-family="sans-serif" font-size="13" lengthAdjust="spacing" textLength="124" x="232" y="620.8433">command: Command</text><line style="stroke:#A80036;stroke-width:2.0;" x1="509.5" x2="527.5" y1="617.106" y2="635.106"/><line style="stroke:#A80036;stroke-width:2.0;" x1="509.5" x2="527.5" y1="635.106" y2="617.106"/><polygon fill="#181818" points="767.5,656.5176,777.5,660.5176,767.5,664.5176,771.5,660.5176" style="stroke:#181818;stroke-width:1.0;"/><line style="stroke:#181818;stroke-width:1.0;" x1="215" x2="773.5" y1="660.5176" y2="660.5176"/><text fill="#000000" font-family="sans-serif" font-size="13" lengthAdjust="spacing" textLength="126" x="222" y="655.2549">command.setData(...)</text><path d="M32,639.106 L32,666.106 L200,666.106 L200,649.106 L190,639.106 L32,639.106 " fill="#FEFFDD" style="stroke:#181818;stroke-width:0.5;"/><path d="M190,639.106 L190,649.106 L200,649.106 L190,639.106 " fill="#FEFFDD" style="stroke:#181818;stroke-width:0.5;"/><text fill="#000000" font-family="sans-serif" font-size="13" lengthAdjust="spacing" textLength="147" x="38" y="658.2549">Provide data to command</text><polygon fill="#181818" points="226,673.5176,216,677.5176,226,681.5176,222,677.5176" style="stroke:#181818;stroke-width:1.0;"/><line style="stroke:#181818;stroke-width:1.0;stroke-dasharray:2.0,2.0;" x1="220" x2="783.5" y1="677.5176" y2="677.5176"/><polygon fill="#181818" points="767.5,728.3408,777.5,732.3408,767.5,736.3408,771.5,732.3408" style="stroke:#181818;stroke-width:1.0;"/><line style="stroke:#181818;stroke-width:1.0;" x1="215" x2="773.5" y1="732.3408" y2="732.3408"/><text fill="#000000" font-family="sans-serif" font-size="13" lengthAdjust="spacing" textLength="115" x="222" y="727.0781">command.execute()</text><path d="M48,699.2234 L48,726.2234 L200,726.2234 L200,709.2234 L190,699.2234 L48,699.2234 " fill="#FEFFDD" style="stroke:#181818;stroke-width:0.5;"/><path d="M190,699.2234 L190,709.2234 L200,709.2234 L190,699.2234 " fill="#FEFFDD" style="stroke:#181818;stroke-width:0.5;"/><text fill="#000000" font-family="sans-serif" font-size="13" lengthAdjust="spacing" textLength="131" x="54" y="718.3723">Execute the command</text><path d="M794,690.5176 L794,734.5176 L980,734.5176 L980,700.5176 L970,690.5176 L794,690.5176 " fill="#FEFFDD" style="stroke:#181818;stroke-width:0.5;"/><path d="M970,690.5176 L970,700.5176 L980,700.5176 L970,690.5176 " fill="#FEFFDD" style="stroke:#181818;stroke-width:0.5;"/><text fill="#000000" font-family="sans-serif" font-size="13" lengthAdjust="spacing" textLength="165" x="800" y="709.6665">Manipulate the data provided</text><text fill="#000000" font-family="sans-serif" font-size="13" lengthAdjust="spacing" textLength="97" x="804" y="727.0781">and create result</text><polygon fill="#181818" points="226,759.7524,216,763.7524,226,767.7524,222,763.7524" style="stroke:#181818;stroke-width:1.0;"/><line style="stroke:#181818;stroke-width:1.0;stroke-dasharray:2.0,2.0;" x1="220" x2="783.5" y1="763.7524" y2="763.7524"/><text fill="#000000" font-family="sans-serif" font-size="13" lengthAdjust="spacing" textLength="206" x="232" y="758.4897">: commandResult: CommandResult</text><line style="stroke:#A80036;stroke-width:2.0;" x1="775.5" x2="793.5" y1="754.7524" y2="772.7524"/><line style="stroke:#A80036;stroke-width:2.0;" x1="775.5" x2="793.5" y1="772.7524" y2="754.7524"/><polygon fill="#181818" points="407,797.1641,417,801.1641,407,805.1641,411,801.1641" style="stroke:#181818;stroke-width:1.0;"/><line style="stroke:#181818;stroke-width:1.0;" x1="215" x2="413" y1="801.1641" y2="801.1641"/><text fill="#000000" font-family="sans-serif" font-size="13" lengthAdjust="spacing" textLength="185" x="222" y="795.9014">ui.printCR(commandResult: CR)</text><path d="M20,776.7524 L20,803.7524 L200,803.7524 L200,786.7524 L190,776.7524 L20,776.7524 " fill="#FEFFDD" style="stroke:#181818;stroke-width:0.5;"/><path d="M190,776.7524 L190,786.7524 L200,786.7524 L190,776.7524 " fill="#FEFFDD" style="stroke:#181818;stroke-width:0.5;"/><text fill="#000000" font-family="sans-serif" font-size="13" lengthAdjust="spacing" textLength="159" x="26" y="795.9014">Print the result of execution</text><path d="M434,776.7524 L434,803.7524 L591,803.7524 L591,786.7524 L581,776.7524 L434,776.7524 " fill="#FEFFDD" style="stroke:#181818;stroke-width:0.5;"/><path d="M581,776.7524 L581,786.7524 L591,786.7524 L581,776.7524 " fill="#FEFFDD" style="stroke:#181818;stroke-width:0.5;"/><text fill="#000000" font-family="sans-serif" font-size="13" lengthAdjust="spacing" textLength="136" x="440" y="795.9014">CR for CommandResult</text><polygon fill="#181818" points="226,811.1641,216,815.1641,226,819.1641,222,815.1641" style="stroke:#181818;stroke-width:1.0;"/><line style="stroke:#181818;stroke-width:1.0;stroke-dasharray:2.0,2.0;" x1="220" x2="423" y1="815.1641" y2="815.1641"/><!--SRC=[VPJ1Rfmm48RlVeffJaHfU00EbT9DKbLgf6ZRI2irFLWmouu2DhB7tUtRrpOcWU3DNXQOtx-_-HdCn1t2WoG5Fzcucfr1q7ku9_vbPFrITbeF6zttKZLt9wmTarR5vRCIOf26gQP1AeQBQbfm0T92x_sMTKSLF54iEdgtDDa_IcFHHCaGBvUoUbHLiDljqegehVj6YB0XN7-96yFLLGLvR25Qezq0ZRu-7iWt_llJtOau2KkouQv8Ert-4U1_axMZQEoejBLKQSaFKkXjWqvfHkXmpnLyGmRd6m1IWsFO6zt3q_UeCkWJLh4wiwX2-AHQ4JMrGUczKWXpXl5Hv51ud1jMi4XHY7FhodYTnCKPZbL7qNNMqrlTK7lmWfkk0ppLE8IWBJGksCHzmxyCGzKJCpOZM09QehN8NpkfNYQuepRDHFGPoh9SOMt6fD82ZsPPgXhXI7pmEcWaItWESGUAz5uX-Cw33XEqXF9FSY5dHZ1RdcfdN9EkjCWtfdKzAhQ5DAtzkDbxyXdp8TFkgaCvsSxmn8UeeTQWPQF_JOEt7A4C_ArFjyYHFXhzbneSusSzhLd1dFF6-CLcFgpnKyQOmjnqFeaFKj7WEfbaaM4OWHeVL8WdlNU3rdKyetebsCRAQphRD-6KKJnryiV3u5yXRxR5Uwzj9YUlZ9GZIZXuSJgjLerjjh3N9iEK8iKmSVy1]--></g></svg>