<?xml version="1.0" encoding="us-ascii" standalone="no"?><svg xmlns="http://www.w3.org/2000/svg" xmlns:xlink="http://www.w3.org/1999/xlink" contentStyleType="text/css" height="605px" preserveAspectRatio="none" style="width:813px;height:605px;background:#FFFFFF;" version="1.1" viewBox="0 0 813 605" width="813px" zoomAndPan="magnify"><defs/><g><text fill="#000000" font-family="sans-serif" font-size="14" font-weight="bold" lengthAdjust="spacing" textLength="98" x="356.5" y="30.2373">Help Function</text><text fill="#000000" font-family="sans-serif" font-size="14" font-weight="bold" lengthAdjust="spacing" textLength="4" x="403.5" y="48.9883">&#160;</text><rect fill="#FFFFFF" height="316.0439" style="stroke:#181818;stroke-width:1.0;" width="10" x="241" y="152.4155"/><rect fill="#FFFFFF" height="31.4116" style="stroke:#181818;stroke-width:1.0;" width="10" x="241" y="499.8711"/><rect fill="#FFFFFF" height="34.4116" style="stroke:#181818;stroke-width:1.0;" width="10" x="536" y="186.8271"/><rect fill="#FFFFFF" height="109.5742" style="stroke:#181818;stroke-width:1.0;" width="10" x="536" y="255.6504"/><rect fill="#FFFFFF" height="33.751" style="stroke:#181818;stroke-width:1.0;" width="10" x="747" y="297.062"/><rect fill="#FFFFFF" height="43.1174" style="stroke:#181818;stroke-width:1.0;" width="10" x="747" y="399.6362"/><line style="stroke:#181818;stroke-width:0.5;stroke-dasharray:5.0,5.0;" x1="246" x2="246" y1="116.0039" y2="549.2827"/><line style="stroke:#181818;stroke-width:0.5;stroke-dasharray:5.0,5.0;" x1="541" x2="541" y1="116.0039" y2="549.2827"/><line style="stroke:#181818;stroke-width:0.5;stroke-dasharray:5.0,5.0;" x1="752" x2="752" y1="295.5259" y2="549.2827"/><rect fill="#E2E2F0" height="32.751" rx="2.5" ry="2.5" style="stroke:#181818;stroke-width:0.5;" width="114" x="189" y="82.2529"/><text fill="#000000" font-family="sans-serif" font-size="14" lengthAdjust="spacing" textLength="100" x="196" y="104.4902">: HelpCommand</text><rect fill="#E2E2F0" height="32.751" rx="2.5" ry="2.5" style="stroke:#181818;stroke-width:0.5;" width="114" x="189" y="548.2827"/><text fill="#000000" font-family="sans-serif" font-size="14" lengthAdjust="spacing" textLength="100" x="196" y="570.52">: HelpCommand</text><rect fill="#E2E2F0" height="51.502" rx="2.5" ry="2.5" style="stroke:#181818;stroke-width:0.5;" width="120" x="481" y="63.502"/><text fill="#000000" font-family="sans-serif" font-size="14" font-style="italic" lengthAdjust="spacing" textLength="48" x="517" y="85.7393">&#171;class&#187;</text><text fill="#000000" font-family="sans-serif" font-size="14" lengthAdjust="spacing" textLength="106" x="488" y="104.4902">CommandParser</text><rect fill="#E2E2F0" height="51.502" rx="2.5" ry="2.5" style="stroke:#181818;stroke-width:0.5;" width="120" x="481" y="548.2827"/><text fill="#000000" font-family="sans-serif" font-size="14" font-style="italic" lengthAdjust="spacing" textLength="48" x="517" y="570.52">&#171;class&#187;</text><text fill="#000000" font-family="sans-serif" font-size="14" lengthAdjust="spacing" textLength="106" x="488" y="589.271">CommandParser</text><rect fill="#E2E2F0" height="32.751" rx="2.5" ry="2.5" style="stroke:#181818;stroke-width:0.5;" width="110" x="697" y="548.2827"/><text fill="#000000" font-family="sans-serif" font-size="14" lengthAdjust="spacing" textLength="96" x="704" y="570.52">: XXXCommand</text><rect fill="#FFFFFF" height="316.0439" style="stroke:#181818;stroke-width:1.0;" width="10" x="241" y="152.4155"/><rect fill="#FFFFFF" height="31.4116" style="stroke:#181818;stroke-width:1.0;" width="10" x="241" y="499.8711"/><rect fill="#FFFFFF" height="34.4116" style="stroke:#181818;stroke-width:1.0;" width="10" x="536" y="186.8271"/><rect fill="#FFFFFF" height="109.5742" style="stroke:#181818;stroke-width:1.0;" width="10" x="536" y="255.6504"/><rect fill="#FFFFFF" height="33.751" style="stroke:#181818;stroke-width:1.0;" width="10" x="747" y="297.062"/><rect fill="#FFFFFF" height="43.1174" style="stroke:#181818;stroke-width:1.0;" width="10" x="747" y="399.6362"/><polygon fill="#181818" points="229,148.4155,239,152.4155,229,156.4155,233,152.4155" style="stroke:#181818;stroke-width:1.0;"/><line style="stroke:#181818;stroke-width:1.0;" x1="0" x2="235" y1="152.4155" y2="152.4155"/><text fill="#000000" font-family="sans-serif" font-size="13" lengthAdjust="spacing" textLength="217" x="7" y="147.1528">command.setArguments(args: String)</text><path d="M256,131.0039 L256,158.0039 L451,158.0039 L451,141.0039 L441,131.0039 L256,131.0039 " fill="#FEFFDD" style="stroke:#181818;stroke-width:0.5;"/><path d="M441,131.0039 L441,141.0039 L451,141.0039 L441,131.0039 " fill="#FEFFDD" style="stroke:#181818;stroke-width:0.5;"/><text fill="#000000" font-family="sans-serif" font-size="13" lengthAdjust="spacing" textLength="174" x="262" y="150.1528">e.g. setArguments("addmeal")</text><polygon fill="#181818" points="524,182.8271,534,186.8271,524,190.8271,528,186.8271" style="stroke:#181818;stroke-width:1.0;"/><line style="stroke:#181818;stroke-width:1.0;" x1="251" x2="530" y1="186.8271" y2="186.8271"/><text fill="#000000" font-family="sans-serif" font-size="13" lengthAdjust="spacing" textLength="251" x="258" y="181.5645">CommandParser.getFirstWord(args: String)</text><polygon fill="#181818" points="262,217.2388,252,221.2388,262,225.2388,258,221.2388" style="stroke:#181818;stroke-width:1.0;"/><line style="stroke:#181818;stroke-width:1.0;stroke-dasharray:2.0,2.0;" x1="256" x2="540" y1="221.2388" y2="221.2388"/><text fill="#000000" font-family="sans-serif" font-size="13" lengthAdjust="spacing" textLength="69" x="268" y="215.9761">word: String</text><path d="M130,199.8271 L130,226.8271 L236,226.8271 L236,209.8271 L226,199.8271 L130,199.8271 " fill="#FEFFDD" style="stroke:#181818;stroke-width:0.5;"/><path d="M226,199.8271 L226,209.8271 L236,209.8271 L226,199.8271 " fill="#FEFFDD" style="stroke:#181818;stroke-width:0.5;"/><text fill="#000000" font-family="sans-serif" font-size="13" lengthAdjust="spacing" textLength="85" x="136" y="218.9761">e.g. "addmeal"</text><polygon fill="#181818" points="524,251.6504,534,255.6504,524,259.6504,528,255.6504" style="stroke:#181818;stroke-width:1.0;"/><line style="stroke:#181818;stroke-width:1.0;" x1="251" x2="530" y1="255.6504" y2="255.6504"/><text fill="#000000" font-family="sans-serif" font-size="13" lengthAdjust="spacing" textLength="266" x="258" y="250.3877">CommandParser.getBlankCommand(word, ...)</text><polygon fill="#181818" points="685,283.062,695,287.062,685,291.062,689,287.062" style="stroke:#181818;stroke-width:1.0;"/><line style="stroke:#181818;stroke-width:1.0;" x1="546" x2="691" y1="287.062" y2="287.062"/><text fill="#000000" font-family="sans-serif" font-size="13" lengthAdjust="spacing" textLength="127" x="553" y="281.7993">new XXXCommand(...)</text><rect fill="#E2E2F0" height="32.751" rx="2.5" ry="2.5" style="stroke:#181818;stroke-width:0.5;" width="110" x="697" y="263.6504"/><text fill="#000000" font-family="sans-serif" font-size="14" lengthAdjust="spacing" textLength="96" x="704" y="285.8877">: XXXCommand</text><polygon fill="#181818" points="557,326.813,547,330.813,557,334.813,553,330.813" style="stroke:#181818;stroke-width:1.0;"/><line style="stroke:#181818;stroke-width:1.0;stroke-dasharray:2.0,2.0;" x1="551" x2="751" y1="330.813" y2="330.813"/><text fill="#000000" font-family="sans-serif" font-size="13" lengthAdjust="spacing" textLength="88" x="563" y="325.5503">: XXXCommand</text><polygon fill="#181818" points="262,361.2246,252,365.2246,262,369.2246,258,365.2246" style="stroke:#181818;stroke-width:1.0;"/><line style="stroke:#181818;stroke-width:1.0;stroke-dasharray:2.0,2.0;" x1="256" x2="540" y1="365.2246" y2="365.2246"/><text fill="#000000" font-family="sans-serif" font-size="13" lengthAdjust="spacing" textLength="178" x="268" y="359.9619">blankCommand: XXXCommand</text><path d="M79,343.813 L79,370.813 L236,370.813 L236,353.813 L226,343.813 L79,343.813 " fill="#FEFFDD" style="stroke:#181818;stroke-width:0.5;"/><path d="M226,343.813 L226,353.813 L236,353.813 L226,343.813 " fill="#FEFFDD" style="stroke:#181818;stroke-width:0.5;"/><text fill="#000000" font-family="sans-serif" font-size="13" lengthAdjust="spacing" textLength="136" x="85" y="362.9619">e.g. AddMealCommand</text><polygon fill="#181818" points="735,395.6362,745,399.6362,735,403.6362,739,399.6362" style="stroke:#181818;stroke-width:1.0;"/><line style="stroke:#181818;stroke-width:1.0;" x1="251" x2="741" y1="399.6362" y2="399.6362"/><text fill="#000000" font-family="sans-serif" font-size="13" lengthAdjust="spacing" textLength="146" x="258" y="394.3735">blankCommand.getHelp()</text><polygon fill="#181818" points="262,438.7537,252,442.7537,262,446.7537,258,442.7537" style="stroke:#181818;stroke-width:1.0;"/><line style="stroke:#181818;stroke-width:1.0;stroke-dasharray:2.0,2.0;" x1="256" x2="751" y1="442.7537" y2="442.7537"/><text fill="#000000" font-family="sans-serif" font-size="13" lengthAdjust="spacing" textLength="119" x="268" y="437.491">helpMessage: String</text><path d="M5,412.6362 L5,456.6362 L236,456.6362 L236,422.6362 L226,412.6362 L5,412.6362 " fill="#FEFFDD" style="stroke:#181818;stroke-width:0.5;"/><path d="M226,412.6362 L226,422.6362 L236,422.6362 L226,412.6362 " fill="#FEFFDD" style="stroke:#181818;stroke-width:0.5;"/><text fill="#000000" font-family="sans-serif" font-size="13" lengthAdjust="spacing" textLength="210" x="11" y="431.7852">e.g. "`addmeal` command adds your</text><text fill="#000000" font-family="sans-serif" font-size="13" lengthAdjust="spacing" textLength="204" x="11" y="449.1968">daily meal data to the list. (...omit)"</text><polygon fill="#181818" points="11,464.4595,1,468.4595,11,472.4595,7,468.4595" style="stroke:#181818;stroke-width:1.0;"/><line style="stroke:#181818;stroke-width:1.0;stroke-dasharray:2.0,2.0;" x1="5" x2="245" y1="468.4595" y2="468.4595"/><polygon fill="#181818" points="229,495.8711,239,499.8711,229,503.8711,233,499.8711" style="stroke:#181818;stroke-width:1.0;"/><line style="stroke:#181818;stroke-width:1.0;" x1="0" x2="235" y1="499.8711" y2="499.8711"/><text fill="#000000" font-family="sans-serif" font-size="13" lengthAdjust="spacing" textLength="115" x="7" y="494.6084">command.execute()</text><polygon fill="#181818" points="11,527.2827,1,531.2827,11,535.2827,7,531.2827" style="stroke:#181818;stroke-width:1.0;"/><line style="stroke:#181818;stroke-width:1.0;stroke-dasharray:2.0,2.0;" x1="5" x2="245" y1="531.2827" y2="531.2827"/><text fill="#000000" font-family="sans-serif" font-size="13" lengthAdjust="spacing" textLength="208" x="17" y="526.02">new CommandResult(helpMessage)</text><!--SRC=[ZL8zQyCm4DtrAmvFDcdLtHX3MWXT0gKTQcY6gDRL4PLb8vs9y-yhENPgfmIwINVtFkv9f4WZFADkOTEPabHZTeQnLbXIfMg58OZIeV_KrBKmCWBXu13kjLoEPIhFib8Bv_8yUr3vpeoG5s4TsW7O3iTh-g8evknze6OVz_ca0wjL2kLvWZkajQsw6WsvMDZAfV16LfagOQOX18rVb0BoYiDYD19IrYXqb30syNg9iwD1OM6NLqWRPHszDrPUwLYapXeu-ivK_ADzaVktsgCMvdkine7x3ZZd2Iij2i_TZu47l6VgfrmC7cS1nWDaD3XFTgfzpbGM_Ui5rb9klV-fFT_YeZqd2ok4Vn9Vv0DYYyw92c_7j1zpsayF3BxWuDHqTcUaKFe4eGrIa01gW0uUhnnn2AisjQB4HtnMlFrfiCUo8_pr5b8RZR-YwpJ5CxS9-m40]--></g></svg>