<?xml version="1.0" encoding="us-ascii" standalone="no"?><svg xmlns="http://www.w3.org/2000/svg" xmlns:xlink="http://www.w3.org/1999/xlink" contentStyleType="text/css" height="637px" preserveAspectRatio="none" style="width:829px;height:637px;background:#FFFFFF;" version="1.1" viewBox="0 0 829 637" width="829px" zoomAndPan="magnify"><defs/><g><text fill="#000000" font-family="sans-serif" font-size="14" font-weight="bold" lengthAdjust="spacing" textLength="209" x="308.5" y="30.2373">Sequence of InvalidCommand</text><text fill="#000000" font-family="sans-serif" font-size="14" font-weight="bold" lengthAdjust="spacing" textLength="4" x="411" y="48.9883">&#160;</text><rect fill="#FFFFFF" height="404.9846" style="stroke:#181818;stroke-width:1.0;" width="10" x="244" y="177.1936"/><rect fill="#FFFFFF" height="44.8232" style="stroke:#181818;stroke-width:1.0;" width="10" x="480" y="230.311"/><rect fill="#FFFFFF" height="241.2207" style="stroke:#181818;stroke-width:1.0;" width="10" x="480" y="309.5459"/><rect fill="#FFFFFF" height="33.751" style="stroke:#181818;stroke-width:1.0;" width="10" x="716" y="353.9575"/><rect fill="#FFFFFF" height="14" style="stroke:#181818;stroke-width:1.0;" width="10" x="716" y="419.1201"/><rect fill="#FFFFFF" height="51.8232" style="stroke:#181818;stroke-width:1.0;" width="10" x="716" y="464.5317"/><line style="stroke:#181818;stroke-width:0.5;stroke-dasharray:5.0,5.0;" x1="249" x2="249" y1="97.2529" y2="600.1782"/><line style="stroke:#181818;stroke-width:0.5;stroke-dasharray:5.0,5.0;" x1="485" x2="485" y1="234.311" y2="600.1782"/><line style="stroke:#181818;stroke-width:0.5;stroke-dasharray:5.0,5.0;" x1="721" x2="721" y1="352.4214" y2="600.1782"/><rect fill="#E2E2F0" height="32.751" rx="2.5" ry="2.5" style="stroke:#181818;stroke-width:0.5;" width="128" x="185" y="63.502"/><text fill="#000000" font-family="sans-serif" font-size="14" lengthAdjust="spacing" textLength="114" x="192" y="85.7393">: CommandParser</text><rect fill="#E2E2F0" height="32.751" rx="2.5" ry="2.5" style="stroke:#181818;stroke-width:0.5;" width="128" x="185" y="599.1782"/><text fill="#000000" font-family="sans-serif" font-size="14" lengthAdjust="spacing" textLength="114" x="192" y="621.4155">: CommandParser</text><rect fill="#E2E2F0" height="32.751" rx="2.5" ry="2.5" style="stroke:#181818;stroke-width:0.5;" width="126" x="422" y="599.1782"/><text fill="#000000" font-family="sans-serif" font-size="14" lengthAdjust="spacing" textLength="112" x="429" y="621.4155">: InvalidCommand</text><rect fill="#E2E2F0" height="32.751" rx="2.5" ry="2.5" style="stroke:#181818;stroke-width:0.5;" width="114" x="664" y="599.1782"/><text fill="#000000" font-family="sans-serif" font-size="14" lengthAdjust="spacing" textLength="100" x="671" y="621.4155">: HelpCommand</text><rect fill="#FFFFFF" height="404.9846" style="stroke:#181818;stroke-width:1.0;" width="10" x="244" y="177.1936"/><rect fill="#FFFFFF" height="44.8232" style="stroke:#181818;stroke-width:1.0;" width="10" x="480" y="230.311"/><rect fill="#FFFFFF" height="241.2207" style="stroke:#181818;stroke-width:1.0;" width="10" x="480" y="309.5459"/><rect fill="#FFFFFF" height="33.751" style="stroke:#181818;stroke-width:1.0;" width="10" x="716" y="353.9575"/><rect fill="#FFFFFF" height="14" style="stroke:#181818;stroke-width:1.0;" width="10" x="716" y="419.1201"/><rect fill="#FFFFFF" height="51.8232" style="stroke:#181818;stroke-width:1.0;" width="10" x="716" y="464.5317"/><polygon fill="#181818" points="232,173.1936,242,177.1936,232,181.1936,236,177.1936" style="stroke:#181818;stroke-width:1.0;"/><line style="stroke:#181818;stroke-width:1.0;" x1="0" x2="238" y1="177.1936" y2="177.1936"/><text fill="#000000" font-family="sans-serif" font-size="13" lengthAdjust="spacing" textLength="156" x="7" y="137.1077">parser.getInvalidCommand(</text><text fill="#000000" font-family="sans-serif" font-size="13" lengthAdjust="spacing" textLength="209" x="23" y="154.5193">inputLine: String, e: ParseException</text><text fill="#000000" font-family="sans-serif" font-size="13" lengthAdjust="spacing" textLength="4" x="7" y="171.9309">)</text><path d="M259,112.2529 L259,191.2529 L525,191.2529 L525,122.2529 L515,112.2529 L259,112.2529 " fill="#FEFFDD" style="stroke:#181818;stroke-width:0.5;"/><path d="M515,112.2529 L515,122.2529 L525,122.2529 L515,112.2529 " fill="#FEFFDD" style="stroke:#181818;stroke-width:0.5;"/><text fill="#000000" font-family="sans-serif" font-size="13" lengthAdjust="spacing" textLength="245" x="265" y="131.4019">getInvalidCommand method is called when</text><text fill="#000000" font-family="sans-serif" font-size="13" lengthAdjust="spacing" textLength="207" x="273" y="148.8135">1. input command fails matching, or</text><text fill="#000000" font-family="sans-serif" font-size="13" lengthAdjust="spacing" textLength="175" x="273" y="166.2251">2. command word is invalid, or</text><text fill="#000000" font-family="sans-serif" font-size="13" lengthAdjust="spacing" textLength="233" x="273" y="183.6367">3. any of command arguments is invalid.</text><polygon fill="#181818" points="410,216.311,420,220.311,410,224.311,414,220.311" style="stroke:#181818;stroke-width:1.0;"/><line style="stroke:#181818;stroke-width:1.0;" x1="254" x2="416" y1="220.311" y2="220.311"/><text fill="#000000" font-family="sans-serif" font-size="13" lengthAdjust="spacing" textLength="23" x="261" y="215.0483">new</text><rect fill="#E2E2F0" height="32.751" rx="2.5" ry="2.5" style="stroke:#181818;stroke-width:0.5;" width="126" x="422" y="202.4355"/><text fill="#000000" font-family="sans-serif" font-size="14" lengthAdjust="spacing" textLength="112" x="429" y="224.6729">: InvalidCommand</text><path d="M15,201.8994 L15,245.8994 L239,245.8994 L239,211.8994 L229,201.8994 L15,201.8994 " fill="#FEFFDD" style="stroke:#181818;stroke-width:0.5;"/><path d="M229,201.8994 L229,211.8994 L239,211.8994 L229,201.8994 " fill="#FEFFDD" style="stroke:#181818;stroke-width:0.5;"/><text fill="#000000" font-family="sans-serif" font-size="13" lengthAdjust="spacing" textLength="189" x="21" y="221.0483">Construct InvalidCommand using</text><text fill="#000000" font-family="sans-serif" font-size="13" lengthAdjust="spacing" textLength="203" x="21" y="238.46">user input and exception (optional).</text><polygon fill="#181818" points="265,271.1343,255,275.1343,265,279.1343,261,275.1343" style="stroke:#181818;stroke-width:1.0;"/><line style="stroke:#181818;stroke-width:1.0;stroke-dasharray:2.0,2.0;" x1="259" x2="484" y1="275.1343" y2="275.1343"/><text fill="#000000" font-family="sans-serif" font-size="13" lengthAdjust="spacing" textLength="102" x="271" y="269.8716">: InvalidCommand</text><polygon fill="#181818" points="468,305.5459,478,309.5459,468,313.5459,472,309.5459" style="stroke:#181818;stroke-width:1.0;"/><line style="stroke:#181818;stroke-width:1.0;" x1="254" x2="474" y1="309.5459" y2="309.5459"/><text fill="#000000" font-family="sans-serif" font-size="13" lengthAdjust="spacing" textLength="207" x="261" y="304.2832">.setArguments(inputLine: String, ...)</text><path d="M495,288.1343 L495,315.1343 L822,315.1343 L822,298.1343 L812,288.1343 L495,288.1343 " fill="#FEFFDD" style="stroke:#181818;stroke-width:0.5;"/><path d="M812,288.1343 L812,298.1343 L822,298.1343 L812,288.1343 " fill="#FEFFDD" style="stroke:#181818;stroke-width:0.5;"/><text fill="#000000" font-family="sans-serif" font-size="13" lengthAdjust="spacing" textLength="306" x="501" y="307.2832">Create HelpCommand instance to get help message.</text><polygon fill="#181818" points="652,339.9575,662,343.9575,652,347.9575,656,343.9575" style="stroke:#181818;stroke-width:1.0;"/><line style="stroke:#181818;stroke-width:1.0;" x1="490" x2="658" y1="343.9575" y2="343.9575"/><text fill="#000000" font-family="sans-serif" font-size="13" lengthAdjust="spacing" textLength="23" x="497" y="338.6948">new</text><rect fill="#E2E2F0" height="32.751" rx="2.5" ry="2.5" style="stroke:#181818;stroke-width:0.5;" width="114" x="664" y="320.5459"/><text fill="#000000" font-family="sans-serif" font-size="14" lengthAdjust="spacing" textLength="100" x="671" y="342.7832">: HelpCommand</text><polygon fill="#181818" points="501,383.7085,491,387.7085,501,391.7085,497,387.7085" style="stroke:#181818;stroke-width:1.0;"/><line style="stroke:#181818;stroke-width:1.0;stroke-dasharray:2.0,2.0;" x1="495" x2="720" y1="387.7085" y2="387.7085"/><text fill="#000000" font-family="sans-serif" font-size="13" lengthAdjust="spacing" textLength="93" x="507" y="382.4458">: HelpCommand</text><polygon fill="#181818" points="704,415.1201,714,419.1201,704,423.1201,708,419.1201" style="stroke:#181818;stroke-width:1.0;"/><line style="stroke:#181818;stroke-width:1.0;" x1="490" x2="710" y1="419.1201" y2="419.1201"/><text fill="#000000" font-family="sans-serif" font-size="13" lengthAdjust="spacing" textLength="207" x="497" y="413.8574">.setArguments(inputLine: String, ...)</text><polygon fill="#181818" points="501,429.1201,491,433.1201,501,437.1201,497,433.1201" style="stroke:#181818;stroke-width:1.0;"/><line style="stroke:#181818;stroke-width:1.0;stroke-dasharray:2.0,2.0;" x1="495" x2="720" y1="433.1201" y2="433.1201"/><polygon fill="#181818" points="704,460.5317,714,464.5317,704,468.5317,708,464.5317" style="stroke:#181818;stroke-width:1.0;"/><line style="stroke:#181818;stroke-width:1.0;" x1="490" x2="710" y1="464.5317" y2="464.5317"/><text fill="#000000" font-family="sans-serif" font-size="13" lengthAdjust="spacing" textLength="58" x="497" y="459.269">.execute()</text><polygon fill="#181818" points="501,512.355,491,516.355,501,520.355,497,516.355" style="stroke:#181818;stroke-width:1.0;"/><line style="stroke:#181818;stroke-width:1.0;stroke-dasharray:2.0,2.0;" x1="495" x2="720" y1="516.355" y2="516.355"/><text fill="#000000" font-family="sans-serif" font-size="13" lengthAdjust="spacing" textLength="104" x="507" y="511.0923">: CommandResult</text><path d="M292,477.5317 L292,539.5317 L475,539.5317 L475,487.5317 L465,477.5317 L292,477.5317 " fill="#FEFFDD" style="stroke:#181818;stroke-width:0.5;"/><path d="M465,477.5317 L465,487.5317 L475,487.5317 L465,477.5317 " fill="#FEFFDD" style="stroke:#181818;stroke-width:0.5;"/><text fill="#000000" font-family="sans-serif" font-size="13" lengthAdjust="spacing" textLength="157" x="298" y="496.6807">Use HelpCommand's result</text><text fill="#000000" font-family="sans-serif" font-size="13" lengthAdjust="spacing" textLength="138" x="298" y="514.0923">and exception message</text><text fill="#000000" font-family="sans-serif" font-size="13" lengthAdjust="spacing" textLength="162" x="298" y="531.5039">to make a feedback to user.</text><polygon fill="#181818" points="265,546.7666,255,550.7666,265,554.7666,261,550.7666" style="stroke:#181818;stroke-width:1.0;"/><line style="stroke:#181818;stroke-width:1.0;stroke-dasharray:2.0,2.0;" x1="259" x2="484" y1="550.7666" y2="550.7666"/><polygon fill="#181818" points="11,578.1782,1,582.1782,11,586.1782,7,582.1782" style="stroke:#181818;stroke-width:1.0;"/><line style="stroke:#181818;stroke-width:1.0;stroke-dasharray:2.0,2.0;" x1="5" x2="248" y1="582.1782" y2="582.1782"/><text fill="#000000" font-family="sans-serif" font-size="13" lengthAdjust="spacing" textLength="102" x="17" y="576.9155">: InvalidCommand</text><!--SRC=[ZL8zRzim4DtvAmvPQYCjWIQRXm95KQ05CWGDEiNBbJfBHAYZIXxZzD-7b6XRSZvGBQB8fyVtSMB54TpHtqHi2FmEVl8ZEjjyytsFt6nPgG63M6C7P86B3TIJMmoHmWLWX65SdkEMH2FGrgs-EGV_83VCaLtvpZ1r_-bBvOVBoqrTwfPaIR_QCkJ7yf3anZ9ju4w2vVOZvEKezVkJeK6ivosl5NiXSBGJzO89UfBEDs0Z67IE6jXtn0hWivxemLJW3gsBqAEORhp9XuowqiVplGyZJNLT0TSQaF-Lf0yu36tgYINEm5fHFYaobJA1CCjTXbS2oT6SDiTucFOdRwKgZXAIaRCo8CMiUCkfi4ocoYuT8eAL7z_erbe5aXGOpWjLRwlGaUJhmTJgbKwqrhM3ODkk29qipgOWSqR1CfFY8PSqJaJk9aPiIHz3ESp9J47MKtUFaHmjp2vuvvV_qp-HlaT3JsIIq6fz4b0l_qKnEPcDuU-uSFyXGfWWorwgVvKpwV610657rFn1yr1YAdNE1wSgVBF1Pm00]--></g></svg>