<?xml version="1.0" encoding="us-ascii" standalone="no"?><svg xmlns="http://www.w3.org/2000/svg" xmlns:xlink="http://www.w3.org/1999/xlink" contentStyleType="text/css" height="637px" preserveAspectRatio="none" style="width:846px;height:637px;background:#FFFFFF;" version="1.1" viewBox="0 0 846 637" width="846px" zoomAndPan="magnify"><defs/><g><text fill="#000000" font-family="sans-serif" font-size="14" font-weight="bold" lengthAdjust="spacing" textLength="209" x="317" y="30.2373">Sequence of InvalidCommand</text><text fill="#000000" font-family="sans-serif" font-size="14" font-weight="bold" lengthAdjust="spacing" textLength="4" x="419.5" y="48.9883">&#160;</text><rect fill="#FFFFFF" height="422.3962" style="stroke:#181818;stroke-width:1.0;" width="10" x="261" y="159.782"/><rect fill="#FFFFFF" height="44.8232" style="stroke:#181818;stroke-width:1.0;" width="10" x="497" y="230.311"/><rect fill="#FFFFFF" height="241.2207" style="stroke:#181818;stroke-width:1.0;" width="10" x="497" y="309.5459"/><rect fill="#FFFFFF" height="33.751" style="stroke:#181818;stroke-width:1.0;" width="10" x="733" y="353.9575"/><rect fill="#FFFFFF" height="14" style="stroke:#181818;stroke-width:1.0;" width="10" x="733" y="419.1201"/><rect fill="#FFFFFF" height="51.8232" style="stroke:#181818;stroke-width:1.0;" width="10" x="733" y="464.5317"/><line style="stroke:#181818;stroke-width:0.5;stroke-dasharray:5.0,5.0;" x1="266" x2="266" y1="97.2529" y2="600.1782"/><line style="stroke:#181818;stroke-width:0.5;stroke-dasharray:5.0,5.0;" x1="502" x2="502" y1="234.311" y2="600.1782"/><line style="stroke:#181818;stroke-width:0.5;stroke-dasharray:5.0,5.0;" x1="738" x2="738" y1="352.4214" y2="600.1782"/><rect fill="#E2E2F0" height="32.751" rx="2.5" ry="2.5" style="stroke:#181818;stroke-width:0.5;" width="128" x="202" y="63.502"/><text fill="#000000" font-family="sans-serif" font-size="14" lengthAdjust="spacing" textLength="114" x="209" y="85.7393">: CommandParser</text><rect fill="#E2E2F0" height="32.751" rx="2.5" ry="2.5" style="stroke:#181818;stroke-width:0.5;" width="128" x="202" y="599.1782"/><text fill="#000000" font-family="sans-serif" font-size="14" lengthAdjust="spacing" textLength="114" x="209" y="621.4155">: CommandParser</text><rect fill="#E2E2F0" height="32.751" rx="2.5" ry="2.5" style="stroke:#181818;stroke-width:0.5;" width="126" x="439" y="599.1782"/><text fill="#000000" font-family="sans-serif" font-size="14" lengthAdjust="spacing" textLength="112" x="446" y="621.4155">: InvalidCommand</text><rect fill="#E2E2F0" height="32.751" rx="2.5" ry="2.5" style="stroke:#181818;stroke-width:0.5;" width="114" x="681" y="599.1782"/><text fill="#000000" font-family="sans-serif" font-size="14" lengthAdjust="spacing" textLength="100" x="688" y="621.4155">: HelpCommand</text><rect fill="#FFFFFF" height="422.3962" style="stroke:#181818;stroke-width:1.0;" width="10" x="261" y="159.782"/><rect fill="#FFFFFF" height="44.8232" style="stroke:#181818;stroke-width:1.0;" width="10" x="497" y="230.311"/><rect fill="#FFFFFF" height="241.2207" style="stroke:#181818;stroke-width:1.0;" width="10" x="497" y="309.5459"/><rect fill="#FFFFFF" height="33.751" style="stroke:#181818;stroke-width:1.0;" width="10" x="733" y="353.9575"/><rect fill="#FFFFFF" height="14" style="stroke:#181818;stroke-width:1.0;" width="10" x="733" y="419.1201"/><rect fill="#FFFFFF" height="51.8232" style="stroke:#181818;stroke-width:1.0;" width="10" x="733" y="464.5317"/><polygon fill="#181818" points="249,155.782,259,159.782,249,163.782,253,159.782" style="stroke:#181818;stroke-width:1.0;"/><line style="stroke:#181818;stroke-width:1.0;" x1="0" x2="255" y1="159.782" y2="159.782"/><text fill="#000000" font-family="sans-serif" font-size="13" lengthAdjust="spacing" textLength="242" x="7" y="154.5193">getInvalidCommand(inputLine: String[, ...])</text><path d="M276,112.2529 L276,191.2529 L542,191.2529 L542,122.2529 L532,112.2529 L276,112.2529 " fill="#FEFFDD" style="stroke:#181818;stroke-width:0.5;"/><path d="M532,112.2529 L532,122.2529 L542,122.2529 L532,112.2529 " fill="#FEFFDD" style="stroke:#181818;stroke-width:0.5;"/><text fill="#000000" font-family="sans-serif" font-size="13" lengthAdjust="spacing" textLength="245" x="282" y="131.4019">getInvalidCommand method is called when</text><text fill="#000000" font-family="sans-serif" font-size="13" lengthAdjust="spacing" textLength="207" x="290" y="148.8135">1. input command fails matching, or</text><text fill="#000000" font-family="sans-serif" font-size="13" lengthAdjust="spacing" textLength="175" x="290" y="166.2251">2. command word is invalid, or</text><text fill="#000000" font-family="sans-serif" font-size="13" lengthAdjust="spacing" textLength="233" x="290" y="183.6367">3. any of command arguments is invalid.</text><polygon fill="#181818" points="427,216.311,437,220.311,427,224.311,431,220.311" style="stroke:#181818;stroke-width:1.0;"/><line style="stroke:#181818;stroke-width:1.0;" x1="271" x2="433" y1="220.311" y2="220.311"/><text fill="#000000" font-family="sans-serif" font-size="13" lengthAdjust="spacing" textLength="23" x="278" y="215.0483">new</text><rect fill="#E2E2F0" height="32.751" rx="2.5" ry="2.5" style="stroke:#181818;stroke-width:0.5;" width="126" x="439" y="202.4355"/><text fill="#000000" font-family="sans-serif" font-size="14" lengthAdjust="spacing" textLength="112" x="446" y="224.6729">: InvalidCommand</text><path d="M32,201.8994 L32,245.8994 L256,245.8994 L256,211.8994 L246,201.8994 L32,201.8994 " fill="#FEFFDD" style="stroke:#181818;stroke-width:0.5;"/><path d="M246,201.8994 L246,211.8994 L256,211.8994 L246,201.8994 " fill="#FEFFDD" style="stroke:#181818;stroke-width:0.5;"/><text fill="#000000" font-family="sans-serif" font-size="13" lengthAdjust="spacing" textLength="189" x="38" y="221.0483">Construct InvalidCommand using</text><text fill="#000000" font-family="sans-serif" font-size="13" lengthAdjust="spacing" textLength="203" x="38" y="238.46">user input and exception (optional).</text><polygon fill="#181818" points="282,271.1343,272,275.1343,282,279.1343,278,275.1343" style="stroke:#181818;stroke-width:1.0;"/><line style="stroke:#181818;stroke-width:1.0;stroke-dasharray:2.0,2.0;" x1="276" x2="501" y1="275.1343" y2="275.1343"/><text fill="#000000" font-family="sans-serif" font-size="13" lengthAdjust="spacing" textLength="102" x="288" y="269.8716">: InvalidCommand</text><polygon fill="#181818" points="485,305.5459,495,309.5459,485,313.5459,489,309.5459" style="stroke:#181818;stroke-width:1.0;"/><line style="stroke:#181818;stroke-width:1.0;" x1="271" x2="491" y1="309.5459" y2="309.5459"/><text fill="#000000" font-family="sans-serif" font-size="13" lengthAdjust="spacing" textLength="207" x="278" y="304.2832">.setArguments(inputLine: String, ...)</text><path d="M512,288.1343 L512,315.1343 L839,315.1343 L839,298.1343 L829,288.1343 L512,288.1343 " fill="#FEFFDD" style="stroke:#181818;stroke-width:0.5;"/><path d="M829,288.1343 L829,298.1343 L839,298.1343 L829,288.1343 " fill="#FEFFDD" style="stroke:#181818;stroke-width:0.5;"/><text fill="#000000" font-family="sans-serif" font-size="13" lengthAdjust="spacing" textLength="306" x="518" y="307.2832">Create HelpCommand instance to get help message.</text><polygon fill="#181818" points="669,339.9575,679,343.9575,669,347.9575,673,343.9575" style="stroke:#181818;stroke-width:1.0;"/><line style="stroke:#181818;stroke-width:1.0;" x1="507" x2="675" y1="343.9575" y2="343.9575"/><text fill="#000000" font-family="sans-serif" font-size="13" lengthAdjust="spacing" textLength="23" x="514" y="338.6948">new</text><rect fill="#E2E2F0" height="32.751" rx="2.5" ry="2.5" style="stroke:#181818;stroke-width:0.5;" width="114" x="681" y="320.5459"/><text fill="#000000" font-family="sans-serif" font-size="14" lengthAdjust="spacing" textLength="100" x="688" y="342.7832">: HelpCommand</text><polygon fill="#181818" points="518,383.7085,508,387.7085,518,391.7085,514,387.7085" style="stroke:#181818;stroke-width:1.0;"/><line style="stroke:#181818;stroke-width:1.0;stroke-dasharray:2.0,2.0;" x1="512" x2="737" y1="387.7085" y2="387.7085"/><text fill="#000000" font-family="sans-serif" font-size="13" lengthAdjust="spacing" textLength="93" x="524" y="382.4458">: HelpCommand</text><polygon fill="#181818" points="721,415.1201,731,419.1201,721,423.1201,725,419.1201" style="stroke:#181818;stroke-width:1.0;"/><line style="stroke:#181818;stroke-width:1.0;" x1="507" x2="727" y1="419.1201" y2="419.1201"/><text fill="#000000" font-family="sans-serif" font-size="13" lengthAdjust="spacing" textLength="207" x="514" y="413.8574">.setArguments(inputLine: String, ...)</text><polygon fill="#181818" points="518,429.1201,508,433.1201,518,437.1201,514,433.1201" style="stroke:#181818;stroke-width:1.0;"/><line style="stroke:#181818;stroke-width:1.0;stroke-dasharray:2.0,2.0;" x1="512" x2="737" y1="433.1201" y2="433.1201"/><polygon fill="#181818" points="721,460.5317,731,464.5317,721,468.5317,725,464.5317" style="stroke:#181818;stroke-width:1.0;"/><line style="stroke:#181818;stroke-width:1.0;" x1="507" x2="727" y1="464.5317" y2="464.5317"/><text fill="#000000" font-family="sans-serif" font-size="13" lengthAdjust="spacing" textLength="58" x="514" y="459.269">.execute()</text><polygon fill="#181818" points="518,512.355,508,516.355,518,520.355,514,516.355" style="stroke:#181818;stroke-width:1.0;"/><line style="stroke:#181818;stroke-width:1.0;stroke-dasharray:2.0,2.0;" x1="512" x2="737" y1="516.355" y2="516.355"/><text fill="#000000" font-family="sans-serif" font-size="13" lengthAdjust="spacing" textLength="104" x="524" y="511.0923">: CommandResult</text><path d="M309,477.5317 L309,539.5317 L492,539.5317 L492,487.5317 L482,477.5317 L309,477.5317 " fill="#FEFFDD" style="stroke:#181818;stroke-width:0.5;"/><path d="M482,477.5317 L482,487.5317 L492,487.5317 L482,477.5317 " fill="#FEFFDD" style="stroke:#181818;stroke-width:0.5;"/><text fill="#000000" font-family="sans-serif" font-size="13" lengthAdjust="spacing" textLength="157" x="315" y="496.6807">Use HelpCommand's result</text><text fill="#000000" font-family="sans-serif" font-size="13" lengthAdjust="spacing" textLength="138" x="315" y="514.0923">and exception message</text><text fill="#000000" font-family="sans-serif" font-size="13" lengthAdjust="spacing" textLength="162" x="315" y="531.5039">to make a feedback to user.</text><polygon fill="#181818" points="282,546.7666,272,550.7666,282,554.7666,278,550.7666" style="stroke:#181818;stroke-width:1.0;"/><line style="stroke:#181818;stroke-width:1.0;stroke-dasharray:2.0,2.0;" x1="276" x2="501" y1="550.7666" y2="550.7666"/><polygon fill="#181818" points="11,578.1782,1,582.1782,11,586.1782,7,582.1782" style="stroke:#181818;stroke-width:1.0;"/><line style="stroke:#181818;stroke-width:1.0;stroke-dasharray:2.0,2.0;" x1="5" x2="265" y1="582.1782" y2="582.1782"/><text fill="#000000" font-family="sans-serif" font-size="13" lengthAdjust="spacing" textLength="102" x="17" y="576.9155">: InvalidCommand</text><!--SRC=[ZL9DJ-Cm4BtxLuouq0gmjBkt7f0G5v3sW42SO0-3Cqqid77M7c_Xtw-TkcrI1EAKPFpo_3v6h3Y21_gRY0s1NyCj_qDdcslVzyZDCoirO11hx80iSBA2UdA78L8u0OmmZA_7k3dH2BHrr3V7u1jomnJPbUyCKqyNbvKVpivMq9BCUHUMXoI_BTCA7YHORf_EGMlzPwdO2u6ZjQWFVq5Fqla6R0I3pb43cuvO0VpGC1A2gS0rMXUXHp5TvZu77pBgfzwVRtmOQQgr2lYb0VcznBd3OMXJJonn0jQAyacHgPG9X5dkFA7YEli_3CSCc3O7RwKFZXAIaQF48SMi-9bJOTcQAbDwCpI8zGmBFpxHBRKA92am7BUcFbUX8ydLpjJ75iOIQWV1jbqHkhKugJfpHi6oUE9BjMFjkPiOiIMz3sMt31C5MK-TxYFPMvXSyCKltzE_9VsAXjx89A75yY2WNdvFCJcPhE5ZdBa_ZH2sa7alrR_AcVJuIe2m9cfUqBoMc4gTqyMf2Zzjy3y0]--></g></svg>