<?xml version="1.0" encoding="us-ascii" standalone="no"?><svg xmlns="http://www.w3.org/2000/svg" xmlns:xlink="http://www.w3.org/1999/xlink" contentStyleType="text/css" height="675px" preserveAspectRatio="none" style="width:881px;height:675px;background:#FFFFFF;" version="1.1" viewBox="0 0 881 675" width="881px" zoomAndPan="magnify"><defs/><g><text fill="#000000" font-family="sans-serif" font-size="14" font-weight="bold" lengthAdjust="spacing" textLength="209" x="332" y="30.2373">Sequence of InvalidCommand</text><text fill="#000000" font-family="sans-serif" font-size="14" font-weight="bold" lengthAdjust="spacing" textLength="4" x="434.5" y="48.9883">&#160;</text><rect fill="#FFFFFF" height="404.9846" style="stroke:#181818;stroke-width:1.0;" width="10" x="244" y="195.9446"/><rect fill="#FFFFFF" height="44.8232" style="stroke:#181818;stroke-width:1.0;" width="10" x="532" y="249.062"/><rect fill="#FFFFFF" height="241.2207" style="stroke:#181818;stroke-width:1.0;" width="10" x="532" y="328.2969"/><rect fill="#FFFFFF" height="33.751" style="stroke:#181818;stroke-width:1.0;" width="10" x="750" y="372.7085"/><rect fill="#FFFFFF" height="14" style="stroke:#181818;stroke-width:1.0;" width="10" x="750" y="437.8711"/><rect fill="#FFFFFF" height="51.8232" style="stroke:#181818;stroke-width:1.0;" width="10" x="750" y="483.2827"/><line style="stroke:#181818;stroke-width:0.5;stroke-dasharray:5.0,5.0;" x1="249" x2="249" y1="116.0039" y2="618.9292"/><line style="stroke:#181818;stroke-width:0.5;stroke-dasharray:5.0,5.0;" x1="537" x2="537" y1="253.062" y2="618.9292"/><line style="stroke:#181818;stroke-width:0.5;stroke-dasharray:5.0,5.0;" x1="755" x2="755" y1="371.1724" y2="618.9292"/><rect fill="#E2E2F0" height="51.502" rx="2.5" ry="2.5" style="stroke:#181818;stroke-width:0.5;" width="120" x="189" y="63.502"/><text fill="#000000" font-family="sans-serif" font-size="14" font-style="italic" lengthAdjust="spacing" textLength="48" x="225" y="85.7393">&#171;class&#187;</text><text fill="#000000" font-family="sans-serif" font-size="14" lengthAdjust="spacing" textLength="106" x="196" y="104.4902">CommandParser</text><rect fill="#E2E2F0" height="51.502" rx="2.5" ry="2.5" style="stroke:#181818;stroke-width:0.5;" width="120" x="189" y="617.9292"/><text fill="#000000" font-family="sans-serif" font-size="14" font-style="italic" lengthAdjust="spacing" textLength="48" x="225" y="640.1665">&#171;class&#187;</text><text fill="#000000" font-family="sans-serif" font-size="14" lengthAdjust="spacing" textLength="106" x="196" y="658.9175">CommandParser</text><rect fill="#E2E2F0" height="32.751" rx="2.5" ry="2.5" style="stroke:#181818;stroke-width:0.5;" width="126" x="474" y="617.9292"/><text fill="#000000" font-family="sans-serif" font-size="14" lengthAdjust="spacing" textLength="112" x="481" y="640.1665">: InvalidCommand</text><rect fill="#E2E2F0" height="32.751" rx="2.5" ry="2.5" style="stroke:#181818;stroke-width:0.5;" width="114" x="698" y="617.9292"/><text fill="#000000" font-family="sans-serif" font-size="14" lengthAdjust="spacing" textLength="100" x="705" y="640.1665">: HelpCommand</text><rect fill="#FFFFFF" height="404.9846" style="stroke:#181818;stroke-width:1.0;" width="10" x="244" y="195.9446"/><rect fill="#FFFFFF" height="44.8232" style="stroke:#181818;stroke-width:1.0;" width="10" x="532" y="249.062"/><rect fill="#FFFFFF" height="241.2207" style="stroke:#181818;stroke-width:1.0;" width="10" x="532" y="328.2969"/><rect fill="#FFFFFF" height="33.751" style="stroke:#181818;stroke-width:1.0;" width="10" x="750" y="372.7085"/><rect fill="#FFFFFF" height="14" style="stroke:#181818;stroke-width:1.0;" width="10" x="750" y="437.8711"/><rect fill="#FFFFFF" height="51.8232" style="stroke:#181818;stroke-width:1.0;" width="10" x="750" y="483.2827"/><polygon fill="#181818" points="232,191.9446,242,195.9446,232,199.9446,236,195.9446" style="stroke:#181818;stroke-width:1.0;"/><line style="stroke:#181818;stroke-width:1.0;" x1="0" x2="238" y1="195.9446" y2="195.9446"/><text fill="#000000" font-family="sans-serif" font-size="13" lengthAdjust="spacing" textLength="217" x="7" y="155.8586">CommandParser.getInvalidCommand(</text><text fill="#000000" font-family="sans-serif" font-size="13" lengthAdjust="spacing" textLength="209" x="23" y="173.2703">inputLine: String, e: ParseException</text><text fill="#000000" font-family="sans-serif" font-size="13" lengthAdjust="spacing" textLength="4" x="7" y="190.6819">)</text><path d="M259,131.0039 L259,210.0039 L525,210.0039 L525,141.0039 L515,131.0039 L259,131.0039 " fill="#FEFFDD" style="stroke:#181818;stroke-width:0.5;"/><path d="M515,131.0039 L515,141.0039 L525,141.0039 L515,131.0039 " fill="#FEFFDD" style="stroke:#181818;stroke-width:0.5;"/><text fill="#000000" font-family="sans-serif" font-size="13" lengthAdjust="spacing" textLength="245" x="265" y="150.1528">getInvalidCommand method is called when</text><text fill="#000000" font-family="sans-serif" font-size="13" lengthAdjust="spacing" textLength="207" x="273" y="167.5645">1. input command fails matching, or</text><text fill="#000000" font-family="sans-serif" font-size="13" lengthAdjust="spacing" textLength="175" x="273" y="184.9761">2. command word is invalid, or</text><text fill="#000000" font-family="sans-serif" font-size="13" lengthAdjust="spacing" textLength="233" x="273" y="202.3877">3. any of command arguments is invalid.</text><polygon fill="#181818" points="462,235.062,472,239.062,462,243.062,466,239.062" style="stroke:#181818;stroke-width:1.0;"/><line style="stroke:#181818;stroke-width:1.0;" x1="254" x2="468" y1="239.062" y2="239.062"/><text fill="#000000" font-family="sans-serif" font-size="13" lengthAdjust="spacing" textLength="196" x="261" y="233.7993">new InvalidCommand(inputLine, e)</text><rect fill="#E2E2F0" height="32.751" rx="2.5" ry="2.5" style="stroke:#181818;stroke-width:0.5;" width="126" x="474" y="221.1865"/><text fill="#000000" font-family="sans-serif" font-size="14" lengthAdjust="spacing" textLength="112" x="481" y="243.4238">: InvalidCommand</text><path d="M15,220.6504 L15,264.6504 L239,264.6504 L239,230.6504 L229,220.6504 L15,220.6504 " fill="#FEFFDD" style="stroke:#181818;stroke-width:0.5;"/><path d="M229,220.6504 L229,230.6504 L239,230.6504 L229,220.6504 " fill="#FEFFDD" style="stroke:#181818;stroke-width:0.5;"/><text fill="#000000" font-family="sans-serif" font-size="13" lengthAdjust="spacing" textLength="189" x="21" y="239.7993">Construct InvalidCommand using</text><text fill="#000000" font-family="sans-serif" font-size="13" lengthAdjust="spacing" textLength="203" x="21" y="257.2109">user input and exception (optional).</text><polygon fill="#181818" points="265,289.8853,255,293.8853,265,297.8853,261,293.8853" style="stroke:#181818;stroke-width:1.0;"/><line style="stroke:#181818;stroke-width:1.0;stroke-dasharray:2.0,2.0;" x1="259" x2="536" y1="293.8853" y2="293.8853"/><text fill="#000000" font-family="sans-serif" font-size="13" lengthAdjust="spacing" textLength="102" x="271" y="288.6226">: InvalidCommand</text><polygon fill="#181818" points="520,324.2969,530,328.2969,520,332.2969,524,328.2969" style="stroke:#181818;stroke-width:1.0;"/><line style="stroke:#181818;stroke-width:1.0;" x1="254" x2="526" y1="328.2969" y2="328.2969"/><text fill="#000000" font-family="sans-serif" font-size="13" lengthAdjust="spacing" textLength="187" x="261" y="323.0342">.setArguments(inputLine: String)</text><path d="M547,306.8853 L547,333.8853 L874,333.8853 L874,316.8853 L864,306.8853 L547,306.8853 " fill="#FEFFDD" style="stroke:#181818;stroke-width:0.5;"/><path d="M864,306.8853 L864,316.8853 L874,316.8853 L864,306.8853 " fill="#FEFFDD" style="stroke:#181818;stroke-width:0.5;"/><text fill="#000000" font-family="sans-serif" font-size="13" lengthAdjust="spacing" textLength="306" x="553" y="326.0342">Create HelpCommand instance to get help message.</text><polygon fill="#181818" points="686,358.7085,696,362.7085,686,366.7085,690,362.7085" style="stroke:#181818;stroke-width:1.0;"/><line style="stroke:#181818;stroke-width:1.0;" x1="542" x2="692" y1="362.7085" y2="362.7085"/><text fill="#000000" font-family="sans-serif" font-size="13" lengthAdjust="spacing" textLength="132" x="549" y="357.4458">new HelpCommand(...)</text><rect fill="#E2E2F0" height="32.751" rx="2.5" ry="2.5" style="stroke:#181818;stroke-width:0.5;" width="114" x="698" y="339.2969"/><text fill="#000000" font-family="sans-serif" font-size="14" lengthAdjust="spacing" textLength="100" x="705" y="361.5342">: HelpCommand</text><polygon fill="#181818" points="553,402.4595,543,406.4595,553,410.4595,549,406.4595" style="stroke:#181818;stroke-width:1.0;"/><line style="stroke:#181818;stroke-width:1.0;stroke-dasharray:2.0,2.0;" x1="547" x2="754" y1="406.4595" y2="406.4595"/><text fill="#000000" font-family="sans-serif" font-size="13" lengthAdjust="spacing" textLength="93" x="559" y="401.1968">: HelpCommand</text><polygon fill="#181818" points="738,433.8711,748,437.8711,738,441.8711,742,437.8711" style="stroke:#181818;stroke-width:1.0;"/><line style="stroke:#181818;stroke-width:1.0;" x1="542" x2="744" y1="437.8711" y2="437.8711"/><text fill="#000000" font-family="sans-serif" font-size="13" lengthAdjust="spacing" textLength="187" x="549" y="432.6084">.setArguments(inputLine: String)</text><polygon fill="#181818" points="553,447.8711,543,451.8711,553,455.8711,549,451.8711" style="stroke:#181818;stroke-width:1.0;"/><line style="stroke:#181818;stroke-width:1.0;stroke-dasharray:2.0,2.0;" x1="547" x2="754" y1="451.8711" y2="451.8711"/><polygon fill="#181818" points="738,479.2827,748,483.2827,738,487.2827,742,483.2827" style="stroke:#181818;stroke-width:1.0;"/><line style="stroke:#181818;stroke-width:1.0;" x1="542" x2="744" y1="483.2827" y2="483.2827"/><text fill="#000000" font-family="sans-serif" font-size="13" lengthAdjust="spacing" textLength="58" x="549" y="478.02">.execute()</text><polygon fill="#181818" points="553,531.106,543,535.106,553,539.106,549,535.106" style="stroke:#181818;stroke-width:1.0;"/><line style="stroke:#181818;stroke-width:1.0;stroke-dasharray:2.0,2.0;" x1="547" x2="754" y1="535.106" y2="535.106"/><text fill="#000000" font-family="sans-serif" font-size="13" lengthAdjust="spacing" textLength="104" x="559" y="529.8433">: CommandResult</text><path d="M344,496.2827 L344,558.2827 L527,558.2827 L527,506.2827 L517,496.2827 L344,496.2827 " fill="#FEFFDD" style="stroke:#181818;stroke-width:0.5;"/><path d="M517,496.2827 L517,506.2827 L527,506.2827 L517,496.2827 " fill="#FEFFDD" style="stroke:#181818;stroke-width:0.5;"/><text fill="#000000" font-family="sans-serif" font-size="13" lengthAdjust="spacing" textLength="157" x="350" y="515.4316">Use HelpCommand's result</text><text fill="#000000" font-family="sans-serif" font-size="13" lengthAdjust="spacing" textLength="138" x="350" y="532.8433">and exception message</text><text fill="#000000" font-family="sans-serif" font-size="13" lengthAdjust="spacing" textLength="162" x="350" y="550.2549">to make a feedback to user.</text><polygon fill="#181818" points="265,565.5176,255,569.5176,265,573.5176,261,569.5176" style="stroke:#181818;stroke-width:1.0;"/><line style="stroke:#181818;stroke-width:1.0;stroke-dasharray:2.0,2.0;" x1="259" x2="536" y1="569.5176" y2="569.5176"/><polygon fill="#181818" points="11,596.9292,1,600.9292,11,604.9292,7,600.9292" style="stroke:#181818;stroke-width:1.0;"/><line style="stroke:#181818;stroke-width:1.0;stroke-dasharray:2.0,2.0;" x1="5" x2="248" y1="600.9292" y2="600.9292"/><text fill="#000000" font-family="sans-serif" font-size="13" lengthAdjust="spacing" textLength="102" x="17" y="595.6665">: InvalidCommand</text><!--SRC=[XLB1RjGm4BtxAqQza5MB4N1RhI9L20aa3eYA4xaOPpQnwao2FMRBtsCdtgsJgcqkISRFR-QzDspO8jpXdu2a4SOZVAM_ofhsqpWCYjg6X9YKOwFDf8ZXwc3gmq5RvNrT7zwPkg6C_AwSHtS5oiCqVwxlxJV4Cz3aqj1kmL_GJYMoJ_yH9dwzhJC_N5_lOTLSTiZhBbL341z3K-1lXd0FT-mCTJSGF-TBdnyqJcn6QcWdQ6G4YqSMJvXWGEx75em7hQp55auzaW1uBnTwq1buLCPw61JhVkuqkeZw82_dfz7DD5by1doKeEXV2k2CKwuB0nBx0Ym5nfCqfX3QeOhZhZrClaI77ekpIuIdZVtLnP9eHI4yEKgUNT2ykG71HpaDXTHYKPogUFOFgd5-AxkJmY47Hx0DNJm_elJ8jsV5rPF0yeZET7sQSP5UB4caywpI2lC8CRnvOM9ctgiEvSMiyneLpUCekNgngk2jf9IxHpd5oGiShsfP-5vYm0VKWR4gUkU-Fz07oyMg_lGh9zvuS0ja7K_sGaH_1dMFeE28sFvM-ZvPbb8jbojF-6oG_m40]--></g></svg>