<?xml version="1.0" encoding="us-ascii" standalone="no"?><svg xmlns="http://www.w3.org/2000/svg" xmlns:xlink="http://www.w3.org/1999/xlink" contentStyleType="text/css" height="1117px" preserveAspectRatio="none" style="width:1639px;height:1117px;background:#FFFFFF;" version="1.1" viewBox="0 0 1639 1117" width="1639px" zoomAndPan="magnify"><defs/><g><text fill="#000000" font-family="sans-serif" font-size="14" font-weight="bold" lengthAdjust="spacing" textLength="223" x="704.25" y="28.5352">Main Structure of Storage Load</text><text fill="#000000" font-family="sans-serif" font-size="14" font-weight="bold" lengthAdjust="spacing" textLength="5" x="813.25" y="45.0234">&#160;</text><rect fill="#FFFFFF" height="943.4297" style="stroke:#181818;stroke-width:1.0;" width="10" x="313.5" y="129.7754"/><rect fill="#FFFFFF" height="759.5215" style="stroke:#181818;stroke-width:1.0;" width="10" x="318.5" y="313.6836"/><rect fill="#FFFFFF" height="31.4883" style="stroke:#181818;stroke-width:1.0;" width="10" x="467.5" y="244.8848"/><rect fill="#FFFFFF" height="32.3105" style="stroke:#181818;stroke-width:1.0;" width="10" x="467.5" y="424.6152"/><rect fill="#FFFFFF" height="96.9316" style="stroke:#181818;stroke-width:1.0;" width="10" x="467.5" y="489.2363"/><rect fill="#FFFFFF" height="181.5527" style="stroke:#181818;stroke-width:1.0;" width="10" x="467.5" y="668.7891"/><rect fill="#FFFFFF" height="181.5527" style="stroke:#181818;stroke-width:1.0;" width="10" x="467.5" y="882.6523"/><rect fill="#FFFFFF" height="31.4883" style="stroke:#181818;stroke-width:1.0;" width="10" x="537.5" y="174.0859"/><rect fill="#FFFFFF" height="17" style="stroke:#181818;stroke-width:1.0;" width="10" x="537.5" y="350.9941"/><rect fill="#FFFFFF" height="14" style="stroke:#181818;stroke-width:1.0;" width="10" x="537.5" y="615.4785"/><rect fill="#FFFFFF" height="32.3105" style="stroke:#181818;stroke-width:1.0;" width="10" x="826.5" y="524.5469"/><rect fill="#FFFFFF" height="116.9316" style="stroke:#181818;stroke-width:1.0;" width="10" x="976.5" y="704.0996"/><rect fill="#FFFFFF" height="40.3105" style="stroke:#181818;stroke-width:1.0;" width="10" x="981.5" y="744.4102"/><rect fill="#FFFFFF" height="116.9316" style="stroke:#181818;stroke-width:1.0;" width="10" x="1285.5" y="917.9629"/><rect fill="#FFFFFF" height="40.3105" style="stroke:#181818;stroke-width:1.0;" width="10" x="1290.5" y="958.2734"/><rect fill="none" height="254.4844" style="stroke:#000000;stroke-width:1.5;" width="1166.5" x="9" y="382.9941"/><line style="stroke:#181818;stroke-width:0.5;stroke-dasharray:5.0,5.0;" x1="318" x2="318" y1="90.4648" y2="1082.2051"/><line style="stroke:#181818;stroke-width:0.5;stroke-dasharray:5.0,5.0;" x1="472" x2="472" y1="244.3184" y2="1082.2051"/><line style="stroke:#181818;stroke-width:0.5;stroke-dasharray:5.0,5.0;" x1="542" x2="542" y1="173.5195" y2="1082.2051"/><line style="stroke:#181818;stroke-width:0.5;stroke-dasharray:5.0,5.0;" x1="831.5" x2="831.5" y1="90.4648" y2="1082.2051"/><line style="stroke:#181818;stroke-width:0.5;stroke-dasharray:5.0,5.0;" x1="981.5" x2="981.5" y1="90.4648" y2="1082.2051"/><line style="stroke:#181818;stroke-width:0.5;stroke-dasharray:5.0,5.0;" x1="1290.5" x2="1290.5" y1="90.4648" y2="1082.2051"/><rect fill="#E2E2F0" height="30.4883" rx="2.5" ry="2.5" style="stroke:#181818;stroke-width:0.5;" width="73" x="282" y="58.9766"/><text fill="#000000" font-family="sans-serif" font-size="14" lengthAdjust="spacing" textLength="59" x="289" y="79.5117">:FitTrack</text><rect fill="#E2E2F0" height="30.4883" rx="2.5" ry="2.5" style="stroke:#181818;stroke-width:0.5;" width="73" x="282" y="1081.2051"/><text fill="#000000" font-family="sans-serif" font-size="14" lengthAdjust="spacing" textLength="59" x="289" y="1101.7402">:FitTrack</text><rect fill="#E2E2F0" height="30.4883" rx="2.5" ry="2.5" style="stroke:#181818;stroke-width:0.5;" width="71" x="437" y="1081.2051"/><text fill="#000000" font-family="sans-serif" font-size="14" lengthAdjust="spacing" textLength="57" x="444" y="1101.7402">:Storage</text><rect fill="#E2E2F0" height="30.4883" rx="2.5" ry="2.5" style="stroke:#181818;stroke-width:0.5;" width="49" x="518" y="1081.2051"/><text fill="#000000" font-family="sans-serif" font-size="14" lengthAdjust="spacing" textLength="35" x="525" y="1101.7402">ui: Ui</text><rect fill="#E2E2F0" height="30.4883" rx="2.5" ry="2.5" style="stroke:#181818;stroke-width:0.5;" width="150" x="756.5" y="58.9766"/><text fill="#000000" font-family="sans-serif" font-size="14" lengthAdjust="spacing" textLength="136" x="763.5" y="79.5117">:UserProfileDecoder</text><rect fill="#E2E2F0" height="30.4883" rx="2.5" ry="2.5" style="stroke:#181818;stroke-width:0.5;" width="150" x="756.5" y="1081.2051"/><text fill="#000000" font-family="sans-serif" font-size="14" lengthAdjust="spacing" textLength="136" x="763.5" y="1101.7402">:UserProfileDecoder</text><rect fill="#E2E2F0" height="30.4883" rx="2.5" ry="2.5" style="stroke:#181818;stroke-width:0.5;" width="130" x="916.5" y="58.9766"/><text fill="#000000" font-family="sans-serif" font-size="14" lengthAdjust="spacing" textLength="116" x="923.5" y="79.5117">:MealListDecoder</text><rect fill="#E2E2F0" height="30.4883" rx="2.5" ry="2.5" style="stroke:#181818;stroke-width:0.5;" width="130" x="916.5" y="1081.2051"/><text fill="#000000" font-family="sans-serif" font-size="14" lengthAdjust="spacing" textLength="116" x="923.5" y="1101.7402">:MealListDecoder</text><rect fill="#E2E2F0" height="30.4883" rx="2.5" ry="2.5" style="stroke:#181818;stroke-width:0.5;" width="156" x="1212.5" y="58.9766"/><text fill="#000000" font-family="sans-serif" font-size="14" lengthAdjust="spacing" textLength="142" x="1219.5" y="79.5117">:WorkoutListDecoder</text><rect fill="#E2E2F0" height="30.4883" rx="2.5" ry="2.5" style="stroke:#181818;stroke-width:0.5;" width="156" x="1212.5" y="1081.2051"/><text fill="#000000" font-family="sans-serif" font-size="14" lengthAdjust="spacing" textLength="142" x="1219.5" y="1101.7402">:WorkoutListDecoder</text><rect fill="#FFFFFF" height="943.4297" style="stroke:#181818;stroke-width:1.0;" width="10" x="313.5" y="129.7754"/><rect fill="#FFFFFF" height="759.5215" style="stroke:#181818;stroke-width:1.0;" width="10" x="318.5" y="313.6836"/><rect fill="#FFFFFF" height="31.4883" style="stroke:#181818;stroke-width:1.0;" width="10" x="467.5" y="244.8848"/><rect fill="#FFFFFF" height="32.3105" style="stroke:#181818;stroke-width:1.0;" width="10" x="467.5" y="424.6152"/><rect fill="#FFFFFF" height="96.9316" style="stroke:#181818;stroke-width:1.0;" width="10" x="467.5" y="489.2363"/><rect fill="#FFFFFF" height="181.5527" style="stroke:#181818;stroke-width:1.0;" width="10" x="467.5" y="668.7891"/><rect fill="#FFFFFF" height="181.5527" style="stroke:#181818;stroke-width:1.0;" width="10" x="467.5" y="882.6523"/><rect fill="#FFFFFF" height="31.4883" style="stroke:#181818;stroke-width:1.0;" width="10" x="537.5" y="174.0859"/><rect fill="#FFFFFF" height="17" style="stroke:#181818;stroke-width:1.0;" width="10" x="537.5" y="350.9941"/><rect fill="#FFFFFF" height="14" style="stroke:#181818;stroke-width:1.0;" width="10" x="537.5" y="615.4785"/><rect fill="#FFFFFF" height="32.3105" style="stroke:#181818;stroke-width:1.0;" width="10" x="826.5" y="524.5469"/><rect fill="#FFFFFF" height="116.9316" style="stroke:#181818;stroke-width:1.0;" width="10" x="976.5" y="704.0996"/><rect fill="#FFFFFF" height="40.3105" style="stroke:#181818;stroke-width:1.0;" width="10" x="981.5" y="744.4102"/><rect fill="#FFFFFF" height="116.9316" style="stroke:#181818;stroke-width:1.0;" width="10" x="1285.5" y="917.9629"/><rect fill="#FFFFFF" height="40.3105" style="stroke:#181818;stroke-width:1.0;" width="10" x="1290.5" y="958.2734"/><line style="stroke:#181818;stroke-width:1.0;" x1="318.5" x2="365.5" y1="116.7754" y2="116.7754"/><line style="stroke:#181818;stroke-width:1.0;" x1="365.5" x2="365.5" y1="116.7754" y2="129.7754"/><line style="stroke:#181818;stroke-width:1.0;" x1="324.5" x2="365.5" y1="129.7754" y2="129.7754"/><polygon fill="#181818" points="334.5,125.7754,324.5,129.7754,334.5,133.7754,330.5,129.7754" style="stroke:#181818;stroke-width:1.0;"/><text fill="#000000" font-family="sans-serif" font-size="13" lengthAdjust="spacing" textLength="59" x="330.5" y="112.0332">FitTrack()</text><polygon fill="#181818" points="506,160.0859,516,164.0859,506,168.0859,510,164.0859" style="stroke:#181818;stroke-width:1.0;"/><line style="stroke:#181818;stroke-width:1.0;" x1="323.5" x2="512" y1="164.0859" y2="164.0859"/><text fill="#000000" font-family="sans-serif" font-size="13" lengthAdjust="spacing" textLength="25" x="330.5" y="159.3438">new</text><rect fill="#E2E2F0" height="30.4883" rx="2.5" ry="2.5" style="stroke:#181818;stroke-width:0.5;" width="49" x="518" y="142.7754"/><text fill="#000000" font-family="sans-serif" font-size="14" lengthAdjust="spacing" textLength="35" x="525" y="163.3105">ui: Ui</text><path d="M188,150.8643 L188,175.8643 L308,175.8643 L308,160.8643 L298,150.8643 L188,150.8643 " fill="#FEFFDD" style="stroke:#181818;stroke-width:0.5;"/><path d="M298,150.8643 L298,160.8643 L308,160.8643 L298,150.8643 " fill="#FEFFDD" style="stroke:#181818;stroke-width:0.5;"/><text fill="#000000" font-family="sans-serif" font-size="13" lengthAdjust="spacing" textLength="99" x="194" y="168.4326">Create ui object</text><polygon fill="#181818" points="334.5,201.5742,324.5,205.5742,334.5,209.5742,330.5,205.5742" style="stroke:#181818;stroke-width:1.0;"/><line style="stroke:#181818;stroke-width:1.0;stroke-dasharray:2.0,2.0;" x1="328.5" x2="541.5" y1="205.5742" y2="205.5742"/><text fill="#000000" font-family="sans-serif" font-size="13" lengthAdjust="spacing" textLength="16" x="340.5" y="200.832">:ui</text><polygon fill="#181818" points="425,230.8848,435,234.8848,425,238.8848,429,234.8848" style="stroke:#181818;stroke-width:1.0;"/><line style="stroke:#181818;stroke-width:1.0;" x1="323.5" x2="431" y1="234.8848" y2="234.8848"/><text fill="#000000" font-family="sans-serif" font-size="13" lengthAdjust="spacing" textLength="25" x="330.5" y="230.1426">new</text><rect fill="#E2E2F0" height="30.4883" rx="2.5" ry="2.5" style="stroke:#181818;stroke-width:0.5;" width="71" x="437" y="213.5742"/><text fill="#000000" font-family="sans-serif" font-size="14" lengthAdjust="spacing" textLength="57" x="444" y="234.1094">:Storage</text><path d="M153,221.6631 L153,246.6631 L308,246.6631 L308,231.6631 L298,221.6631 L153,221.6631 " fill="#FEFFDD" style="stroke:#181818;stroke-width:0.5;"/><path d="M298,221.6631 L298,231.6631 L308,231.6631 L298,221.6631 " fill="#FEFFDD" style="stroke:#181818;stroke-width:0.5;"/><text fill="#000000" font-family="sans-serif" font-size="13" lengthAdjust="spacing" textLength="134" x="159" y="239.2314">Create storage object</text><polygon fill="#181818" points="334.5,272.373,324.5,276.373,334.5,280.373,330.5,276.373" style="stroke:#181818;stroke-width:1.0;"/><line style="stroke:#181818;stroke-width:1.0;stroke-dasharray:2.0,2.0;" x1="328.5" x2="471.5" y1="276.373" y2="276.373"/><text fill="#000000" font-family="sans-serif" font-size="13" lengthAdjust="spacing" textLength="51" x="340.5" y="271.6309">:storage</text><line style="stroke:#181818;stroke-width:1.0;" x1="323.5" x2="370.5" y1="300.6836" y2="300.6836"/><line style="stroke:#181818;stroke-width:1.0;" x1="370.5" x2="370.5" y1="300.6836" y2="313.6836"/><line style="stroke:#181818;stroke-width:1.0;" x1="329.5" x2="370.5" y1="313.6836" y2="313.6836"/><polygon fill="#181818" points="339.5,309.6836,329.5,313.6836,339.5,317.6836,335.5,313.6836" style="stroke:#181818;stroke-width:1.0;"/><text fill="#000000" font-family="sans-serif" font-size="13" lengthAdjust="spacing" textLength="37" x="335.5" y="295.9414">start()</text><polygon fill="#181818" points="525.5,346.9941,535.5,350.9941,525.5,354.9941,529.5,350.9941" style="stroke:#181818;stroke-width:1.0;"/><line style="stroke:#181818;stroke-width:1.0;" x1="328.5" x2="531.5" y1="350.9941" y2="350.9941"/><text fill="#000000" font-family="sans-serif" font-size="13" lengthAdjust="spacing" textLength="110" x="335.5" y="346.252">ui.printWelcome()</text><path d="M552,331.6836 L552,356.6836 L776,356.6836 L776,341.6836 L766,331.6836 L552,331.6836 " fill="#FEFFDD" style="stroke:#181818;stroke-width:0.5;"/><path d="M766,331.6836 L766,341.6836 L776,341.6836 L766,331.6836 " fill="#FEFFDD" style="stroke:#181818;stroke-width:0.5;"/><text fill="#000000" font-family="sans-serif" font-size="13" lengthAdjust="spacing" textLength="203" x="558" y="349.252">prints welcome message to user</text><polygon fill="#181818" points="339.5,363.9941,329.5,367.9941,339.5,371.9941,335.5,367.9941" style="stroke:#181818;stroke-width:1.0;"/><line style="stroke:#181818;stroke-width:1.0;stroke-dasharray:2.0,2.0;" x1="333.5" x2="541.5" y1="367.9941" y2="367.9941"/><path d="M9,382.9941 L80,382.9941 L80,390.3047 L70,400.3047 L9,400.3047 L9,382.9941 " fill="#EEEEEE" style="stroke:#000000;stroke-width:1.5;"/><rect fill="none" height="254.4844" style="stroke:#000000;stroke-width:1.5;" width="1166.5" x="9" y="382.9941"/><text fill="#000000" font-family="sans-serif" font-size="13" font-weight="bold" lengthAdjust="spacing" textLength="22" x="24" y="396.5625">opt</text><text fill="#000000" font-family="sans-serif" font-size="11" font-weight="bold" lengthAdjust="spacing" textLength="158" x="95" y="395.6289">[!storage.isProfileFileEmpty]</text><polygon fill="#181818" points="455.5,420.6152,465.5,424.6152,455.5,428.6152,459.5,424.6152" style="stroke:#181818;stroke-width:1.0;"/><line style="stroke:#181818;stroke-width:1.0;" x1="328.5" x2="461.5" y1="424.6152" y2="424.6152"/><text fill="#000000" font-family="sans-serif" font-size="13" lengthAdjust="spacing" textLength="120" x="335.5" y="419.873">isProfileFileEmpty()</text><path d="M482,405.3047 L482,430.3047 L762,430.3047 L762,415.3047 L752,405.3047 L482,405.3047 " fill="#FEFFDD" style="stroke:#181818;stroke-width:0.5;"/><path d="M752,405.3047 L752,415.3047 L762,415.3047 L752,405.3047 " fill="#FEFFDD" style="stroke:#181818;stroke-width:0.5;"/><text fill="#000000" font-family="sans-serif" font-size="13" lengthAdjust="spacing" textLength="259" x="488" y="422.873">checks for profile data from previous run</text><polygon fill="#181818" points="339.5,452.9258,329.5,456.9258,339.5,460.9258,335.5,456.9258" style="stroke:#181818;stroke-width:1.0;"/><line style="stroke:#181818;stroke-width:1.0;stroke-dasharray:2.0,2.0;" x1="333.5" x2="471.5" y1="456.9258" y2="456.9258"/><text fill="#000000" font-family="sans-serif" font-size="13" lengthAdjust="spacing" textLength="54" x="345.5" y="452.1836">:boolean</text><polygon fill="#181818" points="455.5,485.2363,465.5,489.2363,455.5,493.2363,459.5,489.2363" style="stroke:#181818;stroke-width:1.0;"/><line style="stroke:#181818;stroke-width:1.0;" x1="328.5" x2="461.5" y1="489.2363" y2="489.2363"/><text fill="#000000" font-family="sans-serif" font-size="13" lengthAdjust="spacing" textLength="79" x="335.5" y="484.4941">profileLoad()</text><path d="M19,469.9258 L19,494.9258 L308,494.9258 L308,479.9258 L298,469.9258 L19,469.9258 " fill="#FEFFDD" style="stroke:#181818;stroke-width:0.5;"/><path d="M298,469.9258 L298,479.9258 L308,479.9258 L298,469.9258 " fill="#FEFFDD" style="stroke:#181818;stroke-width:0.5;"/><text fill="#000000" font-family="sans-serif" font-size="13" lengthAdjust="spacing" textLength="268" x="25" y="487.4941">load file data in profile file into UserProfile</text><polygon fill="#181818" points="814.5,520.5469,824.5,524.5469,814.5,528.5469,818.5,524.5469" style="stroke:#181818;stroke-width:1.0;"/><line style="stroke:#181818;stroke-width:1.0;" x1="477.5" x2="820.5" y1="524.5469" y2="524.5469"/><text fill="#000000" font-family="sans-serif" font-size="13" lengthAdjust="spacing" textLength="330" x="484.5" y="519.8047">decodeUserProfile(encodedUserProfile: List&lt;String&gt;)</text><path d="M841,505.2363 L841,530.2363 L1165,530.2363 L1165,515.2363 L1155,505.2363 L841,505.2363 " fill="#FEFFDD" style="stroke:#181818;stroke-width:0.5;"/><path d="M1155,505.2363 L1155,515.2363 L1165,515.2363 L1155,505.2363 " fill="#FEFFDD" style="stroke:#181818;stroke-width:0.5;"/><text fill="#000000" font-family="sans-serif" font-size="13" lengthAdjust="spacing" textLength="303" x="847" y="522.8047">decode the file contents and store in UserProfile</text><polygon fill="#181818" points="488.5,552.8574,478.5,556.8574,488.5,560.8574,484.5,556.8574" style="stroke:#181818;stroke-width:1.0;"/><line style="stroke:#181818;stroke-width:1.0;stroke-dasharray:2.0,2.0;" x1="482.5" x2="830.5" y1="556.8574" y2="556.8574"/><text fill="#000000" font-family="sans-serif" font-size="13" lengthAdjust="spacing" textLength="72" x="494.5" y="552.1152">:UserProfile</text><polygon fill="#181818" points="339.5,582.168,329.5,586.168,339.5,590.168,335.5,586.168" style="stroke:#181818;stroke-width:1.0;"/><line style="stroke:#181818;stroke-width:1.0;stroke-dasharray:2.0,2.0;" x1="333.5" x2="471.5" y1="586.168" y2="586.168"/><text fill="#000000" font-family="sans-serif" font-size="13" lengthAdjust="spacing" textLength="72" x="345.5" y="581.4258">:UserProfile</text><polygon fill="#181818" points="525.5,611.4785,535.5,615.4785,525.5,619.4785,529.5,615.4785" style="stroke:#181818;stroke-width:1.0;"/><line style="stroke:#181818;stroke-width:1.0;" x1="328.5" x2="531.5" y1="615.4785" y2="615.4785"/><text fill="#000000" font-family="sans-serif" font-size="13" lengthAdjust="spacing" textLength="83" x="335.5" y="610.7363">printPrompt()</text><polygon fill="#181818" points="339.5,625.4785,329.5,629.4785,339.5,633.4785,335.5,629.4785" style="stroke:#181818;stroke-width:1.0;"/><line style="stroke:#181818;stroke-width:1.0;stroke-dasharray:2.0,2.0;" x1="333.5" x2="541.5" y1="629.4785" y2="629.4785"/><polygon fill="#181818" points="455.5,664.7891,465.5,668.7891,455.5,672.7891,459.5,668.7891" style="stroke:#181818;stroke-width:1.0;"/><line style="stroke:#181818;stroke-width:1.0;" x1="328.5" x2="461.5" y1="668.7891" y2="668.7891"/><text fill="#000000" font-family="sans-serif" font-size="13" lengthAdjust="spacing" textLength="68" x="335.5" y="664.0469">mealLoad()</text><path d="M105,649.4785 L105,674.4785 L308,674.4785 L308,659.4785 L298,649.4785 L105,649.4785 " fill="#FEFFDD" style="stroke:#181818;stroke-width:0.5;"/><path d="M298,649.4785 L298,659.4785 L308,659.4785 L298,649.4785 " fill="#FEFFDD" style="stroke:#181818;stroke-width:0.5;"/><text fill="#000000" font-family="sans-serif" font-size="13" lengthAdjust="spacing" textLength="182" x="111" y="667.0469">load meals in file to mealList</text><polygon fill="#181818" points="964.5,700.0996,974.5,704.0996,964.5,708.0996,968.5,704.0996" style="stroke:#181818;stroke-width:1.0;"/><line style="stroke:#181818;stroke-width:1.0;" x1="477.5" x2="970.5" y1="704.0996" y2="704.0996"/><text fill="#000000" font-family="sans-serif" font-size="13" lengthAdjust="spacing" textLength="298" x="484.5" y="699.3574">decodeMealList(encodedMealList: List&lt;String&gt;)</text><path d="M991,684.7891 L991,709.7891 L1299,709.7891 L1299,694.7891 L1289,684.7891 L991,684.7891 " fill="#FEFFDD" style="stroke:#181818;stroke-width:0.5;"/><path d="M1289,684.7891 L1289,694.7891 L1299,694.7891 L1289,684.7891 " fill="#FEFFDD" style="stroke:#181818;stroke-width:0.5;"/><text fill="#000000" font-family="sans-serif" font-size="13" lengthAdjust="spacing" textLength="287" x="997" y="702.3574">decode the file contents and store in MealList</text><line style="stroke:#181818;stroke-width:1.0;" x1="986.5" x2="1033.5" y1="731.4102" y2="731.4102"/><line style="stroke:#181818;stroke-width:1.0;" x1="1033.5" x2="1033.5" y1="731.4102" y2="744.4102"/><line style="stroke:#181818;stroke-width:1.0;" x1="992.5" x2="1033.5" y1="744.4102" y2="744.4102"/><polygon fill="#181818" points="1002.5,740.4102,992.5,744.4102,1002.5,748.4102,998.5,744.4102" style="stroke:#181818;stroke-width:1.0;"/><text fill="#000000" font-family="sans-serif" font-size="13" lengthAdjust="spacing" textLength="285" x="998.5" y="726.668">decodeMealsFromString(encodedMeal: String)</text><line style="stroke:#181818;stroke-width:1.0;stroke-dasharray:2.0,2.0;" x1="991.5" x2="1033.5" y1="783.7207" y2="783.7207"/><line style="stroke:#181818;stroke-width:1.0;stroke-dasharray:2.0,2.0;" x1="1033.5" x2="1033.5" y1="783.7207" y2="796.7207"/><line style="stroke:#181818;stroke-width:1.0;stroke-dasharray:2.0,2.0;" x1="986.5" x2="1033.5" y1="796.7207" y2="796.7207"/><polygon fill="#181818" points="996.5,792.7207,986.5,796.7207,996.5,800.7207,992.5,796.7207" style="stroke:#181818;stroke-width:1.0;"/><text fill="#000000" font-family="sans-serif" font-size="13" lengthAdjust="spacing" textLength="33" x="998.5" y="778.9785">:Meal</text><polygon fill="#181818" points="488.5,817.0313,478.5,821.0313,488.5,825.0313,484.5,821.0313" style="stroke:#181818;stroke-width:1.0;"/><line style="stroke:#181818;stroke-width:1.0;stroke-dasharray:2.0,2.0;" x1="482.5" x2="980.5" y1="821.0313" y2="821.0313"/><text fill="#000000" font-family="sans-serif" font-size="13" lengthAdjust="spacing" textLength="56" x="494.5" y="816.2891">:MealList</text><polygon fill="#181818" points="339.5,846.3418,329.5,850.3418,339.5,854.3418,335.5,850.3418" style="stroke:#181818;stroke-width:1.0;"/><line style="stroke:#181818;stroke-width:1.0;stroke-dasharray:2.0,2.0;" x1="333.5" x2="471.5" y1="850.3418" y2="850.3418"/><text fill="#000000" font-family="sans-serif" font-size="13" lengthAdjust="spacing" textLength="56" x="345.5" y="845.5996">:MealList</text><polygon fill="#181818" points="455.5,878.6523,465.5,882.6523,455.5,886.6523,459.5,882.6523" style="stroke:#181818;stroke-width:1.0;"/><line style="stroke:#181818;stroke-width:1.0;" x1="328.5" x2="461.5" y1="882.6523" y2="882.6523"/><text fill="#000000" font-family="sans-serif" font-size="13" lengthAdjust="spacing" textLength="90" x="335.5" y="877.9102">workoutLoad()</text><path d="M61,863.3418 L61,888.3418 L308,888.3418 L308,873.3418 L298,863.3418 L61,863.3418 " fill="#FEFFDD" style="stroke:#181818;stroke-width:0.5;"/><path d="M298,863.3418 L298,873.3418 L308,873.3418 L298,863.3418 " fill="#FEFFDD" style="stroke:#181818;stroke-width:0.5;"/><text fill="#000000" font-family="sans-serif" font-size="13" lengthAdjust="spacing" textLength="226" x="67" y="880.9102">load workouts in file to workoutList</text><polygon fill="#181818" points="1273.5,913.9629,1283.5,917.9629,1273.5,921.9629,1277.5,917.9629" style="stroke:#181818;stroke-width:1.0;"/><line style="stroke:#181818;stroke-width:1.0;" x1="477.5" x2="1279.5" y1="917.9629" y2="917.9629"/><text fill="#000000" font-family="sans-serif" font-size="13" lengthAdjust="spacing" textLength="346" x="484.5" y="913.2207">decodeWorkoutList(encodedWorkoutList: List&lt;String&gt;)</text><path d="M1300,898.6523 L1300,923.6523 L1632,923.6523 L1632,908.6523 L1622,898.6523 L1300,898.6523 " fill="#FEFFDD" style="stroke:#181818;stroke-width:0.5;"/><path d="M1622,898.6523 L1622,908.6523 L1632,908.6523 L1622,898.6523 " fill="#FEFFDD" style="stroke:#181818;stroke-width:0.5;"/><text fill="#000000" font-family="sans-serif" font-size="13" lengthAdjust="spacing" textLength="311" x="1306" y="916.2207">decode the file contents and store in WorkoutList</text><line style="stroke:#181818;stroke-width:1.0;" x1="1295.5" x2="1342.5" y1="945.2734" y2="945.2734"/><line style="stroke:#181818;stroke-width:1.0;" x1="1342.5" x2="1342.5" y1="945.2734" y2="958.2734"/><line style="stroke:#181818;stroke-width:1.0;" x1="1301.5" x2="1342.5" y1="958.2734" y2="958.2734"/><polygon fill="#181818" points="1311.5,954.2734,1301.5,958.2734,1311.5,962.2734,1307.5,958.2734" style="stroke:#181818;stroke-width:1.0;"/><text fill="#000000" font-family="sans-serif" font-size="13" lengthAdjust="spacing" textLength="309" x="1307.5" y="940.5313">decodeMealsFromString(encodedWorkout: String)</text><line style="stroke:#181818;stroke-width:1.0;stroke-dasharray:2.0,2.0;" x1="1300.5" x2="1342.5" y1="997.584" y2="997.584"/><line style="stroke:#181818;stroke-width:1.0;stroke-dasharray:2.0,2.0;" x1="1342.5" x2="1342.5" y1="997.584" y2="1010.584"/><line style="stroke:#181818;stroke-width:1.0;stroke-dasharray:2.0,2.0;" x1="1295.5" x2="1342.5" y1="1010.584" y2="1010.584"/><polygon fill="#181818" points="1305.5,1006.584,1295.5,1010.584,1305.5,1014.584,1301.5,1010.584" style="stroke:#181818;stroke-width:1.0;"/><text fill="#000000" font-family="sans-serif" font-size="13" lengthAdjust="spacing" textLength="57" x="1307.5" y="992.8418">:Workout</text><polygon fill="#181818" points="488.5,1030.8945,478.5,1034.8945,488.5,1038.8945,484.5,1034.8945" style="stroke:#181818;stroke-width:1.0;"/><line style="stroke:#181818;stroke-width:1.0;stroke-dasharray:2.0,2.0;" x1="482.5" x2="1289.5" y1="1034.8945" y2="1034.8945"/><text fill="#000000" font-family="sans-serif" font-size="13" lengthAdjust="spacing" textLength="80" x="494.5" y="1030.1523">:WorkoutList</text><polygon fill="#181818" points="339.5,1060.2051,329.5,1064.2051,339.5,1068.2051,335.5,1064.2051" style="stroke:#181818;stroke-width:1.0;"/><line style="stroke:#181818;stroke-width:1.0;stroke-dasharray:2.0,2.0;" x1="333.5" x2="471.5" y1="1064.2051" y2="1064.2051"/><text fill="#000000" font-family="sans-serif" font-size="13" lengthAdjust="spacing" textLength="80" x="345.5" y="1059.4629">:WorkoutList</text><!--SRC=[fLHDJzmm4BtxLqmvWL3v0L75fUsUG4AYY4FRWt4ck-ucdiWVZVhlEtPiS985KNMbhEAPvtbldiVnslS8jr8RkFSsA1yi0dMy82lt23Sasnz6Y55QhvKUfV5mrkoq_sQbEfw1T33mvbK-xqvfDxyl4K4tyA1JFkZLvWU7zivIftlyWefQj0atviKAVOkolz7Erz3XDFIHx962NwEdWXQn4_XudJg2oyi6If_d5q8eYz9Zb1lJZ0ewOGnEmX1dUkny0vyB3EZf5oelBBAd1XhUM6eKImfVNhzHhY1MDKkXhNBdkNMMNH9PRD1NezN6FsAlQ40692whzmScIoasP4x2WCv5KayG-4mogn1xIs446Zry_v0LN6cNZsp7pzTXz7z-2k3VgHQtMDOHmRKMTK1rTD2HPLa93Qtq4ZfB0qVmjwRWm0QJTXP3deXwbApnDUvSAuvrJJgRtNCKNgXuTw5EVsmEGJMTQNifpZnbGXDHczuhz3cQ66chK0Dn5Z_nnTDcVxtrOAu1_f05A38Uumb9qoRYg6cZg7ZndlZ2fpmZQGeOm0UJBSe7ZwOL9sTsY7TmTdJjPaovg38rmFuD-RwAohXXQrovriMribvRzkzsbKhYcVLr1Mx7DinSjP06vjZ5yqMCqSKYCMm29zsRycVfj84vk_1mUlcGrJPEsoQgJrvfe0hzlvbLCJ5LVaxlzZDNs5gQ4-lrmjWwzXS0]--></g></svg>