<?xml version="1.0" encoding="us-ascii" standalone="no"?><svg xmlns="http://www.w3.org/2000/svg" xmlns:xlink="http://www.w3.org/1999/xlink" contentStyleType="text/css" height="824px" preserveAspectRatio="none" style="width:1175px;height:824px;background:#FFFFFF;" version="1.1" viewBox="0 0 1175 824" width="1175px" zoomAndPan="magnify"><defs/><g><text fill="#000000" font-family="sans-serif" font-size="14" font-weight="bold" lengthAdjust="spacing" textLength="221" x="478.75" y="28.5352">Main Structure of Storage Save</text><text fill="#000000" font-family="sans-serif" font-size="14" font-weight="bold" lengthAdjust="spacing" textLength="5" x="586.75" y="45.0234">&#160;</text><rect fill="#FFFFFF" height="674.3467" style="stroke:#181818;stroke-width:1.0;" width="10" x="245.5" y="133.9307"/><rect fill="#9D0012" height="674.3467" style="stroke:#181818;stroke-width:1.0;" width="10" x="245.5" y="133.9307"/><rect fill="#FFFFFF" height="626.8809" style="stroke:#181818;stroke-width:1.0;" width="10" x="734.5" y="172.3965"/><rect fill="#A38300" height="626.8809" style="stroke:#181818;stroke-width:1.0;" width="10" x="734.5" y="172.3965"/><rect fill="#FFFFFF" height="139.1094" style="stroke:#181818;stroke-width:1.0;" width="10" x="744.5" y="209.707"/><rect fill="#A38300" height="139.1094" style="stroke:#181818;stroke-width:1.0;" width="10" x="744.5" y="209.707"/><rect fill="#FFFFFF" height="170.4199" style="stroke:#181818;stroke-width:1.0;" width="10" x="744.5" y="393.127"/><rect fill="#A38300" height="170.4199" style="stroke:#181818;stroke-width:1.0;" width="10" x="744.5" y="393.127"/><rect fill="#FFFFFF" height="170.4199" style="stroke:#181818;stroke-width:1.0;" width="10" x="744.5" y="607.8574"/><rect fill="#A38300" height="170.4199" style="stroke:#181818;stroke-width:1.0;" width="10" x="744.5" y="607.8574"/><rect fill="#FFFFFF" height="31.4883" style="stroke:#181818;stroke-width:1.0;" width="10" x="1103" y="254.0176"/><rect fill="#FFFFFF" height="14" style="stroke:#181818;stroke-width:1.0;" width="10" x="1103" y="314.8164"/><rect fill="#FFFFFF" height="31.4883" style="stroke:#181818;stroke-width:1.0;" width="10" x="1103" y="437.4375"/><rect fill="#FFFFFF" height="14" style="stroke:#181818;stroke-width:1.0;" width="10" x="1103" y="522.5469"/><rect fill="#FFFFFF" height="31.4883" style="stroke:#181818;stroke-width:1.0;" width="10" x="1103" y="652.168"/><rect fill="#FFFFFF" height="14" style="stroke:#181818;stroke-width:1.0;" width="10" x="1103" y="737.2773"/><rect fill="none" height="60.6211" style="stroke:#000000;stroke-width:1.5;" width="490.5" x="679" y="483.9258"/><rect fill="none" height="60.6211" style="stroke:#000000;stroke-width:1.5;" width="490.5" x="679" y="698.6563"/><line style="stroke:#181818;stroke-width:0.5;stroke-dasharray:5.0,5.0;" x1="245" x2="245" y1="90.4648" y2="817.2773"/><line style="stroke:#181818;stroke-width:0.5;stroke-dasharray:5.0,5.0;" x1="734" x2="734" y1="90.4648" y2="817.2773"/><line style="stroke:#181818;stroke-width:0.5;stroke-dasharray:5.0,5.0;" x1="1107.5" x2="1107.5" y1="651.6016" y2="817.2773"/><rect fill="#9D0012" height="30.4883" rx="2.5" ry="2.5" style="stroke:#181818;stroke-width:0.5;" width="73" x="209" y="58.9766"/><text fill="#FFFFFF" font-family="sans-serif" font-size="14" lengthAdjust="spacing" textLength="59" x="216" y="79.5117">:FitTrack</text><rect fill="#A38300" height="30.4883" rx="2.5" ry="2.5" style="stroke:#181818;stroke-width:0.5;" width="71" x="699" y="58.9766"/><text fill="#FFFFFF" font-family="sans-serif" font-size="14" lengthAdjust="spacing" textLength="57" x="706" y="79.5117">:Storage</text><rect fill="#FFFFFF" height="674.3467" style="stroke:#181818;stroke-width:1.0;" width="10" x="245.5" y="133.9307"/><rect fill="#9D0012" height="674.3467" style="stroke:#181818;stroke-width:1.0;" width="10" x="245.5" y="133.9307"/><rect fill="#FFFFFF" height="626.8809" style="stroke:#181818;stroke-width:1.0;" width="10" x="734.5" y="172.3965"/><rect fill="#A38300" height="626.8809" style="stroke:#181818;stroke-width:1.0;" width="10" x="734.5" y="172.3965"/><rect fill="#FFFFFF" height="139.1094" style="stroke:#181818;stroke-width:1.0;" width="10" x="744.5" y="209.707"/><rect fill="#A38300" height="139.1094" style="stroke:#181818;stroke-width:1.0;" width="10" x="744.5" y="209.707"/><rect fill="#FFFFFF" height="170.4199" style="stroke:#181818;stroke-width:1.0;" width="10" x="744.5" y="393.127"/><rect fill="#A38300" height="170.4199" style="stroke:#181818;stroke-width:1.0;" width="10" x="744.5" y="393.127"/><rect fill="#FFFFFF" height="170.4199" style="stroke:#181818;stroke-width:1.0;" width="10" x="744.5" y="607.8574"/><rect fill="#A38300" height="170.4199" style="stroke:#181818;stroke-width:1.0;" width="10" x="744.5" y="607.8574"/><rect fill="#FFFFFF" height="31.4883" style="stroke:#181818;stroke-width:1.0;" width="10" x="1103" y="254.0176"/><rect fill="#FFFFFF" height="14" style="stroke:#181818;stroke-width:1.0;" width="10" x="1103" y="314.8164"/><rect fill="#FFFFFF" height="31.4883" style="stroke:#181818;stroke-width:1.0;" width="10" x="1103" y="437.4375"/><rect fill="#FFFFFF" height="14" style="stroke:#181818;stroke-width:1.0;" width="10" x="1103" y="522.5469"/><rect fill="#FFFFFF" height="31.4883" style="stroke:#181818;stroke-width:1.0;" width="10" x="1103" y="652.168"/><rect fill="#FFFFFF" height="14" style="stroke:#181818;stroke-width:1.0;" width="10" x="1103" y="737.2773"/><line style="stroke:#181818;stroke-width:1.0;" x1="245.5" x2="292.5" y1="120.9307" y2="120.9307"/><line style="stroke:#181818;stroke-width:1.0;" x1="292.5" x2="292.5" y1="120.9307" y2="133.9307"/><line style="stroke:#181818;stroke-width:1.0;" x1="251.5" x2="292.5" y1="133.9307" y2="133.9307"/><polygon fill="#181818" points="261.5,129.9307,251.5,133.9307,261.5,137.9307,257.5,133.9307" style="stroke:#181818;stroke-width:1.0;"/><text fill="#000000" font-family="sans-serif" font-size="13" lengthAdjust="spacing" textLength="121" x="257.5" y="116.1885">executeCommand()</text><path d="M5,105.4648 L5,145.4648 L236,145.4648 L236,115.4648 L226,105.4648 L5,105.4648 " fill="#FEFFDD" style="stroke:#181818;stroke-width:0.5;"/><path d="M226,105.4648 L226,115.4648 L236,115.4648 L226,105.4648 " fill="#FEFFDD" style="stroke:#181818;stroke-width:0.5;"/><text fill="#000000" font-family="sans-serif" font-size="13" lengthAdjust="spacing" textLength="162" x="37.5" y="123.0332">Save data to all three files</text><text fill="#000000" font-family="sans-serif" font-size="13" lengthAdjust="spacing" textLength="197" x="24" y="138.3438">upon each command execution</text><polygon fill="#9D0012" points="722.5,168.3965,732.5,172.3965,722.5,176.3965,726.5,172.3965" style="stroke:#9D0012;stroke-width:1.0;"/><line style="stroke:#9D0012;stroke-width:1.0;" x1="255.5" x2="728.5" y1="172.3965" y2="172.3965"/><text fill="#000000" font-family="sans-serif" font-size="13" lengthAdjust="spacing" textLength="455" x="267.5" y="167.6543">save(userProfile:UserProfile, mealList:MealList, workoutList:WorkoutList)</text><line style="stroke:#181818;stroke-width:1.0;" x1="744.5" x2="791.5" y1="196.707" y2="196.707"/><line style="stroke:#181818;stroke-width:1.0;" x1="791.5" x2="791.5" y1="196.707" y2="209.707"/><line style="stroke:#181818;stroke-width:1.0;" x1="750.5" x2="791.5" y1="209.707" y2="209.707"/><polygon fill="#181818" points="760.5,205.707,750.5,209.707,760.5,213.707,756.5,209.707" style="stroke:#181818;stroke-width:1.0;"/><text fill="#000000" font-family="sans-serif" font-size="13" lengthAdjust="spacing" textLength="215" x="756.5" y="191.9648">saveProfile(userProfile:UserProfile)</text><polygon fill="#A38300" points="1054.5,240.0176,1064.5,244.0176,1054.5,248.0176,1058.5,244.0176" style="stroke:#A38300;stroke-width:1.0;"/><line style="stroke:#A38300;stroke-width:1.0;" x1="754.5" x2="1060.5" y1="244.0176" y2="244.0176"/><text fill="#000000" font-family="sans-serif" font-size="13" lengthAdjust="spacing" textLength="231" x="795" y="239.2754">FileWriter(PROFILE_FILE_PATH:String)</text><rect fill="#E2E2F0" height="30.4883" rx="2.5" ry="2.5" style="stroke:#181818;stroke-width:0.5;" width="83" x="1066.5" y="222.707"/><text fill="#FFFFFF" font-family="sans-serif" font-size="14" lengthAdjust="spacing" textLength="69" x="1073.5" y="243.2422">:FileWriter</text><polygon fill="#A38300" points="765.5,281.5059,755.5,285.5059,765.5,289.5059,761.5,285.5059" style="stroke:#A38300;stroke-width:1.0;"/><line style="stroke:#A38300;stroke-width:1.0;stroke-dasharray:2.0,2.0;" x1="759.5" x2="1107" y1="285.5059" y2="285.5059"/><text fill="#000000" font-family="sans-serif" font-size="13" lengthAdjust="spacing" textLength="83" x="889.75" y="280.7637">file:FileWriter</text><polygon fill="#A38300" points="1091,310.8164,1101,314.8164,1091,318.8164,1095,314.8164" style="stroke:#A38300;stroke-width:1.0;"/><line style="stroke:#A38300;stroke-width:1.0;" x1="754.5" x2="1097" y1="314.8164" y2="314.8164"/><text fill="#000000" font-family="sans-serif" font-size="13" lengthAdjust="spacing" textLength="170" x="843.75" y="310.0742">write(profile.String():String)</text><polygon fill="#A38300" points="765.5,324.8164,755.5,328.8164,765.5,332.8164,761.5,328.8164" style="stroke:#A38300;stroke-width:1.0;"/><line style="stroke:#A38300;stroke-width:1.0;stroke-dasharray:2.0,2.0;" x1="759.5" x2="1107" y1="328.8164" y2="328.8164"/><line style="stroke:#A80036;stroke-width:2.0;" x1="1099" x2="1117" y1="319.8164" y2="337.8164"/><line style="stroke:#A80036;stroke-width:2.0;" x1="1099" x2="1117" y1="337.8164" y2="319.8164"/><line style="stroke:#181818;stroke-width:1.0;stroke-dasharray:2.0,2.0;" x1="754.5" x2="796.5" y1="347.8164" y2="347.8164"/><line style="stroke:#181818;stroke-width:1.0;stroke-dasharray:2.0,2.0;" x1="796.5" x2="796.5" y1="347.8164" y2="360.8164"/><line style="stroke:#181818;stroke-width:1.0;stroke-dasharray:2.0,2.0;" x1="749.5" x2="796.5" y1="360.8164" y2="360.8164"/><polygon fill="#181818" points="759.5,356.8164,749.5,360.8164,759.5,364.8164,755.5,360.8164" style="stroke:#181818;stroke-width:1.0;"/><line style="stroke:#181818;stroke-width:1.0;" x1="744.5" x2="791.5" y1="380.127" y2="380.127"/><line style="stroke:#181818;stroke-width:1.0;" x1="791.5" x2="791.5" y1="380.127" y2="393.127"/><line style="stroke:#181818;stroke-width:1.0;" x1="750.5" x2="791.5" y1="393.127" y2="393.127"/><polygon fill="#181818" points="760.5,389.127,750.5,393.127,760.5,397.127,756.5,393.127" style="stroke:#181818;stroke-width:1.0;"/><text fill="#000000" font-family="sans-serif" font-size="13" lengthAdjust="spacing" textLength="174" x="756.5" y="375.3848">saveMeal(mealList:MealList)</text><polygon fill="#A38300" points="1054.5,423.4375,1064.5,427.4375,1054.5,431.4375,1058.5,427.4375" style="stroke:#A38300;stroke-width:1.0;"/><line style="stroke:#A38300;stroke-width:1.0;" x1="754.5" x2="1060.5" y1="427.4375" y2="427.4375"/><text fill="#000000" font-family="sans-serif" font-size="13" lengthAdjust="spacing" textLength="248" x="786.5" y="422.6953">FileWriter(MEAL_LIST_FILE_PATH:String)</text><rect fill="#E2E2F0" height="30.4883" rx="2.5" ry="2.5" style="stroke:#181818;stroke-width:0.5;" width="83" x="1066.5" y="406.127"/><text fill="#FFFFFF" font-family="sans-serif" font-size="14" lengthAdjust="spacing" textLength="69" x="1073.5" y="426.6621">:FileWriter</text><polygon fill="#A38300" points="765.5,464.9258,755.5,468.9258,765.5,472.9258,761.5,468.9258" style="stroke:#A38300;stroke-width:1.0;"/><line style="stroke:#A38300;stroke-width:1.0;stroke-dasharray:2.0,2.0;" x1="759.5" x2="1107" y1="468.9258" y2="468.9258"/><text fill="#000000" font-family="sans-serif" font-size="13" lengthAdjust="spacing" textLength="83" x="889.75" y="464.1836">file:FileWriter</text><path d="M679,483.9258 L757,483.9258 L757,491.2363 L747,501.2363 L679,501.2363 L679,483.9258 " fill="#EEEEEE" style="stroke:#000000;stroke-width:1.5;"/><rect fill="none" height="60.6211" style="stroke:#000000;stroke-width:1.5;" width="490.5" x="679" y="483.9258"/><text fill="#000000" font-family="sans-serif" font-size="13" font-weight="bold" lengthAdjust="spacing" textLength="29" x="694" y="497.4941">loop</text><text fill="#000000" font-family="sans-serif" font-size="11" font-weight="bold" lengthAdjust="spacing" textLength="161" x="772" y="496.5605">[for all elements in mealArr]</text><polygon fill="#A38300" points="1091,518.5469,1101,522.5469,1091,526.5469,1095,522.5469" style="stroke:#A38300;stroke-width:1.0;"/><line style="stroke:#A38300;stroke-width:1.0;" x1="754.5" x2="1097" y1="522.5469" y2="522.5469"/><text fill="#000000" font-family="sans-serif" font-size="13" lengthAdjust="spacing" textLength="141" x="858.25" y="517.8047">write(m.String():String)</text><polygon fill="#A38300" points="765.5,532.5469,755.5,536.5469,765.5,540.5469,761.5,536.5469" style="stroke:#A38300;stroke-width:1.0;"/><line style="stroke:#A38300;stroke-width:1.0;stroke-dasharray:2.0,2.0;" x1="759.5" x2="1107" y1="536.5469" y2="536.5469"/><line style="stroke:#A80036;stroke-width:2.0;" x1="1099" x2="1117" y1="527.5469" y2="545.5469"/><line style="stroke:#A80036;stroke-width:2.0;" x1="1099" x2="1117" y1="545.5469" y2="527.5469"/><line style="stroke:#181818;stroke-width:1.0;stroke-dasharray:2.0,2.0;" x1="754.5" x2="796.5" y1="562.5469" y2="562.5469"/><line style="stroke:#181818;stroke-width:1.0;stroke-dasharray:2.0,2.0;" x1="796.5" x2="796.5" y1="562.5469" y2="575.5469"/><line style="stroke:#181818;stroke-width:1.0;stroke-dasharray:2.0,2.0;" x1="749.5" x2="796.5" y1="575.5469" y2="575.5469"/><polygon fill="#181818" points="759.5,571.5469,749.5,575.5469,759.5,579.5469,755.5,575.5469" style="stroke:#181818;stroke-width:1.0;"/><line style="stroke:#181818;stroke-width:1.0;" x1="744.5" x2="791.5" y1="594.8574" y2="594.8574"/><line style="stroke:#181818;stroke-width:1.0;" x1="791.5" x2="791.5" y1="594.8574" y2="607.8574"/><line style="stroke:#181818;stroke-width:1.0;" x1="750.5" x2="791.5" y1="607.8574" y2="607.8574"/><polygon fill="#181818" points="760.5,603.8574,750.5,607.8574,760.5,611.8574,756.5,607.8574" style="stroke:#181818;stroke-width:1.0;"/><text fill="#000000" font-family="sans-serif" font-size="13" lengthAdjust="spacing" textLength="244" x="756.5" y="590.1152">saveWorkout(workoutList:WorkoutList)</text><polygon fill="#A38300" points="1054.5,638.168,1064.5,642.168,1054.5,646.168,1058.5,642.168" style="stroke:#A38300;stroke-width:1.0;"/><line style="stroke:#A38300;stroke-width:1.0;" x1="754.5" x2="1060.5" y1="642.168" y2="642.168"/><text fill="#000000" font-family="sans-serif" font-size="13" lengthAdjust="spacing" textLength="278" x="771.5" y="637.4258">FileWriter(WORKOUT_LIST_FILE_PATH:String)</text><rect fill="#E2E2F0" height="30.4883" rx="2.5" ry="2.5" style="stroke:#181818;stroke-width:0.5;" width="83" x="1066.5" y="620.8574"/><text fill="#FFFFFF" font-family="sans-serif" font-size="14" lengthAdjust="spacing" textLength="69" x="1073.5" y="641.3926">:FileWriter</text><polygon fill="#A38300" points="765.5,679.6563,755.5,683.6563,765.5,687.6563,761.5,683.6563" style="stroke:#A38300;stroke-width:1.0;"/><line style="stroke:#A38300;stroke-width:1.0;stroke-dasharray:2.0,2.0;" x1="759.5" x2="1107" y1="683.6563" y2="683.6563"/><text fill="#000000" font-family="sans-serif" font-size="13" lengthAdjust="spacing" textLength="83" x="889.75" y="678.9141">file:FileWriter</text><path d="M679,698.6563 L757,698.6563 L757,705.9668 L747,715.9668 L679,715.9668 L679,698.6563 " fill="#EEEEEE" style="stroke:#000000;stroke-width:1.5;"/><rect fill="none" height="60.6211" style="stroke:#000000;stroke-width:1.5;" width="490.5" x="679" y="698.6563"/><text fill="#000000" font-family="sans-serif" font-size="13" font-weight="bold" lengthAdjust="spacing" textLength="29" x="694" y="712.2246">loop</text><text fill="#000000" font-family="sans-serif" font-size="11" font-weight="bold" lengthAdjust="spacing" textLength="180" x="772" y="711.291">[for all elements in workoutArr]</text><polygon fill="#A38300" points="1091,733.2773,1101,737.2773,1091,741.2773,1095,737.2773" style="stroke:#A38300;stroke-width:1.0;"/><line style="stroke:#A38300;stroke-width:1.0;" x1="754.5" x2="1097" y1="737.2773" y2="737.2773"/><text fill="#000000" font-family="sans-serif" font-size="13" lengthAdjust="spacing" textLength="139" x="859.25" y="732.5352">write(w.String():String)</text><polygon fill="#A38300" points="765.5,747.2773,755.5,751.2773,765.5,755.2773,761.5,751.2773" style="stroke:#A38300;stroke-width:1.0;"/><line style="stroke:#A38300;stroke-width:1.0;stroke-dasharray:2.0,2.0;" x1="759.5" x2="1107" y1="751.2773" y2="751.2773"/><line style="stroke:#A80036;stroke-width:2.0;" x1="1099" x2="1117" y1="742.2773" y2="760.2773"/><line style="stroke:#A80036;stroke-width:2.0;" x1="1099" x2="1117" y1="760.2773" y2="742.2773"/><line style="stroke:#181818;stroke-width:1.0;stroke-dasharray:2.0,2.0;" x1="754.5" x2="796.5" y1="777.2773" y2="777.2773"/><line style="stroke:#181818;stroke-width:1.0;stroke-dasharray:2.0,2.0;" x1="796.5" x2="796.5" y1="777.2773" y2="790.2773"/><line style="stroke:#181818;stroke-width:1.0;stroke-dasharray:2.0,2.0;" x1="749.5" x2="796.5" y1="790.2773" y2="790.2773"/><polygon fill="#181818" points="759.5,786.2773,749.5,790.2773,759.5,794.2773,755.5,790.2773" style="stroke:#181818;stroke-width:1.0;"/><polygon fill="#9D0012" points="266.5,795.2773,256.5,799.2773,266.5,803.2773,262.5,799.2773" style="stroke:#9D0012;stroke-width:1.0;"/><line style="stroke:#9D0012;stroke-width:1.0;stroke-dasharray:2.0,2.0;" x1="260.5" x2="733.5" y1="799.2773" y2="799.2773"/><!--SRC=[lLDDR-8m4BtxLyps5DIF7v139TI5tMg3WY0L1reXonceLSUEnfEo_VURc1IoK7Qx26qEqTWUlpVlpVYBjifKEOBdDuCtPLKO8LYpGHX9RM7AL2ck2C4jwuKZkKAOobTyj4AKabWhNKhBS14FDMSarSi5I0z5StcKVXqaYxiqIITxkIrIIFNlg5awwNyRV9W_r0Pdf1afN5bkbq84fklR3UFbPGpu4rN5UEUAGjeywWcfMBzAniEYhAjt3Iuv3feWboo17KXZW9y9CJ1vUBHGbSu2IlKCQWFSycXdsnBc7UIdswsifYHVWqULHngJQn3ZXrry1GLAasZFyQWDhc3jwCLL77PdkxYZvMFNtdUl3_bRkcDb_1LQ4JQ77UktPFFVCcljkwH0l-jUD9wam_jai0Y_SJ_xNey2QRlg2S9wp6ouscdtvqdMJHYL6pKt6zIejmSlSlHCxgqhOtkoRu3uavrDhwA3plqd5qU3Vh98xgVPvtrSaQjACCwLC5yw2YEE1WkqxA4UtqPAd-X9GFtze-d5eTqDod7BqUOdsju-XkZK1t8U_sVfv4Vwa9sv1QscKxkmFcyNZf_y0W00]--></g></svg>