<?xml version="1.0" encoding="us-ascii" standalone="no"?><svg xmlns="http://www.w3.org/2000/svg" xmlns:xlink="http://www.w3.org/1999/xlink" contentStyleType="text/css" height="852px" preserveAspectRatio="none" style="width:1131px;height:852px;background:#FFFFFF;" version="1.1" viewBox="0 0 1131 852" width="1131px" zoomAndPan="magnify"><defs/><g><text fill="#000000" font-family="sans-serif" font-size="14" font-weight="bold" lengthAdjust="spacing" textLength="221" x="456.75" y="28.5352">Main Structure of Storage Save</text><text fill="#000000" font-family="sans-serif" font-size="14" font-weight="bold" lengthAdjust="spacing" textLength="5" x="564.75" y="45.0234">&#160;</text><rect fill="#FFFFFF" height="674.3467" style="stroke:#181818;stroke-width:1.0;" width="10" x="231.5" y="133.9307"/><rect fill="#FFFFFF" height="626.8809" style="stroke:#181818;stroke-width:1.0;" width="10" x="715.5" y="172.3965"/><rect fill="#FFFFFF" height="139.1094" style="stroke:#181818;stroke-width:1.0;" width="10" x="720.5" y="209.707"/><rect fill="#FFFFFF" height="170.4199" style="stroke:#181818;stroke-width:1.0;" width="10" x="720.5" y="393.127"/><rect fill="#FFFFFF" height="170.4199" style="stroke:#181818;stroke-width:1.0;" width="10" x="720.5" y="607.8574"/><rect fill="#FFFFFF" height="31.4883" style="stroke:#181818;stroke-width:1.0;" width="10" x="1069" y="254.0176"/><rect fill="#FFFFFF" height="14" style="stroke:#181818;stroke-width:1.0;" width="10" x="1069" y="314.8164"/><rect fill="#FFFFFF" height="31.4883" style="stroke:#181818;stroke-width:1.0;" width="10" x="1069" y="437.4375"/><rect fill="#FFFFFF" height="14" style="stroke:#181818;stroke-width:1.0;" width="10" x="1069" y="522.5469"/><rect fill="#FFFFFF" height="31.4883" style="stroke:#181818;stroke-width:1.0;" width="10" x="1069" y="652.168"/><rect fill="#FFFFFF" height="14" style="stroke:#181818;stroke-width:1.0;" width="10" x="1069" y="737.2773"/><rect fill="none" height="60.6211" style="stroke:#000000;stroke-width:1.5;" width="450.5" x="675" y="483.9258"/><rect fill="none" height="60.6211" style="stroke:#000000;stroke-width:1.5;" width="450.5" x="675" y="698.6563"/><line style="stroke:#181818;stroke-width:0.5;stroke-dasharray:5.0,5.0;" x1="236" x2="236" y1="90.4648" y2="817.2773"/><line style="stroke:#181818;stroke-width:0.5;stroke-dasharray:5.0,5.0;" x1="720" x2="720" y1="90.4648" y2="817.2773"/><line style="stroke:#181818;stroke-width:0.5;stroke-dasharray:5.0,5.0;" x1="1073.5" x2="1073.5" y1="651.6016" y2="817.2773"/><rect fill="#E2E2F0" height="30.4883" rx="2.5" ry="2.5" style="stroke:#181818;stroke-width:0.5;" width="73" x="200" y="58.9766"/><text fill="#000000" font-family="sans-serif" font-size="14" lengthAdjust="spacing" textLength="59" x="207" y="79.5117">:FitTrack</text><rect fill="#E2E2F0" height="30.4883" rx="2.5" ry="2.5" style="stroke:#181818;stroke-width:0.5;" width="73" x="200" y="816.2773"/><text fill="#000000" font-family="sans-serif" font-size="14" lengthAdjust="spacing" textLength="59" x="207" y="836.8125">:FitTrack</text><rect fill="#E2E2F0" height="30.4883" rx="2.5" ry="2.5" style="stroke:#181818;stroke-width:0.5;" width="71" x="685" y="58.9766"/><text fill="#000000" font-family="sans-serif" font-size="14" lengthAdjust="spacing" textLength="57" x="692" y="79.5117">:Storage</text><rect fill="#E2E2F0" height="30.4883" rx="2.5" ry="2.5" style="stroke:#181818;stroke-width:0.5;" width="71" x="685" y="816.2773"/><text fill="#000000" font-family="sans-serif" font-size="14" lengthAdjust="spacing" textLength="57" x="692" y="836.8125">:Storage</text><rect fill="#E2E2F0" height="30.4883" rx="2.5" ry="2.5" style="stroke:#181818;stroke-width:0.5;" width="83" x="1032.5" y="816.2773"/><text fill="#000000" font-family="sans-serif" font-size="14" lengthAdjust="spacing" textLength="69" x="1039.5" y="836.8125">:FileWriter</text><rect fill="#FFFFFF" height="674.3467" style="stroke:#181818;stroke-width:1.0;" width="10" x="231.5" y="133.9307"/><rect fill="#FFFFFF" height="626.8809" style="stroke:#181818;stroke-width:1.0;" width="10" x="715.5" y="172.3965"/><rect fill="#FFFFFF" height="139.1094" style="stroke:#181818;stroke-width:1.0;" width="10" x="720.5" y="209.707"/><rect fill="#FFFFFF" height="170.4199" style="stroke:#181818;stroke-width:1.0;" width="10" x="720.5" y="393.127"/><rect fill="#FFFFFF" height="170.4199" style="stroke:#181818;stroke-width:1.0;" width="10" x="720.5" y="607.8574"/><rect fill="#FFFFFF" height="31.4883" style="stroke:#181818;stroke-width:1.0;" width="10" x="1069" y="254.0176"/><rect fill="#FFFFFF" height="14" style="stroke:#181818;stroke-width:1.0;" width="10" x="1069" y="314.8164"/><rect fill="#FFFFFF" height="31.4883" style="stroke:#181818;stroke-width:1.0;" width="10" x="1069" y="437.4375"/><rect fill="#FFFFFF" height="14" style="stroke:#181818;stroke-width:1.0;" width="10" x="1069" y="522.5469"/><rect fill="#FFFFFF" height="31.4883" style="stroke:#181818;stroke-width:1.0;" width="10" x="1069" y="652.168"/><rect fill="#FFFFFF" height="14" style="stroke:#181818;stroke-width:1.0;" width="10" x="1069" y="737.2773"/><line style="stroke:#181818;stroke-width:1.0;" x1="236.5" x2="283.5" y1="120.9307" y2="120.9307"/><line style="stroke:#181818;stroke-width:1.0;" x1="283.5" x2="283.5" y1="120.9307" y2="133.9307"/><line style="stroke:#181818;stroke-width:1.0;" x1="242.5" x2="283.5" y1="133.9307" y2="133.9307"/><polygon fill="#181818" points="252.5,129.9307,242.5,133.9307,252.5,137.9307,248.5,133.9307" style="stroke:#181818;stroke-width:1.0;"/><text fill="#000000" font-family="sans-serif" font-size="13" lengthAdjust="spacing" textLength="121" x="248.5" y="116.1885">executeCommand()</text><path d="M5,105.4648 L5,145.4648 L227,145.4648 L227,115.4648 L217,105.4648 L5,105.4648 " fill="#FEFFDD" style="stroke:#181818;stroke-width:0.5;"/><path d="M217,105.4648 L217,115.4648 L227,115.4648 L217,105.4648 " fill="#FEFFDD" style="stroke:#181818;stroke-width:0.5;"/><text fill="#000000" font-family="sans-serif" font-size="13" lengthAdjust="spacing" textLength="162" x="11" y="123.0332">Save data to all three files</text><text fill="#000000" font-family="sans-serif" font-size="13" lengthAdjust="spacing" textLength="197" x="15" y="138.3438">upon each command execution</text><polygon fill="#181818" points="703.5,168.3965,713.5,172.3965,703.5,176.3965,707.5,172.3965" style="stroke:#181818;stroke-width:1.0;"/><line style="stroke:#181818;stroke-width:1.0;" x1="241.5" x2="709.5" y1="172.3965" y2="172.3965"/><text fill="#000000" font-family="sans-serif" font-size="13" lengthAdjust="spacing" textLength="455" x="248.5" y="167.6543">save(userProfile:UserProfile, mealList:MealList, workoutList:WorkoutList)</text><line style="stroke:#181818;stroke-width:1.0;" x1="725.5" x2="772.5" y1="196.707" y2="196.707"/><line style="stroke:#181818;stroke-width:1.0;" x1="772.5" x2="772.5" y1="196.707" y2="209.707"/><line style="stroke:#181818;stroke-width:1.0;" x1="731.5" x2="772.5" y1="209.707" y2="209.707"/><polygon fill="#181818" points="741.5,205.707,731.5,209.707,741.5,213.707,737.5,209.707" style="stroke:#181818;stroke-width:1.0;"/><text fill="#000000" font-family="sans-serif" font-size="13" lengthAdjust="spacing" textLength="215" x="737.5" y="191.9648">saveProfile(userProfile:UserProfile)</text><polygon fill="#181818" points="1020.5,240.0176,1030.5,244.0176,1020.5,248.0176,1024.5,244.0176" style="stroke:#181818;stroke-width:1.0;"/><line style="stroke:#181818;stroke-width:1.0;" x1="730.5" x2="1026.5" y1="244.0176" y2="244.0176"/><text fill="#000000" font-family="sans-serif" font-size="13" lengthAdjust="spacing" textLength="231" x="737.5" y="239.2754">FileWriter(PROFILE_FILE_PATH:String)</text><rect fill="#E2E2F0" height="30.4883" rx="2.5" ry="2.5" style="stroke:#181818;stroke-width:0.5;" width="83" x="1032.5" y="222.707"/><text fill="#000000" font-family="sans-serif" font-size="14" lengthAdjust="spacing" textLength="69" x="1039.5" y="243.2422">:FileWriter</text><polygon fill="#181818" points="741.5,281.5059,731.5,285.5059,741.5,289.5059,737.5,285.5059" style="stroke:#181818;stroke-width:1.0;"/><line style="stroke:#181818;stroke-width:1.0;stroke-dasharray:2.0,2.0;" x1="735.5" x2="1073" y1="285.5059" y2="285.5059"/><text fill="#000000" font-family="sans-serif" font-size="13" lengthAdjust="spacing" textLength="83" x="747.5" y="280.7637">file:FileWriter</text><polygon fill="#181818" points="1057,310.8164,1067,314.8164,1057,318.8164,1061,314.8164" style="stroke:#181818;stroke-width:1.0;"/><line style="stroke:#181818;stroke-width:1.0;" x1="730.5" x2="1063" y1="314.8164" y2="314.8164"/><text fill="#000000" font-family="sans-serif" font-size="13" lengthAdjust="spacing" textLength="170" x="737.5" y="310.0742">write(profile.String():String)</text><polygon fill="#181818" points="741.5,324.8164,731.5,328.8164,741.5,332.8164,737.5,328.8164" style="stroke:#181818;stroke-width:1.0;"/><line style="stroke:#181818;stroke-width:1.0;stroke-dasharray:2.0,2.0;" x1="735.5" x2="1073" y1="328.8164" y2="328.8164"/><line style="stroke:#A80036;stroke-width:2.0;" x1="1065" x2="1083" y1="319.8164" y2="337.8164"/><line style="stroke:#A80036;stroke-width:2.0;" x1="1065" x2="1083" y1="337.8164" y2="319.8164"/><line style="stroke:#181818;stroke-width:1.0;stroke-dasharray:2.0,2.0;" x1="730.5" x2="772.5" y1="347.8164" y2="347.8164"/><line style="stroke:#181818;stroke-width:1.0;stroke-dasharray:2.0,2.0;" x1="772.5" x2="772.5" y1="347.8164" y2="360.8164"/><line style="stroke:#181818;stroke-width:1.0;stroke-dasharray:2.0,2.0;" x1="725.5" x2="772.5" y1="360.8164" y2="360.8164"/><polygon fill="#181818" points="735.5,356.8164,725.5,360.8164,735.5,364.8164,731.5,360.8164" style="stroke:#181818;stroke-width:1.0;"/><line style="stroke:#181818;stroke-width:1.0;" x1="725.5" x2="772.5" y1="380.127" y2="380.127"/><line style="stroke:#181818;stroke-width:1.0;" x1="772.5" x2="772.5" y1="380.127" y2="393.127"/><line style="stroke:#181818;stroke-width:1.0;" x1="731.5" x2="772.5" y1="393.127" y2="393.127"/><polygon fill="#181818" points="741.5,389.127,731.5,393.127,741.5,397.127,737.5,393.127" style="stroke:#181818;stroke-width:1.0;"/><text fill="#000000" font-family="sans-serif" font-size="13" lengthAdjust="spacing" textLength="174" x="737.5" y="375.3848">saveMeal(mealList:MealList)</text><polygon fill="#181818" points="1020.5,423.4375,1030.5,427.4375,1020.5,431.4375,1024.5,427.4375" style="stroke:#181818;stroke-width:1.0;"/><line style="stroke:#181818;stroke-width:1.0;" x1="730.5" x2="1026.5" y1="427.4375" y2="427.4375"/><text fill="#000000" font-family="sans-serif" font-size="13" lengthAdjust="spacing" textLength="248" x="737.5" y="422.6953">FileWriter(MEAL_LIST_FILE_PATH:String)</text><rect fill="#E2E2F0" height="30.4883" rx="2.5" ry="2.5" style="stroke:#181818;stroke-width:0.5;" width="83" x="1032.5" y="406.127"/><text fill="#000000" font-family="sans-serif" font-size="14" lengthAdjust="spacing" textLength="69" x="1039.5" y="426.6621">:FileWriter</text><polygon fill="#181818" points="741.5,464.9258,731.5,468.9258,741.5,472.9258,737.5,468.9258" style="stroke:#181818;stroke-width:1.0;"/><line style="stroke:#181818;stroke-width:1.0;stroke-dasharray:2.0,2.0;" x1="735.5" x2="1073" y1="468.9258" y2="468.9258"/><text fill="#000000" font-family="sans-serif" font-size="13" lengthAdjust="spacing" textLength="83" x="747.5" y="464.1836">file:FileWriter</text><path d="M675,483.9258 L753,483.9258 L753,491.2363 L743,501.2363 L675,501.2363 L675,483.9258 " fill="#EEEEEE" style="stroke:#000000;stroke-width:1.5;"/><rect fill="none" height="60.6211" style="stroke:#000000;stroke-width:1.5;" width="450.5" x="675" y="483.9258"/><text fill="#000000" font-family="sans-serif" font-size="13" font-weight="bold" lengthAdjust="spacing" textLength="29" x="690" y="497.4941">loop</text><text fill="#000000" font-family="sans-serif" font-size="11" font-weight="bold" lengthAdjust="spacing" textLength="161" x="768" y="496.5605">[for all elements in mealArr]</text><polygon fill="#181818" points="1057,518.5469,1067,522.5469,1057,526.5469,1061,522.5469" style="stroke:#181818;stroke-width:1.0;"/><line style="stroke:#181818;stroke-width:1.0;" x1="730.5" x2="1063" y1="522.5469" y2="522.5469"/><text fill="#000000" font-family="sans-serif" font-size="13" lengthAdjust="spacing" textLength="141" x="737.5" y="517.8047">write(m.String():String)</text><polygon fill="#181818" points="741.5,532.5469,731.5,536.5469,741.5,540.5469,737.5,536.5469" style="stroke:#181818;stroke-width:1.0;"/><line style="stroke:#181818;stroke-width:1.0;stroke-dasharray:2.0,2.0;" x1="735.5" x2="1073" y1="536.5469" y2="536.5469"/><line style="stroke:#A80036;stroke-width:2.0;" x1="1065" x2="1083" y1="527.5469" y2="545.5469"/><line style="stroke:#A80036;stroke-width:2.0;" x1="1065" x2="1083" y1="545.5469" y2="527.5469"/><line style="stroke:#181818;stroke-width:1.0;stroke-dasharray:2.0,2.0;" x1="730.5" x2="772.5" y1="562.5469" y2="562.5469"/><line style="stroke:#181818;stroke-width:1.0;stroke-dasharray:2.0,2.0;" x1="772.5" x2="772.5" y1="562.5469" y2="575.5469"/><line style="stroke:#181818;stroke-width:1.0;stroke-dasharray:2.0,2.0;" x1="725.5" x2="772.5" y1="575.5469" y2="575.5469"/><polygon fill="#181818" points="735.5,571.5469,725.5,575.5469,735.5,579.5469,731.5,575.5469" style="stroke:#181818;stroke-width:1.0;"/><line style="stroke:#181818;stroke-width:1.0;" x1="725.5" x2="772.5" y1="594.8574" y2="594.8574"/><line style="stroke:#181818;stroke-width:1.0;" x1="772.5" x2="772.5" y1="594.8574" y2="607.8574"/><line style="stroke:#181818;stroke-width:1.0;" x1="731.5" x2="772.5" y1="607.8574" y2="607.8574"/><polygon fill="#181818" points="741.5,603.8574,731.5,607.8574,741.5,611.8574,737.5,607.8574" style="stroke:#181818;stroke-width:1.0;"/><text fill="#000000" font-family="sans-serif" font-size="13" lengthAdjust="spacing" textLength="244" x="737.5" y="590.1152">saveWorkout(workoutList:WorkoutList)</text><polygon fill="#181818" points="1020.5,638.168,1030.5,642.168,1020.5,646.168,1024.5,642.168" style="stroke:#181818;stroke-width:1.0;"/><line style="stroke:#181818;stroke-width:1.0;" x1="730.5" x2="1026.5" y1="642.168" y2="642.168"/><text fill="#000000" font-family="sans-serif" font-size="13" lengthAdjust="spacing" textLength="278" x="737.5" y="637.4258">FileWriter(WORKOUT_LIST_FILE_PATH:String)</text><rect fill="#E2E2F0" height="30.4883" rx="2.5" ry="2.5" style="stroke:#181818;stroke-width:0.5;" width="83" x="1032.5" y="620.8574"/><text fill="#000000" font-family="sans-serif" font-size="14" lengthAdjust="spacing" textLength="69" x="1039.5" y="641.3926">:FileWriter</text><polygon fill="#181818" points="741.5,679.6563,731.5,683.6563,741.5,687.6563,737.5,683.6563" style="stroke:#181818;stroke-width:1.0;"/><line style="stroke:#181818;stroke-width:1.0;stroke-dasharray:2.0,2.0;" x1="735.5" x2="1073" y1="683.6563" y2="683.6563"/><text fill="#000000" font-family="sans-serif" font-size="13" lengthAdjust="spacing" textLength="83" x="747.5" y="678.9141">file:FileWriter</text><path d="M675,698.6563 L753,698.6563 L753,705.9668 L743,715.9668 L675,715.9668 L675,698.6563 " fill="#EEEEEE" style="stroke:#000000;stroke-width:1.5;"/><rect fill="none" height="60.6211" style="stroke:#000000;stroke-width:1.5;" width="450.5" x="675" y="698.6563"/><text fill="#000000" font-family="sans-serif" font-size="13" font-weight="bold" lengthAdjust="spacing" textLength="29" x="690" y="712.2246">loop</text><text fill="#000000" font-family="sans-serif" font-size="11" font-weight="bold" lengthAdjust="spacing" textLength="180" x="768" y="711.291">[for all elements in workoutArr]</text><polygon fill="#181818" points="1057,733.2773,1067,737.2773,1057,741.2773,1061,737.2773" style="stroke:#181818;stroke-width:1.0;"/><line style="stroke:#181818;stroke-width:1.0;" x1="730.5" x2="1063" y1="737.2773" y2="737.2773"/><text fill="#000000" font-family="sans-serif" font-size="13" lengthAdjust="spacing" textLength="139" x="737.5" y="732.5352">write(w.String():String)</text><polygon fill="#181818" points="741.5,747.2773,731.5,751.2773,741.5,755.2773,737.5,751.2773" style="stroke:#181818;stroke-width:1.0;"/><line style="stroke:#181818;stroke-width:1.0;stroke-dasharray:2.0,2.0;" x1="735.5" x2="1073" y1="751.2773" y2="751.2773"/><line style="stroke:#A80036;stroke-width:2.0;" x1="1065" x2="1083" y1="742.2773" y2="760.2773"/><line style="stroke:#A80036;stroke-width:2.0;" x1="1065" x2="1083" y1="760.2773" y2="742.2773"/><line style="stroke:#181818;stroke-width:1.0;stroke-dasharray:2.0,2.0;" x1="730.5" x2="772.5" y1="777.2773" y2="777.2773"/><line style="stroke:#181818;stroke-width:1.0;stroke-dasharray:2.0,2.0;" x1="772.5" x2="772.5" y1="777.2773" y2="790.2773"/><line style="stroke:#181818;stroke-width:1.0;stroke-dasharray:2.0,2.0;" x1="725.5" x2="772.5" y1="790.2773" y2="790.2773"/><polygon fill="#181818" points="735.5,786.2773,725.5,790.2773,735.5,794.2773,731.5,790.2773" style="stroke:#181818;stroke-width:1.0;"/><polygon fill="#181818" points="252.5,795.2773,242.5,799.2773,252.5,803.2773,248.5,799.2773" style="stroke:#181818;stroke-width:1.0;"/><line style="stroke:#181818;stroke-width:1.0;stroke-dasharray:2.0,2.0;" x1="246.5" x2="719.5" y1="799.2773" y2="799.2773"/><!--SRC=[hPBFRi8m3CRlUGfhfrQmFK0Faz046Xe8n1zn61EAYe68DAbSTsnllpRDe8B145iFhPFKFt_-ObQi4VfI6HWpvJ7dX61NnSAIN2ECvJlEZH2f95QnIgLXk8iwYYSau-qTo0oI8ldet6UxuwoAJmWQPwGOoVsqsY-5A7bm_-Yuq6X4W1yOvunFDacaMGQXC9OHDAuuSlfWALa2Mv1Q0sy8qV4oc1l8Ksi0PRo1k4htD6NDlf1Nw6fb1I_8CwGXsH8IJGzn4nAKkgSoZle-QCBEqjRcx7PdXpWKtzGV2dZUkJgXY0abOzsL6ksmwu079uFXQD3fzjeBzngs9i_5HP0owr0G5XThN6hD-WlKNHa6QINeeS84uH5FB35ZifzreVxaGlUbTy69apSttM-tUejUTpovlkqrsJm5RMqAhojBRcvGOuA6CoXceXJN8deJK3o_UPISkbEcdNS8pV8Ab_mi1MVdwqQxPeFHos0w-MV7lCghJTlzmJJ_-G80]--></g></svg>