<?xml version="1.0" encoding="us-ascii" standalone="no"?><svg xmlns="http://www.w3.org/2000/svg" xmlns:xlink="http://www.w3.org/1999/xlink" contentStyleType="text/css" height="933px" preserveAspectRatio="none" style="width:1634px;height:933px;background:#FFFFFF;" version="1.1" viewBox="0 0 1634 933" width="1634px" zoomAndPan="magnify"><defs/><g><text fill="#000000" font-family="sans-serif" font-size="14" font-weight="bold" lengthAdjust="spacing" textLength="223" x="701.75" y="28.5352">Main Structure of Storage Load</text><text fill="#000000" font-family="sans-serif" font-size="14" font-weight="bold" lengthAdjust="spacing" textLength="5" x="810.75" y="45.0234">&#160;</text><rect fill="#FFFFFF" height="759.5215" style="stroke:#181818;stroke-width:1.0;" width="10" x="313.5" y="129.7754"/><rect fill="#FFFFFF" height="32.3105" style="stroke:#181818;stroke-width:1.0;" width="10" x="462.5" y="240.707"/><rect fill="#FFFFFF" height="96.9316" style="stroke:#181818;stroke-width:1.0;" width="10" x="462.5" y="305.3281"/><rect fill="#FFFFFF" height="181.5527" style="stroke:#181818;stroke-width:1.0;" width="10" x="462.5" y="484.8809"/><rect fill="#FFFFFF" height="181.5527" style="stroke:#181818;stroke-width:1.0;" width="10" x="462.5" y="698.7441"/><rect fill="#FFFFFF" height="17" style="stroke:#181818;stroke-width:1.0;" width="10" x="532.5" y="167.0859"/><rect fill="#FFFFFF" height="14" style="stroke:#181818;stroke-width:1.0;" width="10" x="532.5" y="431.5703"/><rect fill="#FFFFFF" height="32.3105" style="stroke:#181818;stroke-width:1.0;" width="10" x="821.5" y="340.6387"/><rect fill="#FFFFFF" height="116.9316" style="stroke:#181818;stroke-width:1.0;" width="10" x="971.5" y="520.1914"/><rect fill="#FFFFFF" height="40.3105" style="stroke:#181818;stroke-width:1.0;" width="10" x="976.5" y="560.502"/><rect fill="#FFFFFF" height="116.9316" style="stroke:#181818;stroke-width:1.0;" width="10" x="1280.5" y="734.0547"/><rect fill="#FFFFFF" height="40.3105" style="stroke:#181818;stroke-width:1.0;" width="10" x="1285.5" y="774.3652"/><rect fill="none" height="254.4844" style="stroke:#000000;stroke-width:1.5;" width="1161.5" x="9" y="199.0859"/><line style="stroke:#181818;stroke-width:0.5;stroke-dasharray:5.0,5.0;" x1="318" x2="318" y1="90.4648" y2="898.2969"/><line style="stroke:#181818;stroke-width:0.5;stroke-dasharray:5.0,5.0;" x1="467" x2="467" y1="90.4648" y2="898.2969"/><line style="stroke:#181818;stroke-width:0.5;stroke-dasharray:5.0,5.0;" x1="537" x2="537" y1="90.4648" y2="898.2969"/><line style="stroke:#181818;stroke-width:0.5;stroke-dasharray:5.0,5.0;" x1="826.5" x2="826.5" y1="90.4648" y2="898.2969"/><line style="stroke:#181818;stroke-width:0.5;stroke-dasharray:5.0,5.0;" x1="976.5" x2="976.5" y1="90.4648" y2="898.2969"/><line style="stroke:#181818;stroke-width:0.5;stroke-dasharray:5.0,5.0;" x1="1285.5" x2="1285.5" y1="90.4648" y2="898.2969"/><rect fill="#E2E2F0" height="30.4883" rx="2.5" ry="2.5" style="stroke:#181818;stroke-width:0.5;" width="73" x="282" y="58.9766"/><text fill="#000000" font-family="sans-serif" font-size="14" lengthAdjust="spacing" textLength="59" x="289" y="79.5117">:FitTrack</text><rect fill="#E2E2F0" height="30.4883" rx="2.5" ry="2.5" style="stroke:#181818;stroke-width:0.5;" width="73" x="282" y="897.2969"/><text fill="#000000" font-family="sans-serif" font-size="14" lengthAdjust="spacing" textLength="59" x="289" y="917.832">:FitTrack</text><rect fill="#E2E2F0" height="30.4883" rx="2.5" ry="2.5" style="stroke:#181818;stroke-width:0.5;" width="71" x="432" y="58.9766"/><text fill="#000000" font-family="sans-serif" font-size="14" lengthAdjust="spacing" textLength="57" x="439" y="79.5117">:Storage</text><rect fill="#E2E2F0" height="30.4883" rx="2.5" ry="2.5" style="stroke:#181818;stroke-width:0.5;" width="71" x="432" y="897.2969"/><text fill="#000000" font-family="sans-serif" font-size="14" lengthAdjust="spacing" textLength="57" x="439" y="917.832">:Storage</text><rect fill="#E2E2F0" height="30.4883" rx="2.5" ry="2.5" style="stroke:#181818;stroke-width:0.5;" width="49" x="513" y="58.9766"/><text fill="#000000" font-family="sans-serif" font-size="14" lengthAdjust="spacing" textLength="35" x="520" y="79.5117">ui: Ui</text><rect fill="#E2E2F0" height="30.4883" rx="2.5" ry="2.5" style="stroke:#181818;stroke-width:0.5;" width="49" x="513" y="897.2969"/><text fill="#000000" font-family="sans-serif" font-size="14" lengthAdjust="spacing" textLength="35" x="520" y="917.832">ui: Ui</text><rect fill="#E2E2F0" height="30.4883" rx="2.5" ry="2.5" style="stroke:#181818;stroke-width:0.5;" width="150" x="751.5" y="58.9766"/><text fill="#000000" font-family="sans-serif" font-size="14" lengthAdjust="spacing" textLength="136" x="758.5" y="79.5117">:UserProfileDecoder</text><rect fill="#E2E2F0" height="30.4883" rx="2.5" ry="2.5" style="stroke:#181818;stroke-width:0.5;" width="150" x="751.5" y="897.2969"/><text fill="#000000" font-family="sans-serif" font-size="14" lengthAdjust="spacing" textLength="136" x="758.5" y="917.832">:UserProfileDecoder</text><rect fill="#E2E2F0" height="30.4883" rx="2.5" ry="2.5" style="stroke:#181818;stroke-width:0.5;" width="130" x="911.5" y="58.9766"/><text fill="#000000" font-family="sans-serif" font-size="14" lengthAdjust="spacing" textLength="116" x="918.5" y="79.5117">:MealListDecoder</text><rect fill="#E2E2F0" height="30.4883" rx="2.5" ry="2.5" style="stroke:#181818;stroke-width:0.5;" width="130" x="911.5" y="897.2969"/><text fill="#000000" font-family="sans-serif" font-size="14" lengthAdjust="spacing" textLength="116" x="918.5" y="917.832">:MealListDecoder</text><rect fill="#E2E2F0" height="30.4883" rx="2.5" ry="2.5" style="stroke:#181818;stroke-width:0.5;" width="156" x="1207.5" y="58.9766"/><text fill="#000000" font-family="sans-serif" font-size="14" lengthAdjust="spacing" textLength="142" x="1214.5" y="79.5117">:WorkoutListDecoder</text><rect fill="#E2E2F0" height="30.4883" rx="2.5" ry="2.5" style="stroke:#181818;stroke-width:0.5;" width="156" x="1207.5" y="897.2969"/><text fill="#000000" font-family="sans-serif" font-size="14" lengthAdjust="spacing" textLength="142" x="1214.5" y="917.832">:WorkoutListDecoder</text><rect fill="#FFFFFF" height="759.5215" style="stroke:#181818;stroke-width:1.0;" width="10" x="313.5" y="129.7754"/><rect fill="#FFFFFF" height="32.3105" style="stroke:#181818;stroke-width:1.0;" width="10" x="462.5" y="240.707"/><rect fill="#FFFFFF" height="96.9316" style="stroke:#181818;stroke-width:1.0;" width="10" x="462.5" y="305.3281"/><rect fill="#FFFFFF" height="181.5527" style="stroke:#181818;stroke-width:1.0;" width="10" x="462.5" y="484.8809"/><rect fill="#FFFFFF" height="181.5527" style="stroke:#181818;stroke-width:1.0;" width="10" x="462.5" y="698.7441"/><rect fill="#FFFFFF" height="17" style="stroke:#181818;stroke-width:1.0;" width="10" x="532.5" y="167.0859"/><rect fill="#FFFFFF" height="14" style="stroke:#181818;stroke-width:1.0;" width="10" x="532.5" y="431.5703"/><rect fill="#FFFFFF" height="32.3105" style="stroke:#181818;stroke-width:1.0;" width="10" x="821.5" y="340.6387"/><rect fill="#FFFFFF" height="116.9316" style="stroke:#181818;stroke-width:1.0;" width="10" x="971.5" y="520.1914"/><rect fill="#FFFFFF" height="40.3105" style="stroke:#181818;stroke-width:1.0;" width="10" x="976.5" y="560.502"/><rect fill="#FFFFFF" height="116.9316" style="stroke:#181818;stroke-width:1.0;" width="10" x="1280.5" y="734.0547"/><rect fill="#FFFFFF" height="40.3105" style="stroke:#181818;stroke-width:1.0;" width="10" x="1285.5" y="774.3652"/><line style="stroke:#181818;stroke-width:1.0;" x1="318.5" x2="365.5" y1="116.7754" y2="116.7754"/><line style="stroke:#181818;stroke-width:1.0;" x1="365.5" x2="365.5" y1="116.7754" y2="129.7754"/><line style="stroke:#181818;stroke-width:1.0;" x1="324.5" x2="365.5" y1="129.7754" y2="129.7754"/><polygon fill="#181818" points="334.5,125.7754,324.5,129.7754,334.5,133.7754,330.5,129.7754" style="stroke:#181818;stroke-width:1.0;"/><text fill="#000000" font-family="sans-serif" font-size="13" lengthAdjust="spacing" textLength="37" x="330.5" y="112.0332">start()</text><polygon fill="#181818" points="520.5,163.0859,530.5,167.0859,520.5,171.0859,524.5,167.0859" style="stroke:#181818;stroke-width:1.0;"/><line style="stroke:#181818;stroke-width:1.0;" x1="323.5" x2="526.5" y1="167.0859" y2="167.0859"/><text fill="#000000" font-family="sans-serif" font-size="13" lengthAdjust="spacing" textLength="110" x="330.5" y="162.3438">ui.printWelcome()</text><path d="M547,147.7754 L547,172.7754 L771,172.7754 L771,157.7754 L761,147.7754 L547,147.7754 " fill="#FEFFDD" style="stroke:#181818;stroke-width:0.5;"/><path d="M761,147.7754 L761,157.7754 L771,157.7754 L761,147.7754 " fill="#FEFFDD" style="stroke:#181818;stroke-width:0.5;"/><text fill="#000000" font-family="sans-serif" font-size="13" lengthAdjust="spacing" textLength="203" x="553" y="165.3438">prints welcome message to user</text><polygon fill="#181818" points="334.5,180.0859,324.5,184.0859,334.5,188.0859,330.5,184.0859" style="stroke:#181818;stroke-width:1.0;"/><line style="stroke:#181818;stroke-width:1.0;stroke-dasharray:2.0,2.0;" x1="328.5" x2="536.5" y1="184.0859" y2="184.0859"/><path d="M9,199.0859 L80,199.0859 L80,206.3965 L70,216.3965 L9,216.3965 L9,199.0859 " fill="#EEEEEE" style="stroke:#000000;stroke-width:1.5;"/><rect fill="none" height="254.4844" style="stroke:#000000;stroke-width:1.5;" width="1161.5" x="9" y="199.0859"/><text fill="#000000" font-family="sans-serif" font-size="13" font-weight="bold" lengthAdjust="spacing" textLength="22" x="24" y="212.6543">opt</text><text fill="#000000" font-family="sans-serif" font-size="11" font-weight="bold" lengthAdjust="spacing" textLength="158" x="95" y="211.7207">[!storage.isProfileFileEmpty]</text><polygon fill="#181818" points="450.5,236.707,460.5,240.707,450.5,244.707,454.5,240.707" style="stroke:#181818;stroke-width:1.0;"/><line style="stroke:#181818;stroke-width:1.0;" x1="323.5" x2="456.5" y1="240.707" y2="240.707"/><text fill="#000000" font-family="sans-serif" font-size="13" lengthAdjust="spacing" textLength="120" x="330.5" y="235.9648">isProfileFileEmpty()</text><path d="M477,221.3965 L477,246.3965 L757,246.3965 L757,231.3965 L747,221.3965 L477,221.3965 " fill="#FEFFDD" style="stroke:#181818;stroke-width:0.5;"/><path d="M747,221.3965 L747,231.3965 L757,231.3965 L747,221.3965 " fill="#FEFFDD" style="stroke:#181818;stroke-width:0.5;"/><text fill="#000000" font-family="sans-serif" font-size="13" lengthAdjust="spacing" textLength="259" x="483" y="238.9648">checks for profile data from previous run</text><polygon fill="#181818" points="334.5,269.0176,324.5,273.0176,334.5,277.0176,330.5,273.0176" style="stroke:#181818;stroke-width:1.0;"/><line style="stroke:#181818;stroke-width:1.0;stroke-dasharray:2.0,2.0;" x1="328.5" x2="466.5" y1="273.0176" y2="273.0176"/><text fill="#000000" font-family="sans-serif" font-size="13" lengthAdjust="spacing" textLength="54" x="340.5" y="268.2754">:boolean</text><polygon fill="#181818" points="450.5,301.3281,460.5,305.3281,450.5,309.3281,454.5,305.3281" style="stroke:#181818;stroke-width:1.0;"/><line style="stroke:#181818;stroke-width:1.0;" x1="323.5" x2="456.5" y1="305.3281" y2="305.3281"/><text fill="#000000" font-family="sans-serif" font-size="13" lengthAdjust="spacing" textLength="79" x="330.5" y="300.5859">profileLoad()</text><path d="M19,286.0176 L19,311.0176 L308,311.0176 L308,296.0176 L298,286.0176 L19,286.0176 " fill="#FEFFDD" style="stroke:#181818;stroke-width:0.5;"/><path d="M298,286.0176 L298,296.0176 L308,296.0176 L298,286.0176 " fill="#FEFFDD" style="stroke:#181818;stroke-width:0.5;"/><text fill="#000000" font-family="sans-serif" font-size="13" lengthAdjust="spacing" textLength="268" x="25" y="303.5859">load file data in profile file into UserProfile</text><polygon fill="#181818" points="809.5,336.6387,819.5,340.6387,809.5,344.6387,813.5,340.6387" style="stroke:#181818;stroke-width:1.0;"/><line style="stroke:#181818;stroke-width:1.0;" x1="472.5" x2="815.5" y1="340.6387" y2="340.6387"/><text fill="#000000" font-family="sans-serif" font-size="13" lengthAdjust="spacing" textLength="330" x="479.5" y="335.8965">decodeUserProfile(encodedUserProfile: List&lt;String&gt;)</text><path d="M836,321.3281 L836,346.3281 L1160,346.3281 L1160,331.3281 L1150,321.3281 L836,321.3281 " fill="#FEFFDD" style="stroke:#181818;stroke-width:0.5;"/><path d="M1150,321.3281 L1150,331.3281 L1160,331.3281 L1150,321.3281 " fill="#FEFFDD" style="stroke:#181818;stroke-width:0.5;"/><text fill="#000000" font-family="sans-serif" font-size="13" lengthAdjust="spacing" textLength="303" x="842" y="338.8965">decode the file contents and store in UserProfile</text><polygon fill="#181818" points="483.5,368.9492,473.5,372.9492,483.5,376.9492,479.5,372.9492" style="stroke:#181818;stroke-width:1.0;"/><line style="stroke:#181818;stroke-width:1.0;stroke-dasharray:2.0,2.0;" x1="477.5" x2="825.5" y1="372.9492" y2="372.9492"/><text fill="#000000" font-family="sans-serif" font-size="13" lengthAdjust="spacing" textLength="72" x="489.5" y="368.207">:UserProfile</text><polygon fill="#181818" points="334.5,398.2598,324.5,402.2598,334.5,406.2598,330.5,402.2598" style="stroke:#181818;stroke-width:1.0;"/><line style="stroke:#181818;stroke-width:1.0;stroke-dasharray:2.0,2.0;" x1="328.5" x2="466.5" y1="402.2598" y2="402.2598"/><text fill="#000000" font-family="sans-serif" font-size="13" lengthAdjust="spacing" textLength="72" x="340.5" y="397.5176">:UserProfile</text><polygon fill="#181818" points="520.5,427.5703,530.5,431.5703,520.5,435.5703,524.5,431.5703" style="stroke:#181818;stroke-width:1.0;"/><line style="stroke:#181818;stroke-width:1.0;" x1="323.5" x2="526.5" y1="431.5703" y2="431.5703"/><text fill="#000000" font-family="sans-serif" font-size="13" lengthAdjust="spacing" textLength="83" x="330.5" y="426.8281">printPrompt()</text><polygon fill="#181818" points="334.5,441.5703,324.5,445.5703,334.5,449.5703,330.5,445.5703" style="stroke:#181818;stroke-width:1.0;"/><line style="stroke:#181818;stroke-width:1.0;stroke-dasharray:2.0,2.0;" x1="328.5" x2="536.5" y1="445.5703" y2="445.5703"/><polygon fill="#181818" points="450.5,480.8809,460.5,484.8809,450.5,488.8809,454.5,484.8809" style="stroke:#181818;stroke-width:1.0;"/><line style="stroke:#181818;stroke-width:1.0;" x1="323.5" x2="456.5" y1="484.8809" y2="484.8809"/><text fill="#000000" font-family="sans-serif" font-size="13" lengthAdjust="spacing" textLength="68" x="330.5" y="480.1387">mealLoad()</text><path d="M105,465.5703 L105,490.5703 L308,490.5703 L308,475.5703 L298,465.5703 L105,465.5703 " fill="#FEFFDD" style="stroke:#181818;stroke-width:0.5;"/><path d="M298,465.5703 L298,475.5703 L308,475.5703 L298,465.5703 " fill="#FEFFDD" style="stroke:#181818;stroke-width:0.5;"/><text fill="#000000" font-family="sans-serif" font-size="13" lengthAdjust="spacing" textLength="182" x="111" y="483.1387">load meals in file to mealList</text><polygon fill="#181818" points="959.5,516.1914,969.5,520.1914,959.5,524.1914,963.5,520.1914" style="stroke:#181818;stroke-width:1.0;"/><line style="stroke:#181818;stroke-width:1.0;" x1="472.5" x2="965.5" y1="520.1914" y2="520.1914"/><text fill="#000000" font-family="sans-serif" font-size="13" lengthAdjust="spacing" textLength="298" x="479.5" y="515.4492">decodeMealList(encodedMealList: List&lt;String&gt;)</text><path d="M986,500.8809 L986,525.8809 L1294,525.8809 L1294,510.8809 L1284,500.8809 L986,500.8809 " fill="#FEFFDD" style="stroke:#181818;stroke-width:0.5;"/><path d="M1284,500.8809 L1284,510.8809 L1294,510.8809 L1284,500.8809 " fill="#FEFFDD" style="stroke:#181818;stroke-width:0.5;"/><text fill="#000000" font-family="sans-serif" font-size="13" lengthAdjust="spacing" textLength="287" x="992" y="518.4492">decode the file contents and store in MealList</text><line style="stroke:#181818;stroke-width:1.0;" x1="981.5" x2="1028.5" y1="547.502" y2="547.502"/><line style="stroke:#181818;stroke-width:1.0;" x1="1028.5" x2="1028.5" y1="547.502" y2="560.502"/><line style="stroke:#181818;stroke-width:1.0;" x1="987.5" x2="1028.5" y1="560.502" y2="560.502"/><polygon fill="#181818" points="997.5,556.502,987.5,560.502,997.5,564.502,993.5,560.502" style="stroke:#181818;stroke-width:1.0;"/><text fill="#000000" font-family="sans-serif" font-size="13" lengthAdjust="spacing" textLength="285" x="993.5" y="542.7598">decodeMealsFromString(encodedMeal: String)</text><line style="stroke:#181818;stroke-width:1.0;stroke-dasharray:2.0,2.0;" x1="986.5" x2="1028.5" y1="599.8125" y2="599.8125"/><line style="stroke:#181818;stroke-width:1.0;stroke-dasharray:2.0,2.0;" x1="1028.5" x2="1028.5" y1="599.8125" y2="612.8125"/><line style="stroke:#181818;stroke-width:1.0;stroke-dasharray:2.0,2.0;" x1="981.5" x2="1028.5" y1="612.8125" y2="612.8125"/><polygon fill="#181818" points="991.5,608.8125,981.5,612.8125,991.5,616.8125,987.5,612.8125" style="stroke:#181818;stroke-width:1.0;"/><text fill="#000000" font-family="sans-serif" font-size="13" lengthAdjust="spacing" textLength="33" x="993.5" y="595.0703">:Meal</text><polygon fill="#181818" points="483.5,633.123,473.5,637.123,483.5,641.123,479.5,637.123" style="stroke:#181818;stroke-width:1.0;"/><line style="stroke:#181818;stroke-width:1.0;stroke-dasharray:2.0,2.0;" x1="477.5" x2="975.5" y1="637.123" y2="637.123"/><text fill="#000000" font-family="sans-serif" font-size="13" lengthAdjust="spacing" textLength="56" x="489.5" y="632.3809">:MealList</text><polygon fill="#181818" points="334.5,662.4336,324.5,666.4336,334.5,670.4336,330.5,666.4336" style="stroke:#181818;stroke-width:1.0;"/><line style="stroke:#181818;stroke-width:1.0;stroke-dasharray:2.0,2.0;" x1="328.5" x2="466.5" y1="666.4336" y2="666.4336"/><text fill="#000000" font-family="sans-serif" font-size="13" lengthAdjust="spacing" textLength="56" x="340.5" y="661.6914">:MealList</text><polygon fill="#181818" points="450.5,694.7441,460.5,698.7441,450.5,702.7441,454.5,698.7441" style="stroke:#181818;stroke-width:1.0;"/><line style="stroke:#181818;stroke-width:1.0;" x1="323.5" x2="456.5" y1="698.7441" y2="698.7441"/><text fill="#000000" font-family="sans-serif" font-size="13" lengthAdjust="spacing" textLength="90" x="330.5" y="694.002">workoutLoad()</text><path d="M61,679.4336 L61,704.4336 L308,704.4336 L308,689.4336 L298,679.4336 L61,679.4336 " fill="#FEFFDD" style="stroke:#181818;stroke-width:0.5;"/><path d="M298,679.4336 L298,689.4336 L308,689.4336 L298,679.4336 " fill="#FEFFDD" style="stroke:#181818;stroke-width:0.5;"/><text fill="#000000" font-family="sans-serif" font-size="13" lengthAdjust="spacing" textLength="226" x="67" y="697.002">load workouts in file to workoutList</text><polygon fill="#181818" points="1268.5,730.0547,1278.5,734.0547,1268.5,738.0547,1272.5,734.0547" style="stroke:#181818;stroke-width:1.0;"/><line style="stroke:#181818;stroke-width:1.0;" x1="472.5" x2="1274.5" y1="734.0547" y2="734.0547"/><text fill="#000000" font-family="sans-serif" font-size="13" lengthAdjust="spacing" textLength="346" x="479.5" y="729.3125">decodeWorkoutList(encodedWorkoutList: List&lt;String&gt;)</text><path d="M1295,714.7441 L1295,739.7441 L1627,739.7441 L1627,724.7441 L1617,714.7441 L1295,714.7441 " fill="#FEFFDD" style="stroke:#181818;stroke-width:0.5;"/><path d="M1617,714.7441 L1617,724.7441 L1627,724.7441 L1617,714.7441 " fill="#FEFFDD" style="stroke:#181818;stroke-width:0.5;"/><text fill="#000000" font-family="sans-serif" font-size="13" lengthAdjust="spacing" textLength="311" x="1301" y="732.3125">decode the file contents and store in WorkoutList</text><line style="stroke:#181818;stroke-width:1.0;" x1="1290.5" x2="1337.5" y1="761.3652" y2="761.3652"/><line style="stroke:#181818;stroke-width:1.0;" x1="1337.5" x2="1337.5" y1="761.3652" y2="774.3652"/><line style="stroke:#181818;stroke-width:1.0;" x1="1296.5" x2="1337.5" y1="774.3652" y2="774.3652"/><polygon fill="#181818" points="1306.5,770.3652,1296.5,774.3652,1306.5,778.3652,1302.5,774.3652" style="stroke:#181818;stroke-width:1.0;"/><text fill="#000000" font-family="sans-serif" font-size="13" lengthAdjust="spacing" textLength="309" x="1302.5" y="756.623">decodeMealsFromString(encodedWorkout: String)</text><line style="stroke:#181818;stroke-width:1.0;stroke-dasharray:2.0,2.0;" x1="1295.5" x2="1337.5" y1="813.6758" y2="813.6758"/><line style="stroke:#181818;stroke-width:1.0;stroke-dasharray:2.0,2.0;" x1="1337.5" x2="1337.5" y1="813.6758" y2="826.6758"/><line style="stroke:#181818;stroke-width:1.0;stroke-dasharray:2.0,2.0;" x1="1290.5" x2="1337.5" y1="826.6758" y2="826.6758"/><polygon fill="#181818" points="1300.5,822.6758,1290.5,826.6758,1300.5,830.6758,1296.5,826.6758" style="stroke:#181818;stroke-width:1.0;"/><text fill="#000000" font-family="sans-serif" font-size="13" lengthAdjust="spacing" textLength="57" x="1302.5" y="808.9336">:Workout</text><polygon fill="#181818" points="483.5,846.9863,473.5,850.9863,483.5,854.9863,479.5,850.9863" style="stroke:#181818;stroke-width:1.0;"/><line style="stroke:#181818;stroke-width:1.0;stroke-dasharray:2.0,2.0;" x1="477.5" x2="1284.5" y1="850.9863" y2="850.9863"/><text fill="#000000" font-family="sans-serif" font-size="13" lengthAdjust="spacing" textLength="80" x="489.5" y="846.2441">:WorkoutList</text><polygon fill="#181818" points="334.5,876.2969,324.5,880.2969,334.5,884.2969,330.5,880.2969" style="stroke:#181818;stroke-width:1.0;"/><line style="stroke:#181818;stroke-width:1.0;stroke-dasharray:2.0,2.0;" x1="328.5" x2="466.5" y1="880.2969" y2="880.2969"/><text fill="#000000" font-family="sans-serif" font-size="13" lengthAdjust="spacing" textLength="80" x="340.5" y="875.5547">:WorkoutList</text><!--SRC=[fPJDRjim3CVlUWgkfnR5-W16qTEMKmiCs8eUkXqqcqw4MAAXZnbz-rAorCXs2hHOW0GH-HS_VgJjbHyG7gGoyDFRqFfW4QZd0rcvHxWdsVqsGepIUjMgKHeF5yrE-LzMjiSBa0uqNrxvy-taTlF_fIAe1XvLyWUrklpeqFwmrAi1ls5B7Tga6_DXfNv0ETmhvskfFYzz8dkauDVggQX5x0I-tgMEuFgwuTevmENLcoEeP0xgPhJA-2SSMjB80aCUmQhzmJUGN1nsTe96vo99Jn2uCs6H6JFHlQKm0eqUdhzaHZVAvSPt_FskH__oHm1_IlwiIqLijLn75DUrj0TiZmvwibnMKaCdlOJUacOB_bCK7DXWqisvD6Z-4WqekSRtSkTOSJdgf0Fsd7DWAvnIyUsIElqm789gnkbw2SvvofnJeYxzhzINQAAbgqmDn8dUylegix_RCfXZW3_a0beo7kE4fEbIubZJfgB2uYFs1QUy8saBMC23oOZouD5qfqsheUguoJFHDSteSh7Ar03pqtdhHGLERy6LXwDGA-Srii_ZAf74MzRtAt0xnZ3dgWjfOBPTYS8qMXU7b65ZE4jloW_tUO3Pks0udLu7DSPfsqJruYWDLAR_Xra54rF5S_empnnXYpGxrkS5sDhs2W00]--></g></svg>