<?xml version="1.0" encoding="us-ascii" standalone="no"?><svg xmlns="http://www.w3.org/2000/svg" xmlns:xlink="http://www.w3.org/1999/xlink" contentStyleType="text/css" height="905px" preserveAspectRatio="none" style="width:1692px;height:905px;background:#FFFFFF;" version="1.1" viewBox="0 0 1692 905" width="1692px" zoomAndPan="magnify"><defs/><g><text fill="#000000" font-family="sans-serif" font-size="14" font-weight="bold" lengthAdjust="spacing" textLength="223" x="730.75" y="28.5352">Main Structure of Storage Load</text><text fill="#000000" font-family="sans-serif" font-size="14" font-weight="bold" lengthAdjust="spacing" textLength="5" x="839.75" y="45.0234">&#160;</text><rect fill="#FFFFFF" height="759.5215" style="stroke:#181818;stroke-width:1.0;" width="10" x="327.5" y="129.7754"/><rect fill="#9D0012" height="759.5215" style="stroke:#181818;stroke-width:1.0;" width="10" x="327.5" y="129.7754"/><rect fill="#FFFFFF" height="32.3105" style="stroke:#181818;stroke-width:1.0;" width="10" x="481.5" y="240.707"/><rect fill="#A38300" height="32.3105" style="stroke:#181818;stroke-width:1.0;" width="10" x="481.5" y="240.707"/><rect fill="#FFFFFF" height="96.9316" style="stroke:#181818;stroke-width:1.0;" width="10" x="481.5" y="305.3281"/><rect fill="#A38300" height="96.9316" style="stroke:#181818;stroke-width:1.0;" width="10" x="481.5" y="305.3281"/><rect fill="#FFFFFF" height="181.5527" style="stroke:#181818;stroke-width:1.0;" width="10" x="481.5" y="484.8809"/><rect fill="#A38300" height="181.5527" style="stroke:#181818;stroke-width:1.0;" width="10" x="481.5" y="484.8809"/><rect fill="#FFFFFF" height="181.5527" style="stroke:#181818;stroke-width:1.0;" width="10" x="481.5" y="698.7441"/><rect fill="#A38300" height="181.5527" style="stroke:#181818;stroke-width:1.0;" width="10" x="481.5" y="698.7441"/><rect fill="#FFFFFF" height="17" style="stroke:#181818;stroke-width:1.0;" width="10" x="579" y="167.0859"/><rect fill="#1D8900" height="17" style="stroke:#181818;stroke-width:1.0;" width="10" x="579" y="167.0859"/><rect fill="#FFFFFF" height="14" style="stroke:#181818;stroke-width:1.0;" width="10" x="579" y="431.5703"/><rect fill="#1D8900" height="14" style="stroke:#181818;stroke-width:1.0;" width="10" x="579" y="431.5703"/><rect fill="#FFFFFF" height="32.3105" style="stroke:#181818;stroke-width:1.0;" width="10" x="845.5" y="340.6387"/><rect fill="#FFE374" height="32.3105" style="stroke:#181818;stroke-width:1.0;" width="10" x="845.5" y="340.6387"/><rect fill="#FFFFFF" height="116.9316" style="stroke:#181818;stroke-width:1.0;" width="10" x="1015.5" y="520.1914"/><rect fill="#EDC520" height="116.9316" style="stroke:#181818;stroke-width:1.0;" width="10" x="1015.5" y="520.1914"/><rect fill="#FFFFFF" height="40.3105" style="stroke:#181818;stroke-width:1.0;" width="10" x="1025.5" y="560.502"/><rect fill="#EDC520" height="40.3105" style="stroke:#181818;stroke-width:1.0;" width="10" x="1025.5" y="560.502"/><rect fill="#FFFFFF" height="116.9316" style="stroke:#181818;stroke-width:1.0;" width="10" x="1329.5" y="734.0547"/><rect fill="#806600" height="116.9316" style="stroke:#181818;stroke-width:1.0;" width="10" x="1329.5" y="734.0547"/><rect fill="#FFFFFF" height="40.3105" style="stroke:#181818;stroke-width:1.0;" width="10" x="1339.5" y="774.3652"/><rect fill="#806600" height="40.3105" style="stroke:#181818;stroke-width:1.0;" width="10" x="1339.5" y="774.3652"/><rect fill="none" height="254.4844" style="stroke:#000000;stroke-width:1.5;" width="1189.5" x="9" y="199.0859"/><line style="stroke:#181818;stroke-width:0.5;stroke-dasharray:5.0,5.0;" x1="327" x2="327" y1="90.4648" y2="898.2969"/><line style="stroke:#181818;stroke-width:0.5;stroke-dasharray:5.0,5.0;" x1="481" x2="481" y1="90.4648" y2="898.2969"/><line style="stroke:#181818;stroke-width:0.5;stroke-dasharray:5.0,5.0;" x1="579" x2="579" y1="90.4648" y2="898.2969"/><line style="stroke:#181818;stroke-width:0.5;stroke-dasharray:5.0,5.0;" x1="845.5" x2="845.5" y1="90.4648" y2="898.2969"/><line style="stroke:#181818;stroke-width:0.5;stroke-dasharray:5.0,5.0;" x1="1015.5" x2="1015.5" y1="90.4648" y2="898.2969"/><line style="stroke:#181818;stroke-width:0.5;stroke-dasharray:5.0,5.0;" x1="1329.5" x2="1329.5" y1="90.4648" y2="898.2969"/><rect fill="#9D0012" height="30.4883" rx="2.5" ry="2.5" style="stroke:#181818;stroke-width:0.5;" width="73" x="291" y="58.9766"/><text fill="#FFFFFF" font-family="sans-serif" font-size="14" lengthAdjust="spacing" textLength="59" x="298" y="79.5117">:FitTrack</text><rect fill="#A38300" height="30.4883" rx="2.5" ry="2.5" style="stroke:#181818;stroke-width:0.5;" width="71" x="446" y="58.9766"/><text fill="#FFFFFF" font-family="sans-serif" font-size="14" lengthAdjust="spacing" textLength="57" x="453" y="79.5117">:Storage</text><rect fill="#1D8900" height="30.4883" rx="2.5" ry="2.5" style="stroke:#181818;stroke-width:0.5;" width="64" x="547" y="58.9766"/><text fill="#FFFFFF" font-family="sans-serif" font-size="14" lengthAdjust="spacing" textLength="35" x="561.5" y="79.5117">ui: Ui</text><rect fill="#FFE374" height="30.4883" rx="2.5" ry="2.5" style="stroke:#181818;stroke-width:0.5;" width="150" x="770.5" y="58.9766"/><text fill="#FFFFFF" font-family="sans-serif" font-size="14" lengthAdjust="spacing" textLength="136" x="777.5" y="79.5117">:UserProfileDecoder</text><rect fill="#EDC520" height="30.4883" rx="2.5" ry="2.5" style="stroke:#181818;stroke-width:0.5;" width="130" x="950.5" y="58.9766"/><text fill="#FFFFFF" font-family="sans-serif" font-size="14" lengthAdjust="spacing" textLength="116" x="957.5" y="79.5117">:MealListDecoder</text><rect fill="#806600" height="30.4883" rx="2.5" ry="2.5" style="stroke:#181818;stroke-width:0.5;" width="156" x="1251.5" y="58.9766"/><text fill="#FFFFFF" font-family="sans-serif" font-size="14" lengthAdjust="spacing" textLength="142" x="1258.5" y="79.5117">:WorkoutListDecoder</text><rect fill="#FFFFFF" height="759.5215" style="stroke:#181818;stroke-width:1.0;" width="10" x="327.5" y="129.7754"/><rect fill="#9D0012" height="759.5215" style="stroke:#181818;stroke-width:1.0;" width="10" x="327.5" y="129.7754"/><rect fill="#FFFFFF" height="32.3105" style="stroke:#181818;stroke-width:1.0;" width="10" x="481.5" y="240.707"/><rect fill="#A38300" height="32.3105" style="stroke:#181818;stroke-width:1.0;" width="10" x="481.5" y="240.707"/><rect fill="#FFFFFF" height="96.9316" style="stroke:#181818;stroke-width:1.0;" width="10" x="481.5" y="305.3281"/><rect fill="#A38300" height="96.9316" style="stroke:#181818;stroke-width:1.0;" width="10" x="481.5" y="305.3281"/><rect fill="#FFFFFF" height="181.5527" style="stroke:#181818;stroke-width:1.0;" width="10" x="481.5" y="484.8809"/><rect fill="#A38300" height="181.5527" style="stroke:#181818;stroke-width:1.0;" width="10" x="481.5" y="484.8809"/><rect fill="#FFFFFF" height="181.5527" style="stroke:#181818;stroke-width:1.0;" width="10" x="481.5" y="698.7441"/><rect fill="#A38300" height="181.5527" style="stroke:#181818;stroke-width:1.0;" width="10" x="481.5" y="698.7441"/><rect fill="#FFFFFF" height="17" style="stroke:#181818;stroke-width:1.0;" width="10" x="579" y="167.0859"/><rect fill="#1D8900" height="17" style="stroke:#181818;stroke-width:1.0;" width="10" x="579" y="167.0859"/><rect fill="#FFFFFF" height="14" style="stroke:#181818;stroke-width:1.0;" width="10" x="579" y="431.5703"/><rect fill="#1D8900" height="14" style="stroke:#181818;stroke-width:1.0;" width="10" x="579" y="431.5703"/><rect fill="#FFFFFF" height="32.3105" style="stroke:#181818;stroke-width:1.0;" width="10" x="845.5" y="340.6387"/><rect fill="#FFE374" height="32.3105" style="stroke:#181818;stroke-width:1.0;" width="10" x="845.5" y="340.6387"/><rect fill="#FFFFFF" height="116.9316" style="stroke:#181818;stroke-width:1.0;" width="10" x="1015.5" y="520.1914"/><rect fill="#EDC520" height="116.9316" style="stroke:#181818;stroke-width:1.0;" width="10" x="1015.5" y="520.1914"/><rect fill="#FFFFFF" height="40.3105" style="stroke:#181818;stroke-width:1.0;" width="10" x="1025.5" y="560.502"/><rect fill="#EDC520" height="40.3105" style="stroke:#181818;stroke-width:1.0;" width="10" x="1025.5" y="560.502"/><rect fill="#FFFFFF" height="116.9316" style="stroke:#181818;stroke-width:1.0;" width="10" x="1329.5" y="734.0547"/><rect fill="#806600" height="116.9316" style="stroke:#181818;stroke-width:1.0;" width="10" x="1329.5" y="734.0547"/><rect fill="#FFFFFF" height="40.3105" style="stroke:#181818;stroke-width:1.0;" width="10" x="1339.5" y="774.3652"/><rect fill="#806600" height="40.3105" style="stroke:#181818;stroke-width:1.0;" width="10" x="1339.5" y="774.3652"/><line style="stroke:#181818;stroke-width:1.0;" x1="327.5" x2="374.5" y1="116.7754" y2="116.7754"/><line style="stroke:#181818;stroke-width:1.0;" x1="374.5" x2="374.5" y1="116.7754" y2="129.7754"/><line style="stroke:#181818;stroke-width:1.0;" x1="333.5" x2="374.5" y1="129.7754" y2="129.7754"/><polygon fill="#181818" points="343.5,125.7754,333.5,129.7754,343.5,133.7754,339.5,129.7754" style="stroke:#181818;stroke-width:1.0;"/><text fill="#000000" font-family="sans-serif" font-size="13" lengthAdjust="spacing" textLength="37" x="339.5" y="112.0332">start()</text><polygon fill="#9D0012" points="567,163.0859,577,167.0859,567,171.0859,571,167.0859" style="stroke:#9D0012;stroke-width:1.0;"/><line style="stroke:#9D0012;stroke-width:1.0;" x1="337.5" x2="573" y1="167.0859" y2="167.0859"/><text fill="#000000" font-family="sans-serif" font-size="13" lengthAdjust="spacing" textLength="110" x="403.25" y="162.3438">ui.printWelcome()</text><path d="M594,147.7754 L594,172.7754 L827,172.7754 L827,157.7754 L817,147.7754 L594,147.7754 " fill="#FEFFDD" style="stroke:#181818;stroke-width:0.5;"/><path d="M817,147.7754 L817,157.7754 L827,157.7754 L817,147.7754 " fill="#FEFFDD" style="stroke:#181818;stroke-width:0.5;"/><text fill="#000000" font-family="sans-serif" font-size="13" lengthAdjust="spacing" textLength="203" x="609" y="165.3438">prints welcome message to user</text><polygon fill="#9D0012" points="348.5,180.0859,338.5,184.0859,348.5,188.0859,344.5,184.0859" style="stroke:#9D0012;stroke-width:1.0;"/><line style="stroke:#9D0012;stroke-width:1.0;stroke-dasharray:2.0,2.0;" x1="342.5" x2="578" y1="184.0859" y2="184.0859"/><path d="M9,199.0859 L80,199.0859 L80,206.3965 L70,216.3965 L9,216.3965 L9,199.0859 " fill="#EEEEEE" style="stroke:#000000;stroke-width:1.5;"/><rect fill="none" height="254.4844" style="stroke:#000000;stroke-width:1.5;" width="1189.5" x="9" y="199.0859"/><text fill="#000000" font-family="sans-serif" font-size="13" font-weight="bold" lengthAdjust="spacing" textLength="22" x="24" y="212.6543">opt</text><text fill="#000000" font-family="sans-serif" font-size="11" font-weight="bold" lengthAdjust="spacing" textLength="158" x="95" y="211.7207">[!storage.isProfileFileEmpty]</text><polygon fill="#9D0012" points="469.5,236.707,479.5,240.707,469.5,244.707,473.5,240.707" style="stroke:#9D0012;stroke-width:1.0;"/><line style="stroke:#9D0012;stroke-width:1.0;" x1="337.5" x2="475.5" y1="240.707" y2="240.707"/><text fill="#000000" font-family="sans-serif" font-size="13" lengthAdjust="spacing" textLength="120" x="349.5" y="235.9648">isProfileFileEmpty()</text><path d="M496,221.3965 L496,246.3965 L785,246.3965 L785,231.3965 L775,221.3965 L496,221.3965 " fill="#FEFFDD" style="stroke:#181818;stroke-width:0.5;"/><path d="M775,221.3965 L775,231.3965 L785,231.3965 L775,221.3965 " fill="#FEFFDD" style="stroke:#181818;stroke-width:0.5;"/><text fill="#000000" font-family="sans-serif" font-size="13" lengthAdjust="spacing" textLength="259" x="511" y="238.9648">checks for profile data from previous run</text><polygon fill="#9D0012" points="348.5,269.0176,338.5,273.0176,348.5,277.0176,344.5,273.0176" style="stroke:#9D0012;stroke-width:1.0;"/><line style="stroke:#9D0012;stroke-width:1.0;stroke-dasharray:2.0,2.0;" x1="342.5" x2="480.5" y1="273.0176" y2="273.0176"/><text fill="#000000" font-family="sans-serif" font-size="13" lengthAdjust="spacing" textLength="54" x="382.5" y="268.2754">:boolean</text><polygon fill="#9D0012" points="469.5,301.3281,479.5,305.3281,469.5,309.3281,473.5,305.3281" style="stroke:#9D0012;stroke-width:1.0;"/><line style="stroke:#9D0012;stroke-width:1.0;" x1="337.5" x2="475.5" y1="305.3281" y2="305.3281"/><text fill="#000000" font-family="sans-serif" font-size="13" lengthAdjust="spacing" textLength="79" x="370" y="300.5859">profileLoad()</text><path d="M19,286.0176 L19,311.0176 L317,311.0176 L317,296.0176 L307,286.0176 L19,286.0176 " fill="#FEFFDD" style="stroke:#181818;stroke-width:0.5;"/><path d="M307,286.0176 L307,296.0176 L317,296.0176 L307,286.0176 " fill="#FEFFDD" style="stroke:#181818;stroke-width:0.5;"/><text fill="#000000" font-family="sans-serif" font-size="13" lengthAdjust="spacing" textLength="268" x="34" y="303.5859">load file data in profile file into UserProfile</text><polygon fill="#A38300" points="833.5,336.6387,843.5,340.6387,833.5,344.6387,837.5,340.6387" style="stroke:#A38300;stroke-width:1.0;"/><line style="stroke:#A38300;stroke-width:1.0;" x1="491.5" x2="839.5" y1="340.6387" y2="340.6387"/><text fill="#000000" font-family="sans-serif" font-size="13" lengthAdjust="spacing" textLength="330" x="503.5" y="335.8965">decodeUserProfile(encodedUserProfile: List&lt;String&gt;)</text><path d="M860,321.3281 L860,346.3281 L1193,346.3281 L1193,331.3281 L1183,321.3281 L860,321.3281 " fill="#FEFFDD" style="stroke:#181818;stroke-width:0.5;"/><path d="M1183,321.3281 L1183,331.3281 L1193,331.3281 L1183,321.3281 " fill="#FEFFDD" style="stroke:#181818;stroke-width:0.5;"/><text fill="#000000" font-family="sans-serif" font-size="13" lengthAdjust="spacing" textLength="303" x="875" y="338.8965">decode the file contents and store in UserProfile</text><polygon fill="#A38300" points="502.5,368.9492,492.5,372.9492,502.5,376.9492,498.5,372.9492" style="stroke:#A38300;stroke-width:1.0;"/><line style="stroke:#A38300;stroke-width:1.0;stroke-dasharray:2.0,2.0;" x1="496.5" x2="844.5" y1="372.9492" y2="372.9492"/><text fill="#000000" font-family="sans-serif" font-size="13" lengthAdjust="spacing" textLength="72" x="632.5" y="368.207">:UserProfile</text><polygon fill="#9D0012" points="348.5,398.2598,338.5,402.2598,348.5,406.2598,344.5,402.2598" style="stroke:#9D0012;stroke-width:1.0;"/><line style="stroke:#9D0012;stroke-width:1.0;stroke-dasharray:2.0,2.0;" x1="342.5" x2="480.5" y1="402.2598" y2="402.2598"/><text fill="#000000" font-family="sans-serif" font-size="13" lengthAdjust="spacing" textLength="72" x="373.5" y="397.5176">:UserProfile</text><polygon fill="#9D0012" points="567,427.5703,577,431.5703,567,435.5703,571,431.5703" style="stroke:#9D0012;stroke-width:1.0;"/><line style="stroke:#9D0012;stroke-width:1.0;" x1="337.5" x2="573" y1="431.5703" y2="431.5703"/><text fill="#000000" font-family="sans-serif" font-size="13" lengthAdjust="spacing" textLength="83" x="416.75" y="426.8281">printPrompt()</text><polygon fill="#9D0012" points="348.5,441.5703,338.5,445.5703,348.5,449.5703,344.5,445.5703" style="stroke:#9D0012;stroke-width:1.0;"/><line style="stroke:#9D0012;stroke-width:1.0;stroke-dasharray:2.0,2.0;" x1="342.5" x2="578" y1="445.5703" y2="445.5703"/><polygon fill="#9D0012" points="469.5,480.8809,479.5,484.8809,469.5,488.8809,473.5,484.8809" style="stroke:#9D0012;stroke-width:1.0;"/><line style="stroke:#9D0012;stroke-width:1.0;" x1="337.5" x2="475.5" y1="484.8809" y2="484.8809"/><text fill="#000000" font-family="sans-serif" font-size="13" lengthAdjust="spacing" textLength="68" x="375.5" y="480.1387">mealLoad()</text><path d="M105,465.5703 L105,490.5703 L317,490.5703 L317,475.5703 L307,465.5703 L105,465.5703 " fill="#FEFFDD" style="stroke:#181818;stroke-width:0.5;"/><path d="M307,465.5703 L307,475.5703 L317,475.5703 L307,465.5703 " fill="#FEFFDD" style="stroke:#181818;stroke-width:0.5;"/><text fill="#000000" font-family="sans-serif" font-size="13" lengthAdjust="spacing" textLength="182" x="120" y="483.1387">load meals in file to mealList</text><polygon fill="#A38300" points="1003.5,516.1914,1013.5,520.1914,1003.5,524.1914,1007.5,520.1914" style="stroke:#A38300;stroke-width:1.0;"/><line style="stroke:#A38300;stroke-width:1.0;" x1="491.5" x2="1009.5" y1="520.1914" y2="520.1914"/><text fill="#000000" font-family="sans-serif" font-size="13" lengthAdjust="spacing" textLength="298" x="604.5" y="515.4492">decodeMealList(encodedMealList: List&lt;String&gt;)</text><path d="M1030,500.8809 L1030,525.8809 L1347,525.8809 L1347,510.8809 L1337,500.8809 L1030,500.8809 " fill="#FEFFDD" style="stroke:#181818;stroke-width:0.5;"/><path d="M1337,500.8809 L1337,510.8809 L1347,510.8809 L1337,500.8809 " fill="#FEFFDD" style="stroke:#181818;stroke-width:0.5;"/><text fill="#000000" font-family="sans-serif" font-size="13" lengthAdjust="spacing" textLength="287" x="1045" y="518.4492">decode the file contents and store in MealList</text><line style="stroke:#181818;stroke-width:1.0;" x1="1025.5" x2="1072.5" y1="547.502" y2="547.502"/><line style="stroke:#181818;stroke-width:1.0;" x1="1072.5" x2="1072.5" y1="547.502" y2="560.502"/><line style="stroke:#181818;stroke-width:1.0;" x1="1031.5" x2="1072.5" y1="560.502" y2="560.502"/><polygon fill="#181818" points="1041.5,556.502,1031.5,560.502,1041.5,564.502,1037.5,560.502" style="stroke:#181818;stroke-width:1.0;"/><text fill="#000000" font-family="sans-serif" font-size="13" lengthAdjust="spacing" textLength="285" x="1037.5" y="542.7598">decodeMealsFromString(encodedMeal: String)</text><line style="stroke:#181818;stroke-width:1.0;stroke-dasharray:2.0,2.0;" x1="1035.5" x2="1077.5" y1="599.8125" y2="599.8125"/><line style="stroke:#181818;stroke-width:1.0;stroke-dasharray:2.0,2.0;" x1="1077.5" x2="1077.5" y1="599.8125" y2="612.8125"/><line style="stroke:#181818;stroke-width:1.0;stroke-dasharray:2.0,2.0;" x1="1030.5" x2="1077.5" y1="612.8125" y2="612.8125"/><polygon fill="#181818" points="1040.5,608.8125,1030.5,612.8125,1040.5,616.8125,1036.5,612.8125" style="stroke:#181818;stroke-width:1.0;"/><text fill="#000000" font-family="sans-serif" font-size="13" lengthAdjust="spacing" textLength="33" x="1042.5" y="595.0703">:Meal</text><polygon fill="#A38300" points="502.5,633.123,492.5,637.123,502.5,641.123,498.5,637.123" style="stroke:#A38300;stroke-width:1.0;"/><line style="stroke:#A38300;stroke-width:1.0;stroke-dasharray:2.0,2.0;" x1="496.5" x2="1014.5" y1="637.123" y2="637.123"/><text fill="#000000" font-family="sans-serif" font-size="13" lengthAdjust="spacing" textLength="56" x="725.5" y="632.3809">:MealList</text><polygon fill="#9D0012" points="348.5,662.4336,338.5,666.4336,348.5,670.4336,344.5,666.4336" style="stroke:#9D0012;stroke-width:1.0;"/><line style="stroke:#9D0012;stroke-width:1.0;stroke-dasharray:2.0,2.0;" x1="342.5" x2="480.5" y1="666.4336" y2="666.4336"/><text fill="#000000" font-family="sans-serif" font-size="13" lengthAdjust="spacing" textLength="56" x="381.5" y="661.6914">:MealList</text><polygon fill="#9D0012" points="469.5,694.7441,479.5,698.7441,469.5,702.7441,473.5,698.7441" style="stroke:#9D0012;stroke-width:1.0;"/><line style="stroke:#9D0012;stroke-width:1.0;" x1="337.5" x2="475.5" y1="698.7441" y2="698.7441"/><text fill="#000000" font-family="sans-serif" font-size="13" lengthAdjust="spacing" textLength="90" x="364.5" y="694.002">workoutLoad()</text><path d="M61,679.4336 L61,704.4336 L317,704.4336 L317,689.4336 L307,679.4336 L61,679.4336 " fill="#FEFFDD" style="stroke:#181818;stroke-width:0.5;"/><path d="M307,679.4336 L307,689.4336 L317,689.4336 L307,679.4336 " fill="#FEFFDD" style="stroke:#181818;stroke-width:0.5;"/><text fill="#000000" font-family="sans-serif" font-size="13" lengthAdjust="spacing" textLength="226" x="76" y="697.002">load workouts in file to workoutList</text><polygon fill="#A38300" points="1317.5,730.0547,1327.5,734.0547,1317.5,738.0547,1321.5,734.0547" style="stroke:#A38300;stroke-width:1.0;"/><line style="stroke:#A38300;stroke-width:1.0;" x1="491.5" x2="1323.5" y1="734.0547" y2="734.0547"/><text fill="#000000" font-family="sans-serif" font-size="13" lengthAdjust="spacing" textLength="346" x="737.5" y="729.3125">decodeWorkoutList(encodedWorkoutList: List&lt;String&gt;)</text><path d="M1344,714.7441 L1344,739.7441 L1685,739.7441 L1685,724.7441 L1675,714.7441 L1344,714.7441 " fill="#FEFFDD" style="stroke:#181818;stroke-width:0.5;"/><path d="M1675,714.7441 L1675,724.7441 L1685,724.7441 L1675,714.7441 " fill="#FEFFDD" style="stroke:#181818;stroke-width:0.5;"/><text fill="#000000" font-family="sans-serif" font-size="13" lengthAdjust="spacing" textLength="311" x="1359" y="732.3125">decode the file contents and store in WorkoutList</text><line style="stroke:#181818;stroke-width:1.0;" x1="1339.5" x2="1386.5" y1="761.3652" y2="761.3652"/><line style="stroke:#181818;stroke-width:1.0;" x1="1386.5" x2="1386.5" y1="761.3652" y2="774.3652"/><line style="stroke:#181818;stroke-width:1.0;" x1="1345.5" x2="1386.5" y1="774.3652" y2="774.3652"/><polygon fill="#181818" points="1355.5,770.3652,1345.5,774.3652,1355.5,778.3652,1351.5,774.3652" style="stroke:#181818;stroke-width:1.0;"/><text fill="#000000" font-family="sans-serif" font-size="13" lengthAdjust="spacing" textLength="309" x="1351.5" y="756.623">decodeMealsFromString(encodedWorkout: String)</text><line style="stroke:#181818;stroke-width:1.0;stroke-dasharray:2.0,2.0;" x1="1349.5" x2="1391.5" y1="813.6758" y2="813.6758"/><line style="stroke:#181818;stroke-width:1.0;stroke-dasharray:2.0,2.0;" x1="1391.5" x2="1391.5" y1="813.6758" y2="826.6758"/><line style="stroke:#181818;stroke-width:1.0;stroke-dasharray:2.0,2.0;" x1="1344.5" x2="1391.5" y1="826.6758" y2="826.6758"/><polygon fill="#181818" points="1354.5,822.6758,1344.5,826.6758,1354.5,830.6758,1350.5,826.6758" style="stroke:#181818;stroke-width:1.0;"/><text fill="#000000" font-family="sans-serif" font-size="13" lengthAdjust="spacing" textLength="57" x="1356.5" y="808.9336">:Workout</text><polygon fill="#A38300" points="502.5,846.9863,492.5,850.9863,502.5,854.9863,498.5,850.9863" style="stroke:#A38300;stroke-width:1.0;"/><line style="stroke:#A38300;stroke-width:1.0;stroke-dasharray:2.0,2.0;" x1="496.5" x2="1328.5" y1="850.9863" y2="850.9863"/><text fill="#000000" font-family="sans-serif" font-size="13" lengthAdjust="spacing" textLength="80" x="870.5" y="846.2441">:WorkoutList</text><polygon fill="#9D0012" points="348.5,876.2969,338.5,880.2969,348.5,884.2969,344.5,880.2969" style="stroke:#9D0012;stroke-width:1.0;"/><line style="stroke:#9D0012;stroke-width:1.0;stroke-dasharray:2.0,2.0;" x1="342.5" x2="480.5" y1="880.2969" y2="880.2969"/><text fill="#000000" font-family="sans-serif" font-size="13" lengthAdjust="spacing" textLength="80" x="369.5" y="875.5547">:WorkoutList</text><!--SRC=[dLLTRzem57tthxZjKwSAf6rlqOGqhJ1D0Z6re3wmgl8I1omIE_97e_xxsOuDnf01HGAHgtlkFVUUO-U6ihpI1G6ftYioR7HT8QIegWZCC6Nmf8JEbHO4U6aUkC1h0bEEYpyCeGOBHNFQOARWDfjGjH0utzu2bb1Ry6p-C9w-_fXFvuz9hg_aKgMl-hIOFtx_EJwLhsa6I-goDONbhvCrbvA8tuANj28F9ES54GxG-8V3-g-BpmbyHd0rfLB5sBe7-oN1FdEnvLgbyBO7_XKXjv_1gDlJ_Nrcjc0gtdr2E5Vq3IjolC4Eief2BoEx3elMTDW8ojGpgN9UaxXEl336JK3GzKPbuF8Dnmu1DP7Igg0uQBD898XHdQ62H8KGMWkk6-2DWjMDrsr8fT_wn7p7TQFUNn2Opqc-GMnB-XXeU5lahkLfQzYKU99yG_AjX98BCvGh20LM64h1QnCXRvHh2K8pX-m6W-mlvnN1NIoQqhT4butW-za3SINtYfI6UcM0i6TikeK9t8zHY4FaQmSFXGUhWzA6sSxgbbhX_aVWEy9if8X26LZBVZE7dBBrA1cW_-2a0dIjG6qyxPmpHQovC2iSNJl9qHn1Y3GUYH4eN9f_NZn_NfpvJH5ZkbIt-BpiswQTp64Wh43eh4DgUwrqzZXZZTGM5YdjujnEZH5gVqEXVWVKnmu8zrgGFpodskyldjvBxthDGpEqAphe9IadHe-EJimrWovs4SFW4GkCxww0E4XmnAvDsbdihFAjVobyI7mFFj2_tRzb_cE1zdYxqUifR3OAzHgX__LrlH6YVgYDlD1Ux0LVuOGT-da68Jqsrh5DnOuPVY0l-E8V]--></g></svg>