<?xml version="1.0" encoding="us-ascii" standalone="no"?><svg xmlns="http://www.w3.org/2000/svg" xmlns:xlink="http://www.w3.org/1999/xlink" contentStyleType="text/css" height="426px" preserveAspectRatio="none" style="width:1140px;height:426px;background:#FFFFFF;" version="1.1" viewBox="0 0 1140 426" width="1140px" zoomAndPan="magnify"><defs/><g><text fill="#000000" font-family="sans-serif" font-size="14" font-weight="bold" lengthAdjust="spacing" textLength="221" x="461.25" y="28.5352">Main Structure of Storage Save</text><text fill="#000000" font-family="sans-serif" font-size="14" font-weight="bold" lengthAdjust="spacing" textLength="5" x="569.25" y="45.0234">&#160;</text><rect fill="#FFFFFF" height="276.1963" style="stroke:#181818;stroke-width:1.0;" width="10" x="245.5" y="133.9307"/><rect fill="#9D0012" height="276.1963" style="stroke:#181818;stroke-width:1.0;" width="10" x="245.5" y="133.9307"/><rect fill="#FFFFFF" height="228.7305" style="stroke:#181818;stroke-width:1.0;" width="10" x="729.5" y="172.3965"/><rect fill="#FFFFFF" height="170.4199" style="stroke:#181818;stroke-width:1.0;" width="10" x="739.5" y="209.707"/><rect fill="#A38300" height="170.4199" style="stroke:#181818;stroke-width:1.0;" width="10" x="739.5" y="209.707"/><rect fill="#FFFFFF" height="31.4883" style="stroke:#181818;stroke-width:1.0;" width="10" x="1068" y="254.0176"/><rect fill="#FFFFFF" height="14" style="stroke:#181818;stroke-width:1.0;" width="10" x="1068" y="339.127"/><rect fill="none" height="60.6211" style="stroke:#000000;stroke-width:1.5;" width="455.5" x="679" y="300.5059"/><line style="stroke:#181818;stroke-width:0.5;stroke-dasharray:5.0,5.0;" x1="245" x2="245" y1="90.4648" y2="419.127"/><line style="stroke:#181818;stroke-width:0.5;stroke-dasharray:5.0,5.0;" x1="734" x2="734" y1="90.4648" y2="419.127"/><line style="stroke:#181818;stroke-width:0.5;stroke-dasharray:5.0,5.0;" x1="1072.5" x2="1072.5" y1="253.4512" y2="419.127"/><rect fill="#9D0012" height="30.4883" rx="2.5" ry="2.5" style="stroke:#181818;stroke-width:0.5;" width="73" x="209" y="58.9766"/><text fill="#FFFFFF" font-family="sans-serif" font-size="14" lengthAdjust="spacing" textLength="59" x="216" y="79.5117">:FitTrack</text><rect fill="#A38300" height="30.4883" rx="2.5" ry="2.5" style="stroke:#181818;stroke-width:0.5;" width="71" x="699" y="58.9766"/><text fill="#FFFFFF" font-family="sans-serif" font-size="14" lengthAdjust="spacing" textLength="57" x="706" y="79.5117">:Storage</text><rect fill="#FFFFFF" height="276.1963" style="stroke:#181818;stroke-width:1.0;" width="10" x="245.5" y="133.9307"/><rect fill="#9D0012" height="276.1963" style="stroke:#181818;stroke-width:1.0;" width="10" x="245.5" y="133.9307"/><rect fill="#FFFFFF" height="228.7305" style="stroke:#181818;stroke-width:1.0;" width="10" x="729.5" y="172.3965"/><rect fill="#FFFFFF" height="170.4199" style="stroke:#181818;stroke-width:1.0;" width="10" x="739.5" y="209.707"/><rect fill="#A38300" height="170.4199" style="stroke:#181818;stroke-width:1.0;" width="10" x="739.5" y="209.707"/><rect fill="#FFFFFF" height="31.4883" style="stroke:#181818;stroke-width:1.0;" width="10" x="1068" y="254.0176"/><rect fill="#FFFFFF" height="14" style="stroke:#181818;stroke-width:1.0;" width="10" x="1068" y="339.127"/><line style="stroke:#181818;stroke-width:1.0;" x1="245.5" x2="292.5" y1="120.9307" y2="120.9307"/><line style="stroke:#181818;stroke-width:1.0;" x1="292.5" x2="292.5" y1="120.9307" y2="133.9307"/><line style="stroke:#181818;stroke-width:1.0;" x1="251.5" x2="292.5" y1="133.9307" y2="133.9307"/><polygon fill="#181818" points="261.5,129.9307,251.5,133.9307,261.5,137.9307,257.5,133.9307" style="stroke:#181818;stroke-width:1.0;"/><text fill="#000000" font-family="sans-serif" font-size="13" lengthAdjust="spacing" textLength="121" x="257.5" y="116.1885">executeCommand()</text><path d="M5,105.4648 L5,145.4648 L236,145.4648 L236,115.4648 L226,105.4648 L5,105.4648 " fill="#FEFFDD" style="stroke:#181818;stroke-width:0.5;"/><path d="M226,105.4648 L226,115.4648 L236,115.4648 L226,105.4648 " fill="#FEFFDD" style="stroke:#181818;stroke-width:0.5;"/><text fill="#000000" font-family="sans-serif" font-size="13" lengthAdjust="spacing" textLength="162" x="37.5" y="123.0332">Save data to all three files</text><text fill="#000000" font-family="sans-serif" font-size="13" lengthAdjust="spacing" textLength="197" x="24" y="138.3438">upon each command execution</text><polygon fill="#9D0012" points="717.5,168.3965,727.5,172.3965,717.5,176.3965,721.5,172.3965" style="stroke:#9D0012;stroke-width:1.0;"/><line style="stroke:#9D0012;stroke-width:1.0;" x1="255.5" x2="723.5" y1="172.3965" y2="172.3965"/><text fill="#000000" font-family="sans-serif" font-size="13" lengthAdjust="spacing" textLength="455" x="265" y="167.6543">save(userProfile:UserProfile, mealList:MealList, workoutList:WorkoutList)</text><line style="stroke:#181818;stroke-width:1.0;" x1="739.5" x2="786.5" y1="196.707" y2="196.707"/><line style="stroke:#181818;stroke-width:1.0;" x1="786.5" x2="786.5" y1="196.707" y2="209.707"/><line style="stroke:#181818;stroke-width:1.0;" x1="745.5" x2="786.5" y1="209.707" y2="209.707"/><polygon fill="#181818" points="755.5,205.707,745.5,209.707,755.5,213.707,751.5,209.707" style="stroke:#181818;stroke-width:1.0;"/><text fill="#000000" font-family="sans-serif" font-size="13" lengthAdjust="spacing" textLength="174" x="751.5" y="191.9648">saveMeal(mealList:MealList)</text><polygon fill="#A38300" points="1019.5,240.0176,1029.5,244.0176,1019.5,248.0176,1023.5,244.0176" style="stroke:#A38300;stroke-width:1.0;"/><line style="stroke:#A38300;stroke-width:1.0;" x1="749.5" x2="1025.5" y1="244.0176" y2="244.0176"/><text fill="#000000" font-family="sans-serif" font-size="13" lengthAdjust="spacing" textLength="248" x="766.5" y="239.2754">FileWriter(MEAL_LIST_FILE_PATH:String)</text><rect fill="#E2E2F0" height="30.4883" rx="2.5" ry="2.5" style="stroke:#181818;stroke-width:0.5;" width="83" x="1031.5" y="222.707"/><text fill="#FFFFFF" font-family="sans-serif" font-size="14" lengthAdjust="spacing" textLength="69" x="1038.5" y="243.2422">:FileWriter</text><polygon fill="#A38300" points="760.5,281.5059,750.5,285.5059,760.5,289.5059,756.5,285.5059" style="stroke:#A38300;stroke-width:1.0;"/><line style="stroke:#A38300;stroke-width:1.0;stroke-dasharray:2.0,2.0;" x1="754.5" x2="1072" y1="285.5059" y2="285.5059"/><text fill="#000000" font-family="sans-serif" font-size="13" lengthAdjust="spacing" textLength="83" x="869.75" y="280.7637">file:FileWriter</text><path d="M679,300.5059 L757,300.5059 L757,307.8164 L747,317.8164 L679,317.8164 L679,300.5059 " fill="#EEEEEE" style="stroke:#000000;stroke-width:1.5;"/><rect fill="none" height="60.6211" style="stroke:#000000;stroke-width:1.5;" width="455.5" x="679" y="300.5059"/><text fill="#000000" font-family="sans-serif" font-size="13" font-weight="bold" lengthAdjust="spacing" textLength="29" x="694" y="314.0742">loop</text><text fill="#000000" font-family="sans-serif" font-size="11" font-weight="bold" lengthAdjust="spacing" textLength="161" x="772" y="313.1406">[for all elements in mealArr]</text><polygon fill="#A38300" points="1056,335.127,1066,339.127,1056,343.127,1060,339.127" style="stroke:#A38300;stroke-width:1.0;"/><line style="stroke:#A38300;stroke-width:1.0;" x1="749.5" x2="1062" y1="339.127" y2="339.127"/><text fill="#000000" font-family="sans-serif" font-size="13" lengthAdjust="spacing" textLength="141" x="838.25" y="334.3848">write(m.String():String)</text><polygon fill="#A38300" points="760.5,349.127,750.5,353.127,760.5,357.127,756.5,353.127" style="stroke:#A38300;stroke-width:1.0;"/><line style="stroke:#A38300;stroke-width:1.0;stroke-dasharray:2.0,2.0;" x1="754.5" x2="1072" y1="353.127" y2="353.127"/><line style="stroke:#A80036;stroke-width:2.0;" x1="1064" x2="1082" y1="344.127" y2="362.127"/><line style="stroke:#A80036;stroke-width:2.0;" x1="1064" x2="1082" y1="362.127" y2="344.127"/><line style="stroke:#181818;stroke-width:1.0;stroke-dasharray:2.0,2.0;" x1="749.5" x2="791.5" y1="379.127" y2="379.127"/><line style="stroke:#181818;stroke-width:1.0;stroke-dasharray:2.0,2.0;" x1="791.5" x2="791.5" y1="379.127" y2="392.127"/><line style="stroke:#181818;stroke-width:1.0;stroke-dasharray:2.0,2.0;" x1="744.5" x2="791.5" y1="392.127" y2="392.127"/><polygon fill="#181818" points="754.5,388.127,744.5,392.127,754.5,396.127,750.5,392.127" style="stroke:#181818;stroke-width:1.0;"/><polygon fill="#9D0012" points="266.5,397.127,256.5,401.127,266.5,405.127,262.5,401.127" style="stroke:#9D0012;stroke-width:1.0;"/><line style="stroke:#9D0012;stroke-width:1.0;stroke-dasharray:2.0,2.0;" x1="260.5" x2="733.5" y1="401.127" y2="401.127"/><!--SRC=[ZLBDRi8m3BxdAJnEHS0Ue0SajC4sgOW9c7O0XABKGBGqgHndFs-_Dh3IZMbQJaviVpzshhHL9kG8dZyCNfUXC4AmPeCmbTh2WYae3eJWTjN5aTmZBEGhhgqGfIJMIfVICdJIYUObIVNI0UcXg9kdizjnjhsPPRFvZzeJKYprNwZBsNnqD_wrVg8DFfDcfDYoQwv2HAR1yCZOwwM0xwW2uuqh2cdpf2kaOlqg6Iz5MLUz6jnn6Zr1Bba2Ev3601y8CJ9vM5i8fRE0KXr07O5FFDhPauHL2tapR6pLadm5dWIFz4YkHaoVpd4V2fGcqvxJwIdemvkZ5nSulZwVuwuGNx23IuQwFRa0Q_d_VTAAi4wsPjfmhBvLLgREHP7rl9PaEXvbs-nXiTnE7hBnzd6qlA-sJDhkkuAm-a4sDhSsAVRaGWd6kH9MEqTnwcYmGCiUgedMLaP46m7L-RUcjpfCYkiZUT9jLDGeHoKYHy_aFjgUqUQYoVwSs1-PJm00]--></g></svg>